<svg width="54" height="18" viewBox="0 0 54 18" fill="none" xmlns="http://www.w3.org/2000/svg">
<path fill-rule="evenodd" clip-rule="evenodd" d="M0 4.75C0 4.33579 0.335786 4 0.75 4H14.75C15.1642 4 15.5 4.33579 15.5 4.75C15.5 5.16421 15.1642 5.5 14.75 5.5H0.75C0.335786 5.5 0 5.16421 0 4.75ZM0 10.75C0 10.3358 0.335786 10 0.75 10H20.75C21.1642 10 21.5 10.3358 21.5 10.75C21.5 11.1642 21.1642 11.5 20.75 11.5H0.75C0.335786 11.5 0 11.1642 0 10.75ZM0 16.75C0 16.3358 0.335786 16 0.75 16H22.75C23.1642 16 23.5 16.3358 23.5 16.75C23.5 17.1642 23.1642 17.5 22.75 17.5H0.75C0.335786 17.5 0 17.1642 0 16.75Z" fill="white"/>
<circle cx="21.5" cy="4.5" r="2.5" fill="white"/>
<path fill-rule="evenodd" clip-rule="evenodd" d="M39.2173 3.22204C39.5089 2.92784 39.9838 2.92573 40.278 3.21731L42.0727 4.99609C42.7487 5.66604 43.3011 6.21359 43.6929 6.70146C44.1004 7.20878 44.3953 7.72372 44.4741 8.34184C44.5086 8.61286 44.5086 8.88714 44.4741 9.15816C44.3953 9.77628 44.1004 10.2912 43.6929 10.7985C43.3011 11.2864 42.7487 11.834 42.0727 12.5039L40.278 14.2827C39.9838 14.5743 39.5089 14.5722 39.2173 14.278C38.9257 13.9838 38.9278 13.5089 39.222 13.2173L40.985 11.47C41.7005 10.7609 42.1913 10.2728 42.5234 9.85929C42.846 9.4576 42.9567 9.19958 42.9861 8.9685C43.0046 8.82341 43.0046 8.67659 42.9861 8.5315C42.9567 8.30042 42.846 8.0424 42.5234 7.64071C42.1913 7.22718 41.7005 6.73914 40.985 6.03L39.222 4.28269C38.9278 3.99111 38.9257 3.51624 39.2173 3.22204Z" fill="white"/>
</svg>
