<svg width="63" height="24" viewBox="0 0 63 24" fill="none" xmlns="http://www.w3.org/2000/svg">
<path d="M10.5 20.0502C10.3541 20.0502 10.2082 20.0016 10.0861 19.9045C9.71557 19.6083 1 14.4881 1 8.57982C1 5.47579 3.43539 2.9502 6.42857 2.9502C9.42175 2.9502 11.45 5.54616 11.45 8.65019C11.45 9.12519 11.0926 9.60019 10.5 9.60019C9.90742 9.60019 9.55 9.12519 9.55 8.65019C9.55 6.32164 8.67396 4.8502 6.42857 4.8502C4.18318 4.8502 2.9 6.25127 2.9 8.57982C2.9 13.1307 8.78796 16.6963 10.5 18.1502C12.2114 16.6963 18.1 13.1257 18.1 8.57982C18.1 6.25127 16.8168 4.8502 14.5714 4.8502C13.9641 4.8502 13.3799 4.98531 12.835 5.25131C12.4957 5.41738 11.7331 5.47479 11.45 4.8502C11.1918 4.28046 11.9175 3.65179 12.2561 3.48571C12.9836 3.13034 13.7626 2.9502 14.5714 2.9502C17.5646 2.9502 20 5.47579 20 8.57982C20 14.4881 11.2844 19.6083 10.9139 19.9045C10.7918 20.0016 10.6459 20.0502 10.5 20.0502Z" fill="#8D94A3"/>
<g opacity="0.8">
<path d="M31.5 20.0502C31.3541 20.0502 31.2082 20.0016 31.0861 19.9045C30.7156 19.6083 22 14.4881 22 8.57982C22 5.47579 24.4354 2.9502 27.4286 2.9502C30.4217 2.9502 32.45 5.54616 32.45 8.65019C32.45 9.12519 32.0926 9.60019 31.5 9.60019C30.9074 9.60019 30.55 9.12519 30.55 8.65019C30.55 6.32164 29.674 4.8502 27.4286 4.8502C25.1832 4.8502 23.9 6.25127 23.9 8.57982C23.9 13.1307 29.788 16.6963 31.5 18.1502C33.2114 16.6963 39.1 13.1257 39.1 8.57982C39.1 6.25127 37.8168 4.8502 35.5714 4.8502C34.9641 4.8502 34.3799 4.98531 33.835 5.25131C33.4957 5.41738 32.7331 5.47479 32.45 4.8502C32.1918 4.28046 32.9175 3.65179 33.2561 3.48571C33.9836 3.13034 34.7626 2.9502 35.5714 2.9502C38.5646 2.9502 41 5.47579 41 8.57982C41 14.4881 32.2844 19.6083 31.9139 19.9045C31.7918 20.0016 31.6459 20.0502 31.5 20.0502Z" fill="#0061B2"/>
</g>
<path d="M53.5 20.0502C53.3541 20.0502 53.2082 20.0016 53.0861 19.9045C52.7156 19.6083 44 14.4881 44 8.57982C44 5.47579 46.4354 2.9502 49.4286 2.9502C52.4217 2.9502 54.45 5.54616 54.45 8.65019C54.45 9.12519 54.0926 9.60019 53.5 9.60019C52.9074 9.60019 52.55 9.12519 52.55 8.65019C52.55 6.32164 51.674 4.8502 49.4286 4.8502C47.1832 4.8502 45.9 6.25127 45.9 8.57982C45.9 13.1307 51.788 16.6963 53.5 18.1502C55.2114 16.6963 61.1 13.1257 61.1 8.57982C61.1 6.25127 59.8168 4.8502 57.5714 4.8502C56.9641 4.8502 56.3799 4.98531 55.835 5.25131C55.4957 5.41738 54.7331 5.47479 54.45 4.8502C54.1918 4.28046 54.9175 3.65179 55.2561 3.48571C55.9836 3.13034 56.7626 2.9502 57.5714 2.9502C60.5646 2.9502 63 5.47579 63 8.57982C63 14.4881 54.2844 19.6083 53.9139 19.9045C53.7918 20.0016 53.6459 20.0502 53.5 20.0502Z" fill="#0061B2"/>
</svg>
