<svg width="90" height="40" viewBox="0 0 90 40" fill="none" xmlns="http://www.w3.org/2000/svg">
<path fill-rule="evenodd" clip-rule="evenodd" d="M8.30233 2.25581C7.72435 2.25581 7.25581 2.72435 7.25581 3.30233C7.25581 3.8803 7.72435 4.34884 8.30233 4.34884C8.8803 4.34884 9.34884 3.8803 9.34884 3.30233C9.34884 2.72435 8.8803 2.25581 8.30233 2.25581ZM6 3.30233C6 2.03079 7.03079 1 8.30233 1C9.57387 1 10.6047 2.03079 10.6047 3.30233C10.6047 4.57386 9.57387 5.60465 8.30233 5.60465C7.03079 5.60465 6 4.57386 6 3.30233ZM15 2.25581C14.422 2.25581 13.9535 2.72435 13.9535 3.30233C13.9535 3.8803 14.422 4.34884 15 4.34884C15.578 4.34884 16.0465 3.8803 16.0465 3.30233C16.0465 2.72435 15.578 2.25581 15 2.25581ZM12.6977 3.30233C12.6977 2.03079 13.7285 1 15 1C16.2715 1 17.3023 2.03079 17.3023 3.30233C17.3023 4.57386 16.2715 5.60465 15 5.60465C13.7285 5.60465 12.6977 4.57386 12.6977 3.30233ZM21.6977 2.25581C21.1197 2.25581 20.6512 2.72435 20.6512 3.30233C20.6512 3.8803 21.1197 4.34884 21.6977 4.34884C22.2757 4.34884 22.7442 3.8803 22.7442 3.30233C22.7442 2.72435 22.2757 2.25581 21.6977 2.25581ZM19.3954 3.30233C19.3954 2.03079 20.4261 1 21.6977 1C22.9692 1 24 2.03079 24 3.30233C24 4.57386 22.9692 5.60465 21.6977 5.60465C20.4261 5.60465 19.3954 4.57386 19.3954 3.30233ZM8.30233 8.95349C7.72435 8.95349 7.25581 9.42203 7.25581 10C7.25581 10.578 7.72435 11.0465 8.30233 11.0465C8.8803 11.0465 9.34884 10.578 9.34884 10C9.34884 9.42203 8.8803 8.95349 8.30233 8.95349ZM6 10C6 8.72846 7.03079 7.69767 8.30233 7.69767C9.57387 7.69767 10.6047 8.72846 10.6047 10C10.6047 11.2715 9.57387 12.3023 8.30233 12.3023C7.03079 12.3023 6 11.2715 6 10ZM15 8.95349C14.422 8.95349 13.9535 9.42203 13.9535 10C13.9535 10.578 14.422 11.0465 15 11.0465C15.578 11.0465 16.0465 10.578 16.0465 10C16.0465 9.42203 15.578 8.95349 15 8.95349ZM12.6977 10C12.6977 8.72846 13.7285 7.69767 15 7.69767C16.2715 7.69767 17.3023 8.72846 17.3023 10C17.3023 11.2715 16.2715 12.3023 15 12.3023C13.7285 12.3023 12.6977 11.2715 12.6977 10ZM21.6977 8.95349C21.1197 8.95349 20.6512 9.42203 20.6512 10C20.6512 10.578 21.1197 11.0465 21.6977 11.0465C22.2757 11.0465 22.7442 10.578 22.7442 10C22.7442 9.42203 22.2757 8.95349 21.6977 8.95349ZM19.3954 10C19.3954 8.72846 20.4261 7.69767 21.6977 7.69767C22.9692 7.69767 24 8.72846 24 10C24 11.2715 22.9692 12.3023 21.6977 12.3023C20.4261 12.3023 19.3954 11.2715 19.3954 10ZM8.30233 15.6512C7.72435 15.6512 7.25581 16.1197 7.25581 16.6977C7.25581 17.2756 7.72435 17.7442 8.30233 17.7442C8.8803 17.7442 9.34884 17.2756 9.34884 16.6977C9.34884 16.1197 8.8803 15.6512 8.30233 15.6512ZM6 16.6977C6 15.4261 7.03079 14.3953 8.30233 14.3953C9.57387 14.3953 10.6047 15.4261 10.6047 16.6977C10.6047 17.9692 9.57386 19 8.30233 19C7.03079 19 6 17.9692 6 16.6977ZM15 15.6512C14.422 15.6512 13.9535 16.1197 13.9535 16.6977C13.9535 17.2756 14.422 17.7442 15 17.7442C15.578 17.7442 16.0465 17.2756 16.0465 16.6977C16.0465 16.1197 15.578 15.6512 15 15.6512ZM12.6977 16.6977C12.6977 15.4261 13.7285 14.3953 15 14.3953C16.2715 14.3953 17.3023 15.4261 17.3023 16.6977C17.3023 17.9692 16.2715 19 15 19C13.7285 19 12.6977 17.9692 12.6977 16.6977ZM21.6977 15.6512C21.1197 15.6512 20.6512 16.1197 20.6512 16.6977C20.6512 17.2756 21.1197 17.7442 21.6977 17.7442C22.2757 17.7442 22.7442 17.2756 22.7442 16.6977C22.7442 16.1197 22.2757 15.6512 21.6977 15.6512ZM19.3954 16.6977C19.3954 15.4261 20.4261 14.3953 21.6977 14.3953C22.9692 14.3953 24 15.4261 24 16.6977C24 17.9692 22.9692 19 21.6977 19C20.4261 19 19.3954 17.9692 19.3954 16.6977Z" fill="#747F94"/>
<path fill-rule="evenodd" clip-rule="evenodd" d="M38.3023 2.25581C37.7244 2.25581 37.2558 2.72435 37.2558 3.30233C37.2558 3.8803 37.7244 4.34884 38.3023 4.34884C38.8803 4.34884 39.3488 3.8803 39.3488 3.30233C39.3488 2.72435 38.8803 2.25581 38.3023 2.25581ZM36 3.30233C36 2.03079 37.0308 1 38.3023 1C39.5739 1 40.6047 2.03079 40.6047 3.30233C40.6047 4.57386 39.5739 5.60465 38.3023 5.60465C37.0308 5.60465 36 4.57386 36 3.30233ZM45 2.25581C44.422 2.25581 43.9535 2.72435 43.9535 3.30233C43.9535 3.8803 44.422 4.34884 45 4.34884C45.578 4.34884 46.0465 3.8803 46.0465 3.30233C46.0465 2.72435 45.578 2.25581 45 2.25581ZM42.6977 3.30233C42.6977 2.03079 43.7285 1 45 1C46.2715 1 47.3023 2.03079 47.3023 3.30233C47.3023 4.57386 46.2715 5.60465 45 5.60465C43.7285 5.60465 42.6977 4.57386 42.6977 3.30233ZM51.6977 2.25581C51.1197 2.25581 50.6512 2.72435 50.6512 3.30233C50.6512 3.8803 51.1197 4.34884 51.6977 4.34884C52.2757 4.34884 52.7442 3.8803 52.7442 3.30233C52.7442 2.72435 52.2757 2.25581 51.6977 2.25581ZM49.3954 3.30233C49.3954 2.03079 50.4261 1 51.6977 1C52.9692 1 54 2.03079 54 3.30233C54 4.57386 52.9692 5.60465 51.6977 5.60465C50.4261 5.60465 49.3954 4.57386 49.3954 3.30233ZM38.3023 8.95349C37.7244 8.95349 37.2558 9.42203 37.2558 10C37.2558 10.578 37.7244 11.0465 38.3023 11.0465C38.8803 11.0465 39.3488 10.578 39.3488 10C39.3488 9.42203 38.8803 8.95349 38.3023 8.95349ZM36 10C36 8.72846 37.0308 7.69767 38.3023 7.69767C39.5739 7.69767 40.6047 8.72846 40.6047 10C40.6047 11.2715 39.5739 12.3023 38.3023 12.3023C37.0308 12.3023 36 11.2715 36 10ZM45 8.95349C44.422 8.95349 43.9535 9.42203 43.9535 10C43.9535 10.578 44.422 11.0465 45 11.0465C45.578 11.0465 46.0465 10.578 46.0465 10C46.0465 9.42203 45.578 8.95349 45 8.95349ZM42.6977 10C42.6977 8.72846 43.7285 7.69767 45 7.69767C46.2715 7.69767 47.3023 8.72846 47.3023 10C47.3023 11.2715 46.2715 12.3023 45 12.3023C43.7285 12.3023 42.6977 11.2715 42.6977 10ZM51.6977 8.95349C51.1197 8.95349 50.6512 9.42203 50.6512 10C50.6512 10.578 51.1197 11.0465 51.6977 11.0465C52.2757 11.0465 52.7442 10.578 52.7442 10C52.7442 9.42203 52.2757 8.95349 51.6977 8.95349ZM49.3954 10C49.3954 8.72846 50.4261 7.69767 51.6977 7.69767C52.9692 7.69767 54 8.72846 54 10C54 11.2715 52.9692 12.3023 51.6977 12.3023C50.4261 12.3023 49.3954 11.2715 49.3954 10ZM38.3023 15.6512C37.7244 15.6512 37.2558 16.1197 37.2558 16.6977C37.2558 17.2756 37.7244 17.7442 38.3023 17.7442C38.8803 17.7442 39.3488 17.2756 39.3488 16.6977C39.3488 16.1197 38.8803 15.6512 38.3023 15.6512ZM36 16.6977C36 15.4261 37.0308 14.3953 38.3023 14.3953C39.5739 14.3953 40.6047 15.4261 40.6047 16.6977C40.6047 17.9692 39.5739 19 38.3023 19C37.0308 19 36 17.9692 36 16.6977ZM45 15.6512C44.422 15.6512 43.9535 16.1197 43.9535 16.6977C43.9535 17.2756 44.422 17.7442 45 17.7442C45.578 17.7442 46.0465 17.2756 46.0465 16.6977C46.0465 16.1197 45.578 15.6512 45 15.6512ZM42.6977 16.6977C42.6977 15.4261 43.7285 14.3953 45 14.3953C46.2715 14.3953 47.3023 15.4261 47.3023 16.6977C47.3023 17.9692 46.2715 19 45 19C43.7285 19 42.6977 17.9692 42.6977 16.6977ZM51.6977 15.6512C51.1197 15.6512 50.6512 16.1197 50.6512 16.6977C50.6512 17.2756 51.1197 17.7442 51.6977 17.7442C52.2757 17.7442 52.7442 17.2756 52.7442 16.6977C52.7442 16.1197 52.2757 15.6512 51.6977 15.6512ZM49.3954 16.6977C49.3954 15.4261 50.4261 14.3953 51.6977 14.3953C52.9692 14.3953 54 15.4261 54 16.6977C54 17.9692 52.9692 19 51.6977 19C50.4261 19 49.3954 17.9692 49.3954 16.6977Z" fill="#AAB0B9"/>
<path fill-rule="evenodd" clip-rule="evenodd" d="M68.3023 2.25581C67.7244 2.25581 67.2558 2.72435 67.2558 3.30233C67.2558 3.8803 67.7244 4.34884 68.3023 4.34884C68.8803 4.34884 69.3488 3.8803 69.3488 3.30233C69.3488 2.72435 68.8803 2.25581 68.3023 2.25581ZM66 3.30233C66 2.03079 67.0308 1 68.3023 1C69.5739 1 70.6047 2.03079 70.6047 3.30233C70.6047 4.57386 69.5739 5.60465 68.3023 5.60465C67.0308 5.60465 66 4.57386 66 3.30233ZM75 2.25581C74.422 2.25581 73.9535 2.72435 73.9535 3.30233C73.9535 3.8803 74.422 4.34884 75 4.34884C75.578 4.34884 76.0465 3.8803 76.0465 3.30233C76.0465 2.72435 75.578 2.25581 75 2.25581ZM72.6977 3.30233C72.6977 2.03079 73.7285 1 75 1C76.2715 1 77.3023 2.03079 77.3023 3.30233C77.3023 4.57386 76.2715 5.60465 75 5.60465C73.7285 5.60465 72.6977 4.57386 72.6977 3.30233ZM81.6977 2.25581C81.1197 2.25581 80.6512 2.72435 80.6512 3.30233C80.6512 3.8803 81.1197 4.34884 81.6977 4.34884C82.2757 4.34884 82.7442 3.8803 82.7442 3.30233C82.7442 2.72435 82.2757 2.25581 81.6977 2.25581ZM79.3954 3.30233C79.3954 2.03079 80.4261 1 81.6977 1C82.9692 1 84 2.03079 84 3.30233C84 4.57386 82.9692 5.60465 81.6977 5.60465C80.4261 5.60465 79.3954 4.57386 79.3954 3.30233ZM68.3023 8.95349C67.7244 8.95349 67.2558 9.42203 67.2558 10C67.2558 10.578 67.7244 11.0465 68.3023 11.0465C68.8803 11.0465 69.3488 10.578 69.3488 10C69.3488 9.42203 68.8803 8.95349 68.3023 8.95349ZM66 10C66 8.72846 67.0308 7.69767 68.3023 7.69767C69.5739 7.69767 70.6047 8.72846 70.6047 10C70.6047 11.2715 69.5739 12.3023 68.3023 12.3023C67.0308 12.3023 66 11.2715 66 10ZM75 8.95349C74.422 8.95349 73.9535 9.42203 73.9535 10C73.9535 10.578 74.422 11.0465 75 11.0465C75.578 11.0465 76.0465 10.578 76.0465 10C76.0465 9.42203 75.578 8.95349 75 8.95349ZM72.6977 10C72.6977 8.72846 73.7285 7.69767 75 7.69767C76.2715 7.69767 77.3023 8.72846 77.3023 10C77.3023 11.2715 76.2715 12.3023 75 12.3023C73.7285 12.3023 72.6977 11.2715 72.6977 10ZM81.6977 8.95349C81.1197 8.95349 80.6512 9.42203 80.6512 10C80.6512 10.578 81.1197 11.0465 81.6977 11.0465C82.2757 11.0465 82.7442 10.578 82.7442 10C82.7442 9.42203 82.2757 8.95349 81.6977 8.95349ZM79.3954 10C79.3954 8.72846 80.4261 7.69767 81.6977 7.69767C82.9692 7.69767 84 8.72846 84 10C84 11.2715 82.9692 12.3023 81.6977 12.3023C80.4261 12.3023 79.3954 11.2715 79.3954 10ZM68.3023 15.6512C67.7244 15.6512 67.2558 16.1197 67.2558 16.6977C67.2558 17.2756 67.7244 17.7442 68.3023 17.7442C68.8803 17.7442 69.3488 17.2756 69.3488 16.6977C69.3488 16.1197 68.8803 15.6512 68.3023 15.6512ZM66 16.6977C66 15.4261 67.0308 14.3953 68.3023 14.3953C69.5739 14.3953 70.6047 15.4261 70.6047 16.6977C70.6047 17.9692 69.5739 19 68.3023 19C67.0308 19 66 17.9692 66 16.6977ZM75 15.6512C74.422 15.6512 73.9535 16.1197 73.9535 16.6977C73.9535 17.2756 74.422 17.7442 75 17.7442C75.578 17.7442 76.0465 17.2756 76.0465 16.6977C76.0465 16.1197 75.578 15.6512 75 15.6512ZM72.6977 16.6977C72.6977 15.4261 73.7285 14.3953 75 14.3953C76.2715 14.3953 77.3023 15.4261 77.3023 16.6977C77.3023 17.9692 76.2715 19 75 19C73.7285 19 72.6977 17.9692 72.6977 16.6977ZM81.6977 15.6512C81.1197 15.6512 80.6512 16.1197 80.6512 16.6977C80.6512 17.2756 81.1197 17.7442 81.6977 17.7442C82.2757 17.7442 82.7442 17.2756 82.7442 16.6977C82.7442 16.1197 82.2757 15.6512 81.6977 15.6512ZM79.3954 16.6977C79.3954 15.4261 80.4261 14.3953 81.6977 14.3953C82.9692 14.3953 84 15.4261 84 16.6977C84 17.9692 82.9692 19 81.6977 19C80.4261 19 79.3954 17.9692 79.3954 16.6977Z" fill="#934F41"/>
<path fill-rule="evenodd" clip-rule="evenodd" d="M5 25.5556C5 24.6964 5.6924 24 6.54651 24H8.31395C9.16807 24 9.86047 24.6964 9.86047 25.5556V27.3333C9.86047 28.1924 9.16807 28.8889 8.31395 28.8889H6.54651C5.6924 28.8889 5 28.1924 5 27.3333V25.5556ZM6.54651 25.3333C6.4245 25.3333 6.32558 25.4328 6.32558 25.5556V27.3333C6.32558 27.4561 6.4245 27.5556 6.54651 27.5556H8.31395C8.43597 27.5556 8.53488 27.4561 8.53488 27.3333V25.5556C8.53488 25.4328 8.43597 25.3333 8.31395 25.3333H6.54651ZM12.0698 24.6667C12.0698 24.2985 12.3665 24 12.7326 24H18.0349C18.4009 24 18.6977 24.2985 18.6977 24.6667C18.6977 25.0349 18.4009 25.3333 18.0349 25.3333H12.7326C12.3665 25.3333 12.0698 25.0349 12.0698 24.6667ZM12.0698 28.2222C12.0698 27.854 12.3665 27.5556 12.7326 27.5556H23.3372C23.7033 27.5556 24 27.854 24 28.2222C24 28.5904 23.7033 28.8889 23.3372 28.8889H12.7326C12.3665 28.8889 12.0698 28.5904 12.0698 28.2222ZM5 32.6667C5 31.8076 5.6924 31.1111 6.54651 31.1111H8.31395C9.16807 31.1111 9.86047 31.8076 9.86047 32.6667V34.4444C9.86047 35.3036 9.16807 36 8.31395 36H6.54651C5.6924 36 5 35.3036 5 34.4444V32.6667ZM6.54651 32.4444C6.4245 32.4444 6.32558 32.5439 6.32558 32.6667V34.4444C6.32558 34.5672 6.4245 34.6667 6.54651 34.6667H8.31395C8.43597 34.6667 8.53488 34.5672 8.53488 34.4444V32.6667C8.53488 32.5439 8.43597 32.4444 8.31395 32.4444H6.54651ZM12.0698 31.7778C12.0698 31.4096 12.3665 31.1111 12.7326 31.1111H18.0349C18.4009 31.1111 18.6977 31.4096 18.6977 31.7778C18.6977 32.146 18.4009 32.4444 18.0349 32.4444H12.7326C12.3665 32.4444 12.0698 32.146 12.0698 31.7778ZM12.0698 35.3333C12.0698 34.9651 12.3665 34.6667 12.7326 34.6667H23.3372C23.7033 34.6667 24 34.9651 24 35.3333C24 35.7015 23.7033 36 23.3372 36H12.7326C12.3665 36 12.0698 35.7015 12.0698 35.3333Z" fill="#747F94"/>
<path fill-rule="evenodd" clip-rule="evenodd" d="M35 25.5556C35 24.6964 35.6924 24 36.5465 24H38.314C39.1681 24 39.8605 24.6964 39.8605 25.5556V27.3333C39.8605 28.1924 39.1681 28.8889 38.314 28.8889H36.5465C35.6924 28.8889 35 28.1924 35 27.3333V25.5556ZM36.5465 25.3333C36.4245 25.3333 36.3256 25.4328 36.3256 25.5556V27.3333C36.3256 27.4561 36.4245 27.5556 36.5465 27.5556H38.314C38.436 27.5556 38.5349 27.4561 38.5349 27.3333V25.5556C38.5349 25.4328 38.436 25.3333 38.314 25.3333H36.5465ZM42.0698 24.6667C42.0698 24.2985 42.3665 24 42.7326 24H48.0349C48.4009 24 48.6977 24.2985 48.6977 24.6667C48.6977 25.0349 48.4009 25.3333 48.0349 25.3333H42.7326C42.3665 25.3333 42.0698 25.0349 42.0698 24.6667ZM42.0698 28.2222C42.0698 27.854 42.3665 27.5556 42.7326 27.5556H53.3372C53.7033 27.5556 54 27.854 54 28.2222C54 28.5904 53.7033 28.8889 53.3372 28.8889H42.7326C42.3665 28.8889 42.0698 28.5904 42.0698 28.2222ZM35 32.6667C35 31.8076 35.6924 31.1111 36.5465 31.1111H38.314C39.1681 31.1111 39.8605 31.8076 39.8605 32.6667V34.4444C39.8605 35.3036 39.1681 36 38.314 36H36.5465C35.6924 36 35 35.3036 35 34.4444V32.6667ZM36.5465 32.4444C36.4245 32.4444 36.3256 32.5439 36.3256 32.6667V34.4444C36.3256 34.5672 36.4245 34.6667 36.5465 34.6667H38.314C38.436 34.6667 38.5349 34.5672 38.5349 34.4444V32.6667C38.5349 32.5439 38.436 32.4444 38.314 32.4444H36.5465ZM42.0698 31.7778C42.0698 31.4096 42.3665 31.1111 42.7326 31.1111H48.0349C48.4009 31.1111 48.6977 31.4096 48.6977 31.7778C48.6977 32.146 48.4009 32.4444 48.0349 32.4444H42.7326C42.3665 32.4444 42.0698 32.146 42.0698 31.7778ZM42.0698 35.3333C42.0698 34.9651 42.3665 34.6667 42.7326 34.6667H53.3372C53.7033 34.6667 54 34.9651 54 35.3333C54 35.7015 53.7033 36 53.3372 36H42.7326C42.3665 36 42.0698 35.7015 42.0698 35.3333Z" fill="#AAB0B9"/>
<path fill-rule="evenodd" clip-rule="evenodd" d="M65 25.5556C65 24.6964 65.6924 24 66.5465 24H68.314C69.1681 24 69.8605 24.6964 69.8605 25.5556V27.3333C69.8605 28.1924 69.1681 28.8889 68.314 28.8889H66.5465C65.6924 28.8889 65 28.1924 65 27.3333V25.5556ZM66.5465 25.3333C66.4245 25.3333 66.3256 25.4328 66.3256 25.5556V27.3333C66.3256 27.4561 66.4245 27.5556 66.5465 27.5556H68.314C68.436 27.5556 68.5349 27.4561 68.5349 27.3333V25.5556C68.5349 25.4328 68.436 25.3333 68.314 25.3333H66.5465ZM72.0698 24.6667C72.0698 24.2985 72.3665 24 72.7326 24H78.0349C78.4009 24 78.6977 24.2985 78.6977 24.6667C78.6977 25.0349 78.4009 25.3333 78.0349 25.3333H72.7326C72.3665 25.3333 72.0698 25.0349 72.0698 24.6667ZM72.0698 28.2222C72.0698 27.854 72.3665 27.5556 72.7326 27.5556H83.3372C83.7033 27.5556 84 27.854 84 28.2222C84 28.5904 83.7033 28.8889 83.3372 28.8889H72.7326C72.3665 28.8889 72.0698 28.5904 72.0698 28.2222ZM65 32.6667C65 31.8076 65.6924 31.1111 66.5465 31.1111H68.314C69.1681 31.1111 69.8605 31.8076 69.8605 32.6667V34.4444C69.8605 35.3036 69.1681 36 68.314 36H66.5465C65.6924 36 65 35.3036 65 34.4444V32.6667ZM66.5465 32.4444C66.4245 32.4444 66.3256 32.5439 66.3256 32.6667V34.4444C66.3256 34.5672 66.4245 34.6667 66.5465 34.6667H68.314C68.436 34.6667 68.5349 34.5672 68.5349 34.4444V32.6667C68.5349 32.5439 68.436 32.4444 68.314 32.4444H66.5465ZM72.0698 31.7778C72.0698 31.4096 72.3665 31.1111 72.7326 31.1111H78.0349C78.4009 31.1111 78.6977 31.4096 78.6977 31.7778C78.6977 32.146 78.4009 32.4444 78.0349 32.4444H72.7326C72.3665 32.4444 72.0698 32.146 72.0698 31.7778ZM72.0698 35.3333C72.0698 34.9651 72.3665 34.6667 72.7326 34.6667H83.3372C83.7033 34.6667 84 34.9651 84 35.3333C84 35.7015 83.7033 36 83.3372 36H72.7326C72.3665 36 72.0698 35.7015 72.0698 35.3333Z" fill="#934F41"/>
</svg>
