<svg width="17" height="16" viewBox="0 0 17 16" fill="none" xmlns="http://www.w3.org/2000/svg">
<path d="M2 14C2 15.1046 2.89543 16 4 16H13C14.1046 16 15 15.1046 15 14V6.48C15 5.37543 14.1046 4.48 13 4.48H4C2.89543 4.48 2 5.37543 2 6.48V14ZM5.3 14.72C4.19543 14.72 3.3 13.8246 3.3 12.72V7.76C3.3 6.65543 4.19543 5.76 5.3 5.76H11.7C12.8046 5.76 13.7 6.65543 13.7 7.76V12.72C13.7 13.8246 12.8046 14.72 11.7 14.72H5.3ZM5.25 6.39C5.25 6.74899 5.54101 7.04 5.9 7.04V7.04C6.25898 7.04 6.55 6.74899 6.55 6.39V3.3536C6.55 2.0992 7.304 1.2928 8.5 1.28C9.696 1.2672 10.45 2.0608 10.45 3.3536V6.39C10.45 6.74899 10.741 7.04 11.1 7.04V7.04C11.459 7.04 11.75 6.74899 11.75 6.39V3.3536C11.75 1.3312 10.502 0.0384 8.5 0C6.498 0.0384 5.25 1.3312 5.25 3.3536V6.39Z" fill="white"/>
</svg>
