<svg width="8" height="13" viewBox="0 0 8 13" fill="none" xmlns="http://www.w3.org/2000/svg">
<path fill-rule="evenodd" clip-rule="evenodd" d="M1.70684 2.0971C1.21256 2.73115 1 3.49804 1 4C1 6.16241 1.60219 8.2137 2.32576 9.72113C2.68765 10.4751 3.07252 11.0775 3.41371 11.4826C3.58495 11.686 3.7349 11.8273 3.85472 11.9136C3.92669 11.9655 3.97238 11.9864 3.99402 11.9948C4.01435 11.9853 4.05757 11.9623 4.12572 11.9079C4.24757 11.8108 4.39973 11.6526 4.57339 11.4283C4.919 10.9819 5.30689 10.3294 5.67102 9.54047C6.40069 7.95953 7 5.90711 7 4C7 3.35003 6.78075 2.59106 6.30052 2.00412C5.83306 1.43278 5.10015 1 4 1C2.92314 1 2.18695 1.48123 1.70684 2.0971ZM0.918164 1.48229C1.56305 0.655032 2.57686 0 4 0C5.39985 0 6.41694 0.567223 7.07448 1.37088C7.71925 2.15894 8 3.14997 8 4C8 6.09289 7.34931 8.29047 6.57898 9.95953C6.19311 10.7956 5.7685 11.5181 5.36411 12.0405C5.16277 12.3005 4.95555 12.5252 4.74928 12.6897C4.55772 12.8425 4.29733 13 4 13C3.72041 13 3.46749 12.8671 3.27028 12.7251C3.06197 12.575 2.85255 12.3687 2.64879 12.1268C2.23998 11.6413 1.81235 10.9624 1.42424 10.1539C0.647809 8.5363 0 6.33759 0 4C0 3.27447 0.287439 2.29137 0.918164 1.48229Z" fill="white"/>
<path fill-rule="evenodd" clip-rule="evenodd" d="M3 4C3 4.55228 3.44772 5 4 5C4.55228 5 5 4.55228 5 4C5 3.44772 4.55228 3 4 3C3.44772 3 3 3.44772 3 4ZM4 2C2.89543 2 2 2.89543 2 4C2 5.10457 2.89543 6 4 6C5.10457 6 6 5.10457 6 4C6 2.89543 5.10457 2 4 2Z" fill="white"/>
</svg>
