<svg width="144" height="24" viewBox="0 0 144 24" fill="none" xmlns="http://www.w3.org/2000/svg">
<rect width="24" height="24" rx="6" fill="#0077FF"/>
<path fill-rule="evenodd" clip-rule="evenodd" d="M10.0347 13.3286C8.78051 12.7401 7.47165 11.1526 7.40559 8.00641H5C5.00404 8.1868 5.01149 8.3646 5.02232 8.53974C5.30458 13.1027 7.88352 15.8651 12.2934 15.9952C12.402 15.9984 12.5116 16 12.6224 16H12.9021V13.1433C13.1113 13.1624 13.3144 13.1959 13.5108 13.2428C14.9627 13.5891 16.0493 14.6629 16.5175 16H19C18.9467 15.8195 18.8848 15.6415 18.8145 15.4667C18.5491 14.806 18.1646 14.1894 17.6756 13.6429C17.1991 13.1103 16.6317 12.6536 15.9968 12.2899C15.8078 12.1817 15.6129 12.0817 15.4126 11.9904C15.603 11.8842 15.787 11.7696 15.9641 11.647C16.5152 11.2655 16.9993 10.8072 17.3982 10.2876C17.8098 9.75135 18.1236 9.15886 18.3288 8.53333C18.3863 8.35798 18.4353 8.18003 18.4755 8H16.2238C15.8062 9.35516 14.6862 10.6031 13.5108 11.024C13.3084 11.0964 13.1044 11.1444 12.9021 11.1641V8.00641H10.6434V13.5404C10.4458 13.4952 10.241 13.4254 10.0347 13.3286ZM11.2521 8.53974V14.2311L10.4894 14.0564C8.80743 13.6713 7.05063 11.9812 6.81985 8.53974H5.63193C5.77043 10.6996 6.44032 12.3812 7.52896 13.5373C8.63506 14.712 10.2218 15.3964 12.2934 15.4615V12.5516L12.9651 12.6128C14.8632 12.786 16.2832 13.9707 16.9497 15.4667H18.1656C17.9267 14.9271 17.6002 14.423 17.1966 13.972C16.6308 13.3396 15.9266 12.8259 15.1316 12.4635L14.1958 12.0369L15.0857 11.5405C15.7963 11.1441 16.412 10.6167 16.8931 9.98997C17.2365 9.54258 17.5058 9.05166 17.6931 8.53333H16.6712C16.3766 9.26402 15.9071 9.94545 15.3465 10.486C14.6955 11.1137 13.8613 11.6071 12.9695 11.6942L12.2934 11.7602V8.53974H11.2521Z" fill="white"/>
<path d="M10.4894 14.0564L11.2521 14.2311V8.53974H12.2934V11.7602L12.9695 11.6942C13.8613 11.6071 14.6955 11.1137 15.3465 10.486C15.9071 9.94545 16.3766 9.26402 16.6712 8.53333H17.6931C17.5058 9.05166 17.2365 9.54258 16.8931 9.98997C16.412 10.6167 15.7963 11.1441 15.0857 11.5405L14.1958 12.0369L15.1316 12.4635C15.9266 12.8259 16.6308 13.3396 17.1966 13.972C17.6002 14.423 17.9267 14.9271 18.1656 15.4667H16.9497C16.2832 13.9707 14.8632 12.786 12.9651 12.6128L12.2934 12.5516V15.4615C10.2218 15.3964 8.63506 14.712 7.52896 13.5373C6.44032 12.3812 5.77043 10.6996 5.63193 8.53974H6.81985C7.05063 11.9812 8.80743 13.6713 10.4894 14.0564Z" fill="white"/>
<rect x="24" width="24" height="24" rx="6" fill="#1D5BA4"/>
<path d="M34.0588 13.1628V18.7338V18.8333H36.5294V13.1628H38.4853L38.8971 10.8747H36.6324V9.38243C36.6324 8.78553 36.9412 8.18863 37.9706 8.18863H39V6.19897C39 6.19897 38.0735 6 37.1471 6C35.2941 6 34.0588 7.09431 34.0588 9.08398V10.8747H32V13.1628H34.0588Z" fill="white"/>
<rect x="48" width="24" height="24" rx="6" fill="#FF7300"/>
<path fill-rule="evenodd" clip-rule="evenodd" d="M63.5754 8.61779C63.5754 10.6108 61.9771 12.2355 60.0165 12.2355C58.0347 12.2355 56.4365 10.6108 56.4365 8.61779C56.4365 6.62476 58.0347 5 60.0165 5C61.9771 5 63.5754 6.62476 63.5754 8.61779ZM61.487 8.61779C61.487 7.79458 60.8263 7.12301 60.0165 7.12301C59.1855 7.12301 58.5248 7.79458 58.5462 8.61779C58.5462 9.441 59.2068 10.1125 60.0165 10.1125C60.8263 10.1125 61.487 9.441 61.487 8.61779Z" fill="white"/>
<path d="M63.5114 14.337C62.8721 14.7485 62.1689 15.0302 61.4444 15.2035L63.4688 17.1965C63.8737 17.6082 63.8737 18.2797 63.4688 18.6913C63.064 19.1029 62.4033 19.1029 61.9985 18.6913L60.0379 16.6982L58.0774 18.6913C57.8643 18.8863 57.6085 18.9946 57.3315 18.9946C57.0545 18.9946 56.7988 18.908 56.5857 18.6913C56.1807 18.2797 56.1807 17.6082 56.5857 17.1965L58.5675 15.1818C57.8429 15.0085 57.1397 14.7269 56.5004 14.3153C56.0103 14.012 55.8611 13.3621 56.1381 12.8638C56.4578 12.3656 57.0971 12.2356 57.5872 12.5389C59.0363 13.4704 60.9329 13.4704 62.382 12.5389C62.8721 12.2139 63.5328 12.3656 63.8311 12.8638C64.1507 13.3621 64.0016 14.0336 63.5114 14.337Z" fill="white"/>
<rect x="72" width="24" height="24" rx="6" fill="#00A9E3"/>
<path d="M90 8.15385C89.55 8.38462 89.1 8.46154 88.575 8.53846C89.1 8.23077 89.475 7.76923 89.625 7.15385C89.175 7.46154 88.65 7.61538 88.05 7.76923C87.6 7.30769 86.925 7 86.25 7C84.675 7 83.475 8.53846 83.85 10.0769C81.825 10 80.025 9 78.75 7.46154C78.075 8.61538 78.45 10.0769 79.5 10.8462C79.125 10.8462 78.75 10.6923 78.375 10.5385C78.375 11.6923 79.2 12.7692 80.325 13.0769C79.95 13.1538 79.575 13.2308 79.2 13.1538C79.5 14.1538 80.4 14.9231 81.525 14.9231C80.625 15.6154 79.275 16 78 15.8462C79.125 16.5385 80.4 17 81.75 17C86.325 17 88.875 13.0769 88.725 9.46154C89.25 9.15385 89.7 8.69231 90 8.15385Z" fill="white"/>
<rect x="96" width="24" height="24" rx="6" fill="#F00073"/>
<path d="M108 6.26506C109.855 6.26506 110.108 6.26506 110.867 6.26506C111.542 6.26506 111.88 6.43374 112.133 6.51807C112.47 6.68675 112.723 6.77109 112.976 7.0241C113.229 7.27711 113.398 7.53012 113.482 7.86747C113.566 8.12048 113.651 8.45783 113.735 9.13253C113.735 9.89157 113.735 10.0602 113.735 12C113.735 13.9398 113.735 14.1084 113.735 14.8675C113.735 15.5422 113.566 15.8795 113.482 16.1325C113.313 16.4699 113.229 16.7229 112.976 16.9759C112.723 17.2289 112.47 17.3976 112.133 17.4819C111.88 17.5663 111.542 17.6506 110.867 17.7349C110.108 17.7349 109.94 17.7349 108 17.7349C106.06 17.7349 105.892 17.7349 105.133 17.7349C104.458 17.7349 104.12 17.5663 103.867 17.4819C103.53 17.3133 103.277 17.2289 103.024 16.9759C102.771 16.7229 102.602 16.4699 102.518 16.1325C102.434 15.8795 102.349 15.5422 102.265 14.8675C102.265 14.1084 102.265 13.9398 102.265 12C102.265 10.0602 102.265 9.89157 102.265 9.13253C102.265 8.45783 102.434 8.12048 102.518 7.86747C102.687 7.53012 102.771 7.27711 103.024 7.0241C103.277 6.77109 103.53 6.60241 103.867 6.51807C104.12 6.43374 104.458 6.3494 105.133 6.26506C105.892 6.26506 106.145 6.26506 108 6.26506ZM108 5C106.06 5 105.892 5 105.133 5C104.373 5 103.867 5.16868 103.446 5.33735C103.024 5.50602 102.602 5.75904 102.181 6.18072C101.759 6.60241 101.59 6.93976 101.337 7.44578C101.169 7.86747 101.084 8.37349 101 9.13253C101 9.89157 101 10.1446 101 12C101 13.9398 101 14.1084 101 14.8675C101 15.6265 101.169 16.1325 101.337 16.5542C101.506 16.9759 101.759 17.3976 102.181 17.8193C102.602 18.241 102.94 18.4096 103.446 18.6627C103.867 18.8313 104.373 18.9157 105.133 19C105.892 19 106.145 19 108 19C109.855 19 110.108 19 110.867 19C111.627 19 112.133 18.8313 112.554 18.6627C112.976 18.494 113.398 18.241 113.819 17.8193C114.241 17.3976 114.41 17.0602 114.663 16.5542C114.831 16.1325 114.916 15.6265 115 14.8675C115 14.1084 115 13.8554 115 12C115 10.1446 115 9.89157 115 9.13253C115 8.37349 114.831 7.86747 114.663 7.44578C114.494 7.0241 114.241 6.60241 113.819 6.18072C113.398 5.75904 113.06 5.59036 112.554 5.33735C112.133 5.16868 111.627 5.08434 110.867 5C110.108 5 109.94 5 108 5Z" fill="white"/>
<path d="M108 8.37349C105.976 8.37349 104.373 9.9759 104.373 12C104.373 14.0241 105.976 15.6265 108 15.6265C110.024 15.6265 111.627 14.0241 111.627 12C111.627 9.9759 110.024 8.37349 108 8.37349ZM108 14.3614C106.735 14.3614 105.639 13.3494 105.639 12C105.639 10.7349 106.651 9.63855 108 9.63855C109.265 9.63855 110.361 10.6506 110.361 12C110.361 13.2651 109.265 14.3614 108 14.3614Z" fill="white"/>
<path d="M111.711 9.13253C112.177 9.13253 112.554 8.75494 112.554 8.28916C112.554 7.82338 112.177 7.44578 111.711 7.44578C111.245 7.44578 110.867 7.82338 110.867 8.28916C110.867 8.75494 111.245 9.13253 111.711 9.13253Z" fill="white"/>
<rect x="120" width="24" height="24" rx="6" fill="#F03121"/>
<path d="M138.65 8.51786C138.475 7.89286 138.038 7.44643 137.425 7.26786C136.375 7 131.912 7 131.912 7C131.912 7 127.538 7 126.4 7.26786C125.788 7.44643 125.35 7.89286 125.175 8.51786C125 9.67857 125 12 125 12C125 12 125 14.3214 125.263 15.4821C125.438 16.1071 125.875 16.5536 126.487 16.7321C127.537 17 132 17 132 17C132 17 136.375 17 137.512 16.7321C138.125 16.5536 138.563 16.1071 138.738 15.4821C139 14.3214 139 12 139 12C139 12 139 9.67857 138.65 8.51786ZM130.6 14.1429V9.85714L134.275 12L130.6 14.1429Z" fill="white"/>
</svg>
