<svg width="50" height="18" viewBox="0 0 50 18" fill="none" xmlns="http://www.w3.org/2000/svg">
<path fill-rule="evenodd" clip-rule="evenodd" d="M17 2.72222C17 2.32335 17.3466 2 17.7742 2H32.2258C32.6534 2 33 2.32335 33 2.72222C33 3.12109 32.6534 3.44444 32.2258 3.44444H17.7742C17.3466 3.44444 17 3.12109 17 2.72222ZM17 8.5C17 8.10113 17.3466 7.77778 17.7742 7.77778H23.9677C24.3953 7.77778 24.7419 8.10113 24.7419 8.5C24.7419 8.89887 24.3953 9.22222 23.9677 9.22222H17.7742C17.3466 9.22222 17 8.89887 17 8.5ZM17 14.2778C17 13.8789 17.3466 13.5556 17.7742 13.5556H32.2258C32.6534 13.5556 33 13.8789 33 14.2778C33 14.6767 32.6534 15 32.2258 15H17.7742C17.3466 15 17 14.6767 17 14.2778Z" fill="white"/>
</svg>
