<svg width="34" height="28" viewBox="0 0 34 28" fill="none" xmlns="http://www.w3.org/2000/svg">
<path fill-rule="evenodd" clip-rule="evenodd" d="M13.9552 5.30073e-07H14.099C16.173 -2.25667e-05 17.8278 -4.09633e-05 19.1256 0.174123C20.4661 0.354011 21.5699 0.735494 22.4432 1.60723C23.6727 2.83446 23.9397 4.5333 24.0202 6.74605C24.0396 7.28072 23.622 7.72992 23.0873 7.74936C22.5526 7.7688 22.1034 7.35113 22.084 6.81645C22.0036 4.6053 21.7212 3.62411 21.0744 2.97851C20.6212 2.52613 19.9942 2.24555 18.8679 2.09441C17.714 1.93955 16.1895 1.9375 14.0271 1.9375C11.8647 1.9375 10.3401 1.93955 9.1862 2.09441C8.05995 2.24555 7.43291 2.52613 6.97969 2.97851C6.52672 3.43065 6.24596 4.05581 6.09465 5.17915C5.93957 6.33054 5.9375 7.85184 5.9375 10.0104V17.7604C5.9375 19.919 5.93957 21.4403 6.09465 22.5917C6.24596 23.715 6.52672 24.3402 6.97969 24.7923C7.43291 25.2447 8.05995 25.5253 9.1862 25.6764C10.3401 25.8313 11.8647 25.8333 14.0271 25.8333C16.1895 25.8333 17.714 25.8313 18.8679 25.6764C19.9942 25.5253 20.6212 25.2447 21.0744 24.7923C21.7212 24.1467 22.0036 23.1655 22.084 20.9544C22.1034 20.4197 22.5526 20.002 23.0873 20.0215C23.622 20.0409 24.0396 20.4901 24.0202 21.0248C23.9397 23.2375 23.6727 24.9364 22.4432 26.1636C21.5699 27.0353 20.4661 27.4168 19.1256 27.5967C17.8278 27.7709 16.173 27.7709 14.099 27.7708H13.9552C11.8811 27.7709 10.2263 27.7709 8.9285 27.5967C7.58805 27.4168 6.48428 27.0353 5.61093 26.1636C4.73734 25.2916 4.35482 24.1892 4.17449 22.8503C3.99996 21.5545 3.99998 19.9025 4 17.8325V9.9383C3.99998 7.86838 3.99996 6.21629 4.17449 4.92052C4.35482 3.58168 4.73734 2.47922 5.61093 1.60723C6.48428 0.735494 7.58805 0.354011 8.9285 0.174123C10.2263 -4.09633e-05 11.8811 -2.25667e-05 13.9552 5.30073e-07Z" fill="white"/>
<path fill-rule="evenodd" clip-rule="evenodd" d="M11.75 22.9271C11.75 22.3921 12.1837 21.9583 12.7188 21.9583H15.3021C15.8371 21.9583 16.2708 22.3921 16.2708 22.9271C16.2708 23.4621 15.8371 23.8958 15.3021 23.8958H12.7188C12.1837 23.8958 11.75 23.4621 11.75 22.9271Z" fill="white"/>
<path fill-rule="evenodd" clip-rule="evenodd" d="M27.9502 7.3613C29.686 9.01911 30.7708 11.3222 30.7708 13.8744C30.7708 16.4266 29.686 18.7297 27.9502 20.3875C27.5632 20.757 26.95 20.7429 26.5805 20.356C26.211 19.969 26.2251 19.3558 26.612 18.9863C27.9913 17.669 28.8333 15.862 28.8333 13.8744C28.8333 11.8867 27.9913 10.0797 26.612 8.76246C26.2251 8.39294 26.211 7.77973 26.5805 7.39281C26.95 7.00588 27.5632 6.99178 27.9502 7.3613ZM25.3045 10.2675C26.2616 11.1816 26.8647 12.4572 26.8647 13.8744C26.8647 15.2916 26.2616 16.5672 25.3045 17.4812C24.9176 17.8507 24.3044 17.8366 23.9348 17.4497C23.5653 17.0628 23.5794 16.4496 23.9663 16.08C24.5669 15.5065 24.9272 14.7271 24.9272 13.8744C24.9272 13.0217 24.5669 12.2422 23.9663 11.6687C23.5794 11.2992 23.5653 10.686 23.9348 10.2991C24.3044 9.91214 24.9176 9.89803 25.3045 10.2675Z" fill="white"/>
<path fill-rule="evenodd" clip-rule="evenodd" d="M18.841 1.12801L18.717 1.87223C18.6002 2.57306 18.4986 3.18268 18.3556 3.66985C18.2018 4.19404 17.9711 4.68624 17.5271 5.0802C17.0678 5.48769 16.5388 5.65888 15.9722 5.73719C15.438 5.81103 14.7787 5.8125 14.0104 5.8125C13.2421 5.8125 12.5829 5.81103 12.0486 5.73719C11.482 5.65888 10.9531 5.48769 10.4938 5.08021C10.0497 4.68624 9.81903 4.19404 9.66519 3.66985C9.52222 3.18268 9.42065 2.57306 9.30388 1.87223C9.30087 1.85414 9.29785 1.83599 9.29481 1.81778L9.17985 1.12801L11.091 0.809489L11.2059 1.49926C11.3345 2.27035 11.4182 2.76286 11.5243 3.12423C11.6232 3.46115 11.7111 3.57006 11.7796 3.6309C11.8551 3.69784 11.9726 3.77076 12.3139 3.81794C12.6877 3.86959 13.1979 3.875 14.0104 3.875C14.8229 3.875 15.3332 3.86959 15.7069 3.81794C16.0483 3.77076 16.1658 3.69784 16.2412 3.6309C16.3098 3.57006 16.3977 3.46115 16.4966 3.12423C16.6026 2.76286 16.6864 2.27035 16.8149 1.49926L16.9298 0.809489L18.841 1.12801Z" fill="white"/>
</svg>
