<svg width="34" height="28" viewBox="0 0 34 28" fill="none" xmlns="http://www.w3.org/2000/svg">
<path fill-rule="evenodd" clip-rule="evenodd" d="M9.95517 5.30073e-07H10.099C12.173 -2.25667e-05 13.8278 -4.09633e-05 15.1256 0.174123C16.4661 0.354011 17.5699 0.735494 18.4432 1.60723C19.6727 2.83446 19.9397 4.5333 20.0202 6.74605C20.0396 7.28072 19.622 7.72992 19.0873 7.74936C18.5526 7.7688 18.1034 7.35113 18.084 6.81645C18.0036 4.6053 17.7212 3.62411 17.0744 2.97851C16.6212 2.52613 15.9942 2.24555 14.8679 2.09441C13.714 1.93955 12.1895 1.9375 10.0271 1.9375C7.86467 1.9375 6.34014 1.93955 5.1862 2.09441C4.05995 2.24555 3.43291 2.52613 2.97969 2.97851C2.52672 3.43065 2.24596 4.05581 2.09465 5.17915C1.93957 6.33054 1.9375 7.85184 1.9375 10.0104V17.7604C1.9375 19.919 1.93957 21.4403 2.09465 22.5917C2.24596 23.715 2.52672 24.3402 2.97969 24.7923C3.43291 25.2447 4.05995 25.5253 5.1862 25.6764C6.34014 25.8313 7.86467 25.8333 10.0271 25.8333C12.1895 25.8333 13.714 25.8313 14.8679 25.6764C15.9942 25.5253 16.6212 25.2447 17.0744 24.7923C17.7212 24.1467 18.0036 23.1655 18.084 20.9544C18.1034 20.4197 18.5526 20.002 19.0873 20.0215C19.622 20.0409 20.0396 20.4901 20.0202 21.0248C19.9397 23.2375 19.6727 24.9364 18.4432 26.1636C17.5699 27.0353 16.4661 27.4168 15.1256 27.5967C13.8278 27.7709 12.173 27.7709 10.099 27.7708H9.95517C7.88114 27.7709 6.2263 27.7709 4.9285 27.5967C3.58805 27.4168 2.48428 27.0353 1.61093 26.1636C0.737341 25.2916 0.354824 24.1892 0.174491 22.8503C-4.13507e-05 21.5545 -2.27159e-05 19.9025 5.34858e-07 17.8325V9.9383C-2.27159e-05 7.86838 -4.13507e-05 6.21629 0.174491 4.92052C0.354824 3.58168 0.737341 2.47922 1.61093 1.60723C2.48428 0.735494 3.58805 0.354011 4.9285 0.174123C6.2263 -4.09633e-05 7.88114 -2.25667e-05 9.95517 5.30073e-07Z" fill="#141B34"/>
<path fill-rule="evenodd" clip-rule="evenodd" d="M7.75 22.9271C7.75 22.3921 8.18373 21.9583 8.71875 21.9583H11.3021C11.8371 21.9583 12.2708 22.3921 12.2708 22.9271C12.2708 23.4621 11.8371 23.8958 11.3021 23.8958H8.71875C8.18373 23.8958 7.75 23.4621 7.75 22.9271Z" fill="#141B34"/>
<path fill-rule="evenodd" clip-rule="evenodd" d="M23.9502 7.3613C25.686 9.01911 26.7708 11.3222 26.7708 13.8744C26.7708 16.4266 25.686 18.7297 23.9502 20.3875C23.5632 20.757 22.95 20.7429 22.5805 20.356C22.211 19.969 22.2251 19.3558 22.612 18.9863C23.9913 17.669 24.8333 15.862 24.8333 13.8744C24.8333 11.8867 23.9913 10.0797 22.612 8.76246C22.2251 8.39294 22.211 7.77973 22.5805 7.39281C22.95 7.00588 23.5632 6.99178 23.9502 7.3613ZM21.3045 10.2675C22.2616 11.1816 22.8647 12.4572 22.8647 13.8744C22.8647 15.2916 22.2616 16.5672 21.3045 17.4812C20.9176 17.8507 20.3044 17.8366 19.9348 17.4497C19.5653 17.0628 19.5794 16.4496 19.9663 16.08C20.5669 15.5065 20.9272 14.7271 20.9272 13.8744C20.9272 13.0217 20.5669 12.2422 19.9663 11.6687C19.5794 11.2992 19.5653 10.686 19.9348 10.2991C20.3044 9.91214 20.9176 9.89803 21.3045 10.2675Z" fill="#141B34"/>
<path fill-rule="evenodd" clip-rule="evenodd" d="M14.841 1.12801L14.717 1.87223C14.6002 2.57306 14.4986 3.18268 14.3556 3.66985C14.2018 4.19404 13.9711 4.68624 13.5271 5.0802C13.0678 5.48769 12.5388 5.65888 11.9722 5.73719C11.438 5.81103 10.7787 5.8125 10.0104 5.8125C9.24213 5.8125 8.58287 5.81103 8.04865 5.73719C7.48203 5.65888 6.95306 5.48769 6.49377 5.08021C6.04973 4.68624 5.81903 4.19404 5.66519 3.66985C5.52222 3.18268 5.42065 2.57306 5.30388 1.87223C5.30087 1.85414 5.29785 1.83599 5.29481 1.81778L5.17985 1.12801L7.09099 0.809489L7.20595 1.49926C7.33446 2.27035 7.41822 2.76286 7.52428 3.12423C7.62316 3.46115 7.71105 3.57006 7.77963 3.6309C7.85508 3.69784 7.97256 3.77076 8.31391 3.81794C8.68767 3.86959 9.19789 3.875 10.0104 3.875C10.8229 3.875 11.3332 3.86959 11.7069 3.81794C12.0483 3.77076 12.1658 3.69784 12.2412 3.6309C12.3098 3.57006 12.3977 3.46115 12.4966 3.12423C12.6026 2.76286 12.6864 2.27035 12.8149 1.49926L12.9298 0.809489L14.841 1.12801Z" fill="#141B34"/>
</svg>
