<svg width="42" height="24" viewBox="0 0 42 24" fill="none" xmlns="http://www.w3.org/2000/svg">
<path fill-rule="evenodd" clip-rule="evenodd" d="M12.6785 3.45787C12.3789 3.43105 12.0156 3.43033 11.1948 3.43033L10.2508 3.43033C9.85581 3.43033 9.53562 3.11014 9.53562 2.71517C9.53562 2.32019 9.85581 2 10.2508 2L11.2427 2C12.0027 1.99999 12.4345 1.99998 12.8061 2.03324C16.8263 2.39318 20.0124 5.5793 20.3724 9.59953C20.4057 9.97107 20.4056 10.4029 20.4056 11.1628V12.1548C20.4056 12.5498 20.0854 12.87 19.6905 12.87C19.2955 12.87 18.9753 12.5498 18.9753 12.1548V11.2109C18.9753 10.39 18.9746 10.0267 18.9478 9.72708C18.6495 6.39603 16.0096 3.75611 12.6785 3.45787ZM4.62179 5.69961C4.16578 5.28059 3.46486 5.28059 3.00885 5.69961C2.99311 5.71407 2.97247 5.73448 2.89994 5.80701L2.05477 6.65218C1.5394 7.16755 1.32305 7.9105 1.48116 8.62199C2.85964 14.8252 7.70418 19.6697 13.9073 21.0482C14.6188 21.2063 15.3618 20.9899 15.8772 20.4746L16.7223 19.6294C16.7949 19.5569 16.8153 19.5362 16.8297 19.5205C17.2487 19.0645 17.2487 18.3636 16.8297 17.9075C16.8153 17.8918 16.7949 17.8712 16.7223 17.7986L15.3319 16.4082C14.775 15.8513 13.934 15.692 13.2121 16.0067C11.951 16.5564 10.4821 16.2782 9.50933 15.3055L7.22385 13.02C6.25113 12.0473 5.97293 10.5783 6.52262 9.31727C6.83731 8.59533 6.67804 7.75435 6.12116 7.19747L4.7307 5.80701C4.65816 5.73448 4.63753 5.71407 4.62179 5.69961ZM2.04108 4.64639C3.0443 3.72456 4.58634 3.72456 5.58956 4.64639C5.63065 4.68415 5.67451 4.72802 5.73147 4.78499L7.13256 6.18608C8.10528 7.1588 8.38348 8.62777 7.83379 9.88881C7.5191 10.6107 7.67837 11.4517 8.23525 12.0086L10.5207 14.2941C11.0776 14.851 11.9186 15.0102 12.6405 14.6955C13.9016 14.1459 15.3705 14.4241 16.3433 15.3968L17.7443 16.7978C17.8013 16.8548 17.8452 16.8987 17.8829 16.9398C18.8048 17.943 18.8048 19.485 17.8829 20.4883C17.8452 20.5294 17.8013 20.5732 17.7443 20.6302L16.8885 21.486C16.0274 22.3471 14.7859 22.7086 13.5971 22.4444C6.85177 20.9455 1.58384 15.6776 0.0848893 8.93227C-0.179304 7.7434 0.182205 6.50195 1.04337 5.64079L1.88854 4.79562C1.89214 4.79202 1.89568 4.78848 1.89918 4.78498C1.95613 4.72801 1.99999 4.68414 2.04108 4.64639ZM10.2098 6.08648C10.2098 5.6915 10.53 5.37132 10.9249 5.37132H11.4712C11.5454 5.37131 11.5905 5.37131 11.6298 5.37188C14.5965 5.41437 16.9912 7.80904 17.0336 10.7757C17.0342 10.8151 17.0342 10.8601 17.0342 10.9342V11.4806C17.0342 11.8756 16.714 12.1957 16.319 12.1957C15.9241 12.1957 15.6039 11.8756 15.6039 11.4806V10.9412C15.6039 10.858 15.6039 10.8239 15.6035 10.7962C15.5721 8.60344 13.8021 6.83346 11.6093 6.80206C11.5816 6.80166 11.5475 6.80164 11.4644 6.80164H10.9249C10.53 6.80164 10.2098 6.48145 10.2098 6.08648Z" fill="#DBB16D"/>
<path fill-rule="evenodd" clip-rule="evenodd" d="M33.6785 2.45787C33.3789 2.43105 33.0156 2.43033 32.1948 2.43033L31.2508 2.43033C30.8558 2.43033 30.5356 2.11014 30.5356 1.71517C30.5356 1.32019 30.8558 1 31.2508 1L32.2427 1C33.0027 0.999986 33.4345 0.999977 33.8061 1.03324C37.8263 1.39318 41.0124 4.5793 41.3724 8.59953C41.4057 8.97107 41.4056 9.40286 41.4056 10.1628V11.1548C41.4056 11.5498 41.0854 11.87 40.6905 11.87C40.2955 11.87 39.9753 11.5498 39.9753 11.1548V10.2109C39.9753 9.39 39.9746 9.02669 39.9478 8.72708C39.6495 5.39603 37.0096 2.75611 33.6785 2.45787ZM25.6218 4.69961C25.1658 4.28059 24.4649 4.28059 24.0088 4.69961C23.9931 4.71407 23.9725 4.73448 23.8999 4.80701L23.0548 5.65218C22.5394 6.16755 22.323 6.9105 22.4812 7.62199C23.8596 13.8252 28.7042 18.6697 34.9073 20.0482C35.6188 20.2063 36.3618 19.9899 36.8772 19.4746L37.7223 18.6294C37.7949 18.5569 37.8153 18.5362 37.8297 18.5205C38.2487 18.0645 38.2487 17.3636 37.8297 16.9075C37.8153 16.8918 37.7949 16.8712 37.7223 16.7986L36.3319 15.4082C35.775 14.8513 34.934 14.692 34.2121 15.0067C32.951 15.5564 31.4821 15.2782 30.5093 14.3055L28.2239 12.02C27.2511 11.0473 26.9729 9.57831 27.5226 8.31727C27.8373 7.59533 27.678 6.75435 27.1212 6.19747L25.7307 4.80701C25.6582 4.73448 25.6375 4.71407 25.6218 4.69961ZM23.0411 3.64639C24.0443 2.72456 25.5863 2.72456 26.5896 3.64639C26.6306 3.68415 26.6745 3.72802 26.7315 3.78499L28.1326 5.18608C29.1053 6.1588 29.3835 7.62777 28.8338 8.88881C28.5191 9.61075 28.6784 10.4517 29.2352 11.0086L31.5207 13.2941C32.0776 13.851 32.9186 14.0102 33.6405 13.6955C34.9016 13.1459 36.3705 13.4241 37.3433 14.3968L38.7443 15.7978C38.8013 15.8548 38.8452 15.8987 38.8829 15.9398C39.8048 16.943 39.8048 18.485 38.8829 19.4883C38.8452 19.5294 38.8013 19.5732 38.7443 19.6302L37.8885 20.486C37.0274 21.3471 35.7859 21.7086 34.5971 21.4444C27.8518 19.9455 22.5838 14.6776 21.0849 7.93227C20.8207 6.7434 21.1822 5.50195 22.0434 4.64079L22.8885 3.79562C22.8921 3.79202 22.8957 3.78848 22.8992 3.78498C22.9561 3.72801 23 3.68414 23.0411 3.64639ZM31.2098 5.08648C31.2098 4.6915 31.53 4.37132 31.9249 4.37132H32.4712C32.5454 4.37131 32.5905 4.37131 32.6298 4.37188C35.5965 4.41437 37.9912 6.80904 38.0336 9.77572C38.0342 9.81505 38.0342 9.86014 38.0342 9.93425V10.4806C38.0342 10.8756 37.714 11.1957 37.319 11.1957C36.9241 11.1957 36.6039 10.8756 36.6039 10.4806V9.94117C36.6039 9.85798 36.6039 9.82393 36.6035 9.7962C36.5721 7.60344 34.8021 5.83346 32.6093 5.80206C32.5816 5.80166 32.5475 5.80164 32.4644 5.80164H31.9249C31.53 5.80164 31.2098 5.48145 31.2098 5.08648Z" fill="#DAA550"/>
</svg>
