<svg width="107" height="18" viewBox="0 0 107 18" fill="none" xmlns="http://www.w3.org/2000/svg">
<path d="M20.9532 4.91946C21.9776 6.30182 23.3027 6.3689 24.2885 5.36614C25.2372 4.40104 25.2372 2.8363 24.2885 1.8712C23.3397 0.906097 21.8016 0.906097 20.8529 1.8712C20.8529 1.8712 19.7231 2.69785 20.5503 4.20942L20.9532 4.91946Z" fill="#89D346"/>
<path d="M11.928 3.70736C11.2572 2.52535 11.6553 1.01393 12.8172 0.331504C13.9792 -0.350926 15.4649 0.0540579 16.1358 1.23606L23.2094 13.6996C23.8803 14.8816 23.4822 16.393 22.3202 17.0755C21.1583 17.7579 19.6726 17.3529 19.0017 16.1709L11.928 3.70736Z" fill="#89D346"/>
<path d="M8.43125 16.1709L1.35759 3.70736C0.686743 2.52535 1.08485 1.01393 2.24679 0.331504C3.40872 -0.350926 4.89448 0.0540579 5.56533 1.23606L11.5244 11.7357C12.6376 10.8887 13.7861 11.7944 14.3853 12.85C14.935 13.8187 14.7767 15.0422 13.9992 15.8331L12.5985 17.258C11.6498 18.2231 10.1116 18.2231 9.16287 17.258L8.43125 16.1709Z" fill="#89D346"/>
<path d="M5.488 15.9742C5.63175 16.2275 5.54644 16.5514 5.29746 16.6976L3.64441 17.6685C2.48248 18.3509 0.996719 17.9459 0.325875 16.7639C-0.344968 15.5819 0.0531403 14.0705 1.21508 13.3881L2.86812 12.4172C3.1171 12.271 3.43548 12.3578 3.57923 12.6111L5.488 15.9742Z" fill="#369AF3"/>
<path d="M62.2485 8.06971C62.0409 7.41009 61.1083 7.40757 60.8973 8.06607L58.5865 15.2752C58.2571 16.3028 57.3016 16.9999 56.2225 16.9999V16.9999C55.1385 16.9999 54.1798 16.2965 53.8545 15.2625L50.05 3.17191C49.7121 2.09799 50.5141 1.00488 51.6399 1.00488V1.00488C52.3709 1.00488 53.0165 1.48114 53.2324 2.1795L55.7315 10.2662C55.9422 10.9478 56.905 10.9537 57.1239 10.2746L59.635 2.48592C59.9196 1.6032 60.7411 1.00488 61.6686 1.00488V1.00488C62.6042 1.00488 63.431 1.6136 63.7088 2.50701L66.1348 10.3075C66.3485 10.9947 67.3203 10.9972 67.5376 10.3111L70.1454 2.07662C70.3474 1.43852 70.9396 1.00488 71.609 1.00488V1.00488C72.646 1.00488 73.3847 2.01175 73.0734 3.00093L69.2104 15.2779C68.8879 16.3027 67.9377 16.9999 66.8633 16.9999V16.9999C65.7888 16.9999 64.8386 16.3027 64.5161 15.2777L62.2485 8.06971Z" fill="white"/>
<path d="M34 10.6225C34 9.72772 34.7253 9.00238 35.6201 9.00238V9.00238C36.5148 9.00238 37.2402 9.72772 37.2402 10.6225V14.0979H40.4593C43.468 14.0979 45.4458 12.11 45.4458 9.00238C45.4458 5.89478 43.468 3.90683 40.4593 3.90683H35.451C34.6496 3.90683 34 3.25721 34 2.45586V2.45586C34 1.65451 34.6496 1.00488 35.451 1.00488H40.6276C45.4248 1.00488 48.7281 4.15818 48.7281 9.00238C48.7281 13.8466 45.4248 16.9999 40.6276 16.9999H34V10.6225Z" fill="white"/>
<path d="M77.6451 10.2591C76.8816 10.2591 76.2627 9.6402 76.2627 8.87671V8.87671C76.2627 8.11322 76.8816 7.49428 77.6451 7.49428H87.0469C87.8104 7.49428 88.4294 8.11322 88.4294 8.87671V8.87671C88.4294 9.6402 87.8104 10.2591 87.0469 10.2591H77.6451ZM77.6908 3.86113C76.9021 3.86113 76.2627 3.22174 76.2627 2.43301V2.43301C76.2627 1.64428 76.9021 1.00488 77.6908 1.00488H87.0012C87.79 1.00488 88.4294 1.64428 88.4294 2.43301V2.43301C88.4294 3.22174 87.79 3.86113 87.0012 3.86113H77.6908ZM77.6908 14.1436C76.9021 14.1436 76.2627 14.783 76.2627 15.5718V15.5718C76.2627 16.3605 76.9021 16.9999 77.6908 16.9999H87.0012C87.79 16.9999 88.4294 16.3605 88.4294 15.5718V15.5718C88.4294 14.783 87.79 14.1436 87.0012 14.1436H77.6908Z" fill="white"/>
<path fill-rule="evenodd" clip-rule="evenodd" d="M93.6094 1H100.086C104.109 1 106.19 2.6452 106.19 5.1587C106.19 6.7582 105.358 7.9921 104.063 8.6776C105.844 9.24885 107 10.6199 107 12.6307C107 15.3955 104.78 16.995 100.549 16.995H93.6094C92.8705 16.995 92.2715 16.3965 92.2715 15.6583L92.2715 15.4648L92.2715 14.0474V8.9061C92.2715 8.18678 92.8551 7.60365 93.5751 7.60365H99.6702C101.543 7.60365 102.583 6.941 102.583 5.63855C102.583 4.3361 101.543 3.67345 99.6702 3.67345H93.6094C92.8705 3.67345 92.2715 3.07498 92.2715 2.33673C92.2715 1.59847 92.8705 1 93.6094 1ZM103.393 12.2651C103.393 13.6818 102.306 14.3216 100.318 14.3216H95.1531V10.2086H100.318C102.306 10.2086 103.393 10.8484 103.393 12.2651Z" fill="white"/>
</svg>
