<svg width="22" height="22" viewBox="0 0 22 22" fill="none" xmlns="http://www.w3.org/2000/svg">
<path fill-rule="evenodd" clip-rule="evenodd" d="M11 1.69231C8.83202 1.69231 7.12906 3.3311 7.12906 5.28846C7.12906 7.24582 8.83202 8.88462 11 8.88462C13.168 8.88462 14.871 7.24582 14.871 5.28846C14.871 3.3311 13.168 1.69231 11 1.69231ZM5.38712 5.28846C5.38712 2.33898 7.93023 0 11 0C14.0698 0 16.6129 2.33898 16.6129 5.28846C16.6129 8.23794 14.0698 10.5769 11 10.5769C7.93023 10.5769 5.38712 8.23794 5.38712 5.28846ZM14.0962 14.349C12.045 14.0204 9.95499 14.0204 7.90379 14.349L7.66251 14.3876L7.52082 13.5527L7.6625 14.3876C5.42443 14.7461 3.74194 16.6949 3.74194 19.0232C3.74194 19.7587 4.32895 20.3077 4.99396 20.3077H17.006C17.671 20.3077 18.2581 19.7587 18.2581 19.0232C18.2581 16.6949 16.5756 14.7461 14.3375 14.3876L14.4792 13.5527L14.3375 14.3876L14.0962 14.349ZM14.3796 12.6792L14.2379 13.5141L14.3796 12.6792L14.6209 12.7179C17.7403 13.2175 20 15.9066 20 19.0232C20 20.6411 18.686 22 17.006 22H4.99396C3.31397 22 2 20.6411 2 19.0232C2 15.9066 4.25968 13.2175 7.37914 12.7179L7.62043 12.6792L7.76211 13.5141L7.62043 12.6792C9.85927 12.3206 12.1407 12.3206 14.3796 12.6792Z" fill="white"/>
</svg>
