<svg width="50" height="150" viewBox="0 0 50 150" fill="none" xmlns="http://www.w3.org/2000/svg">
<rect x="7.5" y="107.5" width="35" height="35" rx="17.5" stroke="white"/>
<path fill-rule="evenodd" clip-rule="evenodd" d="M25.9697 119.47C26.2626 119.177 26.7374 119.177 27.0303 119.47L32.0303 124.47C32.3232 124.763 32.3232 125.237 32.0303 125.53L27.0303 130.53C26.7374 130.823 26.2626 130.823 25.9697 130.53C25.6768 130.237 25.6768 129.763 25.9697 129.47L29.6893 125.75H18.5C18.0858 125.75 17.75 125.414 17.75 125C17.75 124.586 18.0858 124.25 18.5 124.25H29.6893L25.9697 120.53C25.6768 120.237 25.6768 119.763 25.9697 119.47Z" fill="white"/>
<g opacity="0.9">
<rect x="7.5" y="57.5" width="35" height="35" rx="17.5" stroke="white"/>
<path fill-rule="evenodd" clip-rule="evenodd" d="M25.9697 69.4697C26.2626 69.1768 26.7374 69.1768 27.0303 69.4697L32.0303 74.4697C32.3232 74.7626 32.3232 75.2374 32.0303 75.5303L27.0303 80.5303C26.7374 80.8232 26.2626 80.8232 25.9697 80.5303C25.6768 80.2374 25.6768 79.7626 25.9697 79.4697L29.6893 75.75H18.5C18.0858 75.75 17.75 75.4142 17.75 75C17.75 74.5858 18.0858 74.25 18.5 74.25H29.6893L25.9697 70.5303C25.6768 70.2374 25.6768 69.7626 25.9697 69.4697Z" fill="white"/>
</g>
<g opacity="0.8">
<rect x="7.5" y="7.5" width="35" height="35" rx="17.5" stroke="white"/>
<path fill-rule="evenodd" clip-rule="evenodd" d="M25.9697 19.4697C26.2626 19.1768 26.7374 19.1768 27.0303 19.4697L32.0303 24.4697C32.3232 24.7626 32.3232 25.2374 32.0303 25.5303L27.0303 30.5303C26.7374 30.8232 26.2626 30.8232 25.9697 30.5303C25.6768 30.2374 25.6768 29.7626 25.9697 29.4697L29.6893 25.75H18.5C18.0858 25.75 17.75 25.4142 17.75 25C17.75 24.5858 18.0858 24.25 18.5 24.25H29.6893L25.9697 20.5303C25.6768 20.2374 25.6768 19.7626 25.9697 19.4697Z" fill="white"/>
</g>
</svg>
