<svg width="54" height="18" viewBox="0 0 54 18" fill="none" xmlns="http://www.w3.org/2000/svg">
<g opacity="0.6">
<path fill-rule="evenodd" clip-rule="evenodd" d="M17.6837 0.316326C18.1055 0.738094 18.1055 1.42192 17.6837 1.84368L10.5274 9.00002L17.6837 16.1563C18.1055 16.5781 18.1055 17.2619 17.6837 17.6837C17.2619 18.1055 16.5781 18.1055 16.1563 17.6837L9.00002 10.5274L1.84371 17.6837C1.42195 18.1055 0.738125 18.1055 0.316357 17.6837C-0.105412 17.2619 -0.105412 16.5781 0.316357 16.1563L7.47266 9.00002L0.316326 1.84369C-0.105442 1.42192 -0.105442 0.738098 0.316326 0.31633C0.738094 -0.105439 1.42192 -0.105439 1.84368 0.316329L9.00002 7.47266L16.1564 0.316326C16.5781 -0.105442 17.262 -0.105442 17.6837 0.316326Z" fill="black"/>
</g>
<path fill-rule="evenodd" clip-rule="evenodd" d="M35.6837 0.316326C36.1055 0.738094 36.1055 1.42192 35.6837 1.84368L28.5274 9.00002L35.6837 16.1563C36.1055 16.5781 36.1055 17.2619 35.6837 17.6837C35.2619 18.1055 34.5781 18.1055 34.1563 17.6837L27 10.5274L19.8437 17.6837C19.4219 18.1055 18.7381 18.1055 18.3164 17.6837C17.8946 17.2619 17.8946 16.5781 18.3164 16.1563L25.4727 9.00002L18.3163 1.84369C17.8946 1.42192 17.8946 0.738098 18.3163 0.31633C18.7381 -0.105439 19.4219 -0.105439 19.8437 0.316329L27 7.47266L34.1564 0.316326C34.5781 -0.105442 35.262 -0.105442 35.6837 0.316326Z" fill="black"/>
<path fill-rule="evenodd" clip-rule="evenodd" d="M51.754 2.24603C52.082 2.57407 52.082 3.10593 51.754 3.43398L46.188 9.00002L51.754 14.566C52.082 14.8941 52.082 15.4259 51.754 15.754C51.4259 16.082 50.8941 16.082 50.566 15.754L45 10.188L39.434 15.754C39.106 16.082 38.5741 16.082 38.2461 15.754C37.918 15.4259 37.918 14.8941 38.2461 14.566L43.8121 9.00002L38.246 3.43398C37.918 3.10594 37.918 2.57408 38.246 2.24603C38.5741 1.91799 39.1059 1.91799 39.434 2.24603L45 7.81207L50.5661 2.24603C50.8941 1.91799 51.426 1.91799 51.754 2.24603Z" fill="black"/>
</svg>
