<svg width="17" height="16" viewBox="0 0 17 16" fill="none" xmlns="http://www.w3.org/2000/svg">
<path d="M8.5 15C8.38482 15 8.26964 14.9602 8.17321 14.8807C7.88071 14.6382 1 10.4463 1 5.60905C1 3.06774 2.92268 1 5.28571 1C7.64875 1 9.25 3.12535 9.25 5.66667C9.25 6.05556 8.96783 6.44444 8.5 6.44444C8.03217 6.44444 7.75 6.05556 7.75 5.66667C7.75 3.76025 7.05839 2.55556 5.28571 2.55556C3.51304 2.55556 2.5 3.70263 2.5 5.60905C2.5 9.3349 7.14839 12.2542 8.5 13.4444C9.85107 12.2542 14.5 9.33086 14.5 5.60905C14.5 3.70263 13.487 2.55556 11.7143 2.55556C11.2348 2.55556 10.7736 2.66617 10.3434 2.88395C10.0755 3.01992 9.47348 3.06692 9.25 2.55556C9.04615 2.08911 9.61911 1.5744 9.88643 1.43844C10.4607 1.14749 11.0757 1 11.7143 1C14.0773 1 16 3.06774 16 5.60905C16 10.4463 9.11929 14.6382 8.82679 14.8807C8.73036 14.9602 8.61518 15 8.5 15Z" fill="#F9A52E"/>
</svg>
