<svg width="36" height="18" viewBox="0 0 36 18" fill="none" xmlns="http://www.w3.org/2000/svg">
<rect x="1" y="1" width="16" height="16" rx="7" fill="#FF6624"/>
<path d="M9.13146 10.5598C8.80009 10.5598 8.51697 10.2854 8.60703 9.96649C8.62903 9.88857 8.65584 9.81435 8.68746 9.74382C8.79146 9.51182 8.91946 9.30382 9.07146 9.11982C9.23146 8.93582 9.40346 8.76782 9.58746 8.61582C9.77146 8.45582 9.94346 8.29982 10.1035 8.14782C10.2635 7.98782 10.3915 7.81982 10.4875 7.64382C10.5915 7.46782 10.6435 7.26382 10.6435 7.03182C10.6435 6.64782 10.4915 6.33582 10.1875 6.09582C9.88346 5.85582 9.46346 5.73582 8.92746 5.73582C8.44746 5.73582 8.03146 5.81582 7.67946 5.97582C7.48114 6.06597 7.29932 6.18024 7.13401 6.31863C6.91485 6.50211 6.59699 6.55384 6.36418 6.38801V6.38801C6.11364 6.20954 6.06143 5.85346 6.29118 5.64891C6.55118 5.41743 6.84994 5.2264 7.18746 5.07582C7.70746 4.83582 8.31546 4.71582 9.01146 4.71582C9.58746 4.71582 10.0875 4.80382 10.5115 4.97982C10.9355 5.14782 11.2635 5.39182 11.4955 5.71182C11.7355 6.02382 11.8555 6.40382 11.8555 6.85182C11.8555 7.18782 11.8035 7.47582 11.6995 7.71582C11.5955 7.95582 11.4635 8.16782 11.3035 8.35182C11.1435 8.53582 10.9715 8.70782 10.7875 8.86782C10.6115 9.02782 10.4435 9.18782 10.2835 9.34782C10.1235 9.50782 9.99146 9.68382 9.88746 9.87582C9.87028 9.90752 9.85453 9.94021 9.84019 9.97388C9.71036 10.2788 9.46283 10.5598 9.13146 10.5598V10.5598ZM9.14346 13.2838C8.91946 13.2838 8.73146 13.2078 8.57946 13.0558C8.43546 12.9038 8.36346 12.7238 8.36346 12.5158C8.36346 12.2918 8.43546 12.1078 8.57946 11.9638C8.73146 11.8198 8.91946 11.7478 9.14346 11.7478C9.36746 11.7478 9.55146 11.8198 9.69546 11.9638C9.83946 12.1078 9.91146 12.2918 9.91146 12.5158C9.91146 12.7238 9.83946 12.9038 9.69546 13.0558C9.55146 13.2078 9.36746 13.2838 9.14346 13.2838Z" fill="white"/>
<rect x="19" y="1" width="16" height="16" rx="7" fill="#F06022"/>
<path d="M27.1315 10.5598C26.8001 10.5598 26.517 10.2854 26.607 9.96649C26.629 9.88857 26.6558 9.81435 26.6875 9.74382C26.7915 9.51182 26.9195 9.30382 27.0715 9.11982C27.2315 8.93582 27.4035 8.76782 27.5875 8.61582C27.7715 8.45582 27.9435 8.29982 28.1035 8.14782C28.2635 7.98782 28.3915 7.81982 28.4875 7.64382C28.5915 7.46782 28.6435 7.26382 28.6435 7.03182C28.6435 6.64782 28.4915 6.33582 28.1875 6.09582C27.8835 5.85582 27.4635 5.73582 26.9275 5.73582C26.4475 5.73582 26.0315 5.81582 25.6795 5.97582C25.4811 6.06597 25.2993 6.18024 25.134 6.31863C24.9149 6.50211 24.597 6.55384 24.3642 6.38801V6.38801C24.1136 6.20954 24.0614 5.85346 24.2912 5.64891C24.5512 5.41743 24.8499 5.2264 25.1875 5.07582C25.7075 4.83582 26.3155 4.71582 27.0115 4.71582C27.5875 4.71582 28.0875 4.80382 28.5115 4.97982C28.9355 5.14782 29.2635 5.39182 29.4955 5.71182C29.7355 6.02382 29.8555 6.40382 29.8555 6.85182C29.8555 7.18782 29.8035 7.47582 29.6995 7.71582C29.5955 7.95582 29.4635 8.16782 29.3035 8.35182C29.1435 8.53582 28.9715 8.70782 28.7875 8.86782C28.6115 9.02782 28.4435 9.18782 28.2835 9.34782C28.1235 9.50782 27.9915 9.68382 27.8875 9.87582C27.8703 9.90752 27.8545 9.94021 27.8402 9.97388C27.7104 10.2788 27.4628 10.5598 27.1315 10.5598V10.5598ZM27.1435 13.2838C26.9195 13.2838 26.7315 13.2078 26.5795 13.0558C26.4355 12.9038 26.3635 12.7238 26.3635 12.5158C26.3635 12.2918 26.4355 12.1078 26.5795 11.9638C26.7315 11.8198 26.9195 11.7478 27.1435 11.7478C27.3675 11.7478 27.5515 11.8198 27.6955 11.9638C27.8395 12.1078 27.9115 12.2918 27.9115 12.5158C27.9115 12.7238 27.8395 12.9038 27.6955 13.0558C27.5515 13.2078 27.3675 13.2838 27.1435 13.2838Z" fill="white"/>
</svg>
