<svg width="42" height="24" viewBox="0 0 42 24" fill="none" xmlns="http://www.w3.org/2000/svg">
<g clip-path="url(#clip0_581_2249)">
<g opacity="0.8">
<path fill-rule="evenodd" clip-rule="evenodd" d="M10.8599 5.19284C9.93092 5.15083 9.76379 5.1597 8.83395 5.22151C5.92736 5.41472 3.59703 7.76585 3.40505 10.7365C3.36477 11.3598 3.36477 12.0063 3.40505 12.6295C3.47148 13.6576 3.93173 14.6543 4.53085 15.5539C4.54298 15.5721 4.55434 15.5908 4.56492 15.61C5.14712 16.6641 4.71119 17.842 4.31266 18.5972C4.30765 18.6067 4.30272 18.6161 4.29786 18.6253C5.03204 18.6225 5.49772 18.4108 5.87269 18.1343L5.88972 18.1218C6.02444 18.0224 6.15342 17.9273 6.26174 17.8572C6.3519 17.7988 6.54925 17.6728 6.79752 17.6423C7.05294 17.6109 7.29237 17.6952 7.3928 17.7306L7.39897 17.7327C7.53319 17.7799 7.70159 17.8493 7.88803 17.9261L7.90699 17.9339C8.18598 18.0488 8.52434 18.124 8.83395 18.1446C9.92649 18.2172 11.071 18.2173 12.1657 18.1446C15.0723 17.9514 17.4026 15.6002 17.5946 12.6295C17.6349 12.0063 17.6349 11.3598 17.5946 10.7365C17.5664 10.3002 17.8973 9.92365 18.3336 9.89546C18.7699 9.86726 19.1465 10.1981 19.1747 10.6344C19.2193 11.3257 19.2193 12.0404 19.1747 12.7317C18.9326 16.478 15.9872 19.4774 12.2707 19.7244C11.106 19.8018 9.89134 19.8017 8.72893 19.7244C8.26203 19.6934 7.75399 19.5833 7.30403 19.3979C7.17391 19.3443 7.07507 19.3037 6.99736 19.2731C6.94535 19.3106 6.88552 19.3547 6.81239 19.4086C6.15168 19.8959 5.31706 20.2355 4.14678 20.207C4.13312 20.2066 4.11927 20.2063 4.10526 20.206C3.89407 20.201 3.64693 20.1952 3.44136 20.1554C3.18481 20.1058 2.84035 19.9757 2.62454 19.6078C2.38802 19.2045 2.48802 18.8025 2.56849 18.5772C2.64349 18.3673 2.77116 18.1256 2.89225 17.8963C2.89897 17.8836 2.90567 17.8709 2.91235 17.8583C3.27463 17.1718 3.33343 16.6859 3.19064 16.3978C2.52469 15.3904 1.91566 14.1343 1.82501 12.7317C1.78034 12.0404 1.78034 11.3257 1.82501 10.6344C2.06712 6.88805 5.01243 3.88871 8.72893 3.64166C9.70298 3.57691 9.93064 3.56586 10.9314 3.61112C11.3682 3.63087 11.7063 4.00097 11.6865 4.43774C11.6668 4.87452 11.2967 5.21259 10.8599 5.19284Z" fill="#9700DE"/>
<path fill-rule="evenodd" clip-rule="evenodd" d="M6.93734 13.8753C6.93734 14.3126 7.29178 14.667 7.729 14.667H13.2707C13.7079 14.667 14.0623 14.3126 14.0623 13.8753C14.0623 13.4381 13.7079 13.0837 13.2707 13.0837H7.729C7.29178 13.0837 6.93734 13.4381 6.93734 13.8753ZM6.93734 9.91699C6.93734 10.3542 7.29178 10.7087 7.729 10.7087H10.4998C10.9371 10.7087 11.2915 10.3542 11.2915 9.91699C11.2915 9.47977 10.9371 9.12533 10.4998 9.12533H7.729C7.29178 9.12533 6.93734 9.47977 6.93734 9.91699Z" fill="#9700DE"/>
<path fill-rule="evenodd" clip-rule="evenodd" d="M15.6457 4.37533C14.5526 4.37533 13.6665 5.26143 13.6665 6.35449C13.6665 7.44756 14.5526 8.33366 15.6457 8.33366C16.7387 8.33366 17.6248 7.44756 17.6248 6.35449C17.6248 5.26143 16.7387 4.37533 15.6457 4.37533ZM12.0832 6.35449C12.0832 4.38698 13.6782 2.79199 15.6457 2.79199C17.6132 2.79199 19.2082 4.38698 19.2082 6.35449C19.2082 8.32201 17.6132 9.91699 15.6457 9.91699C13.6782 9.91699 12.0832 8.32201 12.0832 6.35449Z" fill="#9700DE"/>
</g>
</g>
<g clip-path="url(#clip1_581_2249)">
<path fill-rule="evenodd" clip-rule="evenodd" d="M31.8599 6.19284C30.9309 6.15083 30.7638 6.1597 29.834 6.22151C26.9274 6.41472 24.597 8.76585 24.405 11.7365C24.3648 12.3598 24.3648 13.0063 24.405 13.6295C24.4715 14.6576 24.9317 15.6543 25.5309 16.5539C25.543 16.5721 25.5543 16.5908 25.5649 16.61C26.1471 17.6641 25.7112 18.842 25.3127 19.5972C25.3077 19.6067 25.3027 19.6161 25.2979 19.6253C26.032 19.6225 26.4977 19.4108 26.8727 19.1343L26.8897 19.1218C27.0244 19.0224 27.1534 18.9273 27.2617 18.8572C27.3519 18.7988 27.5492 18.6728 27.7975 18.6423C28.0529 18.6109 28.2924 18.6952 28.3928 18.7306L28.399 18.7327C28.5332 18.7799 28.7016 18.8493 28.888 18.9261L28.907 18.9339C29.186 19.0488 29.5243 19.124 29.834 19.1446C30.9265 19.2172 32.071 19.2173 33.1657 19.1446C36.0723 18.9514 38.4026 16.6002 38.5946 13.6295C38.6349 13.0063 38.6349 12.3598 38.5946 11.7365C38.5664 11.3002 38.8973 10.9237 39.3336 10.8955C39.7699 10.8673 40.1465 11.1981 40.1747 11.6344C40.2193 12.3257 40.2193 13.0404 40.1747 13.7317C39.9326 17.478 36.9872 20.4774 33.2707 20.7244C32.106 20.8018 30.8913 20.8017 29.7289 20.7244C29.262 20.6934 28.754 20.5833 28.304 20.3979C28.1739 20.3443 28.0751 20.3037 27.9974 20.2731C27.9454 20.3106 27.8855 20.3547 27.8124 20.4086C27.1517 20.8959 26.3171 21.2355 25.1468 21.207C25.1331 21.2066 25.1193 21.2063 25.1053 21.206C24.8941 21.201 24.6469 21.1952 24.4414 21.1554C24.1848 21.1058 23.8404 20.9757 23.6245 20.6078C23.388 20.2045 23.488 19.8025 23.5685 19.5772C23.6435 19.3673 23.7712 19.1256 23.8922 18.8963C23.899 18.8836 23.9057 18.8709 23.9123 18.8583C24.2746 18.1718 24.3334 17.6859 24.1906 17.3978C23.5247 16.3904 22.9157 15.1343 22.825 13.7317C22.7803 13.0404 22.7803 12.3257 22.825 11.6344C23.0671 7.88805 26.0124 4.88871 29.7289 4.64166C30.703 4.57691 30.9306 4.56586 31.9314 4.61112C32.3682 4.63087 32.7063 5.00097 32.6865 5.43774C32.6668 5.87452 32.2967 6.21259 31.8599 6.19284Z" fill="#9700DE"/>
<path fill-rule="evenodd" clip-rule="evenodd" d="M27.9373 14.8753C27.9373 15.3126 28.2918 15.667 28.729 15.667H34.2707C34.7079 15.667 35.0623 15.3126 35.0623 14.8753C35.0623 14.4381 34.7079 14.0837 34.2707 14.0837H28.729C28.2918 14.0837 27.9373 14.4381 27.9373 14.8753ZM27.9373 10.917C27.9373 11.3542 28.2918 11.7087 28.729 11.7087H31.4998C31.9371 11.7087 32.2915 11.3542 32.2915 10.917C32.2915 10.4798 31.9371 10.1253 31.4998 10.1253H28.729C28.2918 10.1253 27.9373 10.4798 27.9373 10.917Z" fill="#9700DE"/>
<path fill-rule="evenodd" clip-rule="evenodd" d="M36.6457 5.37533C35.5526 5.37533 34.6665 6.26143 34.6665 7.35449C34.6665 8.44756 35.5526 9.33366 36.6457 9.33366C37.7387 9.33366 38.6248 8.44756 38.6248 7.35449C38.6248 6.26143 37.7387 5.37533 36.6457 5.37533ZM33.0832 7.35449C33.0832 5.38698 34.6782 3.79199 36.6457 3.79199C38.6132 3.79199 40.2082 5.38698 40.2082 7.35449C40.2082 9.32201 38.6132 10.917 36.6457 10.917C34.6782 10.917 33.0832 9.32201 33.0832 7.35449Z" fill="#9700DE"/>
</g>
<defs>
<clipPath id="clip0_581_2249">
<rect width="19" height="19" fill="white" transform="translate(1 2)"/>
</clipPath>
<clipPath id="clip1_581_2249">
<rect width="19" height="19" fill="white" transform="translate(22 3)"/>
</clipPath>
</defs>
</svg>
