<svg width="14" height="18" viewBox="0 0 14 18" fill="none" xmlns="http://www.w3.org/2000/svg">
<path d="M0 16C0 17.1046 0.895431 18 2 18H12C13.1046 18 14 17.1046 14 16V7.76C14 6.65543 13.1046 5.76 12 5.76H2C0.89543 5.76 0 6.65543 0 7.76V16ZM3.4 16.64C2.29543 16.64 1.4 15.7446 1.4 14.64V9.12C1.4 8.01543 2.29543 7.12 3.4 7.12H10.6C11.7046 7.12 12.6 8.01543 12.6 9.12V14.64C12.6 15.7446 11.7046 16.64 10.6 16.64H3.4ZM3.5 7.78C3.5 8.1666 3.8134 8.48 4.2 8.48C4.5866 8.48 4.9 8.1666 4.9 7.78V4.5632C4.9 3.2304 5.712 2.3736 7 2.36C8.288 2.3464 9.1 3.1896 9.1 4.5632V7.78C9.1 8.1666 9.4134 8.48 9.8 8.48C10.1866 8.48 10.5 8.1666 10.5 7.78V4.5632C10.5 2.4144 9.156 1.0408 7 1C4.844 1.0408 3.5 2.4144 3.5 4.5632V7.78Z" fill="white"/>
</svg>
