<svg width="78" height="24" viewBox="0 0 78 24" fill="none" xmlns="http://www.w3.org/2000/svg">
<path fill-rule="evenodd" clip-rule="evenodd" d="M10.0003 4C9.44802 4 9.00031 4.44772 9.00031 5V7H12.0003C12.5526 7 13.0003 7.44772 13.0003 8C13.0003 8.55228 12.5526 9 12.0003 9L5.12232 9L6.18724 18.2292C6.30368 19.2384 7.15818 20 8.17406 20H17.8266C18.8424 20 19.6969 19.2384 19.8134 18.2292L20.8783 9H17.0003C16.448 9 16.0003 8.55228 16.0003 8C16.0003 7.44772 16.448 7 17.0003 7V5C17.0003 4.44772 16.5526 4 16.0003 4H10.0003ZM19.0003 7V5C19.0003 3.34315 17.6572 2 16.0003 2H10.0003C8.34345 2 7.00031 3.34315 7.00031 5V7H5.12232C3.92692 7 2.99849 8.04173 3.13551 9.22925L4.20042 18.4585C4.43331 20.4769 6.1423 22 8.17406 22H17.8266C19.8583 22 21.5673 20.4769 21.8002 18.4585L22.8651 9.22925C23.0021 8.04173 22.0737 7 20.8783 7H19.0003Z" fill="#8D94A3"/>
<g opacity="0.8">
<path fill-rule="evenodd" clip-rule="evenodd" d="M36.0003 4C35.448 4 35.0003 4.44772 35.0003 5V7H38.0003C38.5526 7 39.0003 7.44772 39.0003 8C39.0003 8.55228 38.5526 9 38.0003 9L31.1223 9L32.1872 18.2292C32.3037 19.2384 33.1582 20 34.1741 20H43.8266C44.8424 20 45.6969 19.2384 45.8134 18.2292L46.8783 9H43.0003C42.448 9 42.0003 8.55228 42.0003 8C42.0003 7.44772 42.448 7 43.0003 7V5C43.0003 4.44772 42.5526 4 42.0003 4H36.0003ZM45.0003 7V5C45.0003 3.34315 43.6572 2 42.0003 2H36.0003C34.3435 2 33.0003 3.34315 33.0003 5V7H31.1223C29.9269 7 28.9985 8.04173 29.1355 9.22925L30.2004 18.4585C30.4333 20.4769 32.1423 22 34.1741 22H43.8266C45.8583 22 47.5673 20.4769 47.8002 18.4585L48.8651 9.22925C49.0021 8.04173 48.0737 7 46.8783 7H45.0003Z" fill="#9700DE"/>
</g>
<path fill-rule="evenodd" clip-rule="evenodd" d="M62.0003 4C61.448 4 61.0003 4.44772 61.0003 5V7H64.0003C64.5526 7 65.0003 7.44772 65.0003 8C65.0003 8.55228 64.5526 9 64.0003 9L57.1223 9L58.1872 18.2292C58.3037 19.2384 59.1582 20 60.1741 20H69.8266C70.8424 20 71.6969 19.2384 71.8134 18.2292L72.8783 9H69.0003C68.448 9 68.0003 8.55228 68.0003 8C68.0003 7.44772 68.448 7 69.0003 7V5C69.0003 4.44772 68.5526 4 68.0003 4H62.0003ZM71.0003 7V5C71.0003 3.34315 69.6572 2 68.0003 2H62.0003C60.3435 2 59.0003 3.34315 59.0003 5V7H57.1223C55.9269 7 54.9985 8.04173 55.1355 9.22925L56.2004 18.4585C56.4333 20.4769 58.1423 22 60.1741 22H69.8266C71.8583 22 73.5673 20.4769 73.8002 18.4585L74.8651 9.22925C75.0021 8.04173 74.0737 7 72.8783 7H71.0003Z" fill="#9700DE"/>
</svg>
