<svg width="63" height="24" viewBox="0 0 63 24" fill="none" xmlns="http://www.w3.org/2000/svg">
<path d="M2 12.15C2 11.5149 2.51487 11 3.15 11C3.78513 11 4.3 11.5149 4.3 12.15V18.85C4.3 19.4851 3.78513 20 3.15 20C2.51487 20 2 19.4851 2 18.85V12.15Z" fill="#8D94A3"/>
<path d="M9 8.15C9 7.51487 9.51487 7 10.15 7C10.7851 7 11.3 7.51487 11.3 8.15V18.85C11.3 19.4851 10.7851 20 10.15 20C9.51487 20 9 19.4851 9 18.85V8.15Z" fill="#8D94A3"/>
<path d="M16 3.15C16 2.51487 16.5149 2 17.15 2C17.7851 2 18.3 2.51487 18.3 3.15V18.85C18.3 19.4851 17.7851 20 17.15 20C16.5149 20 16 19.4851 16 18.85V3.15Z" fill="#8D94A3"/>
<g opacity="0.8">
<path d="M23 12.15C23 11.5149 23.5149 11 24.15 11C24.7851 11 25.3 11.5149 25.3 12.15V18.85C25.3 19.4851 24.7851 20 24.15 20C23.5149 20 23 19.4851 23 18.85V12.15Z" fill="#9700DE"/>
<path d="M30 8.15C30 7.51487 30.5149 7 31.15 7C31.7851 7 32.3 7.51487 32.3 8.15V18.85C32.3 19.4851 31.7851 20 31.15 20C30.5149 20 30 19.4851 30 18.85V8.15Z" fill="#9700DE"/>
<path d="M37 3.15C37 2.51487 37.5149 2 38.15 2C38.7851 2 39.3 2.51487 39.3 3.15V18.85C39.3 19.4851 38.7851 20 38.15 20C37.5149 20 37 19.4851 37 18.85V3.15Z" fill="#9700DE"/>
</g>
<path d="M44 12.15C44 11.5149 44.5149 11 45.15 11C45.7851 11 46.3 11.5149 46.3 12.15V18.85C46.3 19.4851 45.7851 20 45.15 20C44.5149 20 44 19.4851 44 18.85V12.15Z" fill="#9700DE"/>
<path d="M51 8.15C51 7.51487 51.5149 7 52.15 7C52.7851 7 53.3 7.51487 53.3 8.15V18.85C53.3 19.4851 52.7851 20 52.15 20C51.5149 20 51 19.4851 51 18.85V8.15Z" fill="#9700DE"/>
<path d="M58 3.15C58 2.51487 58.5149 2 59.15 2C59.7851 2 60.3 2.51487 60.3 3.15V18.85C60.3 19.4851 59.7851 20 59.15 20C58.5149 20 58 19.4851 58 18.85V3.15Z" fill="#9700DE"/>
</svg>
