<svg width="14" height="15" viewBox="0 0 14 15" fill="none" xmlns="http://www.w3.org/2000/svg">
<path fill-rule="evenodd" clip-rule="evenodd" d="M4.84615 0C5.14354 0 5.38462 0.23427 5.38462 0.523256V1.40275C5.86509 1.39535 6.39896 1.39535 6.99206 1.39535H7.00794C7.60104 1.39535 8.13491 1.39535 8.61538 1.40275V0.523256C8.61538 0.23427 8.85646 0 9.15385 0C9.45123 0 9.69231 0.23427 9.69231 0.523256V1.43971C10.7778 1.50584 11.6117 1.67675 12.2983 2.1615C12.6488 2.40894 12.957 2.70843 13.2116 3.049C13.7873 3.819 13.9328 4.77968 13.9789 6.08673C14 6.68479 14 7.38064 14 8.18999V8.20536C14 9.01471 14 9.71056 13.9789 10.3086C13.9328 11.6157 13.7873 12.5764 13.2116 13.3463C12.957 13.6869 12.6488 13.9864 12.2983 14.2338C11.5059 14.7933 10.5173 14.9347 9.17228 14.9795C8.55681 15 7.84069 15 7.00775 15H6.9675C5.64897 15 4.61541 15 3.79542 14.9137C2.95862 14.8256 2.28061 14.6426 1.70171 14.2338C1.35124 13.9864 1.04304 13.6869 0.788417 13.3463C0.367822 12.7838 0.179492 12.1249 0.0888304 11.3118C-1.05164e-05 10.5149 -5.85115e-06 9.51055 9.70837e-08 8.22924L1.8267e-07 8.18995C-3.12956e-08 7.38061 -2.0193e-07 6.68478 0.0210851 6.08673C0.0671678 4.77968 0.212725 3.819 0.788417 3.049C1.04304 2.70843 1.35124 2.40894 1.70171 2.1615C2.38829 1.67675 3.22221 1.50584 4.30769 1.43971V0.523256C4.30769 0.23427 4.54877 0 4.84615 0ZM4.30769 2.48878C3.32981 2.55413 2.76538 2.70408 2.33471 3.00815C2.07567 3.19103 1.84787 3.4124 1.65967 3.66412C1.34677 4.08263 1.19246 4.63113 1.12521 5.5814H12.8748C12.8075 4.63113 12.6532 4.08263 12.3403 3.66412C12.1521 3.4124 11.9243 3.19104 11.6653 3.00815C11.2346 2.70408 10.6702 2.55413 9.69231 2.48878V2.61628C9.69231 2.90527 9.45123 3.13953 9.15385 3.13953C8.85646 3.13953 8.61538 2.90527 8.61538 2.61628V2.44939C8.14184 2.44189 7.60851 2.44186 7 2.44186C6.39149 2.44186 5.85816 2.44189 5.38462 2.44939V2.61628C5.38462 2.90527 5.14354 3.13953 4.84615 3.13953C4.54877 3.13953 4.30769 2.90527 4.30769 2.61628V2.48878ZM12.9153 6.62791H1.08467C1.07696 7.08808 1.07692 7.60635 1.07692 8.19767C1.07692 9.51738 1.07766 10.4651 1.15949 11.199C1.24022 11.9232 1.39468 12.3768 1.65967 12.7312C1.84787 12.9829 2.07567 13.2043 2.33471 13.3872C2.69943 13.6447 3.16625 13.7948 3.91142 13.8733C4.66666 13.9528 5.64195 13.9535 7 13.9535C7.60907 13.9535 8.14282 13.9535 8.61669 13.9459C8.61983 13.6148 8.63044 13.371 8.66621 13.1515C8.94598 11.435 10.3314 10.0887 12.0978 9.81683C12.3237 9.78207 12.5745 9.77176 12.9153 9.76871C12.923 9.30822 12.9231 8.78954 12.9231 8.19767C12.9231 7.60635 12.923 7.08808 12.9153 6.62791ZM12.8747 10.8159C12.5839 10.8192 12.4135 10.8278 12.2663 10.8505C10.9606 11.0514 9.93666 12.0465 9.72987 13.3152C9.70656 13.4583 9.69767 13.6239 9.69431 13.9064C10.671 13.841 11.2349 13.6911 11.6653 13.3872C11.9243 13.2043 12.1521 12.9829 12.3403 12.7312C12.653 12.313 12.8073 11.765 12.8747 10.8159ZM4.30769 8.89535C4.30769 8.60636 4.54877 8.37209 4.84615 8.37209H9.15385C9.45123 8.37209 9.69231 8.60636 9.69231 8.89535C9.69231 9.18433 9.45123 9.4186 9.15385 9.4186H4.84615C4.54877 9.4186 4.30769 9.18433 4.30769 8.89535Z" fill="#AAB0B9"/>
</svg>
