<svg width="63" height="24" viewBox="0 0 63 24" fill="none" xmlns="http://www.w3.org/2000/svg">
<path d="M10.9746 2.12679L12.595 7.33803C12.8546 8.17314 13.613 8.76946 14.502 8.76946H19.7455C19.9692 8.76946 20.1455 8.90612 20.2201 9.14625C20.2954 9.3884 20.2317 9.6344 20.0279 9.78911L15.7859 13.0098C15.0874 13.5401 14.8101 14.4623 15.0683 15.2927L16.6887 20.504C16.7751 20.7818 16.6712 21.0142 16.4965 21.1468C16.3266 21.2758 16.1234 21.2924 15.9316 21.1468L11.6895 17.9261C10.9826 17.3894 10.0174 17.3894 9.31051 17.9261L5.06842 21.1468C4.87663 21.2924 4.67339 21.2758 4.50352 21.1468C4.32877 21.0142 4.22495 20.7818 4.31133 20.504L5.93166 15.2927C6.18988 14.4623 5.91261 13.5401 5.21415 13.0098L0.972058 9.78911C0.768284 9.6344 0.704571 9.3884 0.779862 9.14625C0.854526 8.90612 1.03077 8.76946 1.25451 8.76946H6.49802C7.38698 8.76946 8.14536 8.17314 8.40502 7.33803L10.0254 2.12679C10.1816 1.62441 10.8184 1.6244 10.9746 2.12679Z" stroke="#AAB0B9" stroke-width="1.5"/>
<path d="M31.9746 2.12679L33.595 7.33803C33.8546 8.17314 34.613 8.76946 35.502 8.76946H40.7455C40.9692 8.76946 41.1455 8.90612 41.2201 9.14625C41.2954 9.3884 41.2317 9.6344 41.0279 9.78911L36.7859 13.0098C36.0874 13.5401 35.8101 14.4623 36.0683 15.2927L37.6887 20.504C37.7751 20.7818 37.6712 21.0142 37.4965 21.1468C37.3266 21.2758 37.1234 21.2924 36.9316 21.1468L32.6895 17.9261C31.9826 17.3894 31.0174 17.3894 30.3105 17.9261L26.0684 21.1468C25.8766 21.2924 25.6734 21.2758 25.5035 21.1468C25.3288 21.0142 25.2249 20.7818 25.3113 20.504L26.9317 15.2927C27.1899 14.4623 26.9126 13.5401 26.2141 13.0098L21.9721 9.78911C21.7683 9.6344 21.7046 9.3884 21.7799 9.14625C21.8545 8.90612 22.0308 8.76946 22.2545 8.76946H27.498C28.387 8.76946 29.1454 8.17314 29.405 7.33803L31.0254 2.12679C31.1816 1.62441 31.8184 1.6244 31.9746 2.12679Z" stroke="#FB9BAD" stroke-width="1.5"/>
<path d="M52.9746 2.12679L54.595 7.33803C54.8546 8.17314 55.613 8.76946 56.502 8.76946H61.7455C61.9692 8.76946 62.1455 8.90612 62.2201 9.14625C62.2954 9.3884 62.2317 9.6344 62.0279 9.78911L57.7859 13.0098C57.0874 13.5401 56.8101 14.4623 57.0683 15.2927L58.6887 20.504C58.7751 20.7818 58.6712 21.0142 58.4965 21.1468C58.3266 21.2758 58.1234 21.2924 57.9316 21.1468L53.6895 17.9261C52.9826 17.3894 52.0174 17.3894 51.3105 17.9261L47.0684 21.1468C46.8766 21.2924 46.6734 21.2758 46.5035 21.1468C46.3288 21.0142 46.2249 20.7818 46.3113 20.504L47.9317 15.2927C48.1899 14.4623 47.9126 13.5401 47.2141 13.0098L42.9721 9.78911C42.7683 9.6344 42.7046 9.3884 42.7799 9.14625C42.8545 8.90612 43.0308 8.76946 43.2545 8.76946H48.498C49.387 8.76946 50.1454 8.17314 50.405 7.33803L52.0254 2.12679C52.1816 1.62441 52.8184 1.6244 52.9746 2.12679Z" stroke="#FB9BAD" stroke-width="1.5"/>
</svg>
