<svg width="30" height="29" viewBox="0 0 30 29" fill="none" xmlns="http://www.w3.org/2000/svg">
<path fill-rule="evenodd" clip-rule="evenodd" d="M2 13.2895C2 7.05446 7.05448 2 13.2895 2C19.5245 2 24.579 7.05446 24.579 13.2895C24.579 19.5244 19.5245 24.5789 13.2895 24.5789C7.05448 24.5789 2 19.5244 2 13.2895ZM13.2895 4.05263C8.18812 4.05263 4.05264 8.1881 4.05264 13.2895C4.05264 18.3908 8.18812 22.5263 13.2895 22.5263C18.3909 22.5263 22.5264 18.3908 22.5264 13.2895C22.5264 8.1881 18.3909 4.05263 13.2895 4.05263ZM21.6867 21.6866C22.0875 21.2858 22.7373 21.2858 23.1381 21.6866L27.6994 26.248C28.1002 26.6488 28.1002 27.2986 27.6994 27.6994C27.2986 28.1002 26.6488 28.1002 26.248 27.6994L21.6867 23.1381C21.2859 22.7373 21.2859 22.0874 21.6867 21.6866Z" fill="white"/>
</svg>
