<svg width="30" height="30" viewBox="0 0 30 30" fill="none" xmlns="http://www.w3.org/2000/svg">
<rect x="0.5" y="0.5" width="29" height="29" rx="14.5" stroke="#3498DB"/>
<path d="M15.7485 13.1318V20H13.7617V13.1318H15.7485ZM13.6411 11.3545C13.6411 11.0667 13.7427 10.8319 13.9458 10.6499C14.1489 10.4637 14.4155 10.3706 14.7456 10.3706C15.0757 10.3706 15.3423 10.4637 15.5454 10.6499C15.7528 10.8319 15.8564 11.0667 15.8564 11.3545C15.8564 11.638 15.7528 11.8729 15.5454 12.0591C15.3423 12.241 15.0757 12.332 14.7456 12.332C14.4155 12.332 14.1489 12.241 13.9458 12.0591C13.7427 11.8729 13.6411 11.638 13.6411 11.3545Z" fill="#3498DB"/>
</svg>
