<svg width="105" height="40" viewBox="0 0 105 40" fill="none" xmlns="http://www.w3.org/2000/svg">
<path d="M2 21.0018C2 19.8692 2.94762 18.951 4.11656 18.951C5.28551 18.951 6.23313 19.8692 6.23313 21.0017V32.9493C6.23313 34.0819 5.28551 35 4.11656 35C2.94762 35 2 34.0819 2 32.9493V21.0018Z" fill="#AAB0B9"/>
<path d="M14.8834 13.8689C14.8834 12.7363 15.8311 11.8182 17 11.8182C18.1689 11.8182 19.1166 12.7363 19.1166 13.8689V32.9493C19.1166 34.0819 18.1689 35 17 35C15.8311 35 14.8834 34.0819 14.8834 32.9493V13.8689Z" fill="#AAB0B9"/>
<path d="M27.7669 7.0507C27.7669 5.91813 28.7145 5 29.8834 5C31.0524 5 32 5.91813 32 7.0507V32.9493C32 34.0819 31.0524 35 29.8834 35C28.7145 35 27.7669 34.0819 27.7669 32.9493V7.0507Z" fill="#AAB0B9"/>
<path d="M37 21.0018C37 19.8692 37.9476 18.951 39.1166 18.951C40.2855 18.951 41.2331 19.8692 41.2331 21.0017V32.9493C41.2331 34.0819 40.2855 35 39.1166 35C37.9476 35 37 34.0819 37 32.9493V21.0018Z" fill="#E3007B"/>
<path d="M49.8834 13.8689C49.8834 12.7363 50.8311 11.8182 52 11.8182C53.1689 11.8182 54.1166 12.7363 54.1166 13.8689V32.9493C54.1166 34.0819 53.1689 35 52 35C50.8311 35 49.8834 34.0819 49.8834 32.9493V13.8689Z" fill="#E3007B"/>
<path d="M62.7669 7.0507C62.7669 5.91813 63.7145 5 64.8834 5C66.0524 5 67 5.91813 67 7.0507V32.9493C67 34.0819 66.0524 35 64.8834 35C63.7145 35 62.7669 34.0819 62.7669 32.9493V7.0507Z" fill="#E3007B"/>
<path d="M72 21.0018C72 19.8692 72.9476 18.951 74.1166 18.951C75.2855 18.951 76.2331 19.8692 76.2331 21.0017V32.9493C76.2331 34.0819 75.2855 35 74.1166 35C72.9476 35 72 34.0819 72 32.9493V21.0018Z" fill="#E9218D"/>
<path d="M84.8834 13.8689C84.8834 12.7363 85.8311 11.8182 87 11.8182C88.1689 11.8182 89.1166 12.7363 89.1166 13.8689V32.9493C89.1166 34.0819 88.1689 35 87 35C85.8311 35 84.8834 34.0819 84.8834 32.9493V13.8689Z" fill="#E9218D"/>
<path d="M97.7669 7.0507C97.7669 5.91813 98.7145 5 99.8834 5C101.052 5 102 5.91813 102 7.0507V32.9493C102 34.0819 101.052 35 99.8834 35C98.7145 35 97.7669 34.0819 97.7669 32.9493V7.0507Z" fill="#E9218D"/>
</svg>
