<svg width="25" height="18" viewBox="0 0 25 18" fill="none" xmlns="http://www.w3.org/2000/svg">
<path fill-rule="evenodd" clip-rule="evenodd" d="M3 1.88889C3 1.39797 3.41161 1 3.91935 1H21.0806C21.5884 1 22 1.39797 22 1.88889C22 2.37981 21.5884 2.77778 21.0806 2.77778H3.91935C3.41161 2.77778 3 2.37981 3 1.88889ZM3 9C3 8.50908 3.41161 8.11111 3.91935 8.11111H11.2742C11.7819 8.11111 12.1935 8.50908 12.1935 9C12.1935 9.49092 11.7819 9.88889 11.2742 9.88889H3.91935C3.41161 9.88889 3 9.49092 3 9ZM3 16.1111C3 15.6202 3.41161 15.2222 3.91935 15.2222H21.0806C21.5884 15.2222 22 15.6202 22 16.1111C22 16.602 21.5884 17 21.0806 17H3.91935C3.41161 17 3 16.602 3 16.1111Z" fill="white"/>
</svg>
