<svg width="50" height="18" viewBox="0 0 50 18" fill="none" xmlns="http://www.w3.org/2000/svg">
<path fill-rule="evenodd" clip-rule="evenodd" d="M17 3.61111C17 3.2736 17.325 3 17.7258 3H31.2742C31.675 3 32 3.2736 32 3.61111C32 3.94862 31.675 4.22222 31.2742 4.22222H17.7258C17.325 4.22222 17 3.94862 17 3.61111ZM17 8.5C17 8.16249 17.325 7.88889 17.7258 7.88889H23.5323C23.9331 7.88889 24.2581 8.16249 24.2581 8.5C24.2581 8.83751 23.9331 9.11111 23.5323 9.11111H17.7258C17.325 9.11111 17 8.83751 17 8.5ZM17 13.3889C17 13.0514 17.325 12.7778 17.7258 12.7778H31.2742C31.675 12.7778 32 13.0514 32 13.3889C32 13.7264 31.675 14 31.2742 14H17.7258C17.325 14 17 13.7264 17 13.3889Z" fill="black"/>
</svg>
