<svg width="90" height="165" viewBox="0 0 90 165" fill="none" xmlns="http://www.w3.org/2000/svg">
<path fill-rule="evenodd" clip-rule="evenodd" d="M8.30233 18.2558C7.72435 18.2558 7.25581 18.7244 7.25581 19.3023C7.25581 19.8803 7.72435 20.3488 8.30233 20.3488C8.8803 20.3488 9.34884 19.8803 9.34884 19.3023C9.34884 18.7244 8.8803 18.2558 8.30233 18.2558ZM6 19.3023C6 18.0308 7.03079 17 8.30233 17C9.57387 17 10.6047 18.0308 10.6047 19.3023C10.6047 20.5739 9.57387 21.6047 8.30233 21.6047C7.03079 21.6047 6 20.5739 6 19.3023ZM15 18.2558C14.422 18.2558 13.9535 18.7244 13.9535 19.3023C13.9535 19.8803 14.422 20.3488 15 20.3488C15.578 20.3488 16.0465 19.8803 16.0465 19.3023C16.0465 18.7244 15.578 18.2558 15 18.2558ZM12.6977 19.3023C12.6977 18.0308 13.7285 17 15 17C16.2715 17 17.3023 18.0308 17.3023 19.3023C17.3023 20.5739 16.2715 21.6047 15 21.6047C13.7285 21.6047 12.6977 20.5739 12.6977 19.3023ZM21.6977 18.2558C21.1197 18.2558 20.6512 18.7244 20.6512 19.3023C20.6512 19.8803 21.1197 20.3488 21.6977 20.3488C22.2757 20.3488 22.7442 19.8803 22.7442 19.3023C22.7442 18.7244 22.2757 18.2558 21.6977 18.2558ZM19.3954 19.3023C19.3954 18.0308 20.4261 17 21.6977 17C22.9692 17 24 18.0308 24 19.3023C24 20.5739 22.9692 21.6047 21.6977 21.6047C20.4261 21.6047 19.3954 20.5739 19.3954 19.3023ZM8.30233 24.9535C7.72435 24.9535 7.25581 25.422 7.25581 26C7.25581 26.578 7.72435 27.0465 8.30233 27.0465C8.8803 27.0465 9.34884 26.578 9.34884 26C9.34884 25.422 8.8803 24.9535 8.30233 24.9535ZM6 26C6 24.7285 7.03079 23.6977 8.30233 23.6977C9.57387 23.6977 10.6047 24.7285 10.6047 26C10.6047 27.2715 9.57387 28.3023 8.30233 28.3023C7.03079 28.3023 6 27.2715 6 26ZM15 24.9535C14.422 24.9535 13.9535 25.422 13.9535 26C13.9535 26.578 14.422 27.0465 15 27.0465C15.578 27.0465 16.0465 26.578 16.0465 26C16.0465 25.422 15.578 24.9535 15 24.9535ZM12.6977 26C12.6977 24.7285 13.7285 23.6977 15 23.6977C16.2715 23.6977 17.3023 24.7285 17.3023 26C17.3023 27.2715 16.2715 28.3023 15 28.3023C13.7285 28.3023 12.6977 27.2715 12.6977 26ZM21.6977 24.9535C21.1197 24.9535 20.6512 25.422 20.6512 26C20.6512 26.578 21.1197 27.0465 21.6977 27.0465C22.2757 27.0465 22.7442 26.578 22.7442 26C22.7442 25.422 22.2757 24.9535 21.6977 24.9535ZM19.3954 26C19.3954 24.7285 20.4261 23.6977 21.6977 23.6977C22.9692 23.6977 24 24.7285 24 26C24 27.2715 22.9692 28.3023 21.6977 28.3023C20.4261 28.3023 19.3954 27.2715 19.3954 26ZM8.30233 31.6512C7.72435 31.6512 7.25581 32.1197 7.25581 32.6977C7.25581 33.2756 7.72435 33.7442 8.30233 33.7442C8.8803 33.7442 9.34884 33.2756 9.34884 32.6977C9.34884 32.1197 8.8803 31.6512 8.30233 31.6512ZM6 32.6977C6 31.4261 7.03079 30.3953 8.30233 30.3953C9.57387 30.3953 10.6047 31.4261 10.6047 32.6977C10.6047 33.9692 9.57386 35 8.30233 35C7.03079 35 6 33.9692 6 32.6977ZM15 31.6512C14.422 31.6512 13.9535 32.1197 13.9535 32.6977C13.9535 33.2756 14.422 33.7442 15 33.7442C15.578 33.7442 16.0465 33.2756 16.0465 32.6977C16.0465 32.1197 15.578 31.6512 15 31.6512ZM12.6977 32.6977C12.6977 31.4261 13.7285 30.3953 15 30.3953C16.2715 30.3953 17.3023 31.4261 17.3023 32.6977C17.3023 33.9692 16.2715 35 15 35C13.7285 35 12.6977 33.9692 12.6977 32.6977ZM21.6977 31.6512C21.1197 31.6512 20.6512 32.1197 20.6512 32.6977C20.6512 33.2756 21.1197 33.7442 21.6977 33.7442C22.2757 33.7442 22.7442 33.2756 22.7442 32.6977C22.7442 32.1197 22.2757 31.6512 21.6977 31.6512ZM19.3954 32.6977C19.3954 31.4261 20.4261 30.3953 21.6977 30.3953C22.9692 30.3953 24 31.4261 24 32.6977C24 33.9692 22.9692 35 21.6977 35C20.4261 35 19.3954 33.9692 19.3954 32.6977Z" fill="#747F94"/>
<path fill-rule="evenodd" clip-rule="evenodd" d="M38.3023 18.2558C37.7244 18.2558 37.2558 18.7244 37.2558 19.3023C37.2558 19.8803 37.7244 20.3488 38.3023 20.3488C38.8803 20.3488 39.3488 19.8803 39.3488 19.3023C39.3488 18.7244 38.8803 18.2558 38.3023 18.2558ZM36 19.3023C36 18.0308 37.0308 17 38.3023 17C39.5739 17 40.6047 18.0308 40.6047 19.3023C40.6047 20.5739 39.5739 21.6047 38.3023 21.6047C37.0308 21.6047 36 20.5739 36 19.3023ZM45 18.2558C44.422 18.2558 43.9535 18.7244 43.9535 19.3023C43.9535 19.8803 44.422 20.3488 45 20.3488C45.578 20.3488 46.0465 19.8803 46.0465 19.3023C46.0465 18.7244 45.578 18.2558 45 18.2558ZM42.6977 19.3023C42.6977 18.0308 43.7285 17 45 17C46.2715 17 47.3023 18.0308 47.3023 19.3023C47.3023 20.5739 46.2715 21.6047 45 21.6047C43.7285 21.6047 42.6977 20.5739 42.6977 19.3023ZM51.6977 18.2558C51.1197 18.2558 50.6512 18.7244 50.6512 19.3023C50.6512 19.8803 51.1197 20.3488 51.6977 20.3488C52.2757 20.3488 52.7442 19.8803 52.7442 19.3023C52.7442 18.7244 52.2757 18.2558 51.6977 18.2558ZM49.3954 19.3023C49.3954 18.0308 50.4261 17 51.6977 17C52.9692 17 54 18.0308 54 19.3023C54 20.5739 52.9692 21.6047 51.6977 21.6047C50.4261 21.6047 49.3954 20.5739 49.3954 19.3023ZM38.3023 24.9535C37.7244 24.9535 37.2558 25.422 37.2558 26C37.2558 26.578 37.7244 27.0465 38.3023 27.0465C38.8803 27.0465 39.3488 26.578 39.3488 26C39.3488 25.422 38.8803 24.9535 38.3023 24.9535ZM36 26C36 24.7285 37.0308 23.6977 38.3023 23.6977C39.5739 23.6977 40.6047 24.7285 40.6047 26C40.6047 27.2715 39.5739 28.3023 38.3023 28.3023C37.0308 28.3023 36 27.2715 36 26ZM45 24.9535C44.422 24.9535 43.9535 25.422 43.9535 26C43.9535 26.578 44.422 27.0465 45 27.0465C45.578 27.0465 46.0465 26.578 46.0465 26C46.0465 25.422 45.578 24.9535 45 24.9535ZM42.6977 26C42.6977 24.7285 43.7285 23.6977 45 23.6977C46.2715 23.6977 47.3023 24.7285 47.3023 26C47.3023 27.2715 46.2715 28.3023 45 28.3023C43.7285 28.3023 42.6977 27.2715 42.6977 26ZM51.6977 24.9535C51.1197 24.9535 50.6512 25.422 50.6512 26C50.6512 26.578 51.1197 27.0465 51.6977 27.0465C52.2757 27.0465 52.7442 26.578 52.7442 26C52.7442 25.422 52.2757 24.9535 51.6977 24.9535ZM49.3954 26C49.3954 24.7285 50.4261 23.6977 51.6977 23.6977C52.9692 23.6977 54 24.7285 54 26C54 27.2715 52.9692 28.3023 51.6977 28.3023C50.4261 28.3023 49.3954 27.2715 49.3954 26ZM38.3023 31.6512C37.7244 31.6512 37.2558 32.1197 37.2558 32.6977C37.2558 33.2756 37.7244 33.7442 38.3023 33.7442C38.8803 33.7442 39.3488 33.2756 39.3488 32.6977C39.3488 32.1197 38.8803 31.6512 38.3023 31.6512ZM36 32.6977C36 31.4261 37.0308 30.3953 38.3023 30.3953C39.5739 30.3953 40.6047 31.4261 40.6047 32.6977C40.6047 33.9692 39.5739 35 38.3023 35C37.0308 35 36 33.9692 36 32.6977ZM45 31.6512C44.422 31.6512 43.9535 32.1197 43.9535 32.6977C43.9535 33.2756 44.422 33.7442 45 33.7442C45.578 33.7442 46.0465 33.2756 46.0465 32.6977C46.0465 32.1197 45.578 31.6512 45 31.6512ZM42.6977 32.6977C42.6977 31.4261 43.7285 30.3953 45 30.3953C46.2715 30.3953 47.3023 31.4261 47.3023 32.6977C47.3023 33.9692 46.2715 35 45 35C43.7285 35 42.6977 33.9692 42.6977 32.6977ZM51.6977 31.6512C51.1197 31.6512 50.6512 32.1197 50.6512 32.6977C50.6512 33.2756 51.1197 33.7442 51.6977 33.7442C52.2757 33.7442 52.7442 33.2756 52.7442 32.6977C52.7442 32.1197 52.2757 31.6512 51.6977 31.6512ZM49.3954 32.6977C49.3954 31.4261 50.4261 30.3953 51.6977 30.3953C52.9692 30.3953 54 31.4261 54 32.6977C54 33.9692 52.9692 35 51.6977 35C50.4261 35 49.3954 33.9692 49.3954 32.6977Z" fill="#AAB0B9"/>
<path fill-rule="evenodd" clip-rule="evenodd" d="M68.3023 18.2558C67.7244 18.2558 67.2558 18.7244 67.2558 19.3023C67.2558 19.8803 67.7244 20.3488 68.3023 20.3488C68.8803 20.3488 69.3488 19.8803 69.3488 19.3023C69.3488 18.7244 68.8803 18.2558 68.3023 18.2558ZM66 19.3023C66 18.0308 67.0308 17 68.3023 17C69.5739 17 70.6047 18.0308 70.6047 19.3023C70.6047 20.5739 69.5739 21.6047 68.3023 21.6047C67.0308 21.6047 66 20.5739 66 19.3023ZM75 18.2558C74.422 18.2558 73.9535 18.7244 73.9535 19.3023C73.9535 19.8803 74.422 20.3488 75 20.3488C75.578 20.3488 76.0465 19.8803 76.0465 19.3023C76.0465 18.7244 75.578 18.2558 75 18.2558ZM72.6977 19.3023C72.6977 18.0308 73.7285 17 75 17C76.2715 17 77.3023 18.0308 77.3023 19.3023C77.3023 20.5739 76.2715 21.6047 75 21.6047C73.7285 21.6047 72.6977 20.5739 72.6977 19.3023ZM81.6977 18.2558C81.1197 18.2558 80.6512 18.7244 80.6512 19.3023C80.6512 19.8803 81.1197 20.3488 81.6977 20.3488C82.2757 20.3488 82.7442 19.8803 82.7442 19.3023C82.7442 18.7244 82.2757 18.2558 81.6977 18.2558ZM79.3954 19.3023C79.3954 18.0308 80.4261 17 81.6977 17C82.9692 17 84 18.0308 84 19.3023C84 20.5739 82.9692 21.6047 81.6977 21.6047C80.4261 21.6047 79.3954 20.5739 79.3954 19.3023ZM68.3023 24.9535C67.7244 24.9535 67.2558 25.422 67.2558 26C67.2558 26.578 67.7244 27.0465 68.3023 27.0465C68.8803 27.0465 69.3488 26.578 69.3488 26C69.3488 25.422 68.8803 24.9535 68.3023 24.9535ZM66 26C66 24.7285 67.0308 23.6977 68.3023 23.6977C69.5739 23.6977 70.6047 24.7285 70.6047 26C70.6047 27.2715 69.5739 28.3023 68.3023 28.3023C67.0308 28.3023 66 27.2715 66 26ZM75 24.9535C74.422 24.9535 73.9535 25.422 73.9535 26C73.9535 26.578 74.422 27.0465 75 27.0465C75.578 27.0465 76.0465 26.578 76.0465 26C76.0465 25.422 75.578 24.9535 75 24.9535ZM72.6977 26C72.6977 24.7285 73.7285 23.6977 75 23.6977C76.2715 23.6977 77.3023 24.7285 77.3023 26C77.3023 27.2715 76.2715 28.3023 75 28.3023C73.7285 28.3023 72.6977 27.2715 72.6977 26ZM81.6977 24.9535C81.1197 24.9535 80.6512 25.422 80.6512 26C80.6512 26.578 81.1197 27.0465 81.6977 27.0465C82.2757 27.0465 82.7442 26.578 82.7442 26C82.7442 25.422 82.2757 24.9535 81.6977 24.9535ZM79.3954 26C79.3954 24.7285 80.4261 23.6977 81.6977 23.6977C82.9692 23.6977 84 24.7285 84 26C84 27.2715 82.9692 28.3023 81.6977 28.3023C80.4261 28.3023 79.3954 27.2715 79.3954 26ZM68.3023 31.6512C67.7244 31.6512 67.2558 32.1197 67.2558 32.6977C67.2558 33.2756 67.7244 33.7442 68.3023 33.7442C68.8803 33.7442 69.3488 33.2756 69.3488 32.6977C69.3488 32.1197 68.8803 31.6512 68.3023 31.6512ZM66 32.6977C66 31.4261 67.0308 30.3953 68.3023 30.3953C69.5739 30.3953 70.6047 31.4261 70.6047 32.6977C70.6047 33.9692 69.5739 35 68.3023 35C67.0308 35 66 33.9692 66 32.6977ZM75 31.6512C74.422 31.6512 73.9535 32.1197 73.9535 32.6977C73.9535 33.2756 74.422 33.7442 75 33.7442C75.578 33.7442 76.0465 33.2756 76.0465 32.6977C76.0465 32.1197 75.578 31.6512 75 31.6512ZM72.6977 32.6977C72.6977 31.4261 73.7285 30.3953 75 30.3953C76.2715 30.3953 77.3023 31.4261 77.3023 32.6977C77.3023 33.9692 76.2715 35 75 35C73.7285 35 72.6977 33.9692 72.6977 32.6977ZM81.6977 31.6512C81.1197 31.6512 80.6512 32.1197 80.6512 32.6977C80.6512 33.2756 81.1197 33.7442 81.6977 33.7442C82.2757 33.7442 82.7442 33.2756 82.7442 32.6977C82.7442 32.1197 82.2757 31.6512 81.6977 31.6512ZM79.3954 32.6977C79.3954 31.4261 80.4261 30.3953 81.6977 30.3953C82.9692 30.3953 84 31.4261 84 32.6977C84 33.9692 82.9692 35 81.6977 35C80.4261 35 79.3954 33.9692 79.3954 32.6977Z" fill="#EB002A"/>
<path fill-rule="evenodd" clip-rule="evenodd" d="M5 76.5556C5 75.6964 5.6924 75 6.54651 75H8.31395C9.16807 75 9.86047 75.6964 9.86047 76.5556V78.3333C9.86047 79.1924 9.16807 79.8889 8.31395 79.8889H6.54651C5.6924 79.8889 5 79.1924 5 78.3333V76.5556ZM6.54651 76.3333C6.4245 76.3333 6.32558 76.4328 6.32558 76.5556V78.3333C6.32558 78.4561 6.4245 78.5556 6.54651 78.5556H8.31395C8.43597 78.5556 8.53488 78.4561 8.53488 78.3333V76.5556C8.53488 76.4328 8.43597 76.3333 8.31395 76.3333H6.54651ZM12.0698 75.6667C12.0698 75.2985 12.3665 75 12.7326 75H18.0349C18.4009 75 18.6977 75.2985 18.6977 75.6667C18.6977 76.0349 18.4009 76.3333 18.0349 76.3333H12.7326C12.3665 76.3333 12.0698 76.0349 12.0698 75.6667ZM12.0698 79.2222C12.0698 78.854 12.3665 78.5556 12.7326 78.5556H23.3372C23.7033 78.5556 24 78.854 24 79.2222C24 79.5904 23.7033 79.8889 23.3372 79.8889H12.7326C12.3665 79.8889 12.0698 79.5904 12.0698 79.2222ZM5 83.6667C5 82.8076 5.6924 82.1111 6.54651 82.1111H8.31395C9.16807 82.1111 9.86047 82.8076 9.86047 83.6667V85.4444C9.86047 86.3036 9.16807 87 8.31395 87H6.54651C5.6924 87 5 86.3036 5 85.4444V83.6667ZM6.54651 83.4444C6.4245 83.4444 6.32558 83.5439 6.32558 83.6667V85.4444C6.32558 85.5672 6.4245 85.6667 6.54651 85.6667H8.31395C8.43597 85.6667 8.53488 85.5672 8.53488 85.4444V83.6667C8.53488 83.5439 8.43597 83.4444 8.31395 83.4444H6.54651ZM12.0698 82.7778C12.0698 82.4096 12.3665 82.1111 12.7326 82.1111H18.0349C18.4009 82.1111 18.6977 82.4096 18.6977 82.7778C18.6977 83.146 18.4009 83.4444 18.0349 83.4444H12.7326C12.3665 83.4444 12.0698 83.146 12.0698 82.7778ZM12.0698 86.3333C12.0698 85.9651 12.3665 85.6667 12.7326 85.6667H23.3372C23.7033 85.6667 24 85.9651 24 86.3333C24 86.7015 23.7033 87 23.3372 87H12.7326C12.3665 87 12.0698 86.7015 12.0698 86.3333Z" fill="#747F94"/>
<path fill-rule="evenodd" clip-rule="evenodd" d="M35 76.5556C35 75.6964 35.6924 75 36.5465 75H38.314C39.1681 75 39.8605 75.6964 39.8605 76.5556V78.3333C39.8605 79.1924 39.1681 79.8889 38.314 79.8889H36.5465C35.6924 79.8889 35 79.1924 35 78.3333V76.5556ZM36.5465 76.3333C36.4245 76.3333 36.3256 76.4328 36.3256 76.5556V78.3333C36.3256 78.4561 36.4245 78.5556 36.5465 78.5556H38.314C38.436 78.5556 38.5349 78.4561 38.5349 78.3333V76.5556C38.5349 76.4328 38.436 76.3333 38.314 76.3333H36.5465ZM42.0698 75.6667C42.0698 75.2985 42.3665 75 42.7326 75H48.0349C48.4009 75 48.6977 75.2985 48.6977 75.6667C48.6977 76.0349 48.4009 76.3333 48.0349 76.3333H42.7326C42.3665 76.3333 42.0698 76.0349 42.0698 75.6667ZM42.0698 79.2222C42.0698 78.854 42.3665 78.5556 42.7326 78.5556H53.3372C53.7033 78.5556 54 78.854 54 79.2222C54 79.5904 53.7033 79.8889 53.3372 79.8889H42.7326C42.3665 79.8889 42.0698 79.5904 42.0698 79.2222ZM35 83.6667C35 82.8076 35.6924 82.1111 36.5465 82.1111H38.314C39.1681 82.1111 39.8605 82.8076 39.8605 83.6667V85.4444C39.8605 86.3036 39.1681 87 38.314 87H36.5465C35.6924 87 35 86.3036 35 85.4444V83.6667ZM36.5465 83.4444C36.4245 83.4444 36.3256 83.5439 36.3256 83.6667V85.4444C36.3256 85.5672 36.4245 85.6667 36.5465 85.6667H38.314C38.436 85.6667 38.5349 85.5672 38.5349 85.4444V83.6667C38.5349 83.5439 38.436 83.4444 38.314 83.4444H36.5465ZM42.0698 82.7778C42.0698 82.4096 42.3665 82.1111 42.7326 82.1111H48.0349C48.4009 82.1111 48.6977 82.4096 48.6977 82.7778C48.6977 83.146 48.4009 83.4444 48.0349 83.4444H42.7326C42.3665 83.4444 42.0698 83.146 42.0698 82.7778ZM42.0698 86.3333C42.0698 85.9651 42.3665 85.6667 42.7326 85.6667H53.3372C53.7033 85.6667 54 85.9651 54 86.3333C54 86.7015 53.7033 87 53.3372 87H42.7326C42.3665 87 42.0698 86.7015 42.0698 86.3333Z" fill="#AAB0B9"/>
<path fill-rule="evenodd" clip-rule="evenodd" d="M65 76.5556C65 75.6964 65.6924 75 66.5465 75H68.314C69.1681 75 69.8605 75.6964 69.8605 76.5556V78.3333C69.8605 79.1924 69.1681 79.8889 68.314 79.8889H66.5465C65.6924 79.8889 65 79.1924 65 78.3333V76.5556ZM66.5465 76.3333C66.4245 76.3333 66.3256 76.4328 66.3256 76.5556V78.3333C66.3256 78.4561 66.4245 78.5556 66.5465 78.5556H68.314C68.436 78.5556 68.5349 78.4561 68.5349 78.3333V76.5556C68.5349 76.4328 68.436 76.3333 68.314 76.3333H66.5465ZM72.0698 75.6667C72.0698 75.2985 72.3665 75 72.7326 75H78.0349C78.4009 75 78.6977 75.2985 78.6977 75.6667C78.6977 76.0349 78.4009 76.3333 78.0349 76.3333H72.7326C72.3665 76.3333 72.0698 76.0349 72.0698 75.6667ZM72.0698 79.2222C72.0698 78.854 72.3665 78.5556 72.7326 78.5556H83.3372C83.7033 78.5556 84 78.854 84 79.2222C84 79.5904 83.7033 79.8889 83.3372 79.8889H72.7326C72.3665 79.8889 72.0698 79.5904 72.0698 79.2222ZM65 83.6667C65 82.8076 65.6924 82.1111 66.5465 82.1111H68.314C69.1681 82.1111 69.8605 82.8076 69.8605 83.6667V85.4444C69.8605 86.3036 69.1681 87 68.314 87H66.5465C65.6924 87 65 86.3036 65 85.4444V83.6667ZM66.5465 83.4444C66.4245 83.4444 66.3256 83.5439 66.3256 83.6667V85.4444C66.3256 85.5672 66.4245 85.6667 66.5465 85.6667H68.314C68.436 85.6667 68.5349 85.5672 68.5349 85.4444V83.6667C68.5349 83.5439 68.436 83.4444 68.314 83.4444H66.5465ZM72.0698 82.7778C72.0698 82.4096 72.3665 82.1111 72.7326 82.1111H78.0349C78.4009 82.1111 78.6977 82.4096 78.6977 82.7778C78.6977 83.146 78.4009 83.4444 78.0349 83.4444H72.7326C72.3665 83.4444 72.0698 83.146 72.0698 82.7778ZM72.0698 86.3333C72.0698 85.9651 72.3665 85.6667 72.7326 85.6667H83.3372C83.7033 85.6667 84 85.9651 84 86.3333C84 86.7015 83.7033 87 83.3372 87H72.7326C72.3665 87 72.0698 86.7015 72.0698 86.3333Z" fill="#EB002A"/>
<path fill-rule="evenodd" clip-rule="evenodd" d="M6 129.75C6 129.336 6.38995 129 6.87097 129H23.129C23.6101 129 24 129.336 24 129.75C24 130.164 23.6101 130.5 23.129 130.5H6.87097C6.38995 130.5 6 130.164 6 129.75ZM6 135.75C6 135.336 6.38995 135 6.87097 135H23.129C23.6101 135 24 135.336 24 135.75C24 136.164 23.6101 136.5 23.129 136.5H6.87097C6.38995 136.5 6 136.164 6 135.75ZM6 141.75C6 141.336 6.38995 141 6.87097 141H23.129C23.6101 141 24 141.336 24 141.75C24 142.164 23.6101 142.5 23.129 142.5H6.87097C6.38995 142.5 6 142.164 6 141.75Z" fill="#747F94"/>
<path fill-rule="evenodd" clip-rule="evenodd" d="M36 129.75C36 129.336 36.3899 129 36.871 129H53.129C53.6101 129 54 129.336 54 129.75C54 130.164 53.6101 130.5 53.129 130.5H36.871C36.3899 130.5 36 130.164 36 129.75ZM36 135.75C36 135.336 36.3899 135 36.871 135H53.129C53.6101 135 54 135.336 54 135.75C54 136.164 53.6101 136.5 53.129 136.5H36.871C36.3899 136.5 36 136.164 36 135.75ZM36 141.75C36 141.336 36.3899 141 36.871 141H53.129C53.6101 141 54 141.336 54 141.75C54 142.164 53.6101 142.5 53.129 142.5H36.871C36.3899 142.5 36 142.164 36 141.75Z" fill="#AAB0B9"/>
<path fill-rule="evenodd" clip-rule="evenodd" d="M66 129.75C66 129.336 66.3899 129 66.871 129H83.129C83.6101 129 84 129.336 84 129.75C84 130.164 83.6101 130.5 83.129 130.5H66.871C66.3899 130.5 66 130.164 66 129.75ZM66 135.75C66 135.336 66.3899 135 66.871 135H83.129C83.6101 135 84 135.336 84 135.75C84 136.164 83.6101 136.5 83.129 136.5H66.871C66.3899 136.5 66 136.164 66 135.75ZM66 141.75C66 141.336 66.3899 141 66.871 141H83.129C83.6101 141 84 141.336 84 141.75C84 142.164 83.6101 142.5 83.129 142.5H66.871C66.3899 142.5 66 142.164 66 141.75Z" fill="#EB002A"/>
</svg>
