<svg width="22" height="21" viewBox="0 0 22 21" fill="none" xmlns="http://www.w3.org/2000/svg">
<path fill-rule="evenodd" clip-rule="evenodd" d="M0 9.11841C0 4.08245 4.08246 0 9.11844 0C14.1544 0 18.2369 4.08245 18.2369 9.11841C18.2369 14.1544 14.1544 18.2368 9.11844 18.2368C4.08246 18.2368 0 14.1544 0 9.11841ZM9.11844 1.65789C4.99809 1.65789 1.6579 4.99808 1.6579 9.11841C1.6579 13.2387 4.99809 16.5789 9.11844 16.5789C13.2388 16.5789 16.579 13.2387 16.579 9.11841C16.579 4.99808 13.2388 1.65789 9.11844 1.65789ZM15.9008 15.9007C16.2245 15.577 16.7494 15.577 17.0731 15.9008L20.7572 19.5849C21.0809 19.9086 21.0809 20.4335 20.7572 20.7572C20.4335 21.0809 19.9086 21.0809 19.5849 20.7572L15.9008 17.073C15.577 16.7493 15.5771 16.2245 15.9008 15.9007Z" fill="black"/>
</svg>
