<svg width="23" height="100" viewBox="0 0 23 100" fill="none" xmlns="http://www.w3.org/2000/svg">
<g opacity="0.5">
<path d="M10.1709 33C11.0579 33 11.7769 32.2948 11.7769 31.425C11.7769 30.5552 11.0579 29.85 10.1709 29.85C9.28401 29.85 8.56501 30.5552 8.56501 31.425C8.56501 32.2948 9.28401 33 10.1709 33Z" fill="white"/>
<path d="M18.736 33C19.6229 33 20.3419 32.2948 20.3419 31.425C20.3419 30.5552 19.6229 29.85 18.736 29.85C17.849 29.85 17.13 30.5552 17.13 31.425C17.13 32.2948 17.849 33 18.736 33Z" fill="white"/>
<path fill-rule="evenodd" clip-rule="evenodd" d="M0 13.05C0 12.4701 0.479336 12 1.07063 12H2.05462C3.38943 12 4.58512 12.8097 5.0581 14.0338L9.28432 24.972C9.44198 25.3801 9.84054 25.65 10.2855 25.65L18.3203 25.65C18.8182 25.65 19.2503 25.3134 19.3631 24.8379L20.8295 18.6545C20.9857 17.9961 20.476 17.3667 19.7867 17.3667H9.95147C9.36018 17.3667 8.88084 16.8966 8.88084 16.3167C8.88084 15.7368 9.36018 15.2667 9.95147 15.2667H19.7867C21.8545 15.2667 23.3835 17.155 22.9151 19.1303L21.4487 25.3136C21.1104 26.7403 19.8139 27.75 18.3203 27.75L10.2855 27.75C8.95066 27.75 7.75498 26.9403 7.282 25.7162L3.05578 14.7779C2.89812 14.3699 2.49956 14.1 2.05462 14.1H1.07063C0.479336 14.1 0 13.6299 0 13.05Z" fill="white"/>
</g>
<path d="M10.1709 83C11.0579 83 11.7769 82.2948 11.7769 81.425C11.7769 80.5552 11.0579 79.85 10.1709 79.85C9.28401 79.85 8.56501 80.5552 8.56501 81.425C8.56501 82.2948 9.28401 83 10.1709 83Z" fill="white"/>
<path d="M18.736 83C19.6229 83 20.3419 82.2948 20.3419 81.425C20.3419 80.5552 19.6229 79.85 18.736 79.85C17.849 79.85 17.13 80.5552 17.13 81.425C17.13 82.2948 17.849 83 18.736 83Z" fill="white"/>
<path fill-rule="evenodd" clip-rule="evenodd" d="M0 63.05C0 62.4701 0.479336 62 1.07063 62H2.05462C3.38943 62 4.58512 62.8097 5.0581 64.0338L9.28432 74.972C9.44198 75.3801 9.84054 75.65 10.2855 75.65L18.3203 75.65C18.8182 75.65 19.2503 75.3134 19.3631 74.8379L20.8295 68.6545C20.9857 67.9961 20.476 67.3667 19.7867 67.3667H9.95147C9.36018 67.3667 8.88084 66.8966 8.88084 66.3167C8.88084 65.7368 9.36018 65.2667 9.95147 65.2667H19.7867C21.8545 65.2667 23.3835 67.155 22.9151 69.1303L21.4487 75.3136C21.1104 76.7403 19.8139 77.75 18.3203 77.75L10.2855 77.75C8.95066 77.75 7.75498 76.9403 7.282 75.7162L3.05578 64.7779C2.89812 64.3699 2.49956 64.1 2.05462 64.1H1.07063C0.479336 64.1 0 63.6299 0 63.05Z" fill="white"/>
</svg>
