<svg width="18" height="17" viewBox="0 0 18 17" fill="none" xmlns="http://www.w3.org/2000/svg">
<path fill-rule="evenodd" clip-rule="evenodd" d="M0.5 7.38157C0.5 3.30484 3.80485 0 7.88159 0C11.9583 0 15.2632 3.30484 15.2632 7.38157C15.2632 11.4583 11.9583 14.7631 7.88159 14.7631C3.80485 14.7631 0.5 11.4583 0.5 7.38157ZM7.88159 1.3421C4.54608 1.3421 1.84211 4.04606 1.84211 7.38157C1.84211 10.7171 4.54608 13.421 7.88159 13.421C11.2171 13.421 13.9211 10.7171 13.9211 7.38157C13.9211 4.04606 11.2171 1.3421 7.88159 1.3421ZM13.3721 12.872C13.6341 12.61 14.059 12.61 14.3211 12.872L17.3035 15.8544C17.5655 16.1165 17.5655 16.5414 17.3035 16.8035C17.0414 17.0655 16.6165 17.0655 16.3544 16.8035L13.3721 13.821C13.11 13.559 13.11 13.1341 13.3721 12.872Z" fill="white"/>
</svg>
