<svg width="22" height="20" viewBox="0 0 22 20" fill="none" xmlns="http://www.w3.org/2000/svg">
<path d="M9.5 20C10.3284 20 11 19.3284 11 18.5C11 17.6716 10.3284 17 9.5 17C8.67157 17 8 17.6716 8 18.5C8 19.3284 8.67157 20 9.5 20Z" fill="white"/>
<path d="M17.5 20C18.3284 20 19 19.3284 19 18.5C19 17.6716 18.3284 17 17.5 17C16.6716 17 16 17.6716 16 18.5C16 19.3284 16.6716 20 17.5 20Z" fill="white"/>
<path fill-rule="evenodd" clip-rule="evenodd" d="M0 1C0 0.447715 0.447715 0 1 0H1.91909C3.16584 0 4.28265 0.771111 4.72443 1.93697L8.67186 12.3543C8.81912 12.7429 9.19139 13 9.60698 13L17.1118 13C17.5768 13 17.9804 12.6795 18.0858 12.2265L19.4555 6.33764C19.6013 5.71059 19.1252 5.1111 18.4814 5.1111H9.295C8.74272 5.1111 8.295 4.66339 8.295 4.1111C8.295 3.55882 8.74272 3.1111 9.295 3.1111H18.4814C20.4128 3.1111 21.841 4.90955 21.4035 6.79072L20.0338 12.6796C19.7178 14.0384 18.5068 15 17.1118 15L9.60697 15C8.36022 15 7.24341 14.2289 6.80163 13.063L2.8542 2.64566C2.70694 2.25704 2.33467 2 1.91909 2H1C0.447715 2 0 1.55228 0 1Z" fill="white"/>
</svg>
