<svg width="18" height="19" viewBox="0 0 18 19" fill="none" xmlns="http://www.w3.org/2000/svg">
<path fill-rule="evenodd" clip-rule="evenodd" d="M12.2381 1.47023L11.4767 3.54862C11.3264 3.95877 10.9974 4.2705 10.5932 4.40903L8.53207 5.11538L10.5932 5.82174C10.9974 5.96027 11.3264 6.272 11.4767 6.68215L12.2381 8.76054L12.9995 6.68215L13.6834 6.9342L12.9995 6.68215C13.1498 6.272 13.4788 5.96027 13.883 5.82174L15.9441 5.11538L13.883 4.40903C13.4788 4.2705 13.1498 3.95877 12.9995 3.54862L13.6834 3.29657L12.9995 3.54862L12.2381 1.47023ZM10.8802 0.93938C11.339 -0.313128 13.1372 -0.313125 13.596 0.93938L14.3614 3.02846L16.5307 3.77192C17.8231 4.21483 17.8231 6.01594 16.5307 6.45885L14.3614 7.20231L13.596 9.29139C13.1372 10.5439 11.339 10.5439 10.8802 9.29139L10.1148 7.20231L7.94548 6.45885C6.65309 6.01594 6.6531 4.21483 7.94548 3.77192L10.1148 3.02846L10.8802 0.93938ZM4.14286 7.70625L3.87526 8.46375C3.74856 8.82238 3.46728 9.10452 3.10972 9.23159L2.35451 9.5L3.10973 9.76841C3.46728 9.89548 3.74856 10.1776 3.87526 10.5362L4.14286 11.2937L4.41046 10.5362C4.53715 10.1776 4.81843 9.89548 5.17599 9.76841L5.93121 9.5L5.17599 9.23159C4.81843 9.10452 4.53715 8.82238 4.41046 8.46375L4.14286 7.70625ZM3.95503 11.8254C3.95506 11.8253 3.95509 11.8253 3.95511 11.8252ZM2.95721 6.68644C3.35301 5.56606 4.93271 5.56606 5.3285 6.68644L5.7522 7.8858L6.94795 8.31078C8.06497 8.70777 8.06497 10.2922 6.94795 10.6892L5.7522 11.1142L5.3285 12.3136C4.93271 13.4339 3.35301 13.4339 2.95721 12.3136L2.53351 11.1142L1.33776 10.6892C0.220747 10.2922 0.220745 8.70777 1.33776 8.31078L2.53351 7.8858L2.95721 6.68644ZM5.78393 7.97562L5.78382 7.9753ZM10.2952 14.4695L10.1308 14.9184C10.0052 15.2613 9.73084 15.5201 9.39617 15.6348L9.0199 15.7637L9.39617 15.8927C9.73084 16.0074 10.0052 16.2662 10.1308 16.6091L10.2952 17.0579L10.4597 16.6091C10.5853 16.2662 10.8596 16.0074 11.1943 15.8927L11.5706 15.7637L11.1943 15.6348C10.8596 15.5201 10.5853 15.2613 10.4597 14.9184L10.2952 14.4695ZM9.1679 13.3093C9.54978 12.2669 11.0407 12.2669 11.4226 13.3093L11.7826 14.2919L12.8079 14.6433C13.8831 15.0118 13.8831 16.5157 12.8079 16.8842L11.7826 17.2356L11.4226 18.2182C11.0407 19.2606 9.54978 19.2606 9.1679 18.2182L8.80791 17.2356L7.78255 16.8842C6.70741 16.5157 6.7074 15.0118 7.78255 14.6433L8.80791 14.2919L9.1679 13.3093Z" fill="#363853"/>
</svg>
