<svg width="22" height="20" viewBox="0 0 22 20" fill="none" xmlns="http://www.w3.org/2000/svg">
<path d="M1 10.6678C1 9.91279 1.63175 9.3007 2.41104 9.3007C3.19034 9.3007 3.82209 9.91279 3.82209 10.6678V18.6329C3.82209 19.3879 3.19034 20 2.41104 20C1.63175 20 1 19.3879 1 18.6329V10.6678Z" fill="black"/>
<path d="M8.58896 5.91259C8.58896 5.15754 9.2207 4.54545 10 4.54545C10.7793 4.54545 11.411 5.15754 11.411 5.91259V18.6329C11.411 19.3879 10.7793 20 10 20C9.2207 20 8.58896 19.3879 8.58896 18.6329V5.91259Z" fill="black"/>
<path d="M16.1779 1.36713C16.1779 0.612085 16.8097 0 17.589 0C18.3683 0 19 0.612086 19 1.36713V18.6329C19 19.3879 18.3683 20 17.589 20C16.8097 20 16.1779 19.3879 16.1779 18.6329V1.36713Z" fill="black"/>
</svg>
