<svg width="22" height="20" viewBox="0 0 22 20" fill="none" xmlns="http://www.w3.org/2000/svg">
<path fill-rule="evenodd" clip-rule="evenodd" d="M0.5 8.6842C0.5 3.88805 4.38806 0 9.18423 0C13.9804 0 17.8685 3.88805 17.8685 8.6842C17.8685 13.4803 13.9804 17.3684 9.18423 17.3684C4.38806 17.3684 0.5 13.4803 0.5 8.6842ZM9.18423 1.57894C5.26009 1.57894 2.07895 4.76007 2.07895 8.6842C2.07895 12.6083 5.26009 15.7894 9.18423 15.7894C13.1084 15.7894 16.2895 12.6083 16.2895 8.6842C16.2895 4.76007 13.1084 1.57894 9.18423 1.57894ZM15.6436 15.1436C15.9519 14.8353 16.4518 14.8353 16.7601 15.1436L20.2688 18.6523C20.5771 18.9606 20.5771 19.4605 20.2688 19.7688C19.9605 20.0771 19.4606 20.0771 19.1523 19.7688L15.6436 16.26C15.3353 15.9517 15.3353 15.4519 15.6436 15.1436Z" fill="black"/>
</svg>
