<svg width="57" height="38" viewBox="0 0 57 38" fill="none" xmlns="http://www.w3.org/2000/svg">
<rect y="19" width="19" height="19" rx="4" fill="#747F94" fill-opacity="0.05"/>
<path fill-rule="evenodd" clip-rule="evenodd" d="M9.5 24.25C9.70119 24.25 9.86429 24.4131 9.86429 24.6143L9.86429 28.1357H13.3857C13.5869 28.1357 13.75 28.2988 13.75 28.5C13.75 28.7012 13.5869 28.8643 13.3857 28.8643H9.86429V32.3857C9.86429 32.5869 9.70119 32.75 9.5 32.75C9.29881 32.75 9.13571 32.5869 9.13571 32.3857V28.8643H5.61429C5.4131 28.8643 5.25 28.7012 5.25 28.5C5.25 28.2988 5.4131 28.1357 5.61429 28.1357H9.13571L9.13571 24.6143C9.13571 24.4131 9.29881 24.25 9.5 24.25Z" fill="black"/>
<rect width="19" height="19" rx="4" fill="#747F94" fill-opacity="0.05"/>
<path fill-rule="evenodd" clip-rule="evenodd" d="M5.25 9.50003C5.25 9.29884 5.4131 9.13574 5.61429 9.13574H13.3857C13.5869 9.13574 13.75 9.29884 13.75 9.50003C13.75 9.70122 13.5869 9.86431 13.3857 9.86431H5.61429C5.4131 9.86431 5.25 9.70122 5.25 9.50003Z" fill="black"/>
<rect x="19" width="19" height="19" rx="4" fill="#747F94" fill-opacity="0.1"/>
<path fill-rule="evenodd" clip-rule="evenodd" d="M24.25 9.50003C24.25 9.29884 24.4131 9.13574 24.6143 9.13574H32.3857C32.5869 9.13574 32.75 9.29884 32.75 9.50003C32.75 9.70122 32.5869 9.86431 32.3857 9.86431H24.6143C24.4131 9.86431 24.25 9.70122 24.25 9.50003Z" fill="black"/>
<rect x="38" width="19" height="19" rx="4" fill="#747F94" fill-opacity="0.1"/>
<path fill-rule="evenodd" clip-rule="evenodd" d="M44 9.50005C44 9.29885 44.1343 9.13574 44.3 9.13574H50.6995C50.8652 9.13574 50.9995 9.29885 50.9995 9.50005C50.9995 9.70125 50.8652 9.86435 50.6995 9.86435H44.3C44.1343 9.86435 44 9.70125 44 9.50005Z" fill="black"/>
<rect x="19" y="19" width="19" height="19" rx="4" fill="#747F94" fill-opacity="0.1"/>
<path fill-rule="evenodd" clip-rule="evenodd" d="M28.5 24.25C28.7012 24.25 28.8643 24.4131 28.8643 24.6143L28.8643 28.1357H32.3857C32.5869 28.1357 32.75 28.2988 32.75 28.5C32.75 28.7012 32.5869 28.8643 32.3857 28.8643H28.8643V32.3857C28.8643 32.5869 28.7012 32.75 28.5 32.75C28.2988 32.75 28.1357 32.5869 28.1357 32.3857V28.8643H24.6143C24.4131 28.8643 24.25 28.7012 24.25 28.5C24.25 28.2988 24.4131 28.1357 24.6143 28.1357H28.1357L28.1357 24.6143C28.1357 24.4131 28.2988 24.25 28.5 24.25Z" fill="black"/>
<rect x="38" y="19" width="19" height="19" rx="4" fill="#747F94" fill-opacity="0.1"/>
<path fill-rule="evenodd" clip-rule="evenodd" d="M47.5 25C47.6657 25 47.8 25.1343 47.8 25.3L47.8 28.2H50.7C50.8657 28.2 51 28.3343 51 28.5C51 28.6657 50.8657 28.8 50.7 28.8H47.8V31.7C47.8 31.8657 47.6657 32 47.5 32C47.3343 32 47.2 31.8657 47.2 31.7V28.8H44.3C44.1343 28.8 44 28.6657 44 28.5C44 28.3343 44.1343 28.2 44.3 28.2H47.2L47.2 25.3C47.2 25.1343 47.3343 25 47.5 25Z" fill="black"/>
</svg>
