<svg width="108" height="40" viewBox="0 0 108 40" fill="none" xmlns="http://www.w3.org/2000/svg">
<path d="M17.5 35C17.2466 35 16.9932 34.9205 16.7811 34.7615C16.1376 34.2764 1 25.8925 1 16.2181C1 11.1355 5.22989 7 10.4286 7C15.6272 7 19.15 11.2507 19.15 16.3333C19.15 17.1111 18.5292 17.8889 17.5 17.8889C16.4708 17.8889 15.85 17.1111 15.85 16.3333C15.85 12.5205 14.3285 10.1111 10.4286 10.1111C6.52868 10.1111 4.3 12.4053 4.3 16.2181C4.3 23.6698 14.5265 29.5083 17.5 31.8889C20.4724 29.5083 30.7 23.6617 30.7 16.2181C30.7 12.4053 28.4713 10.1111 24.5714 10.1111C23.5166 10.1111 22.5019 10.3323 21.5555 10.7679C20.9662 11.0398 19.6417 11.1338 19.15 10.1111C18.7015 9.17822 19.962 8.14881 20.5501 7.87687C21.8136 7.29498 23.1666 7 24.5714 7C29.7701 7 34 11.1355 34 16.2181C34 25.8925 18.8624 34.2764 18.2189 34.7615C18.0068 34.9205 17.7534 35 17.5 35Z" fill="#AAB0B9"/>
<path d="M53.5 35C53.2466 35 52.9932 34.9205 52.7811 34.7615C52.1376 34.2764 37 25.8925 37 16.2181C37 11.1355 41.2299 7 46.4286 7C51.6272 7 55.15 11.2507 55.15 16.3333C55.15 17.1111 54.5292 17.8889 53.5 17.8889C52.4708 17.8889 51.85 17.1111 51.85 16.3333C51.85 12.5205 50.3285 10.1111 46.4286 10.1111C42.5287 10.1111 40.3 12.4053 40.3 16.2181C40.3 23.6698 50.5265 29.5083 53.5 31.8889C56.4724 29.5083 66.7 23.6617 66.7 16.2181C66.7 12.4053 64.4713 10.1111 60.5714 10.1111C59.5166 10.1111 58.5019 10.3323 57.5555 10.7679C56.9662 11.0398 55.6417 11.1338 55.15 10.1111C54.7015 9.17822 55.962 8.14881 56.5501 7.87687C57.8136 7.29498 59.1666 7 60.5714 7C65.7701 7 70 11.1355 70 16.2181C70 25.8925 54.8624 34.2764 54.2189 34.7615C54.0068 34.9205 53.7534 35 53.5 35Z" fill="#0061B2"/>
<path d="M89.5 35C89.2466 35 88.9932 34.9205 88.7811 34.7615C88.1376 34.2764 73 25.8925 73 16.2181C73 11.1355 77.2299 7 82.4286 7C87.6272 7 91.15 11.2507 91.15 16.3333C91.15 17.1111 90.5292 17.8889 89.5 17.8889C88.4708 17.8889 87.85 17.1111 87.85 16.3333C87.85 12.5205 86.3285 10.1111 82.4286 10.1111C78.5287 10.1111 76.3 12.4053 76.3 16.2181C76.3 23.6698 86.5265 29.5083 89.5 31.8889C92.4724 29.5083 102.7 23.6617 102.7 16.2181C102.7 12.4053 100.471 10.1111 96.5714 10.1111C95.5166 10.1111 94.5019 10.3323 93.5555 10.7679C92.9662 11.0398 91.6417 11.1338 91.15 10.1111C90.7015 9.17822 91.962 8.14881 92.5501 7.87687C93.8136 7.29498 95.1666 7 96.5714 7C101.77 7 106 11.1355 106 16.2181C106 25.8925 90.8624 34.2764 90.2189 34.7615C90.0068 34.9205 89.7534 35 89.5 35Z" fill="#0061B2"/>
</svg>
