<svg width="14" height="14" viewBox="0 0 14 14" fill="none" xmlns="http://www.w3.org/2000/svg">
<path d="M13.6148 13.6148C13.1012 14.1284 12.2688 14.1284 11.7552 13.6148L9.43477 11.2943C8.48077 11.9063 7.35309 12.271 6.1355 12.271C2.7472 12.271 0 9.52416 0 6.13547C0 2.74679 2.7472 0 6.1355 0C9.52424 0 12.271 2.74673 12.271 6.13547C12.271 7.35265 11.9059 8.48077 11.2943 9.43521L13.6148 11.7557C14.1284 12.2692 14.1284 13.1012 13.6148 13.6148ZM6.1355 1.75298C3.71528 1.75298 1.75301 3.71481 1.75301 6.13545C1.75301 8.55608 3.7153 10.5179 6.1355 10.5179C8.5561 10.5179 10.518 8.55608 10.518 6.13545C10.518 3.71481 8.5561 1.75298 6.1355 1.75298Z" fill="black"/>
</svg>
