<svg width="22" height="20" viewBox="0 0 22 20" fill="none" xmlns="http://www.w3.org/2000/svg">
<path d="M2 10.6678C2 9.91279 2.63175 9.3007 3.41104 9.3007C4.19034 9.3007 4.82209 9.91279 4.82209 10.6678V18.6329C4.82209 19.3879 4.19034 20 3.41104 20C2.63175 20 2 19.3879 2 18.6329V10.6678Z" fill="black"/>
<path d="M9.58896 5.91259C9.58896 5.15754 10.2207 4.54545 11 4.54545C11.7793 4.54545 12.411 5.15754 12.411 5.91259V18.6329C12.411 19.3879 11.7793 20 11 20C10.2207 20 9.58896 19.3879 9.58896 18.6329V5.91259Z" fill="black"/>
<path d="M17.1779 1.36713C17.1779 0.612085 17.8097 0 18.589 0C19.3683 0 20 0.612086 20 1.36713V18.6329C20 19.3879 19.3683 20 18.589 20C17.8097 20 17.1779 19.3879 17.1779 18.6329V1.36713Z" fill="black"/>
</svg>
