<svg width="25" height="18" viewBox="0 0 25 18" fill="none" xmlns="http://www.w3.org/2000/svg">
<path fill-rule="evenodd" clip-rule="evenodd" d="M2 1C2 0.447715 2.45494 0 3.01613 0H21.9839C22.5451 0 23 0.447715 23 1C23 1.55228 22.5451 2 21.9839 2H3.01613C2.45494 2 2 1.55228 2 1ZM2 9C2 8.44772 2.45494 8 3.01613 8H11.1452C11.7064 8 12.1613 8.44772 12.1613 9C12.1613 9.55229 11.7064 10 11.1452 10H3.01613C2.45494 10 2 9.55229 2 9ZM2 17C2 16.4477 2.45494 16 3.01613 16H21.9839C22.5451 16 23 16.4477 23 17C23 17.5523 22.5451 18 21.9839 18H3.01613C2.45494 18 2 17.5523 2 17Z" fill="black"/>
</svg>
