<svg width="22" height="20" viewBox="0 0 22 20" fill="none" xmlns="http://www.w3.org/2000/svg">
<path fill-rule="evenodd" clip-rule="evenodd" d="M1 8.6842C1 3.88805 4.88806 0 9.68423 0C14.4804 0 18.3685 3.88805 18.3685 8.6842C18.3685 13.4803 14.4804 17.3684 9.68423 17.3684C4.88806 17.3684 1 13.4803 1 8.6842ZM9.68423 1.57894C5.76009 1.57894 2.57895 4.76007 2.57895 8.6842C2.57895 12.6083 5.76009 15.7894 9.68423 15.7894C13.6084 15.7894 16.7895 12.6083 16.7895 8.6842C16.7895 4.76007 13.6084 1.57894 9.68423 1.57894ZM16.1436 15.1436C16.4519 14.8353 16.9518 14.8353 17.2601 15.1436L20.7688 18.6523C21.0771 18.9606 21.0771 19.4605 20.7688 19.7688C20.4605 20.0771 19.9606 20.0771 19.6523 19.7688L16.1436 16.26C15.8353 15.9517 15.8353 15.4519 16.1436 15.1436Z" fill="black"/>
</svg>
