<svg width="22" height="20" viewBox="0 0 22 20" fill="none" xmlns="http://www.w3.org/2000/svg">
<path d="M11 20C10.8311 20 10.6621 19.9432 10.5207 19.8296C10.0917 19.4831 0 13.4947 0 6.58436C0 2.95391 2.81993 0 6.28571 0C9.7515 0 12.1 3.03621 12.1 6.66667C12.1 7.22222 11.6861 7.77778 11 7.77778C10.3139 7.77778 9.9 7.22222 9.9 6.66667C9.9 3.94321 8.88564 2.22222 6.28571 2.22222C3.68579 2.22222 2.2 3.86091 2.2 6.58436C2.2 11.907 9.01764 16.0774 11 17.7778C12.9816 16.0774 19.8 11.9012 19.8 6.58436C19.8 3.86091 18.3142 2.22222 15.7143 2.22222C15.0111 2.22222 14.3346 2.38025 13.7036 2.69136C13.3108 2.8856 12.4278 2.95274 12.1 2.22222C11.801 1.55587 12.6414 0.820576 13.0334 0.626337C13.8757 0.210699 14.7777 0 15.7143 0C19.1801 0 22 2.95391 22 6.58436C22 13.4947 11.9083 19.4831 11.4793 19.8296C11.3379 19.9432 11.1689 20 11 20Z" fill="black"/>
</svg>
