<svg width="30" height="18" viewBox="0 0 30 18" fill="none" xmlns="http://www.w3.org/2000/svg">
<path fill-rule="evenodd" clip-rule="evenodd" d="M6.83117 2.85317e-07H6.88312C7.34028 -7.31683e-06 7.72192 -1.36314e-05 8.03523 0.0213637C8.36139 0.0436174 8.66948 0.091593 8.96816 0.215313C9.66124 0.502396 10.2119 1.05305 10.499 1.74612C10.6227 2.04481 10.6707 2.35289 10.6929 2.67905C10.7143 2.99237 10.7143 3.37401 10.7143 3.83116V3.88312C10.7143 4.34028 10.7143 4.72192 10.6929 5.03523C10.6707 5.36139 10.6227 5.66948 10.499 5.96816C10.2119 6.66124 9.66124 7.21189 8.96816 7.49897C8.66948 7.62269 8.36139 7.67067 8.03523 7.69292C7.72192 7.7143 7.34028 7.71429 6.88312 7.71429H6.83116C6.37401 7.71429 5.99237 7.7143 5.67905 7.69292C5.35289 7.67067 5.04481 7.62269 4.74612 7.49897C4.05305 7.21189 3.5024 6.66124 3.21531 5.96816C3.09159 5.66948 3.04362 5.36139 3.02136 5.03523C2.99999 4.72192 2.99999 4.34028 3 3.88312V3.83117C2.99999 3.37401 2.99999 2.99237 3.02136 2.67905C3.04362 2.35289 3.09159 2.04481 3.21531 1.74612C3.5024 1.05305 4.05305 0.502396 4.74612 0.215313C5.04481 0.091593 5.35289 0.0436174 5.67905 0.0213637C5.99237 -1.36314e-05 6.37401 -7.31683e-06 6.83117 2.85317e-07ZM5.78408 1.56064C5.53647 1.57754 5.41591 1.60786 5.33655 1.64073C5.02151 1.77122 4.77122 2.02151 4.64073 2.33655C4.60786 2.41591 4.57754 2.53647 4.56064 2.78408C4.54328 3.03861 4.54286 3.36733 4.54286 3.85714C4.54286 4.34695 4.54328 4.67568 4.56064 4.93021C4.57754 5.17781 4.60786 5.29838 4.64073 5.37774C4.77122 5.69277 5.02151 5.94307 5.33655 6.07356C5.41591 6.10643 5.53647 6.13675 5.78408 6.15364C6.03861 6.17101 6.36733 6.17143 6.85714 6.17143C7.34695 6.17143 7.67568 6.17101 7.93021 6.15364C8.17781 6.13675 8.29838 6.10643 8.37774 6.07356C8.69277 5.94307 8.94307 5.69277 9.07356 5.37774C9.10643 5.29838 9.13675 5.17781 9.15364 4.93021C9.17101 4.67568 9.17143 4.34695 9.17143 3.85714C9.17143 3.36733 9.17101 3.03861 9.15364 2.78408C9.13675 2.53647 9.10643 2.41591 9.07356 2.33655C8.94307 2.02151 8.69277 1.77122 8.37774 1.64073C8.29838 1.60786 8.17781 1.57754 7.93021 1.56064C7.67568 1.54328 7.34695 1.54286 6.85714 1.54286C6.36733 1.54286 6.03861 1.54328 5.78408 1.56064ZM17.1169 2.85317e-07H17.1688C17.626 -7.31683e-06 18.0076 -1.36314e-05 18.3209 0.0213637C18.6471 0.0436174 18.9552 0.091593 19.2539 0.215313C19.947 0.502395 20.4976 1.05304 20.7847 1.74612C20.9084 2.04481 20.9564 2.35289 20.9786 2.67905C21 2.99237 21 3.37401 21 3.83116V3.88312C21 4.34028 21 4.72192 20.9786 5.03523C20.9564 5.36139 20.9084 5.66948 20.7847 5.96816C20.4976 6.66124 19.947 7.21189 19.2539 7.49897C18.9552 7.62269 18.6471 7.67067 18.3209 7.69292C18.0076 7.7143 17.626 7.71429 17.1688 7.71429H17.1169C16.6597 7.71429 16.2781 7.7143 15.9648 7.69292C15.6386 7.67067 15.3305 7.62269 15.0318 7.49897C14.3388 7.21189 13.7881 6.66124 13.501 5.96816C13.3773 5.66948 13.3293 5.36139 13.3071 5.03523C13.2857 4.72192 13.2857 4.34028 13.2857 3.88312V3.83116C13.2857 3.37401 13.2857 2.99237 13.3071 2.67905C13.3293 2.35289 13.3773 2.04481 13.501 1.74612C13.7881 1.05304 14.3388 0.502395 15.0318 0.215313C15.3305 0.091593 15.6386 0.0436174 15.9648 0.0213637C16.2781 -1.36314e-05 16.6597 -7.31683e-06 17.1169 2.85317e-07ZM16.0698 1.56064C15.8222 1.57754 15.7016 1.60786 15.6223 1.64073C15.3072 1.77122 15.0569 2.02151 14.9264 2.33655C14.8936 2.41591 14.8633 2.53647 14.8464 2.78408C14.829 3.03861 14.8286 3.36733 14.8286 3.85714C14.8286 4.34695 14.829 4.67568 14.8464 4.93021C14.8633 5.17781 14.8936 5.29838 14.9264 5.37774C15.0569 5.69277 15.3072 5.94307 15.6223 6.07356C15.7016 6.10643 15.8222 6.13675 16.0698 6.15364C16.3243 6.17101 16.6531 6.17143 17.1429 6.17143C17.6327 6.17143 17.9614 6.17101 18.2159 6.15364C18.4635 6.13675 18.5841 6.10643 18.6635 6.07356C18.9785 5.94307 19.2288 5.69277 19.3593 5.37774C19.3921 5.29838 19.4225 5.17781 19.4394 4.93021C19.4567 4.67568 19.4571 4.34695 19.4571 3.85714C19.4571 3.36733 19.4567 3.03861 19.4394 2.78408C19.4225 2.53647 19.3921 2.41591 19.3593 2.33655C19.2288 2.02151 18.9785 1.77122 18.6635 1.64073C18.5841 1.60786 18.4635 1.57754 18.2159 1.56064C17.9614 1.54328 17.6327 1.54286 17.1429 1.54286C16.6531 1.54286 16.3243 1.54328 16.0698 1.56064ZM6.83116 10.2857H6.88312C7.34028 10.2857 7.72192 10.2857 8.03523 10.3071C8.36139 10.3293 8.66948 10.3773 8.96816 10.501C9.66124 10.7881 10.2119 11.3388 10.499 12.0318C10.6227 12.3305 10.6707 12.6386 10.6929 12.9648C10.7143 13.2781 10.7143 13.6597 10.7143 14.1169V14.1688C10.7143 14.626 10.7143 15.0076 10.6929 15.3209C10.6707 15.6471 10.6227 15.9552 10.499 16.2539C10.2119 16.947 9.66124 17.4976 8.96816 17.7847C8.66948 17.9084 8.36139 17.9564 8.03523 17.9786C7.72192 18 7.34028 18 6.88312 18H6.83116C6.37401 18 5.99237 18 5.67905 17.9786C5.35289 17.9564 5.04481 17.9084 4.74612 17.7847C4.05304 17.4976 3.5024 16.947 3.21531 16.2539C3.09159 15.9552 3.04362 15.6471 3.02136 15.3209C2.99999 15.0076 2.99999 14.626 3 14.1688V14.1169C2.99999 13.6597 2.99999 13.2781 3.02136 12.9648C3.04362 12.6386 3.09159 12.3305 3.21531 12.0318C3.5024 11.3388 4.05304 10.7881 4.74612 10.501C5.04481 10.3773 5.35289 10.3293 5.67905 10.3071C5.99237 10.2857 6.37401 10.2857 6.83116 10.2857ZM5.78408 11.8464C5.53647 11.8633 5.41591 11.8936 5.33655 11.9264C5.02151 12.0569 4.77122 12.3072 4.64073 12.6223C4.60786 12.7016 4.57754 12.8222 4.56064 13.0698C4.54328 13.3243 4.54286 13.6531 4.54286 14.1429C4.54286 14.6327 4.54328 14.9614 4.56064 15.2159C4.57754 15.4635 4.60786 15.5841 4.64073 15.6635C4.77122 15.9785 5.02151 16.2288 5.33655 16.3593C5.41591 16.3921 5.53647 16.4225 5.78408 16.4394C6.03861 16.4567 6.36733 16.4571 6.85714 16.4571C7.34695 16.4571 7.67568 16.4567 7.93021 16.4394C8.17781 16.4225 8.29838 16.3921 8.37774 16.3593C8.69277 16.2288 8.94307 15.9785 9.07356 15.6635C9.10643 15.5841 9.13675 15.4635 9.15364 15.2159C9.17101 14.9614 9.17143 14.6327 9.17143 14.1429C9.17143 13.6531 9.17101 13.3243 9.15364 13.0698C9.13675 12.8222 9.10643 12.7016 9.07356 12.6223C8.94307 12.3072 8.69277 12.0569 8.37774 11.9264C8.29838 11.8936 8.17781 11.8633 7.93021 11.8464C7.67568 11.829 7.34695 11.8286 6.85714 11.8286C6.36733 11.8286 6.03861 11.829 5.78408 11.8464ZM17.1169 10.2857H17.1688C17.626 10.2857 18.0076 10.2857 18.3209 10.3071C18.6471 10.3293 18.9552 10.3773 19.2539 10.501C19.947 10.7881 20.4976 11.3388 20.7847 12.0318C20.9084 12.3305 20.9564 12.6386 20.9786 12.9648C21 13.2781 21 13.6597 21 14.1169V14.1688C21 14.626 21 15.0076 20.9786 15.3209C20.9564 15.6471 20.9084 15.9552 20.7847 16.2539C20.4976 16.947 19.947 17.4976 19.2539 17.7847C18.9552 17.9084 18.6471 17.9564 18.3209 17.9786C18.0076 18 17.626 18 17.1688 18H17.1169C16.6597 18 16.2781 18 15.9648 17.9786C15.6386 17.9564 15.3305 17.9084 15.0318 17.7847C14.3388 17.4976 13.7881 16.947 13.501 16.2539C13.3773 15.9552 13.3293 15.6471 13.3071 15.3209C13.2857 15.0076 13.2857 14.626 13.2857 14.1688V14.1169C13.2857 13.6597 13.2857 13.2781 13.3071 12.9648C13.3293 12.6386 13.3773 12.3305 13.501 12.0318C13.7881 11.3388 14.3388 10.7881 15.0318 10.501C15.3305 10.3773 15.6386 10.3293 15.9648 10.3071C16.2781 10.2857 16.6597 10.2857 17.1169 10.2857ZM16.0698 11.8464C15.8222 11.8633 15.7016 11.8936 15.6223 11.9264C15.3072 12.0569 15.0569 12.3072 14.9264 12.6223C14.8936 12.7016 14.8633 12.8222 14.8464 13.0698C14.829 13.3243 14.8286 13.6531 14.8286 14.1429C14.8286 14.6327 14.829 14.9614 14.8464 15.2159C14.8633 15.4635 14.8936 15.5841 14.9264 15.6635C15.0569 15.9785 15.3072 16.2288 15.6223 16.3593C15.7016 16.3921 15.8222 16.4225 16.0698 16.4394C16.3243 16.4567 16.6531 16.4571 17.1429 16.4571C17.6327 16.4571 17.9614 16.4567 18.2159 16.4394C18.4635 16.4225 18.5841 16.3921 18.6635 16.3593C18.9785 16.2288 19.2288 15.9785 19.3593 15.6635C19.3921 15.5841 19.4225 15.4635 19.4394 15.2159C19.4567 14.9614 19.4571 14.6327 19.4571 14.1429C19.4571 13.6531 19.4567 13.3243 19.4394 13.0698C19.4225 12.8222 19.3921 12.7016 19.3593 12.6223C19.2288 12.3072 18.9785 12.0569 18.6635 11.9264C18.5841 11.8936 18.4635 11.8633 18.2159 11.8464C17.9614 11.829 17.6327 11.8286 17.1429 11.8286C16.6531 11.8286 16.3243 11.829 16.0698 11.8464Z" fill="black"/>
</svg>
