<svg width="18" height="19" viewBox="0 0 18 19" fill="none" xmlns="http://www.w3.org/2000/svg">
<path fill-rule="evenodd" clip-rule="evenodd" d="M4.87003 2.02511C4.19483 1.86673 3.49214 1.86673 2.81694 2.02511C2.17595 2.17546 1.67546 2.67595 1.52511 3.31694C1.36673 3.99214 1.36673 4.69483 1.52511 5.37003C1.67546 6.01102 2.17595 6.51151 2.81694 6.66186C3.49214 6.82024 4.19483 6.82024 4.87003 6.66186C5.51102 6.51151 6.01151 6.01102 6.16186 5.37003C6.32024 4.69483 6.32024 3.99214 6.16186 3.31694C6.01151 2.67595 5.51102 2.17546 4.87003 2.02511ZM2.49578 0.655948C3.38222 0.448017 4.30475 0.448017 5.19119 0.655948C6.35218 0.928279 7.25869 1.83479 7.53102 2.99578C7.73895 3.88222 7.73895 4.80475 7.53102 5.69119C7.25869 6.85218 6.35218 7.75869 5.19119 8.03102C4.30475 8.23895 3.38222 8.23895 2.49578 8.03102C1.33479 7.75869 0.42828 6.85218 0.155948 5.69119C-0.0519828 4.80475 -0.0519828 3.88222 0.155948 2.99578C0.42828 1.83479 1.33479 0.928279 2.49578 0.655948Z" fill="#363853"/>
<path fill-rule="evenodd" clip-rule="evenodd" d="M4.87003 12.3381C4.19483 12.1798 3.49214 12.1798 2.81694 12.3381C2.17595 12.4885 1.67546 12.989 1.52511 13.63C1.36673 14.3052 1.36673 15.0079 1.52511 15.6831C1.67546 16.324 2.17595 16.8245 2.81694 16.9749C3.49214 17.1333 4.19483 17.1333 4.87003 16.9749C5.51102 16.8245 6.01151 16.324 6.16186 15.6831C6.32024 15.0079 6.32024 14.3052 6.16186 13.63C6.01151 12.989 5.51102 12.4885 4.87003 12.3381ZM2.49578 10.969C3.38222 10.761 4.30475 10.761 5.19119 10.969C6.35218 11.2413 7.25869 12.1478 7.53102 13.3088C7.73895 14.1953 7.73895 15.1178 7.53102 16.0042C7.25869 17.1652 6.35218 18.0717 5.19119 18.3441C4.30475 18.552 3.38222 18.552 2.49578 18.3441C1.33479 18.0717 0.42828 17.1652 0.155948 16.0042C-0.0519828 15.1178 -0.0519828 14.1952 0.155948 13.3088C0.42828 12.1478 1.33479 11.2413 2.49578 10.969Z" fill="#363853"/>
<path fill-rule="evenodd" clip-rule="evenodd" d="M15.1831 2.02511C14.5079 1.86673 13.8052 1.86673 13.13 2.02511C12.489 2.17546 11.9885 2.67595 11.8381 3.31694C11.6798 3.99214 11.6798 4.69483 11.8381 5.37003C11.9885 6.01102 12.489 6.51151 13.13 6.66186C13.8052 6.82024 14.5079 6.82024 15.1831 6.66186C15.824 6.51151 16.3245 6.01102 16.4749 5.37003C16.6333 4.69483 16.6333 3.99214 16.4749 3.31694C16.3245 2.67595 15.824 2.17546 15.1831 2.02511ZM12.8088 0.655948C13.6953 0.448017 14.6178 0.448017 15.5042 0.655948C16.6652 0.928279 17.5717 1.83479 17.8441 2.99578C18.052 3.88222 18.052 4.80475 17.8441 5.69119C17.5717 6.85218 16.6652 7.75869 15.5042 8.03102C14.6178 8.23895 13.6953 8.23895 12.8088 8.03102C11.6478 7.75869 10.7413 6.85218 10.469 5.69119C10.261 4.80475 10.261 3.88222 10.469 2.99578C10.7413 1.83479 11.6478 0.928279 12.8088 0.655948Z" fill="#363853"/>
<path fill-rule="evenodd" clip-rule="evenodd" d="M15.1831 12.3381C14.5079 12.1798 13.8052 12.1798 13.13 12.3381C12.489 12.4885 11.9885 12.989 11.8381 13.63C11.6798 14.3052 11.6798 15.0079 11.8381 15.6831C11.9885 16.324 12.489 16.8245 13.13 16.9749C13.8052 17.1333 14.5079 17.1333 15.1831 16.9749C15.824 16.8245 16.3245 16.324 16.4749 15.6831C16.6333 15.0079 16.6333 14.3052 16.4749 13.63C16.3245 12.989 15.824 12.4885 15.1831 12.3381ZM12.8088 10.969C13.6953 10.761 14.6178 10.761 15.5042 10.969C16.6652 11.2413 17.5717 12.1478 17.8441 13.3088C18.052 14.1953 18.052 15.1178 17.8441 16.0042C17.5717 17.1652 16.6652 18.0717 15.5042 18.3441C14.6178 18.552 13.6953 18.552 12.8088 18.3441C11.6478 18.0717 10.7413 17.1652 10.469 16.0042C10.261 15.1178 10.261 14.1952 10.469 13.3088C10.7413 12.1478 11.6478 11.2413 12.8088 10.969Z" fill="#363853"/>
</svg>
