<svg width="18" height="19" viewBox="0 0 18 19" fill="none" xmlns="http://www.w3.org/2000/svg">
<path fill-rule="evenodd" clip-rule="evenodd" d="M9 1.38462C8.10844 1.38462 7.21689 1.48709 6.34312 1.69205C4.03533 2.23339 2.23339 4.03533 1.69205 6.34311C1.28214 8.09065 1.28214 9.90935 1.69205 11.6569C2.23339 13.9647 4.03533 15.7666 6.34312 16.3079C8.09066 16.7179 9.90934 16.7179 11.6569 16.3079C13.9647 15.7666 15.7666 13.9647 16.3079 11.6569C16.5129 10.7831 16.6154 9.89154 16.6154 8.99998C16.6154 8.61762 16.9253 8.30767 17.3077 8.30767C17.69 8.30767 18 8.61762 18 8.99997C18 9.99764 17.8853 10.9953 17.656 11.9731C16.9945 14.7929 14.7929 16.9945 11.9731 17.656C10.0176 18.1147 7.98243 18.1147 6.02692 17.656C3.20715 16.9945 1.00546 14.7929 0.344028 11.9731C-0.114676 10.0176 -0.114676 7.98243 0.344028 6.02691C1.00546 3.20715 3.20715 1.00545 6.02691 0.344027C7.00467 0.114676 8.00234 0 9 0C9.38235 0 9.6923 0.309957 9.6923 0.692308C9.6923 1.07466 9.38235 1.38462 9 1.38462Z" fill="#363853"/>
<path fill-rule="evenodd" clip-rule="evenodd" d="M12.9231 0.692308C12.9231 0.309957 13.233 0 13.6154 0H17.3077C17.69 0 18 0.309957 18 0.692308V5C18 5.38235 17.69 5.69231 17.3077 5.69231C16.9253 5.69231 16.6154 5.38235 16.6154 5V2.56379L12.2949 7.60439C12.046 7.8947 11.609 7.92832 11.3187 7.67948C11.0284 7.43065 10.9948 6.9936 11.2436 6.7033L15.8025 1.38462H13.6154C13.233 1.38462 12.9231 1.07466 12.9231 0.692308Z" fill="#363853"/>
</svg>
