<svg width="23" height="13" viewBox="0 0 23 13" fill="none" xmlns="http://www.w3.org/2000/svg">
<path fill-rule="evenodd" clip-rule="evenodd" d="M3 0.825397C3 0.369543 3.36828 0 3.82258 0H19.1774C19.6317 0 20 0.369543 20 0.825397C20 1.28125 19.6317 1.65079 19.1774 1.65079H3.82258C3.36828 1.65079 3 1.28125 3 0.825397ZM3 6.5C3 6.04415 3.36828 5.6746 3.82258 5.6746H10.4032C10.8575 5.6746 11.2258 6.04415 11.2258 6.5C11.2258 6.95585 10.8575 7.3254 10.4032 7.3254H3.82258C3.36828 7.3254 3 6.95585 3 6.5ZM3 12.1746C3 11.7187 3.36828 11.3492 3.82258 11.3492H19.1774C19.6317 11.3492 20 11.7187 20 12.1746C20 12.6305 19.6317 13 19.1774 13H3.82258C3.36828 13 3 12.6305 3 12.1746Z" fill="black"/>
</svg>
