<svg width="64" height="24" viewBox="0 0 64 24" fill="none" xmlns="http://www.w3.org/2000/svg">
<g clip-path="url(#clip0_579_1411)">
<path opacity="0.7" d="M11 20.0502C10.8541 20.0502 10.7082 20.0016 10.5861 19.9045C10.2156 19.6083 1.5 14.4881 1.5 8.57981C1.5 5.47579 3.93539 2.9502 6.92857 2.9502C9.92175 2.9502 11.95 5.54616 11.95 8.65019C11.95 9.12519 11.5926 9.60019 11 9.60019C10.4074 9.60019 10.05 9.12519 10.05 8.65019C10.05 6.32164 9.17396 4.8502 6.92857 4.8502C4.68318 4.8502 3.4 6.25126 3.4 8.57981C3.4 13.1307 9.28796 16.6963 11 18.1502C12.7114 16.6963 18.6 13.1257 18.6 8.57981C18.6 6.25126 17.3168 4.8502 15.0714 4.8502C14.4641 4.8502 13.8799 4.98531 13.335 5.25131C12.9957 5.41738 12.2331 5.47479 11.95 4.8502C11.6918 4.28046 12.4175 3.65179 12.7561 3.48571C13.4836 3.13034 14.2626 2.9502 15.0714 2.9502C18.0646 2.9502 20.5 5.47579 20.5 8.57981C20.5 14.4881 11.7844 19.6083 11.4139 19.9045C11.2918 20.0016 11.1459 20.0502 11 20.0502Z" fill="white"/>
<g opacity="0.9">
<path d="M32 20.0502C31.8541 20.0502 31.7082 20.0016 31.5861 19.9045C31.2156 19.6083 22.5 14.4881 22.5 8.57981C22.5 5.47579 24.9354 2.9502 27.9286 2.9502C30.9217 2.9502 32.95 5.54616 32.95 8.65019C32.95 9.12519 32.5926 9.60019 32 9.60019C31.4074 9.60019 31.05 9.12519 31.05 8.65019C31.05 6.32164 30.174 4.8502 27.9286 4.8502C25.6832 4.8502 24.4 6.25126 24.4 8.57981C24.4 13.1307 30.288 16.6963 32 18.1502C33.7114 16.6963 39.6 13.1257 39.6 8.57981C39.6 6.25126 38.3168 4.8502 36.0714 4.8502C35.4641 4.8502 34.8799 4.98531 34.335 5.25131C33.9957 5.41738 33.2331 5.47479 32.95 4.8502C32.6918 4.28046 33.4175 3.65179 33.7561 3.48571C34.4836 3.13034 35.2626 2.9502 36.0714 2.9502C39.0646 2.9502 41.5 5.47579 41.5 8.57981C41.5 14.4881 32.7844 19.6083 32.4139 19.9045C32.2918 20.0016 32.1459 20.0502 32 20.0502Z" fill="white"/>
</g>
<path d="M54 20.0502C53.8541 20.0502 53.7082 20.0016 53.5861 19.9045C53.2156 19.6083 44.5 14.4881 44.5 8.57981C44.5 5.47579 46.9354 2.9502 49.9286 2.9502C52.9217 2.9502 54.95 5.54616 54.95 8.65019C54.95 9.12519 54.5926 9.60019 54 9.60019C53.4074 9.60019 53.05 9.12519 53.05 8.65019C53.05 6.32164 52.174 4.8502 49.9286 4.8502C47.6832 4.8502 46.4 6.25126 46.4 8.57981C46.4 13.1307 52.288 16.6963 54 18.1502C55.7114 16.6963 61.6 13.1257 61.6 8.57981C61.6 6.25126 60.3168 4.8502 58.0714 4.8502C57.4641 4.8502 56.8799 4.98531 56.335 5.25131C55.9957 5.41738 55.2331 5.47479 54.95 4.8502C54.6918 4.28046 55.4175 3.65179 55.7561 3.48571C56.4836 3.13034 57.2626 2.9502 58.0714 2.9502C61.0646 2.9502 63.5 5.47579 63.5 8.57981C63.5 14.4881 54.7844 19.6083 54.4139 19.9045C54.2918 20.0016 54.1459 20.0502 54 20.0502Z" fill="white"/>
</g>
<defs>
<clipPath id="clip0_579_1411">
<rect width="63" height="24" fill="white" transform="translate(0.5)"/>
</clipPath>
</defs>
</svg>
