<svg width="22" height="20" viewBox="0 0 22 20" fill="none" xmlns="http://www.w3.org/2000/svg">
<path d="M9.5 20C10.3284 20 11 19.3284 11 18.5C11 17.6716 10.3284 17 9.5 17C8.67157 17 8 17.6716 8 18.5C8 19.3284 8.67157 20 9.5 20Z" fill="black"/>
<path d="M17.5 20C18.3284 20 19 19.3284 19 18.5C19 17.6716 18.3284 17 17.5 17C16.6716 17 16 17.6716 16 18.5C16 19.3284 16.6716 20 17.5 20Z" fill="black"/>
<path d="M9.295 4.1111H18.4814C19.769 4.1111 20.7211 5.31007 20.4295 6.56418L19.0598 12.4531C18.8491 13.3589 18.0418 14 17.1118 14L9.60697 14C8.7758 14 8.03127 13.4859 7.73675 12.7087L3.78932 2.29132C3.4948 1.51407 2.75026 1 1.91908 1H1" stroke="black" stroke-width="2" stroke-linecap="round" stroke-linejoin="round"/>
</svg>
