<svg width="21" height="25" viewBox="0 0 21 25" fill="none" xmlns="http://www.w3.org/2000/svg">
<path d="M4.75 9.61C4.75 10.1347 5.17533 10.56 5.7 10.56V10.56C6.22467 10.56 6.65 10.1347 6.65 9.61V8.64V6.72V5.0304C6.65 3.1488 7.752 1.9392 9.5 1.92C11.248 1.9008 12.35 3.0912 12.35 5.0304V6.72V8.64V9.61C12.35 10.1347 12.7753 10.56 13.3 10.56V10.56C13.8247 10.56 14.25 10.1347 14.25 9.61V8.64V6.72V5.0304C14.25 1.9968 12.426 0.0576 9.5 0C6.574 0.0576 4.75 1.9968 4.75 5.0304V6.72V8.64V9.61Z" fill="white"/>
<path d="M4.75 6.72H2C0.895431 6.72 0 7.61543 0 8.72V22C0 23.1046 0.895431 24 2 24H8.04C8.57019 24 9 23.5702 9 23.04V23.04C9 22.5098 8.57019 22.08 8.04 22.08H3.9C2.79543 22.08 1.9 21.1846 1.9 20.08V10.64C1.9 9.53543 2.79543 8.64 3.9 8.64H4.75V6.72Z" fill="white"/>
<path d="M6.65 6.72V8.64H12.35V6.72H6.65Z" fill="white"/>
<path d="M14.25 6.72V8.64H15.1C16.2046 8.64 17.1 9.53543 17.1 10.64V12.05C17.1 12.5747 17.5253 13 18.05 13V13C18.5747 13 19 12.5747 19 12.05V8.72C19 7.61543 18.1046 6.72 17 6.72H14.25Z" fill="white"/>
<path fill-rule="evenodd" clip-rule="evenodd" d="M20.6825 15.214C21.0637 15.5335 21.1079 16.0947 20.7811 16.4674L14.7162 23.6896C14.5435 23.8866 14.2914 24 14.026 24C13.7606 24 13.5085 23.8866 13.3357 23.6896L11.2189 21.134C10.8921 20.7613 10.9363 20.2002 11.3175 19.8807C11.6987 19.5612 12.2726 19.6044 12.5993 19.9771L14.026 21.7453L19.4007 15.3104C19.7274 14.9377 20.3013 14.8945 20.6825 15.214Z" fill="white"/>
</svg>
