<svg width="70" height="40" viewBox="0 0 70 40" fill="none" xmlns="http://www.w3.org/2000/svg">
<path fill-rule="evenodd" clip-rule="evenodd" d="M2 18.0263C2 10.8321 7.83209 5 15.0263 5C22.2206 5 28.0527 10.8321 28.0527 18.0263C28.0527 25.2206 22.2206 31.0527 15.0263 31.0527C7.83209 31.0527 2 25.2206 2 18.0263ZM15.0263 7.36843C9.14013 7.36843 4.36843 12.1401 4.36843 18.0263C4.36843 23.9125 9.14013 28.6843 15.0263 28.6843C20.9125 28.6843 25.6843 23.9125 25.6843 18.0263C25.6843 12.1401 20.9125 7.36843 15.0263 7.36843ZM24.7154 27.7154C25.1779 27.253 25.9277 27.253 26.3901 27.7154L31.6532 32.9785C32.1156 33.441 32.1156 34.1908 31.6531 34.6533C31.1907 35.1157 30.4409 35.1157 29.9784 34.6532L24.7154 29.3902C24.2529 28.9277 24.2529 28.1779 24.7154 27.7154Z" fill="#F6A9B7"/>
<path fill-rule="evenodd" clip-rule="evenodd" d="M37 18.0263C37 10.8321 42.8321 5 50.0263 5C57.2206 5 63.0527 10.8321 63.0527 18.0263C63.0527 25.2206 57.2206 31.0527 50.0263 31.0527C42.8321 31.0527 37 25.2206 37 18.0263ZM50.0263 7.36843C44.1401 7.36843 39.3684 12.1401 39.3684 18.0263C39.3684 23.9125 44.1401 28.6843 50.0263 28.6843C55.9125 28.6843 60.6843 23.9125 60.6843 18.0263C60.6843 12.1401 55.9125 7.36843 50.0263 7.36843ZM59.7154 27.7154C60.1779 27.253 60.9277 27.253 61.3901 27.7154L66.6532 32.9785C67.1156 33.441 67.1156 34.1908 66.6531 34.6533C66.1907 35.1157 65.4409 35.1157 64.9784 34.6532L59.7154 29.3902C59.2529 28.9277 59.2529 28.1779 59.7154 27.7154Z" fill="#FB9BAD"/>
</svg>
