<svg width="17" height="17" viewBox="0 0 17 17" fill="none" xmlns="http://www.w3.org/2000/svg">
<path fill-rule="evenodd" clip-rule="evenodd" d="M10.5625 1.20724C10.3129 1.18503 10.0102 1.18443 9.32639 1.18443L8.53996 1.18443C8.21091 1.18443 7.94416 0.919288 7.94416 0.592216C7.94416 0.265145 8.21091 1.37071e-06 8.53996 1.27658e-06L9.36636 5.23535e-07C9.9995 -1.19487e-05 10.3593 -1.90555e-05 10.6688 0.027528C14.0181 0.325589 16.6724 2.96396 16.9723 6.29305C17 6.60071 17 6.95827 17 7.58755V8.40906C17 8.73613 16.7332 9.00127 16.4042 9.00127C16.0751 9.00127 15.8084 8.73613 15.8084 8.40906V7.62737C15.8084 6.94762 15.8078 6.64677 15.7854 6.39867C15.537 3.64028 13.3377 1.4542 10.5625 1.20724ZM3.85043 3.06358C3.47053 2.7166 2.88658 2.7166 2.50668 3.06358C2.49357 3.07556 2.47638 3.09246 2.41595 3.15252L1.71183 3.85239C1.28248 4.27916 1.10224 4.89439 1.23396 5.48356C2.38237 10.6203 6.41838 14.632 11.5863 15.7735C12.179 15.9044 12.798 15.7253 13.2273 15.2985L13.9314 14.5986C13.9919 14.5385 14.0089 14.5215 14.0209 14.5084C14.37 14.1308 14.37 13.5504 14.0209 13.1728C14.0089 13.1597 13.9919 13.1426 13.9314 13.0826L12.773 11.9312C12.3091 11.47 11.6085 11.3381 11.007 11.5987C9.95644 12.0539 8.73264 11.8235 7.92226 11.018L6.01822 9.12548C5.20784 8.31999 4.97607 7.10355 5.43402 6.05931C5.69619 5.46148 5.5635 4.76508 5.09956 4.30394L3.94116 3.15252C3.88073 3.09246 3.86354 3.07556 3.85043 3.06358ZM1.70043 2.19143C2.53622 1.42808 3.82089 1.42808 4.65668 2.19143C4.69091 2.2227 4.72746 2.25903 4.77491 2.30621L5.94216 3.46642C6.75254 4.27192 6.9843 5.48835 6.52636 6.53259C6.26419 7.13042 6.39688 7.82682 6.86081 8.28796L8.76486 10.1805C9.22879 10.6417 9.92942 10.7736 10.5309 10.513C11.5814 10.0578 12.8052 10.2882 13.6156 11.0936L14.7828 12.2538C14.8303 12.301 14.8669 12.3373 14.8983 12.3714C15.6663 13.2021 15.6663 14.4791 14.8983 15.3098C14.8669 15.3439 14.8303 15.3802 14.7828 15.4274L14.0699 16.136C13.3525 16.8491 12.3182 17.1485 11.3278 16.9297C5.70824 15.6884 1.31951 11.3262 0.0707216 5.7405C-0.149379 4.75601 0.151796 3.72799 0.869236 3.01488L1.57335 2.315C1.57635 2.31202 1.5793 2.30909 1.58221 2.3062C1.62966 2.25902 1.6662 2.22269 1.70043 2.19143ZM8.5058 3.38394C8.5058 3.05687 8.77255 2.79173 9.10161 2.79173H9.55671C9.61848 2.79173 9.65605 2.79173 9.68883 2.79219C12.1604 2.82738 14.1554 4.81037 14.1908 7.26703C14.1913 7.2996 14.1913 7.33694 14.1913 7.3983V7.85071C14.1913 8.17778 13.9245 8.44293 13.5955 8.44293C13.2664 8.44293 12.9996 8.17778 12.9996 7.85071V7.40403C12.9996 7.33515 12.9996 7.30695 12.9993 7.28399C12.9731 5.46819 11.4986 4.00251 9.67177 3.9765C9.64867 3.97618 9.6203 3.97616 9.55099 3.97616H9.10161C8.77255 3.97616 8.5058 3.71102 8.5058 3.38394Z" fill="black"/>
</svg>
