<svg width="18" height="17" viewBox="0 0 18 17" fill="none" xmlns="http://www.w3.org/2000/svg">
<path fill-rule="evenodd" clip-rule="evenodd" d="M0.5 7.38159C0.5 3.30485 3.80485 0 7.88159 0C11.9583 0 15.2632 3.30485 15.2632 7.38159C15.2632 11.4583 11.9583 14.7632 7.88159 14.7632C3.80485 14.7632 0.5 11.4583 0.5 7.38159ZM7.88159 1.34211C4.54608 1.34211 1.84211 4.04608 1.84211 7.38159C1.84211 10.7171 4.54608 13.4211 7.88159 13.4211C11.2171 13.4211 13.9211 10.7171 13.9211 7.38159C13.9211 4.04608 11.2171 1.34211 7.88159 1.34211ZM13.3721 12.8721C13.6341 12.61 14.059 12.61 14.3211 12.8721L17.3035 15.8545C17.5655 16.1166 17.5655 16.5415 17.3035 16.8035C17.0414 17.0656 16.6165 17.0656 16.3544 16.8035L13.3721 13.8211C13.11 13.559 13.11 13.1341 13.3721 12.8721Z" fill="white"/>
</svg>
