<svg width="50" height="150" viewBox="0 0 50 150" fill="none" xmlns="http://www.w3.org/2000/svg">
<path opacity="0.8" d="M24.5 33C24.3387 33 24.1775 32.9489 24.0425 32.8467C23.633 32.5348 14 27.1452 14 20.9259C14 17.6585 16.6918 15 20 15C23.3082 15 25.55 17.7326 25.55 21C25.55 21.5 25.155 22 24.5 22C23.845 22 23.45 21.5 23.45 21C23.45 18.5489 22.4817 17 20 17C17.5183 17 16.1 18.4748 16.1 20.9259C16.1 25.7163 22.6077 29.4696 24.5 31C26.3915 29.4696 32.9 25.7111 32.9 20.9259C32.9 18.4748 31.4818 17 29 17C28.3288 17 27.683 17.1422 27.0807 17.4222C26.7057 17.597 25.8629 17.6575 25.55 17C25.2646 16.4003 26.0667 15.7385 26.441 15.5637C27.245 15.1896 28.106 15 29 15C32.3082 15 35 17.6585 35 20.9259C35 27.1452 25.367 32.5348 24.9575 32.8467C24.8225 32.9489 24.6612 33 24.5 33Z" fill="white"/>
<path opacity="0.9" d="M24.5 83C24.3387 83 24.1775 82.9489 24.0425 82.8467C23.633 82.5348 14 77.1452 14 70.9259C14 67.6585 16.6918 65 20 65C23.3082 65 25.55 67.7326 25.55 71C25.55 71.5 25.155 72 24.5 72C23.845 72 23.45 71.5 23.45 71C23.45 68.5489 22.4817 67 20 67C17.5183 67 16.1 68.4748 16.1 70.9259C16.1 75.7163 22.6077 79.4696 24.5 81C26.3915 79.4696 32.9 75.7111 32.9 70.9259C32.9 68.4748 31.4818 67 29 67C28.3288 67 27.683 67.1422 27.0807 67.4222C26.7057 67.597 25.8629 67.6575 25.55 67C25.2646 66.4003 26.0667 65.7385 26.441 65.5637C27.245 65.1896 28.106 65 29 65C32.3082 65 35 67.6585 35 70.9259C35 77.1452 25.367 82.5348 24.9575 82.8467C24.8225 82.9489 24.6612 83 24.5 83Z" fill="white"/>
<path d="M24.5 133C24.3387 133 24.1775 132.949 24.0425 132.847C23.633 132.535 14 127.145 14 120.926C14 117.659 16.6918 115 20 115C23.3082 115 25.55 117.733 25.55 121C25.55 121.5 25.155 122 24.5 122C23.845 122 23.45 121.5 23.45 121C23.45 118.549 22.4817 117 20 117C17.5183 117 16.1 118.475 16.1 120.926C16.1 125.716 22.6077 129.47 24.5 131C26.3915 129.47 32.9 125.711 32.9 120.926C32.9 118.475 31.4818 117 29 117C28.3288 117 27.683 117.142 27.0807 117.422C26.7057 117.597 25.8629 117.657 25.55 117C25.2646 116.4 26.0667 115.739 26.441 115.564C27.245 115.19 28.106 115 29 115C32.3082 115 35 117.659 35 120.926C35 127.145 25.367 132.535 24.9575 132.847C24.8225 132.949 24.6612 133 24.5 133Z" fill="white"/>
</svg>
