<svg width="420" height="120" viewBox="0 0 420 120" fill="none" xmlns="http://www.w3.org/2000/svg">
<path opacity="0.5" d="M102 29.5C102 22.625 96.375 17 89.5 17C82.625 17 77 22.625 77 29.5C77 35.75 81.5312 40.9062 87.4687 41.8437V33.0937H84.3437V29.5H87.4687V26.6875C87.4687 23.5625 89.3438 21.8438 92.1563 21.8438C93.5625 21.8438 94.9688 22.1563 94.9688 22.1563V25.2813H93.4062C91.8438 25.2813 91.375 26.2187 91.375 27.1562V29.5H94.8125L94.1875 33.0937H91.2188V42C97.4688 41.0625 102 35.75 102 29.5Z" fill="#1877F2"/>
<path opacity="0.5" d="M222 22.3077C221.1 22.7692 220.2 22.9231 219.15 23.0769C220.2 22.4615 220.95 21.5385 221.25 20.3077C220.35 20.9231 219.3 21.2308 218.1 21.5385C217.2 20.6154 215.85 20 214.5 20C211.35 20 208.95 23.0769 209.7 26.1538C205.65 26 202.05 24 199.5 20.9231C198.15 23.2308 198.9 26.1538 201 27.6923C200.25 27.6923 199.5 27.3846 198.75 27.0769C198.75 29.3846 200.4 31.5385 202.65 32.1538C201.9 32.3077 201.15 32.4615 200.4 32.3077C201 34.3077 202.8 35.8462 205.05 35.8462C203.25 37.2308 200.55 38 198 37.6923C200.25 39.0769 202.8 40 205.5 40C214.65 40 219.75 32.1538 219.45 24.9231C220.5 24.3077 221.4 23.3846 222 22.3077Z" fill="#1DA1F2"/>
<path opacity="0.5" d="M341.4 23.5804C341.1 22.5179 340.35 21.7589 339.3 21.4554C337.5 21 329.85 21 329.85 21C329.85 21 322.35 21 320.4 21.4554C319.35 21.7589 318.6 22.5179 318.3 23.5804C318 25.5536 318 29.5 318 29.5C318 29.5 318 33.4464 318.45 35.4196C318.75 36.4821 319.5 37.2411 320.55 37.5446C322.35 38 330 38 330 38C330 38 337.5 38 339.45 37.5446C340.5 37.2411 341.25 36.4821 341.55 35.4196C342 33.4464 342 29.5 342 29.5C342 29.5 342 25.5536 341.4 23.5804ZM327.6 33.1429V25.8571L333.9 29.5L327.6 33.1429Z" fill="#FF0000"/>
<g opacity="0.5">
<path d="M267 20.1687C270.181 20.1687 270.614 20.1687 271.916 20.1687C273.072 20.1687 273.651 20.4578 274.084 20.6024C274.663 20.8916 275.096 21.0361 275.53 21.4699C275.964 21.9036 276.253 22.3374 276.398 22.9157C276.542 23.3494 276.687 23.9277 276.831 25.0843C276.831 26.3855 276.831 26.6747 276.831 30C276.831 33.3253 276.831 33.6145 276.831 34.9157C276.831 36.0723 276.542 36.6506 276.398 37.0843C276.108 37.6627 275.964 38.0964 275.53 38.5301C275.096 38.9639 274.663 39.253 274.084 39.3976C273.651 39.5422 273.072 39.6867 271.916 39.8313C270.614 39.8313 270.325 39.8313 267 39.8313C263.675 39.8313 263.386 39.8313 262.084 39.8313C260.928 39.8313 260.349 39.5422 259.916 39.3976C259.337 39.1084 258.904 38.9639 258.47 38.5301C258.036 38.0964 257.747 37.6627 257.602 37.0843C257.458 36.6506 257.313 36.0723 257.169 34.9157C257.169 33.6145 257.169 33.3253 257.169 30C257.169 26.6747 257.169 26.3855 257.169 25.0843C257.169 23.9277 257.458 23.3494 257.602 22.9157C257.892 22.3374 258.036 21.9036 258.47 21.4699C258.904 21.0361 259.337 20.747 259.916 20.6024C260.349 20.4578 260.928 20.3133 262.084 20.1687C263.386 20.1687 263.819 20.1687 267 20.1687ZM267 18C263.675 18 263.386 18 262.084 18C260.783 18 259.916 18.2892 259.193 18.5783C258.47 18.8675 257.747 19.3012 257.024 20.0241C256.301 20.747 256.012 21.3253 255.578 22.1928C255.289 22.9157 255.145 23.7831 255 25.0843C255 26.3855 255 26.8193 255 30C255 33.3253 255 33.6145 255 34.9157C255 36.2169 255.289 37.0843 255.578 37.8072C255.867 38.5301 256.301 39.253 257.024 39.9759C257.747 40.6988 258.325 40.988 259.193 41.4217C259.916 41.7108 260.783 41.8554 262.084 42C263.386 42 263.819 42 267 42C270.181 42 270.614 42 271.916 42C273.217 42 274.084 41.7108 274.807 41.4217C275.53 41.1325 276.253 40.6988 276.976 39.9759C277.699 39.253 277.988 38.6747 278.422 37.8072C278.711 37.0843 278.855 36.2169 279 34.9157C279 33.6145 279 33.1807 279 30C279 26.8193 279 26.3855 279 25.0843C279 23.7831 278.711 22.9157 278.422 22.1928C278.133 21.4699 277.699 20.747 276.976 20.0241C276.253 19.3012 275.675 19.012 274.807 18.5783C274.084 18.2892 273.217 18.1446 271.916 18C270.614 18 270.325 18 267 18Z" fill="#F00073"/>
<path d="M267 23.7831C263.53 23.7831 260.783 26.5301 260.783 30C260.783 33.4699 263.53 36.2169 267 36.2169C270.47 36.2169 273.217 33.4699 273.217 30C273.217 26.5301 270.47 23.7831 267 23.7831ZM267 34.0482C264.831 34.0482 262.952 32.3133 262.952 30C262.952 27.8313 264.687 25.9518 267 25.9518C269.169 25.9518 271.048 27.6867 271.048 30C271.048 32.1687 269.169 34.0482 267 34.0482Z" fill="#F00073"/>
<path d="M273.361 25.0843C274.16 25.0843 274.807 24.437 274.807 23.6386C274.807 22.8401 274.16 22.1928 273.361 22.1928C272.563 22.1928 271.916 22.8401 271.916 23.6386C271.916 24.437 272.563 25.0843 273.361 25.0843Z" fill="#F00073"/>
</g>
<path opacity="0.5" d="M30.5225 37C22.6643 37 18.1838 31.3795 18 22.012H21.952C22.0784 28.8815 24.9735 31.7878 27.2712 32.3883V22.012H30.982V27.9327C33.2453 27.6805 35.6349 24.9784 36.4391 22H40.1384C39.8367 23.5418 39.2342 25.0019 38.3684 26.2893C37.5026 27.5766 36.3921 28.6635 35.1064 29.482C36.5412 30.2285 37.8084 31.2846 38.8243 32.5805C39.8401 33.8763 40.5817 35.3826 41 37H36.9216C36.0485 34.1537 33.8656 31.944 30.982 31.6437V37H30.534H30.5225Z" fill="#54839D"/>
<g opacity="0.5">
<path fill-rule="evenodd" clip-rule="evenodd" d="M157.151 22.9772C157.151 26.8208 153.954 29.9543 150.033 29.9543C146.069 29.9543 142.873 26.8208 142.873 22.9772C142.873 19.1335 146.069 16 150.033 16C153.954 16 157.151 19.1335 157.151 22.9772ZM152.974 22.9772C152.974 21.3896 151.653 20.0944 150.033 20.0944C148.371 20.0944 147.05 21.3896 147.092 22.9772C147.092 24.5648 148.414 25.8599 150.033 25.8599C151.653 25.8599 152.974 24.5648 152.974 22.9772Z" fill="#2A65D0"/>
<path d="M157.023 34.007C155.744 34.8007 154.338 35.3439 152.889 35.6782L156.938 39.5218C157.747 40.3157 157.747 41.6108 156.938 42.4047C156.128 43.1984 154.807 43.1984 153.997 42.4047L150.076 38.5609L146.155 42.4047C145.729 42.7806 145.217 42.9895 144.663 42.9895C144.109 42.9895 143.598 42.8225 143.171 42.4047C142.361 41.6108 142.361 40.3157 143.171 39.5218L147.135 35.6363C145.686 35.302 144.279 34.7591 143.001 33.9652C142.021 33.3803 141.722 32.1269 142.276 31.166C142.916 30.205 144.194 29.9545 145.174 30.5393C148.073 32.3358 151.866 32.3358 154.764 30.5393C155.744 29.9126 157.066 30.205 157.662 31.166C158.301 32.1269 158.003 33.422 157.023 34.007Z" fill="#2A65D0"/>
</g>
<g opacity="0.5">
<path d="M397.439 26.3729C398.34 27.6016 399.506 27.6612 400.374 26.7699C401.209 25.912 401.209 24.5212 400.374 23.6633C399.539 22.8054 398.185 22.8054 397.351 23.6633C397.351 23.6633 396.356 24.3981 397.084 25.7417L397.439 26.3729Z" fill="#89D346"/>
<path d="M389.497 25.2954C388.906 24.2448 389.257 22.9013 390.279 22.2947C391.302 21.6881 392.609 22.0481 393.199 23.0987L399.424 34.1774C400.015 35.2281 399.664 36.5716 398.642 37.1782C397.619 37.7848 396.312 37.4248 395.722 36.3741L389.497 25.2954Z" fill="#89D346"/>
<path d="M386.419 36.3741L380.195 25.2954C379.604 24.2448 379.955 22.9013 380.977 22.2947C382 21.6881 383.307 22.0481 383.897 23.0987L389.141 32.4317C390.121 31.6788 391.132 32.4839 391.659 33.4222C392.143 34.2833 392.003 35.3709 391.319 36.0739L390.087 37.3405C389.252 38.1983 387.898 38.1983 387.063 37.3405L386.419 36.3741Z" fill="#89D346"/>
<path d="M383.829 36.1993C383.956 36.4245 383.881 36.7124 383.662 36.8423L382.207 37.7053C381.185 38.3119 379.877 37.9519 379.287 36.9013C378.696 35.8506 379.047 34.5071 380.069 33.9005L381.524 33.0375C381.743 32.9075 382.023 32.9847 382.15 33.2098L383.829 36.1993Z" fill="#369AF3"/>
</g>
<path d="M102 89.5C102 82.625 96.375 77 89.5 77C82.625 77 77 82.625 77 89.5C77 95.75 81.5312 100.906 87.4687 101.844V93.0937H84.3437V89.5H87.4687V86.6875C87.4687 83.5625 89.3438 81.8438 92.1563 81.8438C93.5625 81.8438 94.9688 82.1563 94.9688 82.1563V85.2813H93.4062C91.8438 85.2813 91.375 86.2187 91.375 87.1562V89.5H94.8125L94.1875 93.0937H91.2188V102C97.4688 101.062 102 95.75 102 89.5Z" fill="#1877F2"/>
<path d="M222 82.3077C221.1 82.7692 220.2 82.9231 219.15 83.0769C220.2 82.4615 220.95 81.5385 221.25 80.3077C220.35 80.9231 219.3 81.2308 218.1 81.5385C217.2 80.6154 215.85 80 214.5 80C211.35 80 208.95 83.0769 209.7 86.1538C205.65 86 202.05 84 199.5 80.9231C198.15 83.2308 198.9 86.1538 201 87.6923C200.25 87.6923 199.5 87.3846 198.75 87.0769C198.75 89.3846 200.4 91.5385 202.65 92.1538C201.9 92.3077 201.15 92.4615 200.4 92.3077C201 94.3077 202.8 95.8462 205.05 95.8462C203.25 97.2308 200.55 98 198 97.6923C200.25 99.0769 202.8 100 205.5 100C214.65 100 219.75 92.1538 219.45 84.9231C220.5 84.3077 221.4 83.3846 222 82.3077Z" fill="#1DA1F2"/>
<path d="M341.4 83.5804C341.1 82.5179 340.35 81.7589 339.3 81.4554C337.5 81 329.85 81 329.85 81C329.85 81 322.35 81 320.4 81.4554C319.35 81.7589 318.6 82.5179 318.3 83.5804C318 85.5536 318 89.5 318 89.5C318 89.5 318 93.4464 318.45 95.4196C318.75 96.4821 319.5 97.2411 320.55 97.5446C322.35 98 330 98 330 98C330 98 337.5 98 339.45 97.5446C340.5 97.2411 341.25 96.4821 341.55 95.4196C342 93.4464 342 89.5 342 89.5C342 89.5 342 85.5536 341.4 83.5804ZM327.6 93.1429V85.8571L333.9 89.5L327.6 93.1429Z" fill="#FF0000"/>
<path d="M267 80.1687C270.181 80.1687 270.614 80.1687 271.916 80.1687C273.072 80.1687 273.651 80.4578 274.084 80.6024C274.663 80.8916 275.096 81.0361 275.53 81.4699C275.964 81.9036 276.253 82.3374 276.398 82.9157C276.542 83.3494 276.687 83.9277 276.831 85.0843C276.831 86.3855 276.831 86.6747 276.831 90C276.831 93.3253 276.831 93.6145 276.831 94.9157C276.831 96.0723 276.542 96.6506 276.398 97.0843C276.108 97.6627 275.964 98.0964 275.53 98.5301C275.096 98.9639 274.663 99.253 274.084 99.3976C273.651 99.5422 273.072 99.6867 271.916 99.8313C270.614 99.8313 270.325 99.8313 267 99.8313C263.675 99.8313 263.386 99.8313 262.084 99.8313C260.928 99.8313 260.349 99.5422 259.916 99.3976C259.337 99.1084 258.904 98.9639 258.47 98.5301C258.036 98.0964 257.747 97.6627 257.602 97.0843C257.458 96.6506 257.313 96.0723 257.169 94.9157C257.169 93.6145 257.169 93.3253 257.169 90C257.169 86.6747 257.169 86.3855 257.169 85.0843C257.169 83.9277 257.458 83.3494 257.602 82.9157C257.892 82.3374 258.036 81.9036 258.47 81.4699C258.904 81.0361 259.337 80.747 259.916 80.6024C260.349 80.4578 260.928 80.3133 262.084 80.1687C263.386 80.1687 263.819 80.1687 267 80.1687ZM267 78C263.675 78 263.386 78 262.084 78C260.783 78 259.916 78.2892 259.193 78.5783C258.47 78.8675 257.747 79.3012 257.024 80.0241C256.301 80.747 256.012 81.3253 255.578 82.1928C255.289 82.9157 255.145 83.7831 255 85.0843C255 86.3855 255 86.8193 255 90C255 93.3253 255 93.6145 255 94.9157C255 96.2169 255.289 97.0843 255.578 97.8072C255.867 98.5301 256.301 99.253 257.024 99.9759C257.747 100.699 258.325 100.988 259.193 101.422C259.916 101.711 260.783 101.855 262.084 102C263.386 102 263.819 102 267 102C270.181 102 270.614 102 271.916 102C273.217 102 274.084 101.711 274.807 101.422C275.53 101.133 276.253 100.699 276.976 99.9759C277.699 99.253 277.988 98.6747 278.422 97.8072C278.711 97.0843 278.855 96.2169 279 94.9157C279 93.6145 279 93.1807 279 90C279 86.8193 279 86.3855 279 85.0843C279 83.7831 278.711 82.9157 278.422 82.1928C278.133 81.4699 277.699 80.747 276.976 80.0241C276.253 79.3012 275.675 79.012 274.807 78.5783C274.084 78.2892 273.217 78.1446 271.916 78C270.614 78 270.325 78 267 78Z" fill="#F00073"/>
<path d="M267 83.7831C263.53 83.7831 260.783 86.5301 260.783 90C260.783 93.4699 263.53 96.2169 267 96.2169C270.47 96.2169 273.217 93.4699 273.217 90C273.217 86.5301 270.47 83.7831 267 83.7831ZM267 94.0482C264.831 94.0482 262.952 92.3133 262.952 90C262.952 87.8313 264.687 85.9518 267 85.9518C269.169 85.9518 271.048 87.6867 271.048 90C271.048 92.1687 269.169 94.0482 267 94.0482Z" fill="#F00073"/>
<path d="M273.361 85.0843C274.16 85.0843 274.807 84.437 274.807 83.6386C274.807 82.8401 274.16 82.1928 273.361 82.1928C272.563 82.1928 271.916 82.8401 271.916 83.6386C271.916 84.437 272.563 85.0843 273.361 85.0843Z" fill="#F00073"/>
<path d="M30.5225 97C22.6643 97 18.1838 91.3795 18 82.012H21.952C22.0784 88.8815 24.9735 91.7878 27.2712 92.3883V82.012H30.982V87.9327C33.2453 87.6805 35.6349 84.9784 36.4391 82H40.1384C39.8367 83.5418 39.2342 85.0019 38.3684 86.2893C37.5026 87.5766 36.3921 88.6635 35.1064 89.482C36.5412 90.2285 37.8084 91.2846 38.8243 92.5805C39.8401 93.8763 40.5817 95.3826 41 97H36.9216C36.0485 94.1537 33.8656 91.944 30.982 91.6437V97H30.534H30.5225Z" fill="#0077FF"/>
<path fill-rule="evenodd" clip-rule="evenodd" d="M26.2712 91.9911C24.2108 90.8876 22.0606 87.9111 21.952 82.012H18C18.0066 82.3503 18.0189 82.6836 18.0367 83.012C18.5004 91.5675 22.7372 96.7471 29.982 96.991C30.1604 96.997 30.3405 97 30.5225 97H30.982V91.6437C31.3256 91.6795 31.6593 91.7424 31.982 91.8302C34.3673 92.4796 36.1525 94.4929 36.9216 97H41C40.9125 96.6615 40.8107 96.3279 40.6953 96C40.2593 94.7613 39.6275 93.6051 38.8243 92.5805C38.0414 91.5818 37.1092 90.7255 36.0661 90.0436C35.7557 89.8407 35.4355 89.6532 35.1064 89.482C35.4191 89.2829 35.7215 89.0679 36.0125 88.8381C36.9179 88.1229 37.7132 87.2635 38.3684 86.2893C39.0446 85.2838 39.5603 84.1729 39.8974 83C39.9919 82.6712 40.0723 82.3376 40.1384 82H36.4391C35.753 84.5409 33.913 86.8808 31.982 87.67C31.6496 87.8058 31.3144 87.8957 30.982 87.9327V82.012H27.2712V92.3883C26.9467 92.3035 26.6102 92.1726 26.2712 91.9911ZM28.2712 83.012V93.6832L27.0184 93.3558C24.2551 92.6337 21.3689 89.4648 20.9898 83.012H19.0382C19.2657 87.0618 20.3662 90.2147 22.1547 92.3824C23.9719 94.5849 26.5786 95.8683 29.982 95.9904V90.5342L31.0856 90.6491C34.2038 90.9738 36.5367 93.195 37.6317 96H39.6292C39.2367 94.9883 38.7003 94.0432 38.0373 93.1974C37.1077 92.0117 35.9508 91.0486 34.6448 90.3691L33.1073 89.5691L34.5694 88.6384C35.7368 87.8952 36.7483 86.9063 37.5386 85.7312C38.1028 84.8923 38.5453 83.9719 38.8529 83H37.1742C36.6901 84.37 35.9187 85.6477 34.9978 86.6612C33.9282 87.8382 32.5579 88.7633 31.0928 88.9266L29.982 89.0504V83.012H28.2712Z" fill="#0077FF"/>
<path fill-rule="evenodd" clip-rule="evenodd" d="M157.151 82.9772C157.151 86.8208 153.954 89.9543 150.033 89.9543C146.069 89.9543 142.873 86.8208 142.873 82.9772C142.873 79.1335 146.069 76 150.033 76C153.954 76 157.151 79.1335 157.151 82.9772ZM152.974 82.9772C152.974 81.3896 151.653 80.0944 150.033 80.0944C148.371 80.0944 147.05 81.3896 147.092 82.9772C147.092 84.5648 148.414 85.8599 150.033 85.8599C151.653 85.8599 152.974 84.5648 152.974 82.9772Z" fill="#2A65D0"/>
<path d="M157.023 94.007C155.744 94.8007 154.338 95.3439 152.889 95.6782L156.938 99.5218C157.747 100.316 157.747 101.611 156.938 102.405C156.128 103.198 154.807 103.198 153.997 102.405L150.076 98.5609L146.155 102.405C145.729 102.781 145.217 102.99 144.663 102.99C144.109 102.99 143.598 102.822 143.171 102.405C142.361 101.611 142.361 100.316 143.171 99.5218L147.135 95.6363C145.686 95.302 144.279 94.7591 143.001 93.9652C142.021 93.3803 141.722 92.1269 142.276 91.166C142.916 90.205 144.194 89.9545 145.174 90.5393C148.073 92.3358 151.866 92.3358 154.764 90.5393C155.744 89.9126 157.066 90.205 157.662 91.166C158.301 92.1269 158.003 93.422 157.023 94.007Z" fill="#2A65D0"/>
<path d="M397.439 86.3729C398.34 87.6016 399.506 87.6612 400.374 86.7699C401.209 85.912 401.209 84.5212 400.374 83.6633C399.539 82.8054 398.185 82.8054 397.351 83.6633C397.351 83.6633 396.356 84.3981 397.084 85.7417L397.439 86.3729Z" fill="#89D346"/>
<path d="M389.497 85.2954C388.906 84.2448 389.257 82.9013 390.279 82.2947C391.302 81.6881 392.609 82.0481 393.199 83.0987L399.424 94.1774C400.015 95.2281 399.664 96.5716 398.642 97.1782C397.619 97.7848 396.312 97.4248 395.722 96.3741L389.497 85.2954Z" fill="#89D346"/>
<path d="M386.419 96.3741L380.195 85.2954C379.604 84.2448 379.955 82.9013 380.977 82.2947C382 81.6881 383.307 82.0481 383.897 83.0987L389.141 92.4317C390.121 91.6788 391.132 92.4839 391.659 93.4222C392.143 94.2833 392.003 95.3709 391.319 96.0739L390.087 97.3405C389.252 98.1983 387.898 98.1983 387.063 97.3405L386.419 96.3741Z" fill="#89D346"/>
<path d="M383.829 96.1993C383.956 96.4245 383.881 96.7124 383.662 96.8423L382.207 97.7053C381.185 98.3119 379.877 97.9519 379.287 96.9013C378.696 95.8506 379.047 94.5071 380.069 93.9005L381.524 93.0375C381.743 92.9075 382.023 92.9847 382.15 93.2098L383.829 96.1993Z" fill="#369AF3"/>
</svg>
