<svg width="32" height="32" viewBox="0 0 32 32" fill="none" xmlns="http://www.w3.org/2000/svg">
<path d="M15.3049 0.67215C15.6925 0.297334 16.3075 0.297334 16.6951 0.67215L17.6935 1.63755C17.9961 1.93011 18.4494 2.00191 18.8276 1.81717L20.0755 1.20754C20.5599 0.970855 21.1448 1.1609 21.3977 1.63715L22.0489 2.86382C22.2462 3.23556 22.6552 3.44395 23.0719 3.3851L24.4471 3.19092C24.981 3.11553 25.4786 3.47702 25.5719 4.00809L25.8121 5.37596C25.8849 5.79049 26.2095 6.11506 26.624 6.18787L27.9919 6.42815C28.523 6.52143 28.8845 7.01897 28.8091 7.55288L28.6149 8.92805C28.5561 9.34479 28.7644 9.75377 29.1362 9.95112L30.3628 10.6023C30.8391 10.8552 31.0291 11.4401 30.7925 11.9245L30.1828 13.1724C29.9981 13.5506 30.0699 14.0039 30.3625 14.3065L31.3278 15.3049C31.7027 15.6925 31.7027 16.3075 31.3278 16.6951L30.3625 17.6935C30.0699 17.9961 29.9981 18.4494 30.1828 18.8276L30.7925 20.0755C31.0291 20.5599 30.8391 21.1448 30.3628 21.3977L29.1362 22.0489C28.7644 22.2462 28.5561 22.6552 28.6149 23.0719L28.8091 24.4471C28.8845 24.981 28.523 25.4786 27.9919 25.5719L26.624 25.8121C26.2095 25.8849 25.8849 26.2095 25.8121 26.624L25.5719 27.9919C25.4786 28.523 24.981 28.8845 24.4471 28.8091L23.0719 28.6149C22.6552 28.5561 22.2462 28.7644 22.0489 29.1362L21.3977 30.3628C21.1448 30.8391 20.5599 31.0291 20.0755 30.7925L18.8276 30.1828C18.4494 29.9981 17.9961 30.0699 17.6935 30.3625L16.6951 31.3278C16.3075 31.7027 15.6925 31.7027 15.3049 31.3278L14.3065 30.3625C14.0039 30.0699 13.5506 29.9981 13.1724 30.1828L11.9245 30.7925C11.4401 31.0291 10.8552 30.8391 10.6023 30.3628L9.95112 29.1362C9.75377 28.7644 9.34479 28.5561 8.92805 28.6149L7.55288 28.8091C7.01898 28.8845 6.52143 28.523 6.42815 27.9919L6.18787 26.624C6.11506 26.2095 5.79049 25.8849 5.37596 25.8121L4.00809 25.5719C3.47702 25.4786 3.11553 24.981 3.19092 24.4471L3.3851 23.0719C3.44395 22.6552 3.23556 22.2462 2.86382 22.0489L1.63715 21.3977C1.1609 21.1448 0.970855 20.5599 1.20754 20.0755L1.81717 18.8276C2.00191 18.4494 1.93011 17.9961 1.63755 17.6935L0.67215 16.6951C0.297334 16.3075 0.297334 15.6925 0.67215 15.3049L1.63755 14.3065C1.93011 14.0039 2.00191 13.5506 1.81717 13.1724L1.20754 11.9245C0.970855 11.4401 1.1609 10.8552 1.63715 10.6023L2.86382 9.95112C3.23556 9.75377 3.44395 9.34479 3.3851 8.92805L3.19092 7.55289C3.11553 7.01898 3.47702 6.52143 4.00809 6.42815L5.37596 6.18787C5.79049 6.11506 6.11506 5.79049 6.18787 5.37596L6.42815 4.00809C6.52143 3.47702 7.01898 3.11553 7.55288 3.19092L8.92805 3.3851C9.34479 3.44395 9.75377 3.23556 9.95112 2.86382L10.6023 1.63715C10.8552 1.1609 11.4401 0.970855 11.9245 1.20754L13.1724 1.81717C13.5506 2.00191 14.0039 1.93011 14.3065 1.63755L15.3049 0.67215Z" fill="#0061B2"/>
<path d="M13.0188 20.8883C12.4445 20.8883 12.1102 20.2394 12.4436 19.7718L18.406 11.4081C18.5386 11.2221 18.7528 11.1117 18.9812 11.1117V11.1117C19.5555 11.1117 19.8898 11.7606 19.5564 12.2282L13.594 20.5919C13.4614 20.7779 13.2472 20.8883 13.0188 20.8883V20.8883ZM12.5371 16.3911C12.0413 16.3911 11.6039 16.284 11.2248 16.0698C10.8457 15.8464 10.5443 15.5345 10.3208 15.1341C10.1069 14.7244 10 14.2449 10 13.6955C10 13.1462 10.1069 12.6713 10.3208 12.2709C10.5443 11.8706 10.8457 11.5587 11.2248 11.3352C11.6039 11.1117 12.0413 11 12.5371 11C13.0328 11 13.4702 11.1117 13.8493 11.3352C14.2284 11.5587 14.5249 11.8706 14.7388 12.2709C14.9526 12.6713 15.0595 13.1462 15.0595 13.6955C15.0595 14.2449 14.9526 14.7244 14.7388 15.1341C14.5249 15.5345 14.2284 15.8464 13.8493 16.0698C13.4702 16.284 13.0328 16.3911 12.5371 16.3911ZM12.5371 15.2458C12.8578 15.2458 13.1154 15.1201 13.3098 14.8687C13.5043 14.608 13.6015 14.2169 13.6015 13.6955C13.6015 13.1741 13.5043 12.7877 13.3098 12.5363C13.1154 12.2756 12.8578 12.1453 12.5371 12.1453C12.226 12.1453 11.9684 12.2756 11.7643 12.5363C11.5699 12.7877 11.4727 13.1741 11.4727 13.6955C11.4727 14.2076 11.5699 14.594 11.7643 14.8547C11.9684 15.1155 12.226 15.2458 12.5371 15.2458ZM19.4629 21C18.9769 21 18.5395 20.8929 18.1507 20.6788C17.7716 20.4553 17.4751 20.1434 17.2612 19.743C17.0474 19.3333 16.9405 18.8538 16.9405 18.3045C16.9405 17.7551 17.0474 17.2803 17.2612 16.8799C17.4751 16.4795 17.7716 16.1676 18.1507 15.9441C18.5395 15.7207 18.9769 15.6089 19.4629 15.6089C19.9684 15.6089 20.4107 15.7207 20.7898 15.9441C21.1689 16.1676 21.4654 16.4795 21.6792 16.8799C21.8931 17.2803 22 17.7551 22 18.3045C22 18.8538 21.8931 19.3333 21.6792 19.743C21.4654 20.1434 21.1689 20.4553 20.7898 20.6788C20.4107 20.8929 19.9684 21 19.4629 21ZM19.4629 19.8547C19.7837 19.8547 20.0413 19.729 20.2357 19.4777C20.4301 19.2169 20.5273 18.8259 20.5273 18.3045C20.5273 17.7924 20.4301 17.406 20.2357 17.1453C20.0413 16.8845 19.7837 16.7542 19.4629 16.7542C19.1519 16.7542 18.8943 16.8845 18.6902 17.1453C18.4957 17.3966 18.3985 17.7831 18.3985 18.3045C18.3985 18.8259 18.4957 19.2169 18.6902 19.4777C18.8943 19.729 19.1519 19.8547 19.4629 19.8547Z" fill="white"/>
</svg>
