<svg width="17" height="20" viewBox="0 0 17 20" fill="none" xmlns="http://www.w3.org/2000/svg">
<path fill-rule="evenodd" clip-rule="evenodd" d="M4.73269 2.22204C5.02427 2.51624 5.02216 2.99111 4.72796 3.28269L3.31758 4.68054C2.74268 5.25033 2.35733 5.63386 2.09823 5.95649C2.08635 5.97128 2.07487 5.98579 2.06379 6H11C14.1757 6 16.75 8.57436 16.75 11.75C16.75 14.9256 14.1757 17.5 11 17.5H3.00005C2.58584 17.5 2.25005 17.1642 2.25005 16.75C2.25005 16.3358 2.58584 16 3.00005 16H11C13.3473 16 15.25 14.0972 15.25 11.75C15.25 9.40279 13.3473 7.5 11 7.5H2.06379C2.07487 7.51422 2.08635 7.52872 2.09823 7.54351C2.35733 7.86614 2.74268 8.24967 3.31758 8.81946L4.72796 10.2173C5.02216 10.5089 5.02427 10.9838 4.73269 11.278C4.44111 11.5722 3.96624 11.5743 3.67204 11.2827L2.2309 9.85436C1.69472 9.32297 1.24754 8.87978 0.928691 8.48276C0.594265 8.06633 0.339893 7.62869 0.271931 7.0955C0.257311 6.98079 0.25 6.8654 0.25 6.75C0.25 6.6346 0.257311 6.51921 0.271931 6.40451C0.339893 5.87131 0.594266 5.43366 0.928692 5.01724C1.24754 4.62022 1.69472 4.17704 2.2309 3.64565C2.24112 3.63552 2.25138 3.62535 2.26167 3.61516L3.67204 2.21731C3.96624 1.92573 4.44111 1.92784 4.73269 2.22204Z" fill="#AAB0B9"/>
</svg>
