<svg width="13" height="16" viewBox="0 0 13 16" fill="none" xmlns="http://www.w3.org/2000/svg">
<g clip-path="url(#clip0_581_2124)">
<path d="M0 14C0 15.1046 0.895431 16 2 16H11C12.1046 16 13 15.1046 13 14V6.48C13 5.37543 12.1046 4.48 11 4.48H2C0.89543 4.48 0 5.37543 0 6.48V14ZM3.3 14.72C2.19543 14.72 1.3 13.8246 1.3 12.72V7.76C1.3 6.65543 2.19543 5.76 3.3 5.76H9.7C10.8046 5.76 11.7 6.65543 11.7 7.76V12.72C11.7 13.8246 10.8046 14.72 9.7 14.72H3.3ZM3.25 6.39C3.25 6.74899 3.54101 7.04 3.9 7.04C4.25899 7.04 4.55 6.74899 4.55 6.39V3.3536C4.55 2.0992 5.304 1.2928 6.5 1.28C7.696 1.2672 8.45 2.0608 8.45 3.3536V6.39C8.45 6.74899 8.74102 7.04 9.1 7.04C9.45898 7.04 9.75 6.74899 9.75 6.39V3.3536C9.75 1.3312 8.502 0.0384 6.5 0C4.498 0.0384 3.25 1.3312 3.25 3.3536V6.39Z" fill="white"/>
</g>
<defs>
<clipPath id="clip0_581_2124">
<rect width="13" height="16" fill="white"/>
</clipPath>
</defs>
</svg>
