<svg width="50" height="50" viewBox="0 0 50 50" fill="none" xmlns="http://www.w3.org/2000/svg">
<path fill-rule="evenodd" clip-rule="evenodd" d="M27.1839 16.3493C26.9196 16.3244 26.5991 16.3238 25.875 16.3238L25.0423 16.3238C24.6939 16.3238 24.4115 16.0274 24.4115 15.6619C24.4115 15.2963 24.6939 15 25.0423 15L25.9173 15C26.5877 15 26.9686 15 27.2964 15.0308C30.8427 15.3639 33.6532 18.3127 33.9707 22.0334C34 22.3773 34 22.7769 34 23.4802V24.3984C34 24.7639 33.7176 25.0602 33.3691 25.0602C33.0207 25.0602 32.7383 24.7639 32.7383 24.3984V23.5247C32.7383 22.765 32.7377 22.4287 32.714 22.1515C32.4509 19.0685 30.1222 16.6253 27.1839 16.3493ZM20.0769 18.424C19.6747 18.0362 19.0564 18.0362 18.6541 18.424C18.6402 18.4374 18.622 18.4563 18.5581 18.5234L17.8125 19.3056C17.3579 19.7826 17.1671 20.4702 17.3065 21.1287C18.5225 26.8697 22.7959 31.3534 28.2678 32.6292C28.8954 32.7755 29.5508 32.5753 30.0054 32.0983L30.7509 31.3161C30.8149 31.249 30.8329 31.2299 30.8457 31.2153C31.2153 30.7933 31.2153 30.1445 30.8457 29.7225C30.8329 29.7079 30.8149 29.6888 30.7509 29.6217L29.5244 28.3348C29.0332 27.8194 28.2913 27.672 27.6545 27.9633C26.5421 28.472 25.2463 28.2145 24.3883 27.3143L22.3722 25.1991C21.5142 24.2988 21.2688 22.9393 21.7537 21.7722C22.0313 21.104 21.8908 20.3257 21.3995 19.8103L20.173 18.5234C20.109 18.4563 20.0908 18.4374 20.0769 18.424ZM17.8005 17.4492C18.6854 16.5961 20.0457 16.5961 20.9306 17.4492C20.9668 17.4842 21.0055 17.5248 21.0558 17.5775L22.2917 18.8742C23.1497 19.7745 23.3951 21.134 22.9103 22.3011C22.6327 22.9693 22.7732 23.7476 23.2644 24.263L25.2804 26.3782C25.7717 26.8936 26.5135 27.041 27.1503 26.7498C28.2627 26.2411 29.5585 26.4985 30.4165 27.3988L31.6524 28.6954C31.7027 28.7482 31.7414 28.7888 31.7747 28.8268C32.5879 29.7553 32.5879 31.1825 31.7747 32.111C31.7414 32.149 31.7027 32.1896 31.6524 32.2424L30.8976 33.0344C30.1379 33.8314 29.0428 34.1659 27.9941 33.9214C22.044 32.5341 17.3971 27.6587 16.0749 21.4159C15.8418 20.3155 16.1607 19.1666 16.9204 18.3696L17.6659 17.5874C17.6691 17.584 17.6722 17.5807 17.6753 17.5775C17.7255 17.5248 17.7642 17.4842 17.8005 17.4492ZM25.0061 18.7821C25.0061 18.4165 25.2886 18.1202 25.637 18.1202H26.1189C26.1843 18.1202 26.2241 18.1202 26.2588 18.1207C28.8757 18.16 30.9881 20.3763 31.0255 23.122C31.026 23.1584 31.026 23.2001 31.026 23.2687V23.7743C31.026 24.1399 30.7436 24.4362 30.3952 24.4362C30.0468 24.4362 29.7643 24.1399 29.7643 23.7743V23.2751C29.7643 23.1981 29.7643 23.1666 29.764 23.1409C29.7363 21.1115 28.175 19.4734 26.2407 19.4443C26.2162 19.444 26.1862 19.4439 26.1128 19.4439H25.637C25.2886 19.4439 25.0061 19.1476 25.0061 18.7821Z" fill="#AEAEAE"/>
</svg>
