<svg width="42" height="18" viewBox="0 0 42 18" fill="none" xmlns="http://www.w3.org/2000/svg">
<path fill-rule="evenodd" clip-rule="evenodd" d="M24 3.72222C24 3.32335 24.325 3 24.7258 3H38.2742C38.675 3 39 3.32335 39 3.72222C39 4.12109 38.675 4.44444 38.2742 4.44444H24.7258C24.325 4.44444 24 4.12109 24 3.72222ZM24 9.5C24 9.10113 24.325 8.77778 24.7258 8.77778H30.5323C30.9331 8.77778 31.2581 9.10113 31.2581 9.5C31.2581 9.89887 30.9331 10.2222 30.5323 10.2222H24.7258C24.325 10.2222 24 9.89887 24 9.5ZM24 15.2778C24 14.8789 24.325 14.5556 24.7258 14.5556H38.2742C38.675 14.5556 39 14.8789 39 15.2778C39 15.6767 38.675 16 38.2742 16H24.7258C24.325 16 24 15.6767 24 15.2778Z" fill="black"/>
<path opacity="0.5" fill-rule="evenodd" clip-rule="evenodd" d="M3 3.72222C3 3.32335 3.32495 3 3.72581 3H17.2742C17.675 3 18 3.32335 18 3.72222C18 4.12109 17.675 4.44444 17.2742 4.44444H3.72581C3.32495 4.44444 3 4.12109 3 3.72222ZM3 9.5C3 9.10113 3.32495 8.77778 3.72581 8.77778H9.53226C9.93311 8.77778 10.2581 9.10113 10.2581 9.5C10.2581 9.89887 9.93311 10.2222 9.53226 10.2222H3.72581C3.32495 10.2222 3 9.89887 3 9.5ZM3 15.2778C3 14.8789 3.32495 14.5556 3.72581 14.5556H17.2742C17.675 14.5556 18 14.8789 18 15.2778C18 15.6767 17.675 16 17.2742 16H3.72581C3.32495 16 3 15.6767 3 15.2778Z" fill="black"/>
</svg>
