<svg width="92" height="120" viewBox="0 0 92 120" fill="none" xmlns="http://www.w3.org/2000/svg">
<path opacity="0.4" d="M1 0L20.4613 16.9264C28.1797 23.6395 28.2645 35.5994 20.642 42.4213L1 60V0Z" fill="#051B45"/>
<path opacity="0.4" d="M30 60L10.5387 76.9264C2.82027 83.6395 2.73552 95.5994 10.358 102.421L30 120V60Z" fill="#051B45"/>
<path opacity="0.5" d="M31 0L50.4613 16.9264C58.1797 23.6395 58.2645 35.5994 50.642 42.4213L31 60V0Z" fill="#051B45"/>
<path opacity="0.5" d="M60 60L40.5387 76.9264C32.8203 83.6395 32.7355 95.5994 40.358 102.421L60 120V60Z" fill="#051B45"/>
<path opacity="0.55" d="M61 0L80.4613 16.9264C88.1797 23.6395 88.2645 35.5994 80.642 42.4213L61 60V0Z" fill="#051B45"/>
<path opacity="0.55" d="M90 60L70.5387 76.9264C62.8203 83.6395 62.7355 95.5994 70.358 102.421L90 120V60Z" fill="#051B45"/>
<path fill-rule="evenodd" clip-rule="evenodd" d="M14.0252 22.2851C14.4925 22.7999 14.4891 23.6309 14.0176 24.1412L11.6632 26.6894C10.7042 27.7271 10.0585 28.4288 9.62376 29.0199C9.20425 29.5903 9.08105 29.9291 9.04831 30.2097C9.02575 30.4029 9.02575 30.5984 9.04831 30.7916C9.08105 31.0722 9.20425 31.411 9.62376 31.9814C10.0585 32.5725 10.7042 33.2742 11.6632 34.312L14.0176 36.8601C14.4891 37.3704 14.4925 38.2014 14.0252 38.7162C13.5579 39.2311 12.7969 39.2348 12.3254 38.7245L9.9213 36.1227C9.02469 35.1524 8.2799 34.3464 7.74942 33.6251C7.19396 32.8698 6.77546 32.0814 6.66365 31.1235C6.61537 30.7099 6.61537 30.2914 6.66365 29.8778C6.77546 28.9199 7.19396 28.1315 7.74942 27.3762C8.2799 26.6549 9.02468 25.8489 9.92128 24.8786C9.93777 24.8608 9.95431 24.8429 9.9709 24.8249L12.3254 22.2768C12.7969 21.7665 13.5579 21.7702 14.0252 22.2851Z" fill="white"/>
<path fill-rule="evenodd" clip-rule="evenodd" d="M16.9748 82.2851C16.5075 82.7999 16.5109 83.6309 16.9824 84.1412L19.3368 86.6894C20.2958 87.7271 20.9415 88.4288 21.3762 89.0199C21.7958 89.5903 21.9189 89.9291 21.9517 90.2097C21.9743 90.4029 21.9743 90.5984 21.9517 90.7916C21.9189 91.0722 21.7958 91.411 21.3762 91.9814C20.9415 92.5725 20.2958 93.2742 19.3368 94.312L16.9824 96.8601C16.5109 97.3704 16.5075 98.2014 16.9748 98.7162C17.4421 99.2311 18.2031 99.2348 18.6746 98.7245L21.0787 96.1227C21.9753 95.1524 22.7201 94.3464 23.2506 93.6251C23.806 92.8698 24.2245 92.0814 24.3363 91.1235C24.3846 90.7099 24.3846 90.2914 24.3363 89.8778C24.2245 88.9199 23.806 88.1315 23.2506 87.3762C22.7201 86.6549 21.9753 85.8489 21.0787 84.8786C21.0622 84.8608 21.0457 84.8429 21.0291 84.8249L18.6746 82.2768C18.2031 81.7665 17.4421 81.7702 16.9748 82.2851Z" fill="white"/>
<path fill-rule="evenodd" clip-rule="evenodd" d="M44.0252 22.2851C44.4925 22.7999 44.4891 23.6309 44.0176 24.1412L41.6632 26.6894C40.7042 27.7271 40.0585 28.4288 39.6238 29.0199C39.2042 29.5903 39.0811 29.9291 39.0483 30.2097C39.0257 30.4029 39.0257 30.5984 39.0483 30.7916C39.0811 31.0722 39.2042 31.411 39.6238 31.9814C40.0585 32.5725 40.7042 33.2742 41.6632 34.312L44.0176 36.8601C44.4891 37.3704 44.4925 38.2014 44.0252 38.7162C43.5579 39.2311 42.7969 39.2348 42.3254 38.7245L39.9213 36.1227C39.0247 35.1524 38.2799 34.3464 37.7494 33.6251C37.194 32.8698 36.7755 32.0814 36.6637 31.1235C36.6154 30.7099 36.6154 30.2914 36.6637 29.8778C36.7755 28.9199 37.194 28.1315 37.7494 27.3762C38.2799 26.6549 39.0247 25.8489 39.9213 24.8786C39.9378 24.8608 39.9543 24.8429 39.9709 24.8249L42.3254 22.2768C42.7969 21.7665 43.5579 21.7702 44.0252 22.2851Z" fill="white"/>
<path fill-rule="evenodd" clip-rule="evenodd" d="M46.9748 82.2851C46.5075 82.7999 46.5109 83.6309 46.9824 84.1412L49.3368 86.6894C50.2958 87.7271 50.9415 88.4288 51.3762 89.0199C51.7958 89.5903 51.9189 89.9291 51.9517 90.2097C51.9743 90.4029 51.9743 90.5984 51.9517 90.7916C51.9189 91.0722 51.7958 91.411 51.3762 91.9814C50.9415 92.5725 50.2958 93.2742 49.3368 94.312L46.9824 96.8601C46.5109 97.3704 46.5075 98.2014 46.9748 98.7162C47.4421 99.2311 48.2031 99.2348 48.6746 98.7245L51.0787 96.1227C51.9753 95.1524 52.7201 94.3464 53.2506 93.6251C53.806 92.8698 54.2245 92.0814 54.3363 91.1235C54.3846 90.7099 54.3846 90.2914 54.3363 89.8778C54.2245 88.9199 53.806 88.1315 53.2506 87.3762C52.7201 86.6549 51.9753 85.8489 51.0787 84.8786C51.0622 84.8608 51.0457 84.8429 51.0291 84.8249L48.6746 82.2768C48.2031 81.7665 47.4421 81.7702 46.9748 82.2851Z" fill="white"/>
<path fill-rule="evenodd" clip-rule="evenodd" d="M73.0252 22.2851C73.4925 22.7999 73.4891 23.6309 73.0176 24.1412L70.6632 26.6894C69.7042 27.7271 69.0585 28.4288 68.6238 29.0199C68.2042 29.5903 68.0811 29.9291 68.0483 30.2097C68.0257 30.4029 68.0257 30.5984 68.0483 30.7916C68.0811 31.0722 68.2042 31.411 68.6238 31.9814C69.0585 32.5725 69.7042 33.2742 70.6632 34.312L73.0176 36.8601C73.4891 37.3704 73.4925 38.2014 73.0252 38.7162C72.5579 39.2311 71.7969 39.2348 71.3254 38.7245L68.9213 36.1227C68.0247 35.1524 67.2799 34.3464 66.7494 33.6251C66.194 32.8698 65.7755 32.0814 65.6637 31.1235C65.6154 30.7099 65.6154 30.2914 65.6637 29.8778C65.7755 28.9199 66.194 28.1315 66.7494 27.3762C67.2799 26.6549 68.0247 25.8489 68.9213 24.8786C68.9378 24.8608 68.9543 24.8429 68.9709 24.8249L71.3254 22.2768C71.7969 21.7665 72.5579 21.7702 73.0252 22.2851Z" fill="white"/>
<path fill-rule="evenodd" clip-rule="evenodd" d="M77.9748 82.2851C77.5075 82.7999 77.5109 83.6309 77.9824 84.1412L80.3368 86.6894C81.2958 87.7271 81.9415 88.4288 82.3762 89.0199C82.7958 89.5903 82.9189 89.9291 82.9517 90.2097C82.9743 90.4029 82.9743 90.5984 82.9517 90.7916C82.9189 91.0722 82.7958 91.411 82.3762 91.9814C81.9415 92.5725 81.2958 93.2742 80.3368 94.312L77.9824 96.8601C77.5109 97.3704 77.5075 98.2014 77.9748 98.7162C78.4421 99.2311 79.2031 99.2348 79.6746 98.7245L82.0787 96.1227C82.9753 95.1524 83.7201 94.3464 84.2506 93.6251C84.806 92.8698 85.2245 92.0814 85.3363 91.1235C85.3846 90.7099 85.3846 90.2914 85.3363 89.8778C85.2245 88.9199 84.806 88.1315 84.2506 87.3762C83.7201 86.6549 82.9753 85.8489 82.0787 84.8786C82.0622 84.8608 82.0457 84.8429 82.0291 84.8249L79.6746 82.2768C79.2031 81.7665 78.4421 81.7702 77.9748 82.2851Z" fill="white"/>
</svg>
