<svg width="180" height="30" viewBox="0 0 180 30" fill="none" xmlns="http://www.w3.org/2000/svg">
<path fill-rule="evenodd" clip-rule="evenodd" d="M15 12.5921C15 5.63769 20.6377 0 27.5921 0C34.5466 0 40.1843 5.63769 40.1843 12.5921C40.1843 19.5466 34.5466 25.1843 27.5921 25.1843C20.6377 25.1843 15 19.5466 15 12.5921ZM27.5921 2.28948C21.9021 2.28948 17.2895 6.90213 17.2895 12.5921C17.2895 18.2821 21.9021 22.8948 27.5921 22.8948C33.2821 22.8948 37.8948 18.2821 37.8948 12.5921C37.8948 6.90213 33.2821 2.28948 27.5921 2.28948ZM36.9582 21.9582C37.4053 21.5112 38.1301 21.5112 38.5771 21.9583L43.6647 27.0459C44.1118 27.493 44.1118 28.2178 43.6647 28.6648C43.2177 29.1119 42.4928 29.1119 42.0458 28.6648L36.9582 23.5771C36.5112 23.1301 36.5112 22.4053 36.9582 21.9582Z" fill="#FF6624"/>
<path fill-rule="evenodd" clip-rule="evenodd" d="M75 12.5921C75 5.63769 80.6377 0 87.5921 0C94.5466 0 100.184 5.63769 100.184 12.5921C100.184 19.5466 94.5466 25.1843 87.5921 25.1843C80.6377 25.1843 75 19.5466 75 12.5921ZM87.5921 2.28948C81.9021 2.28948 77.2895 6.90213 77.2895 12.5921C77.2895 18.2821 81.9021 22.8948 87.5921 22.8948C93.2821 22.8948 97.8948 18.2821 97.8948 12.5921C97.8948 6.90213 93.2821 2.28948 87.5921 2.28948ZM96.9582 21.9582C97.4053 21.5112 98.1301 21.5112 98.5771 21.9583L103.665 27.0459C104.112 27.493 104.112 28.2178 103.665 28.6648C103.218 29.1119 102.493 29.1119 102.046 28.6648L96.9582 23.5771C96.5112 23.1301 96.5112 22.4053 96.9582 21.9582Z" fill="white"/>
<path fill-rule="evenodd" clip-rule="evenodd" d="M137 12.7237C137 6.24888 142.249 1 148.724 1C155.199 1 160.447 6.24888 160.447 12.7237C160.447 19.1985 155.199 24.4474 148.724 24.4474C142.249 24.4474 137 19.1985 137 12.7237ZM148.724 3.13158C143.426 3.13158 139.132 7.42612 139.132 12.7237C139.132 18.0213 143.426 22.3158 148.724 22.3158C154.021 22.3158 158.316 18.0213 158.316 12.7237C158.316 7.42612 154.021 3.13158 148.724 3.13158ZM157.444 21.4439C157.86 21.0277 158.535 21.0277 158.951 21.4439L163.688 26.1807C164.104 26.5969 164.104 27.2717 163.688 27.6879C163.272 28.1041 162.597 28.1041 162.181 27.6879L157.444 22.9511C157.028 22.5349 157.028 21.8601 157.444 21.4439Z" fill="white"/>
</svg>
