<svg width="21" height="63" viewBox="0 0 21 63" fill="none" xmlns="http://www.w3.org/2000/svg">
<path fill-rule="evenodd" clip-rule="evenodd" d="M19.6661 1.3339C20.1113 1.7791 20.1113 2.50091 19.6661 2.94611L12.1122 10.5L19.6661 18.0539C20.1113 18.4991 20.1113 19.2209 19.6661 19.6661C19.2209 20.1113 18.4991 20.1113 18.0539 19.6661L10.5 12.1122L2.94614 19.6661C2.50094 20.1113 1.77913 20.1113 1.33393 19.6661C0.888732 19.2209 0.888732 18.4991 1.33393 18.0539L8.88781 10.5L1.3339 2.94611C0.8887 2.50091 0.8887 1.7791 1.3339 1.3339C1.7791 0.888704 2.50091 0.888704 2.94611 1.3339L10.5 8.88781L18.0539 1.3339C18.4991 0.8887 19.2209 0.8887 19.6661 1.3339Z" fill="black"/>
<path fill-rule="evenodd" clip-rule="evenodd" d="M19.6661 22.3339C20.1113 22.7791 20.1113 23.5009 19.6661 23.9461L12.1122 31.5L19.6661 39.0539C20.1113 39.4991 20.1113 40.2209 19.6661 40.6661C19.2209 41.1113 18.4991 41.1113 18.0539 40.6661L10.5 33.1122L2.94614 40.6661C2.50094 41.1113 1.77913 41.1113 1.33393 40.6661C0.888732 40.2209 0.888732 39.4991 1.33393 39.0539L8.88781 31.5L1.3339 23.9461C0.8887 23.5009 0.8887 22.7791 1.3339 22.3339C1.7791 21.8887 2.50091 21.8887 2.94611 22.3339L10.5 29.8878L18.0539 22.3339C18.4991 21.8887 19.2209 21.8887 19.6661 22.3339Z" fill="black"/>
<path fill-rule="evenodd" clip-rule="evenodd" d="M18.7013 44.2988C19.0996 44.6971 19.0996 45.3429 18.7013 45.7413L11.9425 52.5L18.7013 59.2588C19.0996 59.6571 19.0996 60.3029 18.7013 60.7013C18.3029 61.0996 17.6571 61.0996 17.2588 60.7013L10.5 53.9425L3.74129 60.7013C3.34295 61.0996 2.69712 61.0996 2.29878 60.7013C1.90044 60.3029 1.90044 59.6571 2.29878 59.2588L9.05751 52.5L2.29875 45.7413C1.90042 45.3429 1.90042 44.6971 2.29875 44.2988C2.69709 43.9004 3.34292 43.9004 3.74126 44.2988L10.5 51.0575L17.2588 44.2988C17.6571 43.9004 18.303 43.9004 18.7013 44.2988Z" fill="black"/>
</svg>
