<svg width="18" height="18" viewBox="0 0 18 18" fill="none" xmlns="http://www.w3.org/2000/svg">
<path fill-rule="evenodd" clip-rule="evenodd" d="M0.5 7.88157C0.5 3.80484 3.80485 0.5 7.88159 0.5C11.9583 0.5 15.2632 3.80484 15.2632 7.88157C15.2632 11.9583 11.9583 15.2631 7.88159 15.2631C3.80485 15.2631 0.5 11.9583 0.5 7.88157ZM7.88159 1.8421C4.54608 1.8421 1.84211 4.54606 1.84211 7.88157C1.84211 11.2171 4.54608 13.921 7.88159 13.921C11.2171 13.921 13.9211 11.2171 13.9211 7.88157C13.9211 4.54606 11.2171 1.8421 7.88159 1.8421ZM13.3721 13.372C13.6341 13.11 14.059 13.11 14.3211 13.372L17.3035 16.3544C17.5655 16.6165 17.5655 17.0414 17.3035 17.3035C17.0414 17.5655 16.6165 17.5655 16.3544 17.3035L13.3721 14.321C13.11 14.059 13.11 13.6341 13.3721 13.372Z" fill="white"/>
</svg>
