<svg width="132" height="40" viewBox="0 0 132 40" fill="none" xmlns="http://www.w3.org/2000/svg">
<path fill-rule="evenodd" clip-rule="evenodd" d="M16.6005 5.6C15.6064 5.6 14.8005 6.40589 14.8005 7.4V11H20.2005C21.1947 11 22.0005 11.8059 22.0005 12.8C22.0005 13.7941 21.1947 14.6 20.2005 14.6L7.82018 14.6L9.73703 31.2126C9.94663 33.0292 11.4847 34.4 13.3133 34.4H30.6878C32.5164 34.4 34.0545 33.0292 34.2641 31.2126L36.1809 14.6H29.2005C28.2064 14.6 27.4005 13.7941 27.4005 12.8C27.4005 11.8059 28.2064 11 29.2005 11V7.4C29.2005 6.40589 28.3947 5.6 27.4005 5.6H16.6005ZM32.8005 11V7.4C32.8005 4.41766 30.3829 2 27.4005 2H16.6005C13.6182 2 11.2005 4.41766 11.2005 7.4V11H7.82018C5.66846 11 3.99727 12.8751 4.24391 15.0126L6.16076 31.6253C6.57995 35.2583 9.65615 38 13.3133 38H30.6878C34.345 38 37.4211 35.2583 37.8403 31.6253L39.7572 15.0126C40.0038 12.8751 38.3326 11 36.1809 11H32.8005Z" fill="#AAB0B9"/>
<path fill-rule="evenodd" clip-rule="evenodd" d="M60.6005 5.6C59.6064 5.6 58.8005 6.40589 58.8005 7.4V11H64.2005C65.1947 11 66.0005 11.8059 66.0005 12.8C66.0005 13.7941 65.1947 14.6 64.2005 14.6L51.8202 14.6L53.737 31.2126C53.9466 33.0292 55.4847 34.4 57.3133 34.4H74.6878C76.5164 34.4 78.0545 33.0292 78.2641 31.2126L80.1809 14.6H73.2005C72.2064 14.6 71.4005 13.7941 71.4005 12.8C71.4005 11.8059 72.2064 11 73.2005 11V7.4C73.2005 6.40589 72.3947 5.6 71.4005 5.6H60.6005ZM76.8005 11V7.4C76.8005 4.41766 74.3829 2 71.4005 2H60.6005C57.6182 2 55.2005 4.41766 55.2005 7.4V11H51.8202C49.6685 11 47.9973 12.8751 48.2439 15.0126L50.1608 31.6253C50.58 35.2583 53.6561 38 57.3133 38H74.6878C78.345 38 81.4211 35.2583 81.8403 31.6253L83.7572 15.0126C84.0038 12.8751 82.3326 11 80.1809 11H76.8005Z" fill="#0873D6"/>
<path fill-rule="evenodd" clip-rule="evenodd" d="M104.601 5.6C103.606 5.6 102.801 6.40589 102.801 7.4V11H108.201C109.195 11 110.001 11.8059 110.001 12.8C110.001 13.7941 109.195 14.6 108.201 14.6L95.8202 14.6L97.737 31.2126C97.9466 33.0292 99.4847 34.4 101.313 34.4H118.688C120.516 34.4 122.054 33.0292 122.264 31.2126L124.181 14.6H117.201C116.206 14.6 115.401 13.7941 115.401 12.8C115.401 11.8059 116.206 11 117.201 11V7.4C117.201 6.40589 116.395 5.6 115.401 5.6H104.601ZM120.801 11V7.4C120.801 4.41766 118.383 2 115.401 2H104.601C101.618 2 99.2005 4.41766 99.2005 7.4V11H95.8202C93.6685 11 91.9973 12.8751 92.2439 15.0126L94.1608 31.6253C94.58 35.2583 97.6561 38 101.313 38H118.688C122.345 38 125.421 35.2583 125.84 31.6253L127.757 15.0126C128.004 12.8751 126.333 11 124.181 11H120.801Z" fill="#1680E2"/>
</svg>
