<svg width="17" height="16" viewBox="0 0 17 16" fill="none" xmlns="http://www.w3.org/2000/svg">
<path d="M2.5 8.4007C2.5 7.94767 2.87905 7.58042 3.34663 7.58042C3.8142 7.58042 4.19325 7.94767 4.19325 8.4007V13.1797C4.19325 13.6327 3.8142 14 3.34663 14C2.87905 14 2.5 13.6327 2.5 13.1797V8.4007Z" fill="#1680E2"/>
<path d="M7.65337 5.54755C7.65337 5.09452 8.03242 4.72727 8.5 4.72727C8.96758 4.72727 9.34663 5.09452 9.34663 5.54755V13.1797C9.34663 13.6327 8.96758 14 8.5 14C8.03242 14 7.65337 13.6327 7.65337 13.1797V5.54755Z" fill="#1680E2"/>
<path d="M12.8067 2.82028C12.8067 2.36725 13.1858 2 13.6534 2C14.121 2 14.5 2.36725 14.5 2.82028V13.1797C14.5 13.6327 14.121 14 13.6534 14C13.1858 14 12.8067 13.6327 12.8067 13.1797V2.82028Z" fill="#1680E2"/>
</svg>
