<svg width="17" height="16" viewBox="0 0 17 16" fill="none" xmlns="http://www.w3.org/2000/svg">
<path fill-rule="evenodd" clip-rule="evenodd" d="M5.34093 4.22368C5.34093 2.44329 6.75529 1 8.5 1C10.2447 1 11.6591 2.44329 11.6591 4.22368V4.43009C11.8812 4.47968 12.0903 4.54789 12.2927 4.64257C12.9579 4.95371 13.5209 5.45401 13.9144 6.08348C14.1551 6.46851 14.296 6.89645 14.4055 7.40891C14.5123 7.90905 14.5969 8.53111 14.7037 9.31533L14.7107 9.367C14.8481 10.3765 14.9564 11.1721 14.9893 11.8144C15.0229 12.4683 14.9831 13.0243 14.7848 13.5388C14.4646 14.37 13.8732 15.063 13.1106 15.501C12.6385 15.7722 12.1043 15.8889 11.4649 15.945C10.8369 16 10.0498 16 9.05104 16H7.94896C6.95017 16 6.16306 16 5.53513 15.945C4.89574 15.8889 4.36154 15.7722 3.88944 15.501C3.12675 15.063 2.53543 14.37 2.21517 13.5388C2.01693 13.0243 1.97709 12.4683 2.01066 11.8144C2.04362 11.1721 2.1519 10.3765 2.28931 9.367L2.29634 9.31536C2.40307 8.53112 2.48774 7.90906 2.59454 7.40891C2.70397 6.89645 2.84485 6.46851 3.08555 6.08348C3.47906 5.45401 4.04213 4.95371 4.70725 4.64257C4.90965 4.54789 5.11878 4.47968 5.34093 4.43009V4.22368ZM5.34093 5.65752V7.51316C5.34093 7.84017 5.60071 8.10526 5.92117 8.10526C6.24162 8.10526 6.50141 7.84017 6.50141 7.51316V5.4893C6.88972 5.47403 7.36508 5.47368 7.97644 5.47368H9.02356C9.63491 5.47368 10.1103 5.47403 10.4986 5.4893V7.51316C10.4986 7.84017 10.7584 8.10526 11.0788 8.10526C11.3993 8.10526 11.6591 7.84017 11.6591 7.51316V5.65752C11.7118 5.67631 11.7616 5.69679 11.8092 5.71905C12.2714 5.93527 12.6626 6.28294 12.9361 6.72037C13.0738 6.9407 13.1769 7.21768 13.2716 7.66104C13.3678 8.11163 13.4468 8.68872 13.5575 9.50215C13.6995 10.5455 13.8004 11.2908 13.8305 11.8763C13.8602 12.456 13.8158 12.8176 13.7048 13.1055C13.4823 13.6831 13.0714 14.1646 12.5414 14.469C12.2772 14.6208 11.9323 14.7154 11.3656 14.7651C10.7931 14.8153 10.0558 14.8158 9.02356 14.8158H7.97644C6.94417 14.8158 6.20688 14.8153 5.63444 14.7651C5.06771 14.7154 4.72277 14.6208 4.45863 14.469C3.92863 14.1646 3.5177 13.6831 3.29515 13.1055C3.18424 12.8176 3.13979 12.456 3.16954 11.8763C3.19959 11.2908 3.30052 10.5455 3.44253 9.50215C3.55324 8.68872 3.63219 8.11163 3.7284 7.66104C3.82308 7.21768 3.92616 6.9407 4.0639 6.72037C4.33736 6.28294 4.72864 5.93527 5.19085 5.71905C5.23844 5.69679 5.28815 5.67631 5.34093 5.65752ZM10.4986 4.30439C10.0884 4.28946 9.61385 4.28947 9.05798 4.28947H7.94202C7.38615 4.28947 6.91165 4.28946 6.50141 4.30439V4.22368C6.50141 3.09731 7.39621 2.18421 8.5 2.18421C9.60379 2.18421 10.4986 3.09731 10.4986 4.22368V4.30439Z" fill="#AAB0B9"/>
</svg>
