<svg width="162" height="32" viewBox="0 0 162 32" fill="none" xmlns="http://www.w3.org/2000/svg">
<path fill-rule="evenodd" clip-rule="evenodd" d="M18.354 1.218C16.282 0.406 13.86 0 11.088 0H4C1.79086 0 0 1.79086 0 4V5.7966C0 7.56579 1.43421 9 3.20339 9C4.64565 9 5.83262 7.90796 6.92188 6.90581C7.04282 6.79455 7.16255 6.68439 7.28129 6.57696C7.99085 5.935 8.93177 5.544 9.964 5.544H11.466C13.062 5.544 14.476 5.768 15.708 6.216C16.968 6.664 18.032 7.322 18.9 8.19C19.768 9.058 20.426 10.108 20.874 11.34C21.35 12.544 21.588 13.916 21.588 15.456C21.588 16.94 21.35 18.298 20.874 19.53C20.426 20.734 19.768 21.784 18.9 22.68C18.032 23.576 16.968 24.276 15.708 24.78C14.476 25.256 13.062 25.494 11.466 25.494H9.964C7.75486 25.494 5.964 23.7031 5.964 21.494V16.982C5.964 15.3351 4.62891 14 2.982 14C1.33509 14 0 15.3351 0 16.982V27.038C0 29.2471 1.79086 31.038 4 31.038H11.088C13.86 31.038 16.282 30.604 18.354 29.736C20.426 28.868 22.148 27.706 23.52 26.25C24.892 24.794 25.914 23.17 26.586 21.378C27.286 19.586 27.636 17.766 27.636 15.918V14.994C27.636 13.062 27.286 11.2 26.586 9.408C25.914 7.588 24.892 5.978 23.52 4.578C22.148 3.15 20.426 2.03 18.354 1.218ZM85.6856 30.03C87.6456 31.122 90.0536 31.668 92.9096 31.668C95.7656 31.668 98.1736 31.122 100.134 30.03C102.094 28.938 103.564 27.412 104.544 25.452C105.552 23.464 106.056 21.14 106.056 18.48V16.4005C106.056 14.7535 104.72 13.4185 103.074 13.4185C101.427 13.4185 100.092 14.7535 100.092 16.4005V18.816C100.092 20.3 99.8116 21.588 99.2516 22.68C98.7196 23.772 97.9076 24.626 96.8156 25.242C95.7516 25.83 94.4496 26.124 92.9096 26.124C91.3416 26.124 90.0116 25.83 88.9196 25.242C87.8556 24.626 87.0436 23.772 86.4836 22.68C85.9236 21.56 85.6436 20.272 85.6436 18.816V3.192C85.6436 1.54509 84.3085 0.21 82.6616 0.21C81.0147 0.21 79.6796 1.54508 79.6796 3.19199V18.48C79.6796 21.14 80.1836 23.464 81.1916 25.452C82.2276 27.412 83.7256 28.938 85.6856 30.03ZM36.9766 30.87C34.7674 30.87 32.9766 29.0791 32.9766 26.87V23.6567C32.9766 22.1894 34.166 21 35.6332 21H38.0737C38.4991 21 38.8146 21.3935 38.8146 21.819C38.8146 24.0281 40.6054 25.83 42.8146 25.83H49.3566C50.7483 25.83 51.8766 26.9582 51.8766 28.35C51.8766 29.7418 50.7483 30.87 49.3566 30.87H36.9766ZM42.7418 17.8087C42.766 17.8082 42.7903 17.808 42.8146 17.808H48.2646C49.6563 17.808 50.7846 16.6798 50.7846 15.288C50.7846 13.8962 49.6563 12.768 48.2646 12.768H42.5736C40.4975 12.768 38.8146 11.085 38.8146 9.009C38.8146 6.93296 40.4975 5.25 42.5736 5.25H49.0206C50.4123 5.25 51.5406 4.12176 51.5406 2.73C51.5406 1.33824 50.4123 0.21 49.0206 0.21H36.9766C34.7674 0.21 32.9766 2.00086 32.9766 4.21V10.5584C32.9766 14.6683 36.3083 18 40.4182 18C40.8222 18 41.2247 17.952 41.6273 17.9039C41.9984 17.8596 42.3695 17.8153 42.7418 17.8087ZM57.9961 26.87C57.9961 29.0791 59.787 30.87 61.9961 30.87H73.7251C75.1748 30.87 76.3501 29.6947 76.3501 28.245C76.3501 26.7953 75.1749 25.62 73.7251 25.62H67.9601C65.751 25.62 63.9601 23.8291 63.9601 21.62V3.192C63.9601 1.54509 62.625 0.21 60.9781 0.21C59.3312 0.21 57.9961 1.54509 57.9961 3.192V26.87ZM146.652 30.87C144.443 30.87 142.652 29.0791 142.652 26.87V23.6566C142.652 22.1894 143.842 21 145.309 21H147.749C148.175 21 148.49 21.3935 148.49 21.819C148.49 24.0281 150.281 25.83 152.49 25.83H159.032C160.424 25.83 161.552 26.9582 161.552 28.35C161.552 29.7418 160.424 30.87 159.032 30.87H146.652ZM142.652 10.5584C142.652 14.6683 145.984 18 150.094 18C150.498 18 150.901 17.952 151.303 17.9039C151.674 17.8596 152.045 17.8153 152.418 17.8087C152.442 17.8082 152.466 17.808 152.49 17.808H157.94C159.332 17.808 160.46 16.6798 160.46 15.288C160.46 13.8962 159.332 12.768 157.94 12.768H152.249C150.173 12.768 148.49 11.085 148.49 9.009C148.49 6.93296 150.173 5.25 152.249 5.25H158.696C160.088 5.25 161.216 4.12176 161.216 2.73C161.216 1.33824 160.088 0.21 158.696 0.21H146.652C144.443 0.21 142.652 2.00086 142.652 4.21V10.5584ZM115.447 0.21C116.386 0.21 117.26 0.686579 117.769 1.47541L123.35 10.13C123.499 10.3607 123.755 10.5 124.029 10.5C124.304 10.5 124.561 10.3598 124.709 10.1281L130.283 1.43063C130.77 0.670034 131.611 0.21 132.515 0.21C134.628 0.21 135.892 2.56207 134.725 4.32429L127.609 15.0724L124.051 19.362L116.582 29.7497C116.077 30.453 115.263 30.87 114.397 30.87C112.252 30.87 110.969 28.4842 112.151 26.6948L118.517 17.0593C119.4 15.7233 119.401 13.9897 118.519 12.6528L113.141 4.4933C111.93 2.65641 113.247 0.21 115.447 0.21ZM128.997 22.81C130.197 21.6105 132.192 21.7979 133.147 23.1998L135.476 26.6187C136.707 28.4242 135.413 30.87 133.229 30.87C132.323 30.87 131.476 30.4187 130.971 29.6665L128.664 26.2319C127.943 25.1583 128.083 23.7245 128.997 22.81Z" fill="#0B2333"/>
<path d="M106.056 5.43646V3.192C106.056 1.54509 104.72 0.21 103.074 0.21C101.427 0.21 100.092 1.54508 100.092 3.19199V5.43646C100.092 7.08337 101.427 8.41846 103.074 8.41846C104.72 8.41846 106.056 7.08337 106.056 5.43646Z" fill="#3498DB"/>
</svg>
