<svg width="215" height="124" viewBox="0 0 215 124" fill="none" xmlns="http://www.w3.org/2000/svg">
<path opacity="0.2" d="M52.5 11H144V99H122L52.5 11Z" fill="#10629B"/>
<rect x="48" y="19" width="47" height="18" rx="9" fill="white"/>
<path fill-rule="evenodd" clip-rule="evenodd" d="M35.1177 0.523115C35.0077 0.810567 34.9685 3.38519 35.0305 6.24405C35.093 9.13431 37.451 11.4463 40.3419 11.4518L134.787 11.6321C138.647 11.6395 141.773 14.7713 141.773 18.6321V88.5497C141.773 92.4157 138.639 95.5497 134.773 95.5497H124.568C111.912 95.5497 107.364 95.428 107.364 95.09C107.364 93.713 104.277 88.4469 102.102 86.1148C97.5443 81.2261 92.5357 78.9979 85.9574 78.9333C79.3119 78.8678 74.2261 81.0253 69.4291 85.9445C67.453 87.9712 64.1512 93.6319 64.1512 94.9941C64.1512 95.4208 63.4098 95.5497 60.9503 95.5497C59.1825 95.5497 57.7494 94.1166 57.7494 92.3488V73.0484C57.7494 69.9548 55.2414 67.4468 52.1478 67.4468C49.0541 67.4468 46.5462 69.9548 46.5462 73.0484V100.192C46.5462 104.058 49.6802 107.192 53.5462 107.192H62.0324C63.185 107.192 64.1998 107.951 64.5253 109.057C65.2595 111.553 68.5469 116.411 70.8719 118.437C73.4431 120.678 78.5513 123.102 81.9243 123.683C91.5738 125.346 101.337 120.344 105.783 111.462C106.652 109.725 107.364 108.054 107.364 107.748C107.364 107.281 111.072 107.192 130.57 107.192C148.869 107.192 153.777 107.298 153.777 107.694C153.777 107.97 154.329 109.366 155.003 110.795C158.501 118.215 165.607 123.23 173.593 123.916C182.551 124.684 191.537 119.609 195.513 111.536C196.324 109.887 196.989 108.238 196.989 107.873C196.989 107.277 197.915 107.196 205.892 107.1L207.91 107.075C211.731 107.029 214.808 103.928 214.826 100.107L214.996 62.8028C214.999 62.0426 214.879 61.2868 214.639 60.5653L203.588 27.2768C202.638 24.4143 199.961 22.4823 196.945 22.4823H159.977C156.111 22.4823 152.977 19.3483 152.977 15.4823V7C152.977 3.13401 149.843 0 145.977 0H94.1474C46.1793 0 35.2809 0.0967546 35.1177 0.523115ZM5.66725 22.6967C3.71251 22.7067 1.78346 23.5024 0.886997 25.2395C0.385623 26.211 -0.0236448 27.361 0.00106305 28.5C0.00111533 31.4971 2.42825 33.9279 5.42531 33.9326L66.0518 34.0273L85.5345 34.1071C88.7474 34.1202 91.359 31.5193 91.359 28.3064C91.359 25.0898 88.7514 22.4823 85.5349 22.4823H66.1394C49.0487 22.4823 15.8658 22.6446 5.66725 22.6967ZM203.011 61.7636C203.244 62.47 203.363 63.209 203.364 63.953L203.388 92.4008C203.39 94.1394 201.981 95.5497 200.242 95.5497H198.975C197.863 95.5497 196.886 94.8084 196.587 93.7367C194.986 87.9985 188.574 81.8479 182.055 79.7972C177.817 78.464 172.268 78.5808 168.181 80.0899C164.335 81.5099 161.575 83.3551 158.805 86.3565C156.843 88.4826 153.777 93.8085 153.777 95.09C153.777 95.3429 153.597 95.5497 153.377 95.5497C153.113 95.5497 152.977 85.0432 152.977 64.8337V41.1533C152.977 37.2734 156.132 34.1337 160.012 34.1534L188.915 34.3001C191.922 34.3153 194.583 36.2492 195.526 39.1044L203.011 61.7636ZM12.8432 46.4494C10.2597 48.7632 10.2597 52.8085 12.8432 55.1223C13.9108 56.0785 15.2937 56.6072 16.7269 56.6072H74.3345C77.5495 56.6072 80.1558 54.0009 80.1558 50.7859C80.1558 47.5708 77.5495 44.9646 74.3345 44.9646H16.7269C15.2937 44.9646 13.9108 45.4933 12.8432 46.4494ZM89.4648 90.9629C95.4489 93.0088 98.5458 100.611 95.6674 106.189C93.5632 110.266 90.1734 112.391 85.7574 112.399C76.2179 112.417 71.1272 101.339 77.393 94.1963C80.5459 90.6024 84.9556 89.4213 89.4648 90.9629ZM180.436 91.4547C186.974 94.8182 188.492 104.014 183.358 109.165C177.807 114.735 168.529 112.997 165.331 105.787C162.839 100.168 165.805 93.0799 171.536 90.9557C173.838 90.1022 178.292 90.3519 180.436 91.4547Z" fill="#10629B"/>
<path opacity="0.2" d="M159 43C159 41.3431 160.343 40 162 40H188.056C189.39 40 190.564 40.8809 190.937 42.1618L195.883 59.1619C196.442 61.0814 195.002 63 193.003 63H162C160.343 63 159 61.6569 159 60V43Z" fill="#10629B"/>
</svg>
