<svg width="11" height="8" viewBox="0 0 11 8" fill="none" xmlns="http://www.w3.org/2000/svg">
<path d="M10.2577 1.47434C10.2577 1.63803 10.2004 1.77717 10.0858 1.89175L5.6416 6.33595L4.80678 7.17077C4.6922 7.28535 4.55306 7.34264 4.38937 7.34264C4.22568 7.34264 4.08654 7.28535 3.97196 7.17077L3.13714 6.33595L0.915039 4.11385C0.800456 3.99926 0.743164 3.86013 0.743164 3.69644C0.743164 3.53275 0.800456 3.39361 0.915039 3.27903L1.74986 2.44421C1.86444 2.32962 2.00358 2.27233 2.16727 2.27233C2.33096 2.27233 2.4701 2.32962 2.58468 2.44421L4.38937 4.25503L8.41616 0.222107C8.53074 0.107524 8.66988 0.0502319 8.83357 0.0502319C8.99726 0.0502319 9.1364 0.107524 9.25098 0.222107L10.0858 1.05693C10.2004 1.17151 10.2577 1.31065 10.2577 1.47434Z" fill="#909EA8"/>
</svg>
