<svg width="24" height="24" viewBox="0 0 24 24" fill="none" xmlns="http://www.w3.org/2000/svg">
<circle cx="12" cy="12" r="12" fill="#3498DB"/>
<g clip-path="url(#clip0_27_580)">
<path d="M15.9429 10.8558C15.9429 10.9786 15.8999 11.0829 15.814 11.1689L12.4808 14.502L11.8547 15.1281C11.7688 15.2141 11.6644 15.257 11.5417 15.257C11.4189 15.257 11.3145 15.2141 11.2286 15.1281L10.6025 14.502L8.93591 12.8354C8.84998 12.7495 8.80701 12.6451 8.80701 12.5224C8.80701 12.3996 8.84998 12.2953 8.93591 12.2093L9.56203 11.5832C9.64797 11.4973 9.75232 11.4543 9.87509 11.4543C9.99786 11.4543 10.1022 11.4973 10.1881 11.5832L11.5417 12.9413L14.5618 9.91663C14.6477 9.83069 14.752 9.78772 14.8748 9.78772C14.9976 9.78772 15.1019 9.83069 15.1879 9.91663L15.814 10.5427C15.8999 10.6287 15.9429 10.733 15.9429 10.8558Z" fill="white"/>
</g>
<defs>
<clipPath id="clip0_27_580">
<rect width="8.25" height="8.25" fill="white" transform="translate(8.25 8.25)"/>
</clipPath>
</defs>
</svg>
