<svg width="40" height="40" viewBox="0 0 40 40" fill="none" xmlns="http://www.w3.org/2000/svg">
<path fill-rule="evenodd" clip-rule="evenodd" d="M19.207 0.05685C18.6632 0.194948 18.076 0.504946 17.0977 1.17056C15.3262 2.37573 15.2004 2.40937 13.0509 2.25289C10.9406 2.09914 10.1278 2.32268 9.20282 3.31104C8.80368 3.73762 8.6072 4.05928 8.04485 5.20757C7.14325 7.04846 7.03366 7.158 5.19194 8.0592C4.04313 8.6213 3.72133 8.81769 3.29456 9.21665C2.30575 10.1412 2.08211 10.9536 2.23593 13.063C2.39342 15.2236 2.37151 15.3036 1.111 17.1739C0.182544 18.5515 0 19.0173 0 20.009C0 21.0006 0.182544 21.4665 1.111 22.844C2.37018 24.7123 2.3975 24.8117 2.23397 26.9245C2.07155 29.0227 2.30505 29.876 3.29456 30.8013C3.72133 31.2003 4.04313 31.3967 5.19194 31.9588C7.03366 32.86 7.14325 32.9695 8.04485 34.8104C8.6072 35.9587 8.80368 36.2803 9.20282 36.7069C10.1278 37.6953 10.9406 37.9188 13.0509 37.7651C15.2124 37.6077 15.2925 37.6296 17.1637 38.8895C18.5418 39.8175 19.0079 40 20 40C20.9929 40 21.4568 39.8181 22.8528 38.8813C24.7252 37.6248 24.7878 37.6077 26.9491 37.7651C29.0594 37.9188 29.8722 37.6953 30.7972 36.7069C31.1963 36.2803 31.3928 35.9587 31.9551 34.8104C32.8568 32.9695 32.9663 32.86 34.8081 31.9588C35.9569 31.3967 36.2787 31.2003 36.7054 30.8013C37.6942 29.8767 37.9179 29.0643 37.7641 26.955C37.6066 24.7944 37.6285 24.7143 38.889 22.844C39.8175 21.4665 40 21.0006 40 20.009C40 19.0173 39.8175 18.5515 38.889 17.1739C37.6285 15.3036 37.6066 15.2236 37.7641 13.063C37.9179 10.9536 37.6942 10.1412 36.7054 9.21665C36.2787 8.81769 35.9569 8.6213 34.8081 8.0592C32.9663 7.158 32.8568 7.04846 31.9551 5.20757C31.3928 4.05928 31.1963 3.73762 30.7972 3.31104C29.8722 2.32268 29.0594 2.09914 26.9491 2.25289C24.7883 2.41023 24.726 2.39326 22.8535 1.13793C22.2528 0.735136 21.5499 0.323579 21.2916 0.223272C20.7677 0.0198412 19.691 -0.0660693 19.207 0.05685ZM20.7522 1.84963C20.9291 1.9299 21.5605 2.32119 22.1551 2.71906C24.099 4.01945 24.514 4.13165 26.8043 3.97572C28.3562 3.87009 28.7167 3.89614 29.1732 4.14691C29.5682 4.36396 29.8076 4.72512 30.6078 6.31165C31.2103 7.50603 31.3609 7.74091 31.8173 8.19699C32.2736 8.65314 32.5086 8.80376 33.7035 9.40592C35.2907 10.2058 35.6521 10.4451 35.8692 10.84C36.1201 11.2962 36.1461 11.6566 36.0405 13.2077C35.8845 15.497 35.9967 15.9118 37.2977 17.8548C38.1835 19.1776 38.3136 19.4535 38.3136 20.009C38.3136 20.5647 38.1815 20.8447 37.3043 22.1492C35.998 24.0916 35.8838 24.5107 36.0391 26.7912C36.1461 28.3612 36.1205 28.721 35.8692 29.178C35.6521 29.5729 35.2907 29.8122 33.7035 30.612C32.5086 31.2142 32.2736 31.3648 31.8173 31.821C31.3609 32.2771 31.2103 32.5119 30.6078 33.7063C29.8076 35.2928 29.5682 35.654 29.1732 35.8711C28.7159 36.1222 28.3559 36.1479 26.7853 36.0409C24.5037 35.8856 24.0845 35.9998 22.1411 37.3055C20.8361 38.1823 20.556 38.3143 20 38.3143C19.4443 38.3143 19.1682 38.1843 17.8449 37.2989C15.901 35.9985 15.4859 35.8863 13.1957 36.0422C11.6438 36.1479 11.2833 36.1218 10.8268 35.8711C10.431 35.6535 10.1913 35.2914 9.39162 33.7015C8.78145 32.4885 8.6429 32.2731 8.17808 31.814C7.72337 31.3649 7.47178 31.2043 6.29245 30.61C4.70935 29.8122 4.34787 29.5727 4.1308 29.178C3.87992 28.7218 3.85386 28.3614 3.95953 26.8102C4.11554 24.521 4.00329 24.1062 2.70231 22.1632C1.81652 20.8404 1.68642 20.5644 1.68642 20.009C1.68642 19.4524 1.82239 19.1641 2.6955 17.8691C3.99162 15.9467 4.12172 15.467 3.9582 13.2136C3.84665 11.6768 3.8782 11.2846 4.1517 10.8094C4.38286 10.4075 4.61346 10.2567 6.29652 9.40717C7.4901 8.80462 7.72689 8.65267 8.1827 8.19699C8.63859 7.74138 8.79061 7.5047 9.39342 6.31165C10.2434 4.62936 10.3942 4.39885 10.7962 4.1678C11.2717 3.89442 11.664 3.86289 13.2016 3.97439C15.4551 4.13776 15.9989 3.98902 17.9004 2.68901C18.4462 2.31587 19.045 1.94156 19.2311 1.85714C19.6668 1.6595 20.3262 1.65621 20.7522 1.84963ZM15.8121 12.6822C14.8349 13.1391 14.1349 14.4657 14.1305 15.8692C14.1288 16.4326 14.3858 17.4342 14.646 17.8781C15.5182 19.3657 17.1568 19.6116 18.2559 18.4198C18.8844 17.7383 19.1678 16.9121 19.1603 15.7839C19.1449 13.4792 17.4553 11.914 15.8121 12.6822ZM24.5619 12.6165C24.3818 12.7425 14.4005 25.9975 14.2168 26.3547C13.8583 27.0511 14.7984 27.8495 15.4443 27.3972C15.6356 27.2633 25.6668 13.9391 25.8057 13.6346C26.1185 12.9484 25.1824 12.182 24.5619 12.6165ZM17.0509 14.4518C17.3261 14.7787 17.4453 15.1872 17.451 15.823C17.4569 16.4759 17.2818 16.9891 16.9422 17.3143C16.7182 17.5288 16.694 17.5349 16.4979 17.4249C15.7753 17.0195 15.6387 15.1222 16.2825 14.4342C16.5457 14.1529 16.8043 14.1588 17.0509 14.4518ZM22.7161 21.7603C22.3138 21.9101 21.8453 22.2434 21.6183 22.5412C20.2782 24.2989 20.711 27.2478 22.443 28.1602C22.6971 28.2941 22.9122 28.3378 23.3268 28.3395C23.7975 28.3415 23.9354 28.3076 24.3053 28.099C26.3555 26.9425 26.3679 23.0936 24.3252 21.9462C23.8313 21.6688 23.1674 21.5921 22.7161 21.7603ZM23.7093 23.6118C24.2844 24.295 24.2733 25.7856 23.6884 26.4399C23.513 26.6361 23.4314 26.6734 23.2671 26.6322C22.4728 26.4329 22.277 24.3546 22.9814 23.6008C23.2532 23.31 23.4578 23.3131 23.7093 23.6118Z" fill="#3498DB"/>
</svg>
