<svg width="8" height="8" viewBox="0 0 8 8" fill="none" xmlns="http://www.w3.org/2000/svg">
<path d="M7.45981 2.52668C7.45981 2.64573 7.41814 2.74692 7.33481 2.83025L4.10266 6.0624L3.49552 6.66954C3.41219 6.75287 3.311 6.79454 3.19195 6.79454C3.0729 6.79454 2.97171 6.75287 2.88838 6.66954L2.28123 6.0624L0.665161 4.44632C0.581828 4.36299 0.540161 4.2618 0.540161 4.14275C0.540161 4.02371 0.581828 3.92251 0.665161 3.83918L1.2723 3.23204C1.35564 3.14871 1.45683 3.10704 1.57588 3.10704C1.69492 3.10704 1.79611 3.14871 1.87945 3.23204L3.19195 4.549L6.12052 1.61597C6.20385 1.53263 6.30504 1.49097 6.42409 1.49097C6.54314 1.49097 6.64433 1.53263 6.72766 1.61597L7.33481 2.22311C7.41814 2.30644 7.45981 2.40763 7.45981 2.52668Z" fill="#CCCCCC"/>
</svg>
