<svg width="70" height="40" viewBox="0 0 70 40" fill="none" xmlns="http://www.w3.org/2000/svg">
<path fill-rule="evenodd" clip-rule="evenodd" d="M20.7626 6.27245C20.2956 6.23064 19.7293 6.22952 18.4498 6.22952L16.9784 6.22952C16.3627 6.22952 15.8636 5.73042 15.8636 5.11476C15.8636 4.4991 16.3627 4 16.9784 4L18.5246 4C19.7092 3.99998 20.3823 3.99996 20.9614 4.05182C27.228 4.61287 32.1943 9.57922 32.7554 15.8457C32.8072 16.4249 32.8072 17.0979 32.8072 18.2824V19.8288C32.8072 20.4445 32.3081 20.9436 31.6924 20.9436C31.0767 20.9436 30.5777 20.4445 30.5777 19.8288V18.3574C30.5777 17.0779 30.5765 16.5116 30.5347 16.0446C30.0698 10.8523 25.9549 6.73733 20.7626 6.27245ZM8.2042 9.76674C7.49339 9.11361 6.40083 9.11361 5.69002 9.76674C5.66549 9.78929 5.63333 9.8211 5.52026 9.93416L4.20286 11.2516C3.39953 12.0549 3.0623 13.213 3.30875 14.322C5.45745 23.9911 13.0089 31.5426 22.678 33.6913C23.787 33.9377 24.9451 33.6005 25.7484 32.7971L27.0658 31.4797C27.1789 31.3667 27.2107 31.3345 27.2333 31.31C27.8864 30.5992 27.8864 29.5066 27.2333 28.7958C27.2107 28.7713 27.1789 28.7391 27.0658 28.626L24.8985 26.4587C24.0304 25.5906 22.7196 25.3424 21.5942 25.8329C19.6286 26.6897 17.3388 26.2561 15.8226 24.7399L12.2601 21.1774C10.7439 19.6612 10.3103 17.3714 11.1671 15.4058C11.6576 14.2804 11.4094 12.9696 10.5413 12.1015L8.37395 9.93416C8.26089 9.82109 8.22873 9.78929 8.2042 9.76674ZM4.18152 8.12505C5.74529 6.68815 8.14893 6.68815 9.7127 8.12505C9.77675 8.1839 9.84512 8.25229 9.93391 8.34109L12.1178 10.525C13.6341 12.0413 14.0677 14.331 13.2109 16.2966C12.7204 17.422 12.9686 18.7328 13.8367 19.6009L17.3991 23.1634C18.2672 24.0314 19.578 24.2796 20.7034 23.7891C22.669 22.9323 24.9588 23.3659 26.475 24.8822L28.6588 27.066C28.7477 27.1548 28.8161 27.2232 28.875 27.2873C30.3118 28.8511 30.3118 31.2547 28.875 32.8185C28.8161 32.8826 28.7477 32.951 28.6588 33.0398L27.3249 34.3737C25.9826 35.716 24.0475 36.2795 22.1944 35.8677C11.6802 33.5312 3.46881 25.3198 1.13232 14.8056C0.720511 12.9525 1.28401 11.0174 2.62635 9.67506L3.94376 8.35765C3.94936 8.35205 3.95489 8.34652 3.96033 8.34107C4.04911 8.25228 4.11748 8.1839 4.18152 8.12505ZM16.9144 10.3698C16.9144 9.75411 17.4135 9.25502 18.0292 9.25502H18.8807C18.9963 9.25502 19.0666 9.25502 19.1279 9.2559C23.7522 9.32212 27.4849 13.0548 27.5511 17.6791C27.552 17.7404 27.552 17.8107 27.552 17.9262V18.7778C27.552 19.3935 27.0529 19.8926 26.4372 19.8926C25.8216 19.8926 25.3225 19.3935 25.3225 18.7778V17.937C25.3225 17.8073 25.3224 17.7543 25.3218 17.711C25.2729 14.2931 22.5139 11.5341 19.096 11.4852C19.0528 11.4846 18.9997 11.4845 18.87 11.4845H18.0292C17.4135 11.4845 16.9144 10.9854 16.9144 10.3698Z" fill="#D70027"/>
<path fill-rule="evenodd" clip-rule="evenodd" d="M55.7626 6.27245C55.2956 6.23064 54.7293 6.22952 53.4498 6.22952L51.9784 6.22952C51.3627 6.22952 50.8636 5.73042 50.8636 5.11476C50.8636 4.4991 51.3627 4 51.9784 4L53.5246 4C54.7092 3.99998 55.3823 3.99996 55.9614 4.05182C62.228 4.61287 67.1943 9.57922 67.7554 15.8457C67.8072 16.4249 67.8072 17.0979 67.8072 18.2824V19.8288C67.8072 20.4445 67.3081 20.9436 66.6924 20.9436C66.0767 20.9436 65.5777 20.4445 65.5777 19.8288V18.3574C65.5777 17.0779 65.5765 16.5116 65.5347 16.0446C65.0698 10.8523 60.9549 6.73733 55.7626 6.27245ZM43.2042 9.76674C42.4934 9.11361 41.4008 9.11361 40.69 9.76674C40.6655 9.78929 40.6333 9.8211 40.5203 9.93416L39.2029 11.2516C38.3995 12.0549 38.0623 13.213 38.3087 14.322C40.4574 23.9911 48.0089 31.5426 57.678 33.6913C58.787 33.9377 59.9451 33.6005 60.7484 32.7971L62.0658 31.4797C62.1789 31.3667 62.2107 31.3345 62.2333 31.31C62.8864 30.5992 62.8864 29.5066 62.2333 28.7958C62.2107 28.7713 62.1789 28.7391 62.0658 28.626L59.8985 26.4587C59.0304 25.5906 57.7196 25.3424 56.5942 25.8329C54.6286 26.6897 52.3388 26.2561 50.8226 24.7399L47.2601 21.1774C45.7439 19.6612 45.3103 17.3714 46.1671 15.4058C46.6576 14.2804 46.4094 12.9696 45.5413 12.1015L43.374 9.93416C43.2609 9.82109 43.2287 9.78929 43.2042 9.76674ZM39.1815 8.12505C40.7453 6.68815 43.1489 6.68815 44.7127 8.12505C44.7767 8.1839 44.8451 8.25229 44.9339 8.34109L47.1178 10.525C48.6341 12.0413 49.0677 14.331 48.2109 16.2966C47.7204 17.422 47.9686 18.7328 48.8367 19.6009L52.3991 23.1634C53.2672 24.0314 54.578 24.2796 55.7034 23.7891C57.669 22.9323 59.9588 23.3659 61.475 24.8822L63.6588 27.066C63.7477 27.1548 63.8161 27.2232 63.875 27.2873C65.3118 28.8511 65.3118 31.2547 63.875 32.8185C63.8161 32.8826 63.7477 32.951 63.6588 33.0398L62.3249 34.3737C60.9826 35.716 59.0475 36.2795 57.1944 35.8677C46.6802 33.5312 38.4688 25.3198 36.1323 14.8056C35.7205 12.9525 36.284 11.0174 37.6263 9.67506L38.9438 8.35765C38.9494 8.35205 38.9549 8.34652 38.9603 8.34107C39.0491 8.25228 39.1175 8.1839 39.1815 8.12505ZM51.9144 10.3698C51.9144 9.75411 52.4135 9.25502 53.0292 9.25502H53.8807C53.9963 9.25502 54.0666 9.25502 54.1279 9.2559C58.7522 9.32212 62.4849 13.0548 62.5511 17.6791C62.552 17.7404 62.552 17.8107 62.552 17.9262V18.7778C62.552 19.3935 62.0529 19.8926 61.4372 19.8926C60.8216 19.8926 60.3225 19.3935 60.3225 18.7778V17.937C60.3225 17.8073 60.3224 17.7543 60.3218 17.711C60.2729 14.2931 57.5139 11.5341 54.096 11.4852C54.0528 11.4846 53.9997 11.4845 53.87 11.4845H53.0292C52.4135 11.4845 51.9144 10.9854 51.9144 10.3698Z" fill="#EB002A"/>
</svg>
