<svg width="54" height="54" viewBox="0 0 54 54" fill="none" xmlns="http://www.w3.org/2000/svg">
<rect width="54" height="54" rx="24" fill="#747F94" fill-opacity="0.1"/>
<path fill-rule="evenodd" clip-rule="evenodd" d="M27 16C27.5207 16 27.9429 16.4221 27.9429 16.9429L27.9429 26.0571H37.0571C37.5779 26.0571 38 26.4793 38 27C38 27.5207 37.5779 27.9429 37.0571 27.9429H27.9429V37.0571C27.9429 37.5779 27.5207 38 27 38C26.4793 38 26.0571 37.5779 26.0571 37.0571V27.9429H16.9429C16.4221 27.9429 16 27.5207 16 27C16 26.4793 16.4221 26.0571 16.9429 26.0571H26.0571L26.0571 16.9429C26.0571 16.4221 26.4793 16 27 16Z" fill="#747F94"/>
</svg>
