<svg width="50" height="18" viewBox="0 0 50 18" fill="none" xmlns="http://www.w3.org/2000/svg">
<path fill-rule="evenodd" clip-rule="evenodd" d="M17 2.72222C17 2.32335 17.325 2 17.7258 2H31.2742C31.675 2 32 2.32335 32 2.72222C32 3.12109 31.675 3.44444 31.2742 3.44444H17.7258C17.325 3.44444 17 3.12109 17 2.72222ZM17 8.5C17 8.10113 17.325 7.77778 17.7258 7.77778H23.5323C23.9331 7.77778 24.2581 8.10113 24.2581 8.5C24.2581 8.89887 23.9331 9.22222 23.5323 9.22222H17.7258C17.325 9.22222 17 8.89887 17 8.5ZM17 14.2778C17 13.8789 17.325 13.5556 17.7258 13.5556H31.2742C31.675 13.5556 32 13.8789 32 14.2778C32 14.6767 31.675 15 31.2742 15H17.7258C17.325 15 17 14.6767 17 14.2778Z" fill="black"/>
</svg>
