<svg width="46" height="46" viewBox="0 0 46 46" fill="none" xmlns="http://www.w3.org/2000/svg">
<path d="M20.0367 46C21.4646 46 22.6221 44.8397 22.6221 43.4085C22.6221 41.9772 21.4646 40.8169 20.0367 40.8169C18.6089 40.8169 17.4513 41.9772 17.4513 43.4085C17.4513 44.8397 18.6089 46 20.0367 46Z" fill="black"/>
<path d="M38.1344 46C39.5623 46 40.7198 44.8397 40.7198 43.4085C40.7198 41.9772 39.5623 40.8169 38.1344 40.8169C36.7066 40.8169 35.549 41.9772 35.549 43.4085C35.549 44.8397 36.7066 46 38.1344 46Z" fill="black"/>
<path d="M28.0246 10.0062C28.0246 8.93279 27.1544 8.06258 26.081 8.06258H18.214H9.58387L10.6954 11.9499H18.214H26.081C27.1544 11.9499 28.0246 11.0797 28.0246 10.0062V10.0062Z" fill="black"/>
<path d="M1.93904 0C0.868137 0 0 0.870207 0 1.94366C0 3.01712 0.868137 3.88732 1.93904 3.88732C3.36978 3.88732 4.62744 4.83741 5.02165 6.21606L12.5127 32.4143C13.3868 35.4709 16.1752 37.5774 19.3473 37.5774L35.804 37.5775C38.8634 37.5775 41.5798 35.6157 42.5482 32.7067L45.8977 22.6454C46.3158 21.3897 45.381 20.0933 44.0575 20.0933V20.0933C43.2224 20.0933 42.4811 20.6278 42.2173 21.4202L41.3678 23.9718L40.0737 27.8592L38.8696 31.4761C38.4294 32.7984 37.1947 33.6901 35.804 33.6901L19.3473 33.6901C17.9054 33.6901 16.638 32.7326 16.2407 31.3432L10.6954 11.9499L9.58387 8.06258L8.74961 5.14499C7.87867 2.09908 5.10006 0 1.93904 0Z" fill="black"/>
</svg>
