<svg width="18" height="19" viewBox="0 0 18 19" fill="none" xmlns="http://www.w3.org/2000/svg">
<path fill-rule="evenodd" clip-rule="evenodd" d="M11.6423 1.74168C9.90437 1.33401 8.09564 1.33401 6.35767 1.74168C4.06729 2.27893 2.27894 4.06728 1.74168 6.35767C1.33401 8.09564 1.33401 9.90437 1.74168 11.6423C2.27894 13.9327 4.06729 15.7211 6.35767 16.2583C8.09564 16.666 9.90436 16.666 11.6423 16.2583C13.9327 15.7211 15.7211 13.9327 16.2583 11.6423C16.666 9.90436 16.666 8.09564 16.2583 6.35767C15.7211 4.06729 13.9327 2.27893 11.6423 1.74168ZM6.02975 0.343699C7.9834 -0.114566 10.0166 -0.114567 11.9703 0.343699C14.7916 1.00549 16.9945 3.20842 17.6563 6.02975C18.1146 7.9834 18.1146 10.0166 17.6563 11.9703C16.9945 14.7916 14.7916 16.9945 11.9703 17.6563C10.0166 18.1146 7.9834 18.1146 6.02975 17.6563C3.20842 16.9945 1.0055 14.7916 0.3437 11.9703C-0.114567 10.0166 -0.114567 7.9834 0.3437 6.02974C1.0055 3.20841 3.20841 1.00549 6.02975 0.343699Z" fill="#363853"/>
<path fill-rule="evenodd" clip-rule="evenodd" d="M7.79622 6.90198C7.67759 6.9779 7.56407 7.13833 7.56407 7.37835V10.6216C7.56407 10.8617 7.67759 11.0221 7.79622 11.098C7.90763 11.1693 8.02722 11.1756 8.14843 11.098L10.6824 9.47637C10.8187 9.38916 10.9146 9.21744 10.9146 9C10.9146 8.78256 10.8187 8.61084 10.6824 8.52363L8.14843 6.90198C8.02722 6.82441 7.90763 6.83069 7.79622 6.90198ZM7.02221 5.69252C7.56777 5.34339 8.29284 5.2896 8.92244 5.69252L11.4564 7.31417C12.071 7.70745 12.3505 8.37658 12.3505 9C12.3505 9.62342 12.071 10.2926 11.4564 10.6858L8.92244 12.3075C8.29284 12.7104 7.56776 12.6566 7.02221 12.3075C6.48388 11.963 6.12814 11.3426 6.12814 10.6216V7.37835C6.12814 6.6574 6.48388 6.03703 7.02221 5.69252Z" fill="#363853"/>
</svg>
