<svg xmlns="http://www.w3.org/2000/svg" width="18" height="19" viewBox="0 0 24 24" fill="none" stroke="#363853" stroke-width="2" stroke-linecap="round" stroke-linejoin="round">
  <circle cx="12" cy="12" r="3" fill="none"/>
  <path d="M19.4 15a1.65 1.65 0 0 0 .33 1.82l.06.06a2 2 0 1 1-2.83 2.83l-.06-.06a1.65 1.65 0 0 0-1.82-.33 1.65 1.65 0 0 0-1 1.51V21a2 2 0 1 1-4 0v-.09c0-.69-.4-1.31-1-1.51a1.65 1.65 0 0 0-1.82.33l-.06.06a2 2 0 1 1-2.83-2.83l.06-.06c.44-.44.58-1.08.33-1.82a1.65 1.65 0 0 0-1.51-1H3a2 2 0 1 1 0-4h.09c.69 0 1.31-.4 1.51-1a1.65 1.65 0 0 0-.33-1.82l-.06-.06a2 2 0 1 1 2.83-2.83l.06.06c.44.44 1.08.58 1.82.33h.06a1.65 1.65 0 0 0 1-1.51V3a2 2 0 1 1 4 0v.09c0 .69.4 1.31 1 1.51.74.25 1.38.11 1.82-.33l.06-.06a2 2 0 1 1 2.83 2.83l-.06.06c-.44.44-.58 1.08-.33 1.82v.06c.2.6.82 1 1.51 1H21a2 2 0 1 1 0 4h-.09c-.69 0-1.31.4-1.51 1z"/>
</svg>
