<svg width="17" height="16" viewBox="0 0 17 16" fill="none" xmlns="http://www.w3.org/2000/svg">
<path fill-rule="evenodd" clip-rule="evenodd" d="M8.81011 2.56772C8.01003 2.53153 7.86608 2.53917 7.06527 2.59241C4.56198 2.75881 2.555 4.78371 2.38965 7.34219C2.35496 7.87895 2.35496 8.43577 2.38965 8.97253C2.44687 9.85793 2.84326 10.7163 3.35925 11.4911C3.36969 11.5068 3.37948 11.5229 3.38859 11.5394C3.89 12.4472 3.51456 13.4618 3.17133 14.1122C3.16702 14.1204 3.16277 14.1284 3.15859 14.1363C3.79089 14.1339 4.19196 13.9516 4.51489 13.7135L4.52957 13.7027C4.64559 13.6171 4.75667 13.5352 4.84996 13.4748C4.92761 13.4246 5.09758 13.316 5.3114 13.2897C5.53138 13.2627 5.73759 13.3353 5.82408 13.3658L5.8294 13.3676C5.94499 13.4083 6.09003 13.468 6.2506 13.5342L6.26693 13.5409C6.5072 13.6398 6.79861 13.7046 7.06526 13.7223C8.00621 13.7849 8.99187 13.785 9.93473 13.7223C12.438 13.5559 14.445 11.531 14.6103 8.97253C14.645 8.43577 14.645 7.87895 14.6103 7.34219C14.5861 6.96642 14.871 6.6421 15.2468 6.61782C15.6225 6.59353 15.9469 6.87847 15.9711 7.25425C16.0096 7.84958 16.0096 8.46515 15.9711 9.06048C15.7626 12.287 13.226 14.8702 10.0252 15.083C9.02202 15.1496 7.97593 15.1495 6.97482 15.083C6.5727 15.0562 6.13516 14.9614 5.74762 14.8018C5.63556 14.7556 5.55044 14.7207 5.48351 14.6942C5.43872 14.7266 5.38719 14.7646 5.32421 14.811C4.75518 15.2306 4.03636 15.5231 3.02847 15.4986C3.0167 15.4983 3.00477 15.498 2.99271 15.4977C2.81082 15.4934 2.59797 15.4884 2.42093 15.4541C2.19998 15.4114 1.90332 15.2994 1.71745 14.9825C1.51375 14.6352 1.59987 14.2889 1.66917 14.095C1.73377 13.9142 1.84372 13.706 1.94801 13.5085C1.9538 13.4976 1.95957 13.4866 1.96532 13.4758C2.27733 12.8845 2.32797 12.466 2.205 12.2179C1.63145 11.3503 1.10693 10.2685 1.02886 9.06048C0.990381 8.46515 0.990381 7.84958 1.02886 7.25425C1.23738 4.02771 3.77401 1.44454 6.97482 1.23177C7.81371 1.17601 8.00978 1.16649 8.87171 1.20547C9.24788 1.22248 9.53904 1.54122 9.52203 1.91739C9.50502 2.29357 9.18628 2.58473 8.81011 2.56772ZM2.67641 14.1146C2.67643 14.1146 2.67699 14.1147 2.67804 14.1149ZM2.94854 14.5682C2.94831 14.5692 2.94817 14.5697 2.94815 14.5697Z" fill="white"/>
<path fill-rule="evenodd" clip-rule="evenodd" d="M5.43182 10.0455C5.43182 10.422 5.73708 10.7273 6.11364 10.7273H10.8864C11.2629 10.7273 11.5682 10.422 11.5682 10.0455C11.5682 9.6689 11.2629 9.36364 10.8864 9.36364H6.11364C5.73708 9.36364 5.43182 9.6689 5.43182 10.0455ZM5.43182 6.63637C5.43182 7.01293 5.73708 7.31819 6.11364 7.31819H8.5C8.87656 7.31819 9.18182 7.01293 9.18182 6.63637C9.18182 6.25981 8.87656 5.95455 8.5 5.95455H6.11364C5.73708 5.95455 5.43182 6.25981 5.43182 6.63637Z" fill="white"/>
<path fill-rule="evenodd" clip-rule="evenodd" d="M12.9318 1.86364C11.9904 1.86364 11.2273 2.62679 11.2273 3.56818C11.2273 4.50958 11.9904 5.27273 12.9318 5.27273C13.8732 5.27273 14.6364 4.50958 14.6364 3.56818C14.6364 2.62679 13.8732 1.86364 12.9318 1.86364ZM9.86364 3.56818C9.86364 1.87367 11.2373 0.5 12.9318 0.5C14.6263 0.5 16 1.87367 16 3.56818C16 5.26269 14.6263 6.63637 12.9318 6.63637C11.2373 6.63637 9.86364 5.26269 9.86364 3.56818Z" fill="white"/>
</svg>
