<svg width="780" height="120" viewBox="0 0 780 120" fill="none" xmlns="http://www.w3.org/2000/svg">
<path opacity="0.5" d="M102 29.5C102 22.625 96.375 17 89.5 17C82.625 17 77 22.625 77 29.5C77 35.75 81.5312 40.9062 87.4688 41.8438V33.0937H84.3437V29.5H87.4688V26.6875C87.4688 23.5625 89.3438 21.8438 92.1563 21.8438C93.5625 21.8438 94.9688 22.1563 94.9688 22.1563V25.2812H93.4062C91.8438 25.2812 91.375 26.2188 91.375 27.1562V29.5H94.8125L94.1875 33.0937H91.2188V42C97.4688 41.0625 102 35.75 102 29.5Z" fill="#747F94"/>
<path opacity="0.5" d="M342.4 23.5804C342.1 22.5179 341.35 21.7589 340.3 21.4554C338.5 21 330.85 21 330.85 21C330.85 21 323.35 21 321.4 21.4554C320.35 21.7589 319.6 22.5179 319.3 23.5804C319 25.5536 319 29.5 319 29.5C319 29.5 319 33.4464 319.45 35.4196C319.75 36.4821 320.5 37.2411 321.55 37.5446C323.35 38 331 38 331 38C331 38 338.5 38 340.45 37.5446C341.5 37.2411 342.25 36.4821 342.55 35.4196C343 33.4464 343 29.5 343 29.5C343 29.5 343 25.5536 342.4 23.5804ZM328.6 33.1429V25.8571L334.9 29.5L328.6 33.1429Z" fill="#747F94"/>
<g opacity="0.5">
<path d="M271 20.1687C274.181 20.1687 274.614 20.1687 275.916 20.1687C277.072 20.1687 277.651 20.4578 278.084 20.6024C278.663 20.8916 279.096 21.0361 279.53 21.4699C279.964 21.9036 280.253 22.3374 280.398 22.9157C280.542 23.3494 280.687 23.9277 280.831 25.0843C280.831 26.3855 280.831 26.6747 280.831 30C280.831 33.3253 280.831 33.6145 280.831 34.9157C280.831 36.0723 280.542 36.6506 280.398 37.0843C280.108 37.6627 279.964 38.0964 279.53 38.5301C279.096 38.9639 278.663 39.253 278.084 39.3976C277.651 39.5422 277.072 39.6867 275.916 39.8313C274.614 39.8313 274.325 39.8313 271 39.8313C267.675 39.8313 267.386 39.8313 266.084 39.8313C264.928 39.8313 264.349 39.5422 263.916 39.3976C263.337 39.1084 262.904 38.9639 262.47 38.5301C262.036 38.0964 261.747 37.6627 261.602 37.0843C261.458 36.6506 261.313 36.0723 261.169 34.9157C261.169 33.6145 261.169 33.3253 261.169 30C261.169 26.6747 261.169 26.3855 261.169 25.0843C261.169 23.9277 261.458 23.3494 261.602 22.9157C261.892 22.3374 262.036 21.9036 262.47 21.4699C262.904 21.0361 263.337 20.747 263.916 20.6024C264.349 20.4578 264.928 20.3133 266.084 20.1687C267.386 20.1687 267.819 20.1687 271 20.1687ZM271 18C267.675 18 267.386 18 266.084 18C264.783 18 263.916 18.2892 263.193 18.5783C262.47 18.8675 261.747 19.3012 261.024 20.0241C260.301 20.747 260.012 21.3253 259.578 22.1928C259.289 22.9157 259.145 23.7831 259 25.0843C259 26.3855 259 26.8193 259 30C259 33.3253 259 33.6145 259 34.9157C259 36.2169 259.289 37.0843 259.578 37.8072C259.867 38.5301 260.301 39.253 261.024 39.9759C261.747 40.6988 262.325 40.988 263.193 41.4217C263.916 41.7108 264.783 41.8554 266.084 42C267.386 42 267.819 42 271 42C274.181 42 274.614 42 275.916 42C277.217 42 278.084 41.7108 278.807 41.4217C279.53 41.1325 280.253 40.6988 280.976 39.9759C281.699 39.253 281.988 38.6747 282.422 37.8072C282.711 37.0843 282.855 36.2169 283 34.9157C283 33.6145 283 33.1807 283 30C283 26.8193 283 26.3855 283 25.0843C283 23.7831 282.711 22.9157 282.422 22.1928C282.133 21.4699 281.699 20.747 280.976 20.0241C280.253 19.3012 279.675 19.012 278.807 18.5783C278.084 18.2892 277.217 18.1446 275.916 18C274.614 18 274.325 18 271 18Z" fill="#747F94"/>
<path d="M271 23.7831C267.53 23.7831 264.783 26.5301 264.783 30C264.783 33.4699 267.53 36.2169 271 36.2169C274.47 36.2169 277.217 33.4699 277.217 30C277.217 26.5301 274.47 23.7831 271 23.7831ZM271 34.0482C268.831 34.0482 266.952 32.3133 266.952 30C266.952 27.8313 268.687 25.9518 271 25.9518C273.169 25.9518 275.048 27.6867 275.048 30C275.048 32.1687 273.169 34.0482 271 34.0482Z" fill="#747F94"/>
<path d="M277.361 25.0843C278.16 25.0843 278.807 24.437 278.807 23.6386C278.807 22.8401 278.16 22.1928 277.361 22.1928C276.563 22.1928 275.916 22.8401 275.916 23.6386C275.916 24.437 276.563 25.0843 277.361 25.0843Z" fill="#747F94"/>
</g>
<path opacity="0.5" d="M30.5225 37C22.6643 37 18.1838 31.3795 18 22.012H21.952C22.0784 28.8815 24.9735 31.7878 27.2712 32.3883V22.012H30.982V27.9327C33.2453 27.6805 35.6349 24.9784 36.4391 22H40.1384C39.8367 23.5418 39.2342 25.0019 38.3684 26.2893C37.5026 27.5766 36.3921 28.6635 35.1064 29.482C36.5412 30.2285 37.8084 31.2846 38.8243 32.5805C39.8401 33.8763 40.5817 35.3826 41 37H36.9216C36.0485 34.1537 33.8656 31.944 30.982 31.6437V37H30.534H30.5225Z" fill="#747F94"/>
<path opacity="0.5" d="M26.2712 31.9911C24.2108 30.8876 22.0606 27.9111 21.952 22.012H18C18.0066 22.3503 18.0189 22.6836 18.0367 23.012C18.5004 31.5675 22.7372 36.7471 29.982 36.991C30.1604 36.997 30.3405 37 30.5225 37H30.982V31.6437C31.3256 31.6795 31.6593 31.7424 31.982 31.8302C34.3673 32.4796 36.1525 34.4929 36.9216 37H41C40.9125 36.6615 40.8107 36.3279 40.6953 36C40.2593 34.7613 39.6275 33.6051 38.8243 32.5805C38.0414 31.5818 37.1092 30.7255 36.0661 30.0436C35.7557 29.8407 35.4355 29.6532 35.1064 29.482C35.4191 29.2829 35.7215 29.0679 36.0125 28.8381C36.9179 28.1229 37.7132 27.2635 38.3684 26.2893C39.0446 25.2838 39.5603 24.1729 39.8974 23C39.9919 22.6712 40.0723 22.3376 40.1384 22H36.4391C35.753 24.5409 33.913 26.8808 31.982 27.67C31.6496 27.8058 31.3144 27.8957 30.982 27.9327V22.012H27.2712V32.3883C26.9467 32.3035 26.6102 32.1726 26.2712 31.9911Z" fill="#747F94"/>
<g opacity="0.5">
<path fill-rule="evenodd" clip-rule="evenodd" d="M157.151 22.9772C157.151 26.8208 153.954 29.9543 150.033 29.9543C146.069 29.9543 142.873 26.8208 142.873 22.9772C142.873 19.1335 146.069 16 150.033 16C153.954 16 157.151 19.1335 157.151 22.9772ZM152.974 22.9772C152.974 21.3896 151.653 20.0944 150.033 20.0944C148.371 20.0944 147.05 21.3896 147.092 22.9772C147.092 24.5648 148.414 25.8599 150.033 25.8599C151.653 25.8599 152.974 24.5648 152.974 22.9772Z" fill="#747F94"/>
<path d="M157.023 34.007C155.744 34.8007 154.338 35.3439 152.889 35.6782L156.938 39.5218C157.747 40.3157 157.747 41.6108 156.938 42.4047C156.128 43.1984 154.807 43.1984 153.997 42.4047L150.076 38.5609L146.155 42.4047C145.729 42.7806 145.217 42.9895 144.663 42.9895C144.109 42.9895 143.598 42.8225 143.171 42.4047C142.361 41.6108 142.361 40.3157 143.171 39.5218L147.135 35.6363C145.686 35.302 144.279 34.7591 143.001 33.9652C142.021 33.3803 141.722 32.1269 142.276 31.166C142.916 30.205 144.194 29.9545 145.174 30.5393C148.073 32.3358 151.866 32.3358 154.764 30.5393C155.744 29.9126 157.066 30.205 157.662 31.166C158.301 32.1269 158.003 33.422 157.023 34.007Z" fill="#747F94"/>
</g>
<g opacity="0.5">
<path d="M397.439 26.3729C398.34 27.6016 399.506 27.6612 400.374 26.7699C401.209 25.912 401.209 24.5212 400.374 23.6633C399.539 22.8054 398.185 22.8054 397.351 23.6633C397.351 23.6633 396.356 24.3981 397.084 25.7417L397.439 26.3729Z" fill="#747F94"/>
<path d="M389.497 25.2954C388.906 24.2448 389.257 22.9013 390.279 22.2947C391.302 21.6881 392.609 22.0481 393.199 23.0987L399.424 34.1774C400.015 35.2281 399.664 36.5716 398.642 37.1782C397.619 37.7848 396.312 37.4248 395.722 36.3741L389.497 25.2954Z" fill="#747F94"/>
<path d="M386.419 36.3741L380.195 25.2954C379.604 24.2448 379.955 22.9013 380.977 22.2947C382 21.6881 383.307 22.0481 383.897 23.0987L389.141 32.4317C390.121 31.6788 391.132 32.4839 391.659 33.4222C392.143 34.2833 392.003 35.3708 391.319 36.0739L390.087 37.3405C389.252 38.1983 387.898 38.1983 387.063 37.3405L386.419 36.3741Z" fill="#747F94"/>
<path d="M383.829 36.1993C383.956 36.4245 383.881 36.7124 383.662 36.8423L382.207 37.7053C381.185 38.3119 379.877 37.9519 379.287 36.9013C378.696 35.8506 379.047 34.5071 380.069 33.9005L381.524 33.0375C381.743 32.9075 382.023 32.9847 382.15 33.2098L383.829 36.1993Z" fill="#747F94"/>
</g>
<path d="M102 89.5C102 82.625 96.375 77 89.5 77C82.625 77 77 82.625 77 89.5C77 95.75 81.5312 100.906 87.4688 101.844V93.0937H84.3437V89.5H87.4688V86.6875C87.4688 83.5625 89.3438 81.8438 92.1563 81.8438C93.5625 81.8438 94.9688 82.1563 94.9688 82.1563V85.2812H93.4062C91.8438 85.2812 91.375 86.2188 91.375 87.1562V89.5H94.8125L94.1875 93.0937H91.2188V102C97.4688 101.062 102 95.75 102 89.5Z" fill="#1877F2"/>
<path d="M342.4 83.5804C342.1 82.5179 341.35 81.7589 340.3 81.4554C338.5 81 330.85 81 330.85 81C330.85 81 323.35 81 321.4 81.4554C320.35 81.7589 319.6 82.5179 319.3 83.5804C319 85.5536 319 89.5 319 89.5C319 89.5 319 93.4464 319.45 95.4196C319.75 96.4821 320.5 97.2411 321.55 97.5446C323.35 98 331 98 331 98C331 98 338.5 98 340.45 97.5446C341.5 97.2411 342.25 96.4821 342.55 95.4196C343 93.4464 343 89.5 343 89.5C343 89.5 343 85.5536 342.4 83.5804ZM328.6 93.1429V85.8571L334.9 89.5L328.6 93.1429Z" fill="#FF0000"/>
<path d="M271 80.1687C274.181 80.1687 274.614 80.1687 275.916 80.1687C277.072 80.1687 277.651 80.4578 278.084 80.6024C278.663 80.8916 279.096 81.0361 279.53 81.4699C279.964 81.9036 280.253 82.3374 280.398 82.9157C280.542 83.3494 280.687 83.9277 280.831 85.0843C280.831 86.3855 280.831 86.6747 280.831 90C280.831 93.3253 280.831 93.6145 280.831 94.9157C280.831 96.0723 280.542 96.6506 280.398 97.0843C280.108 97.6627 279.964 98.0964 279.53 98.5301C279.096 98.9639 278.663 99.253 278.084 99.3976C277.651 99.5422 277.072 99.6867 275.916 99.8313C274.614 99.8313 274.325 99.8313 271 99.8313C267.675 99.8313 267.386 99.8313 266.084 99.8313C264.928 99.8313 264.349 99.5422 263.916 99.3976C263.337 99.1084 262.904 98.9639 262.47 98.5301C262.036 98.0964 261.747 97.6627 261.602 97.0843C261.458 96.6506 261.313 96.0723 261.169 94.9157C261.169 93.6145 261.169 93.3253 261.169 90C261.169 86.6747 261.169 86.3855 261.169 85.0843C261.169 83.9277 261.458 83.3494 261.602 82.9157C261.892 82.3374 262.036 81.9036 262.47 81.4699C262.904 81.0361 263.337 80.747 263.916 80.6024C264.349 80.4578 264.928 80.3133 266.084 80.1687C267.386 80.1687 267.819 80.1687 271 80.1687ZM271 78C267.675 78 267.386 78 266.084 78C264.783 78 263.916 78.2892 263.193 78.5783C262.47 78.8675 261.747 79.3012 261.024 80.0241C260.301 80.747 260.012 81.3253 259.578 82.1928C259.289 82.9157 259.145 83.7831 259 85.0843C259 86.3855 259 86.8193 259 90C259 93.3253 259 93.6145 259 94.9157C259 96.2169 259.289 97.0843 259.578 97.8072C259.867 98.5301 260.301 99.253 261.024 99.9759C261.747 100.699 262.325 100.988 263.193 101.422C263.916 101.711 264.783 101.855 266.084 102C267.386 102 267.819 102 271 102C274.181 102 274.614 102 275.916 102C277.217 102 278.084 101.711 278.807 101.422C279.53 101.133 280.253 100.699 280.976 99.9759C281.699 99.253 281.988 98.6747 282.422 97.8072C282.711 97.0843 282.855 96.2169 283 94.9157C283 93.6145 283 93.1807 283 90C283 86.8193 283 86.3855 283 85.0843C283 83.7831 282.711 82.9157 282.422 82.1928C282.133 81.4699 281.699 80.747 280.976 80.0241C280.253 79.3012 279.675 79.012 278.807 78.5783C278.084 78.2892 277.217 78.1446 275.916 78C274.614 78 274.325 78 271 78Z" fill="#F00073"/>
<path d="M271 83.7831C267.53 83.7831 264.783 86.5301 264.783 90C264.783 93.4699 267.53 96.2169 271 96.2169C274.47 96.2169 277.217 93.4699 277.217 90C277.217 86.5301 274.47 83.7831 271 83.7831ZM271 94.0482C268.831 94.0482 266.952 92.3133 266.952 90C266.952 87.8313 268.687 85.9518 271 85.9518C273.169 85.9518 275.048 87.6867 275.048 90C275.048 92.1687 273.169 94.0482 271 94.0482Z" fill="#F00073"/>
<path d="M277.361 85.0843C278.16 85.0843 278.807 84.437 278.807 83.6386C278.807 82.8401 278.16 82.1928 277.361 82.1928C276.563 82.1928 275.916 82.8401 275.916 83.6386C275.916 84.437 276.563 85.0843 277.361 85.0843Z" fill="#F00073"/>
<path d="M30.5225 97C22.6643 97 18.1838 91.3795 18 82.012H21.952C22.0784 88.8815 24.9735 91.7878 27.2712 92.3883V82.012H30.982V87.9327C33.2453 87.6805 35.6349 84.9784 36.4391 82H40.1384C39.8367 83.5418 39.2342 85.0019 38.3684 86.2893C37.5026 87.5766 36.3921 88.6635 35.1064 89.482C36.5412 90.2285 37.8084 91.2846 38.8243 92.5805C39.8401 93.8763 40.5817 95.3826 41 97H36.9216C36.0485 94.1537 33.8656 91.944 30.982 91.6437V97H30.534H30.5225Z" fill="#0077FF"/>
<path fill-rule="evenodd" clip-rule="evenodd" d="M26.2712 91.9911C24.2108 90.8876 22.0606 87.9111 21.952 82.012H18C18.0066 82.3503 18.0189 82.6836 18.0367 83.012C18.5004 91.5675 22.7372 96.7471 29.982 96.991C30.1604 96.997 30.3405 97 30.5225 97H30.982V91.6437C31.3256 91.6795 31.6593 91.7424 31.982 91.8302C34.3673 92.4796 36.1525 94.4929 36.9216 97H41C40.9125 96.6615 40.8107 96.3279 40.6953 96C40.2593 94.7613 39.6275 93.6051 38.8243 92.5805C38.0414 91.5818 37.1092 90.7255 36.0661 90.0436C35.7557 89.8407 35.4355 89.6532 35.1064 89.482C35.4191 89.2829 35.7215 89.0679 36.0125 88.8381C36.9179 88.1229 37.7132 87.2635 38.3684 86.2893C39.0446 85.2838 39.5603 84.1729 39.8974 83C39.9919 82.6712 40.0723 82.3376 40.1384 82H36.4391C35.753 84.5409 33.913 86.8808 31.982 87.67C31.6496 87.8058 31.3144 87.8957 30.982 87.9327V82.012H27.2712V92.3883C26.9467 92.3035 26.6102 92.1726 26.2712 91.9911ZM28.2712 83.012V93.6832L27.0184 93.3558C24.2551 92.6337 21.3689 89.4648 20.9898 83.012H19.0382C19.2657 87.0618 20.3662 90.2147 22.1547 92.3824C23.9719 94.5849 26.5786 95.8683 29.982 95.9904V90.5342L31.0856 90.6491C34.2038 90.9738 36.5367 93.195 37.6317 96H39.6292C39.2367 94.9883 38.7003 94.0432 38.0373 93.1974C37.1077 92.0117 35.9508 91.0486 34.6448 90.3691L33.1073 89.5691L34.5694 88.6384C35.7368 87.8952 36.7483 86.9063 37.5386 85.7312C38.1028 84.8923 38.5453 83.9719 38.8529 83H37.1742C36.6901 84.37 35.9187 85.6477 34.9978 86.6612C33.9282 87.8382 32.5579 88.7633 31.0928 88.9266L29.982 89.0504V83.012H28.2712Z" fill="#0077FF"/>
<path fill-rule="evenodd" clip-rule="evenodd" d="M157.151 82.9772C157.151 86.8208 153.954 89.9543 150.033 89.9543C146.069 89.9543 142.873 86.8208 142.873 82.9772C142.873 79.1335 146.069 76 150.033 76C153.954 76 157.151 79.1335 157.151 82.9772ZM152.974 82.9772C152.974 81.3896 151.653 80.0944 150.033 80.0944C148.371 80.0944 147.05 81.3896 147.092 82.9772C147.092 84.5648 148.414 85.8599 150.033 85.8599C151.653 85.8599 152.974 84.5648 152.974 82.9772Z" fill="#FF9601"/>
<path d="M157.023 94.007C155.744 94.8007 154.338 95.3439 152.889 95.6782L156.938 99.5218C157.747 100.316 157.747 101.611 156.938 102.405C156.128 103.198 154.807 103.198 153.997 102.405L150.076 98.5609L146.155 102.405C145.729 102.781 145.217 102.99 144.663 102.99C144.109 102.99 143.598 102.822 143.171 102.405C142.361 101.611 142.361 100.316 143.171 99.5218L147.135 95.6363C145.686 95.302 144.279 94.7591 143.001 93.9652C142.021 93.3803 141.722 92.1269 142.276 91.166C142.916 90.205 144.194 89.9545 145.174 90.5393C148.073 92.3358 151.866 92.3358 154.764 90.5393C155.744 89.9126 157.066 90.205 157.662 91.166C158.301 92.1269 158.003 93.422 157.023 94.007Z" fill="#FF9601"/>
<path d="M397.439 86.3729C398.34 87.6016 399.506 87.6612 400.374 86.7699C401.209 85.912 401.209 84.5212 400.374 83.6633C399.539 82.8054 398.185 82.8054 397.351 83.6633C397.351 83.6633 396.356 84.3981 397.084 85.7417L397.439 86.3729Z" fill="#89D346"/>
<path d="M389.497 85.2954C388.906 84.2448 389.257 82.9013 390.279 82.2947C391.302 81.6881 392.609 82.0481 393.199 83.0987L399.424 94.1774C400.015 95.2281 399.664 96.5716 398.642 97.1782C397.619 97.7848 396.312 97.4248 395.722 96.3741L389.497 85.2954Z" fill="#89D346"/>
<path d="M386.419 96.3741L380.195 85.2954C379.604 84.2448 379.955 82.9013 380.977 82.2947C382 81.6881 383.307 82.0481 383.897 83.0987L389.141 92.4317C390.121 91.6788 391.132 92.4839 391.659 93.4222C392.143 94.2833 392.003 95.3708 391.319 96.0739L390.087 97.3405C389.252 98.1983 387.898 98.1983 387.063 97.3405L386.419 96.3741Z" fill="#89D346"/>
<path d="M383.829 96.1993C383.956 96.4245 383.881 96.7124 383.662 96.8423L382.207 97.7053C381.185 98.3119 379.877 97.9519 379.287 96.9013C378.696 95.8506 379.047 94.5071 380.069 93.9005L381.524 93.0375C381.743 92.9075 382.023 92.9847 382.15 93.2098L383.829 96.1993Z" fill="#369AF3"/>
<g opacity="0.5">
<path fill-rule="evenodd" clip-rule="evenodd" d="M449.5 42C442.596 42 437 36.4036 437 29.5C437 22.5964 442.596 17 449.5 17C456.404 17 462 22.5964 462 29.5C462 36.4036 456.404 42 449.5 42ZM450.041 26.3808C448.921 26.8464 446.683 27.8102 443.328 29.2721C442.783 29.4888 442.498 29.7008 442.472 29.908C442.428 30.2583 442.867 30.3962 443.464 30.5841C443.545 30.6096 443.629 30.6361 443.716 30.6641C444.303 30.8552 445.094 31.0787 445.505 31.0876C445.878 31.0956 446.294 30.9419 446.753 30.6265C449.888 28.5102 451.506 27.4405 451.608 27.4175C451.68 27.4012 451.779 27.3808 451.846 27.4406C451.914 27.5004 451.907 27.6137 451.9 27.6441C451.856 27.8293 450.135 29.4302 449.244 30.2586C448.966 30.5168 448.769 30.7 448.728 30.7419C448.638 30.8356 448.546 30.9242 448.458 31.0094C447.912 31.5358 447.502 31.9305 448.48 32.575C448.951 32.8847 449.327 33.1409 449.702 33.3964C450.112 33.6755 450.52 33.9538 451.049 34.3004C451.184 34.3888 451.313 34.4805 451.438 34.5698C451.915 34.9098 452.343 35.2153 452.873 35.1666C453.18 35.1383 453.498 34.849 453.659 33.9865C454.04 31.948 454.79 27.5313 454.963 25.7113C454.978 25.5518 454.959 25.3478 454.944 25.2582C454.929 25.1686 454.897 25.041 454.78 24.9465C454.642 24.8346 454.429 24.811 454.334 24.8126C453.901 24.8203 453.237 25.0512 450.041 26.3808Z" fill="#747F94"/>
</g>
<g opacity="0.5" clip-path="url(#clip0_743_864)">
<mask id="mask0_743_864" style="mask-type:luminance" maskUnits="userSpaceOnUse" x="560" y="17" width="25" height="25">
<path d="M578.939 17H566.061C562.713 17 560 19.7134 560 23.0606V35.9394C560 39.2866 562.713 42 566.061 42H578.939C582.287 42 585 39.2866 585 35.9394V23.0606C585 19.7134 582.287 17 578.939 17Z" fill="white"/>
</mask>
<g mask="url(#mask0_743_864)">
<path fill-rule="evenodd" clip-rule="evenodd" d="M597.5 17C597.5 23.9036 591.904 29.5 585 29.5V42H560V17L572.5 17C572.5 10.0964 578.096 4.5 585 4.5C591.904 4.5 597.5 10.0964 597.5 17ZM579.693 28.3208C579.652 29.3289 579.448 30.0957 579.081 30.596C578.669 31.1583 578.169 31.4995 577.056 31.6645L580.076 35.75H576.568L573.829 31.6836H568.057V35.75H564.924V23.2511H574.173H575.949V23.25C576.642 23.25 577.205 23.3252 577.656 23.4565C578.106 23.6069 578.482 23.8314 578.819 24.1502C579.138 24.4869 579.362 24.8617 579.494 25.2927C579.625 25.7237 579.701 26.286 579.701 26.9977V27.9348C579.701 28.0672 579.698 28.1958 579.693 28.3208ZM568.057 28.9293H575.442V28.9304C575.874 28.9304 576.174 28.8743 576.324 28.743C576.475 28.6116 576.568 28.3681 576.568 27.9932V26.9438C576.568 26.588 576.475 26.3444 576.324 26.2131C576.174 26.0818 575.874 26.0066 575.442 26.0066H568.057V28.9293Z" fill="#747F94"/>
</g>
</g>
<g clip-path="url(#clip1_743_864)">
<mask id="mask1_743_864" style="mask-type:luminance" maskUnits="userSpaceOnUse" x="560" y="77" width="25" height="25">
<path d="M578.939 77H566.061C562.713 77 560 79.7134 560 83.0606V95.9394C560 99.2866 562.713 102 566.061 102H578.939C582.287 102 585 99.2866 585 95.9394V83.0606C585 79.7134 582.287 77 578.939 77Z" fill="white"/>
</mask>
<g mask="url(#mask1_743_864)">
<path d="M585 77H560V102H585V77Z" fill="#100943"/>
<path d="M585 89.5C591.904 89.5 597.5 83.9036 597.5 77C597.5 70.0964 591.904 64.5 585 64.5C578.096 64.5 572.5 70.0964 572.5 77C572.5 83.9036 578.096 89.5 585 89.5Z" fill="#ED143B"/>
<path d="M575.443 88.9293H568.057V86.0066H575.443C575.874 86.0066 576.174 86.0818 576.324 86.2131C576.475 86.3444 576.568 86.588 576.568 86.9438V87.9932C576.568 88.3681 576.475 88.6116 576.324 88.743C576.174 88.8743 575.874 88.9304 575.443 88.9304V88.9293ZM575.949 83.2511H564.924V95.75H568.057V91.6836H573.829L576.568 95.75H580.076L577.056 91.6645C578.169 91.4995 578.669 91.1583 579.082 90.596C579.494 90.0337 579.701 89.1347 579.701 87.9348V86.9977C579.701 86.286 579.625 85.7237 579.494 85.2927C579.362 84.8617 579.138 84.4869 578.819 84.1502C578.482 83.8314 578.106 83.6069 577.656 83.4565C577.205 83.3252 576.642 83.25 575.949 83.25V83.2511Z" fill="white"/>
</g>
</g>
<path fill-rule="evenodd" clip-rule="evenodd" d="M449.5 102C442.596 102 437 96.4036 437 89.5C437 82.5964 442.596 77 449.5 77C456.404 77 462 82.5964 462 89.5C462 96.4036 456.404 102 449.5 102ZM450.041 86.3808C448.921 86.8464 446.683 87.8102 443.328 89.2721C442.783 89.4888 442.498 89.7008 442.472 89.908C442.428 90.2583 442.867 90.3962 443.464 90.5841C443.545 90.6096 443.629 90.6361 443.716 90.6641C444.303 90.8552 445.094 91.0787 445.505 91.0876C445.878 91.0956 446.294 90.9419 446.753 90.6265C449.888 88.5102 451.506 87.4405 451.608 87.4175C451.68 87.4012 451.779 87.3808 451.846 87.4406C451.914 87.5004 451.907 87.6137 451.9 87.6441C451.856 87.8293 450.135 89.4302 449.244 90.2586C448.966 90.5168 448.769 90.7 448.728 90.7419C448.638 90.8356 448.546 90.9242 448.458 91.0094C447.912 91.5358 447.502 91.9305 448.48 92.575C448.951 92.8847 449.327 93.1409 449.702 93.3964C450.112 93.6755 450.52 93.9538 451.049 94.3004C451.184 94.3888 451.313 94.4805 451.438 94.5698C451.915 94.9098 452.343 95.2153 452.873 95.1666C453.18 95.1383 453.498 94.849 453.659 93.9865C454.04 91.948 454.79 87.5313 454.963 85.7113C454.978 85.5518 454.959 85.3478 454.944 85.2582C454.929 85.1686 454.897 85.041 454.78 84.9465C454.642 84.8346 454.429 84.811 454.334 84.8126C453.901 84.8203 453.237 85.0512 450.041 86.3808Z" fill="#0088CC"/>
<path opacity="0.5" fill-rule="evenodd" clip-rule="evenodd" d="M518.25 20.5938C515.906 18.25 512.781 17 509.5 17C502.625 17 497 22.625 497 29.5C497 31.6875 497.625 33.875 498.719 35.75L497 42L503.563 40.2812C505.438 41.2188 507.469 41.8438 509.5 41.8438C516.375 41.8438 522 36.2188 522 29.3437C522 26.0625 520.594 22.9375 518.25 20.5938ZM509.5 39.8125C507.625 39.8125 505.75 39.3438 504.188 38.4063L503.875 38.25L499.969 39.3437L501.063 35.5938L500.75 35.125C499.656 33.4062 499.187 31.5313 499.187 29.6563C499.187 24.0313 503.875 19.3438 509.5 19.3438C512.312 19.3438 514.813 20.4375 516.844 22.3125C518.875 24.3437 519.813 26.8438 519.813 29.6563C519.813 35.125 515.281 39.8125 509.5 39.8125ZM515.125 32C514.813 31.8438 513.25 31.0625 512.938 31.0625C512.625 30.9062 512.469 30.9063 512.312 31.2188C512.156 31.5313 511.531 32.1562 511.375 32.4687C511.219 32.625 511.062 32.625 510.75 32.625C510.437 32.4688 509.5 32.1562 508.25 31.0625C507.313 30.2812 506.688 29.1875 506.531 28.875C506.375 28.5625 506.531 28.4062 506.688 28.25C506.844 28.0938 507 27.9375 507.156 27.7812C507.312 27.625 507.313 27.4688 507.469 27.3125C507.625 27.1563 507.469 27 507.469 26.8438C507.469 26.6875 506.844 25.125 506.531 24.5C506.375 24.0313 506.063 24.0312 505.906 24.0312C505.75 24.0312 505.594 24.0312 505.281 24.0312C505.125 24.0312 504.812 24.0312 504.5 24.3437C504.187 24.6562 503.406 25.4375 503.406 27C503.406 28.5625 504.5 29.9688 504.656 30.2812C504.812 30.4375 506.844 33.7188 509.969 34.9688C512.625 36.0625 513.094 35.75 513.719 35.75C514.344 35.75 515.594 34.9688 515.75 34.3438C516.062 33.5625 516.063 32.9375 515.906 32.9375C515.75 32.1563 515.438 32.1563 515.125 32Z" fill="#747F94"/>
<path fill-rule="evenodd" clip-rule="evenodd" d="M518.25 80.5938C515.906 78.25 512.781 77 509.5 77C502.625 77 497 82.625 497 89.5C497 91.6875 497.625 93.875 498.719 95.75L497 102L503.563 100.281C505.438 101.219 507.469 101.844 509.5 101.844C516.375 101.844 522 96.2188 522 89.3437C522 86.0625 520.594 82.9375 518.25 80.5938ZM509.5 99.8125C507.625 99.8125 505.75 99.3438 504.188 98.4063L503.875 98.25L499.969 99.3437L501.063 95.5938L500.75 95.125C499.656 93.4062 499.187 91.5313 499.187 89.6563C499.187 84.0313 503.875 79.3438 509.5 79.3438C512.312 79.3438 514.813 80.4375 516.844 82.3125C518.875 84.3437 519.813 86.8438 519.813 89.6563C519.813 95.125 515.281 99.8125 509.5 99.8125ZM515.125 92C514.813 91.8438 513.25 91.0625 512.938 91.0625C512.625 90.9062 512.469 90.9063 512.312 91.2188C512.156 91.5313 511.531 92.1562 511.375 92.4687C511.219 92.625 511.062 92.625 510.75 92.625C510.437 92.4688 509.5 92.1562 508.25 91.0625C507.313 90.2812 506.688 89.1875 506.531 88.875C506.375 88.5625 506.531 88.4062 506.688 88.25C506.844 88.0938 507 87.9375 507.156 87.7812C507.312 87.625 507.313 87.4688 507.469 87.3125C507.625 87.1563 507.469 87 507.469 86.8438C507.469 86.6875 506.844 85.125 506.531 84.5C506.375 84.0313 506.063 84.0312 505.906 84.0312C505.75 84.0312 505.594 84.0312 505.281 84.0312C505.125 84.0312 504.812 84.0312 504.5 84.3437C504.187 84.6562 503.406 85.4375 503.406 87C503.406 88.5625 504.5 89.9688 504.656 90.2812C504.812 90.4375 506.844 93.7188 509.969 94.9688C512.625 96.0625 513.094 95.75 513.719 95.75C514.344 95.75 515.594 94.9688 515.75 94.3438C516.062 93.5625 516.063 92.9375 515.906 92.9375C515.75 92.1563 515.438 92.1563 515.125 92Z" fill="#25D366"/>
<g opacity="0.5" clip-path="url(#clip2_743_864)">
<path d="M632.911 31.9107C630.946 33.9375 630.804 36.4643 630.634 42C635.795 42 639.357 41.9821 641.196 40.1964C642.982 38.3571 643 34.625 643 29.6339C637.464 29.8125 634.938 29.9464 632.911 31.9107ZM618 29.6339C618 34.625 618.018 38.3571 619.804 40.1964C621.643 41.9821 625.205 42 630.366 42C630.188 36.4643 630.054 33.9375 628.089 31.9107C626.063 29.9464 623.536 29.8036 618 29.6339ZM630.366 17C625.214 17 621.643 17.0179 619.804 18.8036C618.018 20.6429 618 24.375 618 29.3661C623.536 29.1875 626.063 29.0536 628.089 27.0893C630.054 25.0625 630.196 22.5357 630.366 17ZM632.911 27.0893C630.946 25.0625 630.804 22.5357 630.634 17C635.795 17 639.357 17.0179 641.196 18.8036C642.982 20.6429 643 24.375 643 29.3661C637.464 29.1875 634.938 29.0536 632.911 27.0893Z" fill="#747F94"/>
</g>
<g clip-path="url(#clip3_743_864)">
<path d="M632.911 91.9107C630.946 93.9375 630.804 96.4643 630.634 102C635.795 102 639.357 101.982 641.196 100.196C642.982 98.3571 643 94.625 643 89.6339C637.464 89.8125 634.938 89.9464 632.911 91.9107ZM618 89.6339C618 94.625 618.018 98.3571 619.804 100.196C621.643 101.982 625.205 102 630.366 102C630.188 96.4643 630.054 93.9375 628.089 91.9107C626.063 89.9464 623.536 89.8036 618 89.6339ZM630.366 77C625.214 77 621.643 77.0179 619.804 78.8036C618.018 80.6429 618 84.375 618 89.3661C623.536 89.1875 626.063 89.0536 628.089 87.0893C630.054 85.0625 630.196 82.5357 630.366 77ZM632.911 87.0893C630.946 85.0625 630.804 82.5357 630.634 77C635.795 77 639.357 77.0179 641.196 78.8036C642.982 80.6429 643 84.375 643 89.3661C637.464 89.1875 634.938 89.0536 632.911 87.0893Z" fill="#2C3036"/>
</g>
<g opacity="0.5" clip-path="url(#clip4_743_864)">
<path d="M691.5 17C684.596 17 679 22.5964 679 29.5C679 36.4036 684.596 42 691.5 42C698.404 42 704 36.4036 704 29.5C704 22.5964 698.404 17 691.5 17ZM691.351 22.3644C691.391 22.1925 691.548 22.1156 691.575 22.1019C691.647 22.0664 691.711 22.0611 691.84 22.05C691.84 22.05 691.951 22.0428 692.048 22.0456C695.353 22.1342 698.208 24.4806 698.619 28.035C698.646 28.2725 698.693 28.5533 698.707 29.1317C698.71 29.2475 698.712 29.4578 698.569 29.5933C698.505 29.6544 698.432 29.6817 698.38 29.695C698.309 29.6792 698.196 29.6431 698.11 29.5483C697.993 29.42 697.987 29.2531 697.984 29.1958C697.949 28.5506 697.858 27.9058 697.709 27.2767C697.16 24.9442 695.042 23.1033 692.657 22.8367C692.38 22.8056 692.102 22.775 691.823 22.7622C691.634 22.7536 691.446 22.7186 691.373 22.5919C691.319 22.4989 691.345 22.3897 691.351 22.3644ZM692.649 24.5608C692.643 24.5597 692.51 24.5589 692.342 24.5147C692.209 24.48 692.106 24.4514 692.027 24.3606C691.953 24.2744 691.933 24.1689 691.929 24.09C691.946 24.0292 691.982 23.9378 692.065 23.8711C692.181 23.7769 692.328 23.7825 692.397 23.7858C694.345 23.8831 695.499 25.0111 695.499 25.0111C695.599 25.1089 696.018 25.5272 696.382 26.2058C696.821 27.0242 696.948 27.7861 696.988 28.2528C696.998 28.3592 696.996 28.5169 696.922 28.6792C696.892 28.7458 696.858 28.8194 696.778 28.8775C696.68 28.9481 696.574 28.9533 696.529 28.9528C696.479 28.9339 696.416 28.9017 696.361 28.8444C696.289 28.7706 696.257 28.69 696.253 28.6567C696.15 27.7625 696.01 26.8892 695.46 26.1339C694.762 25.1756 693.773 24.7508 692.649 24.5608ZM695.197 27.9586C695.178 28.2178 695.073 28.3133 695.046 28.3358C694.968 28.4022 694.877 28.4206 694.822 28.4267C694.758 28.4142 694.668 28.3858 694.594 28.3133C694.486 28.2058 694.472 28.0581 694.466 28.0097C694.441 27.7856 694.28 27.0683 693.913 26.7375C693.683 26.5306 693.366 26.4214 692.903 26.3542C692.717 26.3272 692.536 26.2894 692.471 26.1661C692.421 26.0719 692.455 25.9656 692.465 25.9319C692.541 25.6864 692.839 25.6156 692.863 25.6106C693.061 25.6383 694.325 25.8331 694.903 26.7731C695.216 27.2817 695.207 27.8139 695.197 27.9586ZM698.678 34.9214C698.204 35.4989 697.746 36.1069 697.184 36.5903C696.702 37.005 696.071 37.055 695.444 36.7986C690.289 34.6939 686.591 31.1156 684.459 25.9511C684.405 25.8217 684.362 25.6878 684.316 25.5553C683.917 24.3961 684.037 23.9458 684.988 23.1661C685.299 22.9111 685.632 22.6803 685.969 22.4611C686.537 22.0928 687.161 22.0972 687.589 22.6139C688.302 23.4731 688.982 24.3719 689.567 25.3211C690.004 26.0297 689.848 26.4308 689.207 26.9644C689.059 27.0878 688.9 27.1983 688.752 27.3214C688.381 27.6294 688.224 27.9967 688.388 28.4839C689.105 30.62 690.601 31.9706 692.686 32.6881C692.929 32.7714 693.308 32.5842 693.573 32.4336C693.771 32.3211 693.887 32.065 694.041 31.8733C694.455 31.3553 695.125 31.1361 695.678 31.4869C696.666 32.1142 697.614 32.8108 698.543 33.5244C698.742 33.6775 698.79 34.0267 698.898 34.2625C698.811 34.5378 698.799 34.7742 698.678 34.9214Z" fill="#747F94"/>
</g>
<g clip-path="url(#clip5_743_864)">
<path d="M691.5 77C684.596 77 679 82.5964 679 89.5C679 96.4036 684.596 102 691.5 102C698.404 102 704 96.4036 704 89.5C704 82.5964 698.404 77 691.5 77ZM691.351 82.3644C691.391 82.1925 691.548 82.1156 691.575 82.1019C691.647 82.0664 691.711 82.0611 691.84 82.05C691.84 82.05 691.951 82.0428 692.048 82.0456C695.353 82.1342 698.208 84.4806 698.619 88.035C698.646 88.2725 698.693 88.5533 698.707 89.1317C698.71 89.2475 698.712 89.4578 698.569 89.5933C698.505 89.6544 698.432 89.6817 698.38 89.695C698.309 89.6792 698.196 89.6431 698.11 89.5483C697.993 89.42 697.987 89.2531 697.984 89.1958C697.949 88.5506 697.858 87.9058 697.709 87.2767C697.16 84.9442 695.042 83.1033 692.657 82.8367C692.38 82.8056 692.102 82.775 691.823 82.7622C691.634 82.7536 691.446 82.7186 691.373 82.5919C691.319 82.4989 691.345 82.3897 691.351 82.3644ZM692.649 84.5608C692.643 84.5597 692.51 84.5589 692.342 84.5147C692.209 84.48 692.106 84.4514 692.027 84.3606C691.953 84.2744 691.933 84.1689 691.929 84.09C691.946 84.0292 691.982 83.9378 692.065 83.8711C692.181 83.7769 692.328 83.7825 692.397 83.7858C694.345 83.8831 695.499 85.0111 695.499 85.0111C695.599 85.1089 696.018 85.5272 696.382 86.2058C696.821 87.0242 696.948 87.7861 696.988 88.2528C696.998 88.3592 696.996 88.5169 696.922 88.6792C696.892 88.7458 696.858 88.8194 696.778 88.8775C696.68 88.9481 696.574 88.9533 696.529 88.9528C696.479 88.9339 696.416 88.9017 696.361 88.8444C696.289 88.7706 696.257 88.69 696.253 88.6567C696.15 87.7625 696.01 86.8892 695.46 86.1339C694.762 85.1756 693.773 84.7508 692.649 84.5608ZM695.197 87.9586C695.178 88.2178 695.073 88.3133 695.046 88.3358C694.968 88.4022 694.877 88.4206 694.822 88.4267C694.758 88.4142 694.668 88.3858 694.594 88.3133C694.486 88.2058 694.472 88.0581 694.466 88.0097C694.441 87.7856 694.28 87.0683 693.913 86.7375C693.683 86.5306 693.366 86.4214 692.903 86.3542C692.717 86.3272 692.536 86.2894 692.471 86.1661C692.421 86.0719 692.455 85.9656 692.465 85.9319C692.541 85.6864 692.839 85.6156 692.863 85.6106C693.061 85.6383 694.325 85.8331 694.903 86.7731C695.216 87.2817 695.207 87.8139 695.197 87.9586ZM698.678 94.9214C698.204 95.4989 697.746 96.1069 697.184 96.5903C696.702 97.005 696.071 97.055 695.444 96.7986C690.289 94.6939 686.591 91.1156 684.459 85.9511C684.405 85.8217 684.362 85.6878 684.316 85.5553C683.917 84.3961 684.037 83.9458 684.988 83.1661C685.299 82.9111 685.632 82.6803 685.969 82.4611C686.537 82.0928 687.161 82.0972 687.589 82.6139C688.302 83.4731 688.982 84.3719 689.567 85.3211C690.004 86.0297 689.848 86.4308 689.207 86.9644C689.059 87.0878 688.9 87.1983 688.752 87.3214C688.381 87.6294 688.224 87.9967 688.388 88.4839C689.105 90.62 690.601 91.9706 692.686 92.6881C692.929 92.7714 693.308 92.5842 693.573 92.4336C693.771 92.3211 693.887 92.065 694.041 91.8733C694.455 91.3553 695.125 91.1361 695.678 91.4869C696.666 92.1142 697.614 92.8108 698.543 93.5244C698.742 93.6775 698.79 94.0267 698.898 94.2625C698.811 94.5378 698.799 94.7742 698.678 94.9214Z" fill="#7C2FB9"/>
</g>
<g opacity="0.5">
<path fill-rule="evenodd" clip-rule="evenodd" d="M197 29.5C197 36.4036 202.596 42 209.5 42C216.404 42 222 36.4036 222 29.5C222 22.5964 216.404 17 209.5 17C202.596 17 197 22.5964 197 29.5ZM215.343 23.25L210.689 28.5429L215.75 35.75H212.028L208.62 30.8967L204.353 35.75H203.25L208.13 30.1996L203.25 23.25H206.972L210.199 27.8457L214.24 23.25H215.343Z" fill="#747F94"/>
<path fill-rule="evenodd" clip-rule="evenodd" d="M204.75 24.0623H206.444L214.24 34.9746H212.547L204.75 24.0623Z" fill="#747F94"/>
</g>
<path d="M197 89.5C197 96.4036 202.596 102 209.5 102C216.404 102 222 96.4036 222 89.5C222 82.5964 216.404 77 209.5 77C202.596 77 197 82.5964 197 89.5Z" fill="black"/>
<path d="M210.689 88.5429L215.343 83.25H214.24L210.199 87.8457L206.972 83.25H203.25L208.13 90.1996L203.25 95.75H204.353L208.62 90.8967L212.028 95.75H215.75L210.689 88.5429H210.689ZM209.179 90.2608L208.684 89.5688L204.75 84.0623H206.444L209.619 88.5062L210.113 89.1982L214.24 94.9746H212.547L209.179 90.2611V90.2608Z" fill="white"/>
<g opacity="0.5">
<path d="M738 29.5C738 22.5964 743.596 17 750.5 17C757.404 17 763 22.5964 763 29.5C763 36.4036 757.404 42 750.5 42C743.596 42 738 36.4036 738 29.5Z" fill="#747F94"/>
<path d="M749.327 28.1722V27.6856C749.16 27.6633 748.991 27.6494 748.816 27.6494C746.729 27.6467 745.031 29.3458 745.031 31.437C745.031 32.7189 745.67 33.8536 746.648 34.5404C746.018 33.8647 745.631 32.9553 745.631 31.9598C745.631 29.8991 747.282 28.2195 749.327 28.1722Z" fill="white" fill-opacity="0.5"/>
<path d="M749.418 33.6894C750.349 33.6894 751.111 32.9469 751.144 32.0236L751.147 23.7728H752.653C752.622 23.6032 752.605 23.428 752.605 23.25H750.549L750.547 31.5008C750.513 32.4241 749.752 33.1666 748.821 33.1666C748.532 33.1666 748.26 33.0943 748.018 32.9663C748.329 33.4029 748.841 33.6894 749.418 33.6894Z" fill="white" fill-opacity="0.5"/>
<path d="M755.467 26.5727V26.1138C754.892 26.1138 754.359 25.9442 753.909 25.6494C754.309 26.1083 754.851 26.442 755.467 26.5727Z" fill="white" fill-opacity="0.5"/>
<path d="M753.909 25.6495C753.47 25.1462 753.206 24.4899 753.206 23.7725H752.656C752.797 24.5567 753.264 25.2296 753.909 25.6495Z" fill="white" fill-opacity="0.5"/>
<path d="M748.819 29.704C747.866 29.704 747.09 30.4799 747.09 31.4337C747.09 32.0983 747.468 32.6767 748.018 32.966C747.813 32.6823 747.69 32.3347 747.69 31.9565C747.69 31.0027 748.466 30.2268 749.419 30.2268C749.597 30.2268 749.769 30.2574 749.93 30.3074V28.2051C749.763 28.1829 749.594 28.1689 749.419 28.1689C749.388 28.1689 749.36 28.1717 749.33 28.1717V29.7846C749.166 29.7346 748.996 29.704 748.819 29.704Z" fill="white" fill-opacity="0.5"/>
<path d="M755.467 26.5732V28.1722C754.401 28.1722 753.411 27.8302 752.606 27.2518V31.437C752.606 33.5254 750.908 35.2273 748.818 35.2273C748.013 35.2273 747.262 34.9715 746.648 34.5404C747.34 35.2829 748.327 35.7501 749.419 35.7501C751.505 35.7501 753.206 34.051 753.206 31.9598V27.7746C754.012 28.353 755.001 28.695 756.068 28.695V26.6372C755.859 26.6372 755.659 26.615 755.467 26.5732Z" fill="white" fill-opacity="0.5"/>
<path d="M752.605 31.4365V27.2513C753.411 27.8297 754.4 28.1718 755.467 28.1718V26.5728C754.85 26.4421 754.309 26.1084 753.909 25.6495C753.264 25.2296 752.8 24.5567 752.653 23.7725H751.147L751.144 32.0233C751.111 32.9465 750.349 33.689 749.418 33.689C748.841 33.689 748.332 33.4026 748.015 32.9688C747.465 32.6768 747.087 32.1012 747.087 31.4365C747.087 30.4827 747.863 29.7068 748.816 29.7068C748.993 29.7068 749.166 29.7374 749.327 29.7875V28.1746C747.282 28.2191 745.631 29.8987 745.631 31.9593C745.631 32.9549 746.018 33.8615 746.648 34.54C747.262 34.971 748.013 35.2269 748.818 35.2269C750.905 35.2269 752.605 33.525 752.605 31.4365Z" fill="white"/>
</g>
<path d="M738 89.5C738 82.5964 743.596 77 750.5 77C757.404 77 763 82.5964 763 89.5C763 96.4036 757.404 102 750.5 102C743.596 102 738 96.4036 738 89.5Z" fill="black"/>
<path d="M749.327 88.1722V87.6856C749.16 87.6633 748.991 87.6494 748.816 87.6494C746.729 87.6467 745.031 89.3458 745.031 91.437C745.031 92.7189 745.67 93.8536 746.648 94.5404C746.018 93.8647 745.631 92.9553 745.631 91.9598C745.631 89.8991 747.282 88.2195 749.327 88.1722Z" fill="#25F4EE"/>
<path d="M749.418 93.6894C750.349 93.6894 751.111 92.9469 751.144 92.0236L751.147 83.7728H752.653C752.622 83.6032 752.605 83.428 752.605 83.25H750.549L750.547 91.5008C750.513 92.4241 749.752 93.1666 748.821 93.1666C748.532 93.1666 748.26 93.0943 748.018 92.9663C748.329 93.4029 748.841 93.6894 749.418 93.6894Z" fill="#25F4EE"/>
<path d="M755.467 86.5727V86.1138C754.892 86.1138 754.359 85.9442 753.909 85.6494C754.309 86.1083 754.851 86.442 755.467 86.5727Z" fill="#25F4EE"/>
<path d="M753.909 85.6495C753.47 85.1462 753.206 84.4899 753.206 83.7725H752.656C752.797 84.5567 753.264 85.2296 753.909 85.6495Z" fill="#FE2C55"/>
<path d="M748.819 89.704C747.866 89.704 747.09 90.4799 747.09 91.4337C747.09 92.0983 747.468 92.6767 748.018 92.966C747.813 92.6823 747.69 92.3347 747.69 91.9565C747.69 91.0027 748.466 90.2268 749.419 90.2268C749.597 90.2268 749.769 90.2574 749.93 90.3074V88.2051C749.763 88.1829 749.594 88.1689 749.419 88.1689C749.388 88.1689 749.36 88.1717 749.33 88.1717V89.7846C749.166 89.7346 748.996 89.704 748.819 89.704Z" fill="#FE2C55"/>
<path d="M755.467 86.5732V88.1722C754.401 88.1722 753.411 87.8302 752.606 87.2518V91.437C752.606 93.5254 750.908 95.2273 748.818 95.2273C748.013 95.2273 747.262 94.9715 746.648 94.5404C747.34 95.2829 748.327 95.7501 749.419 95.7501C751.505 95.7501 753.206 94.051 753.206 91.9598V87.7746C754.012 88.353 755.001 88.695 756.068 88.695V86.6372C755.859 86.6372 755.659 86.615 755.467 86.5732Z" fill="#FE2C55"/>
<path d="M752.605 91.4365V87.2513C753.411 87.8297 754.4 88.1718 755.467 88.1718V86.5728C754.85 86.4421 754.309 86.1084 753.909 85.6495C753.264 85.2296 752.8 84.5567 752.653 83.7725H751.147L751.144 92.0233C751.111 92.9465 750.349 93.689 749.418 93.689C748.841 93.689 748.332 93.4026 748.015 92.9688C747.465 92.6768 747.087 92.1012 747.087 91.4365C747.087 90.4827 747.863 89.7068 748.816 89.7068C748.993 89.7068 749.166 89.7374 749.327 89.7875V88.1746C747.282 88.2191 745.631 89.8987 745.631 91.9593C745.631 92.9549 746.018 93.8615 746.648 94.54C747.262 94.971 748.013 95.2269 748.818 95.2269C750.905 95.2269 752.605 93.525 752.605 91.4365Z" fill="white"/>
<defs>
<clipPath id="clip0_743_864">
<rect width="25" height="25" fill="white" transform="translate(560 17)"/>
</clipPath>
<clipPath id="clip1_743_864">
<rect width="25" height="25" fill="white" transform="translate(560 77)"/>
</clipPath>
<clipPath id="clip2_743_864">
<rect width="25" height="25" fill="white" transform="translate(618 17)"/>
</clipPath>
<clipPath id="clip3_743_864">
<rect width="25" height="25" fill="white" transform="translate(618 77)"/>
</clipPath>
<clipPath id="clip4_743_864">
<rect width="25" height="25" fill="white" transform="translate(679 17)"/>
</clipPath>
<clipPath id="clip5_743_864">
<rect width="25" height="25" fill="white" transform="translate(679 77)"/>
</clipPath>
</defs>
</svg>
