<svg width="16" height="18" viewBox="0 0 16 18" fill="none" xmlns="http://www.w3.org/2000/svg">
<path d="M8 15.5C7.88482 15.5 7.76964 15.4631 7.67321 15.3893C7.38071 15.164 0.5 11.2715 0.5 6.77984C0.5 4.42004 2.42268 2.5 4.78571 2.5C7.14875 2.5 8.75 4.47354 8.75 6.83333C8.75 7.19444 8.46783 7.55556 8 7.55556C7.53217 7.55556 7.25 7.19444 7.25 6.83333C7.25 5.06309 6.55839 3.94444 4.78571 3.94444C3.01304 3.94444 2 5.00959 2 6.77984C2 10.2395 6.64839 12.9503 8 14.0556C9.35107 12.9503 14 10.2358 14 6.77984C14 5.00959 12.987 3.94444 11.2143 3.94444C10.7348 3.94444 10.2736 4.04716 9.84339 4.24938C9.57554 4.37564 8.97348 4.41928 8.75 3.94444C8.54615 3.51131 9.11911 3.03337 9.38643 2.90712C9.96071 2.63695 10.5757 2.5 11.2143 2.5C13.5773 2.5 15.5 4.42004 15.5 6.77984C15.5 11.2715 8.61929 15.164 8.32679 15.3893C8.23036 15.4631 8.11518 15.5 8 15.5Z" fill="#AAB0B9"/>
</svg>
