<svg width="50" height="150" viewBox="0 0 50 150" fill="none" xmlns="http://www.w3.org/2000/svg">
<g opacity="0.5">
<path d="M16 25.6011C16 24.9215 16.5686 24.3706 17.2699 24.3706C17.9713 24.3706 18.5399 24.9215 18.5399 25.601V32.7696C18.5399 33.4491 17.9713 34 17.2699 34C16.5686 34 16 33.4491 16 32.7696V25.6011Z" fill="black"/>
<path d="M23.7301 21.3213C23.7301 20.6418 24.2986 20.0909 25 20.0909C25.7014 20.0909 26.2699 20.6418 26.2699 21.3213V32.7696C26.2699 33.4491 25.7014 34 25 34C24.2986 34 23.7301 33.4491 23.7301 32.7696V21.3213Z" fill="black"/>
<path d="M31.4601 17.2304C31.4601 16.5509 32.0287 16 32.7301 16C33.4314 16 34 16.5509 34 17.2304V32.7696C34 33.4491 33.4314 34 32.7301 34C32.0287 34 31.4601 33.4491 31.4601 32.7696V17.2304Z" fill="black"/>
</g>
<g opacity="0.7">
<path d="M16 75.6011C16 74.9215 16.5686 74.3706 17.2699 74.3706C17.9713 74.3706 18.5399 74.9215 18.5399 75.601V82.7696C18.5399 83.4491 17.9713 84 17.2699 84C16.5686 84 16 83.4491 16 82.7696V75.6011Z" fill="black"/>
<path d="M23.7301 71.3213C23.7301 70.6418 24.2986 70.0909 25 70.0909C25.7014 70.0909 26.2699 70.6418 26.2699 71.3213V82.7696C26.2699 83.4491 25.7014 84 25 84C24.2986 84 23.7301 83.4491 23.7301 82.7696V71.3213Z" fill="black"/>
<path d="M31.4601 67.2304C31.4601 66.5509 32.0287 66 32.7301 66C33.4314 66 34 66.5509 34 67.2304V82.7696C34 83.4491 33.4314 84 32.7301 84C32.0287 84 31.4601 83.4491 31.4601 82.7696V67.2304Z" fill="black"/>
</g>
<path d="M16 125.601C16 124.922 16.5686 124.371 17.2699 124.371C17.9713 124.371 18.5399 124.922 18.5399 125.601V132.77C18.5399 133.449 17.9713 134 17.2699 134C16.5686 134 16 133.449 16 132.77V125.601Z" fill="black"/>
<path d="M23.7301 121.321C23.7301 120.642 24.2986 120.091 25 120.091C25.7014 120.091 26.2699 120.642 26.2699 121.321V132.77C26.2699 133.449 25.7014 134 25 134C24.2986 134 23.7301 133.449 23.7301 132.77V121.321Z" fill="black"/>
<path d="M31.4601 117.23C31.4601 116.551 32.0287 116 32.7301 116C33.4314 116 34 116.551 34 117.23V132.77C34 133.449 33.4314 134 32.7301 134C32.0287 134 31.4601 133.449 31.4601 132.77V117.23Z" fill="black"/>
</svg>
