<svg width="13" height="16" viewBox="0 0 13 16" fill="none" xmlns="http://www.w3.org/2000/svg">
<g clip-path="url(#clip0_554_500)">
<path d="M2.95455 6.42462C2.95455 6.76448 3.21911 7.04 3.54546 7.04C3.87181 7.04 4.13636 6.76448 4.13636 6.42462V5.76V4.48V3.3536C4.13636 2.0992 4.82182 1.2928 5.90909 1.28C6.99636 1.2672 7.68182 2.0608 7.68182 3.3536V4.48V5.76V6.42462C7.68182 6.76448 7.94638 7.04 8.27273 7.04C8.59908 7.04 8.86364 6.76448 8.86364 6.42462V5.76V4.48V3.3536C8.86364 1.3312 7.72909 0.0384 5.90909 0C4.08909 0.0384 2.95455 1.3312 2.95455 3.3536V4.48V5.76V6.42462Z" fill="white"/>
<path d="M2.95455 4.48H2.36364C1.05824 4.48 0 5.58207 0 6.94154V13.5385C0 14.8979 1.05824 16 2.36364 16H4.98354C5.32295 16 5.59809 15.7135 5.59809 15.36C5.59809 15.0065 5.32295 14.72 4.98354 14.72H3.38995C2.17044 14.72 1.18182 13.6904 1.18182 12.4204V7.60616C1.18182 6.58655 1.9755 5.76 2.95455 5.76V4.48Z" fill="white"/>
<path d="M4.13636 4.48V5.76H7.68182V4.48H4.13636Z" fill="white"/>
<path d="M8.86364 4.48V5.76H9.24083C10.0116 5.76 10.6364 6.41068 10.6364 7.21333V8.05128C10.6364 8.39115 10.9009 8.66667 11.2273 8.66667C11.5536 8.66667 11.8182 8.39115 11.8182 8.05128V6.57333C11.8182 5.41722 10.9182 4.48 9.80811 4.48H8.86364Z" fill="white"/>
<path fill-rule="evenodd" clip-rule="evenodd" d="M9.5 16C11.433 16 13 14.433 13 12.5C13 10.567 11.433 9 9.5 9C7.567 9 6 10.567 6 12.5C6 14.433 7.567 16 9.5 16ZM10.9125 11.6522C11.0431 11.4865 11.0255 11.2371 10.873 11.0951C10.7205 10.9531 10.491 10.9723 10.3603 11.138L9.21039 12.9979L8.63973 12.212C8.50904 12.0464 8.27947 12.0272 8.12699 12.1692C7.97451 12.3112 7.95685 12.5606 8.08755 12.7262L8.9343 13.862C9.00338 13.9496 9.10424 14 9.21039 14C9.31654 14 9.4174 13.9496 9.48648 13.862L10.9125 11.6522Z" fill="white"/>
</g>
<defs>
<clipPath id="clip0_554_500">
<rect width="13" height="16" fill="white"/>
</clipPath>
</defs>
</svg>
