<svg width="16" height="16" viewBox="0 0 16 16" fill="none" xmlns="http://www.w3.org/2000/svg">
<g clip-path="url(#clip0_720_801)">
<path fill-rule="evenodd" clip-rule="evenodd" d="M3.20184 1.97117C3.20184 0.882521 4.08436 0 5.17301 0H5.43513C6.60009 0 7.6318 0.570546 8.26606 1.44745C8.90032 0.570546 9.93203 0 11.097 0H11.3591C12.4478 0 13.3303 0.882521 13.3303 1.97117C13.3303 2.60099 13.1375 3.18578 12.8076 3.66972L13.0597 3.66972C13.383 3.66972 13.6606 3.66971 13.8881 3.6862C14.1258 3.70343 14.3661 3.74145 14.5981 3.8486C14.8563 3.96786 15.0891 4.14774 15.2597 4.38408C15.4244 4.61228 15.484 4.85617 15.5095 5.0809C15.5322 5.28136 15.5322 5.51977 15.5321 5.76827V5.82806C15.5322 6.07656 15.5322 6.31497 15.5095 6.51543C15.484 6.74016 15.4244 6.98405 15.2597 7.21225C15.1345 7.38569 14.9758 7.52872 14.7982 7.6397V10.25C14.7982 11.42 14.7982 12.3649 14.6982 13.1085C14.5943 13.8813 14.3717 14.5348 13.8523 15.0541C13.3329 15.5735 12.6795 15.7962 11.9067 15.9001C11.1631 16 10.2182 16 9.04818 16H7.48394C6.31393 16 5.36901 16 4.62542 15.9001C3.85265 15.7962 3.19919 15.5735 2.67981 15.0541C2.16043 14.5348 1.93779 13.8813 1.83389 13.1085C1.73392 12.3649 1.73393 11.42 1.73395 10.25L1.73395 7.6397C1.5563 7.52872 1.39759 7.38569 1.27242 7.21225C1.10774 6.98405 1.0481 6.74016 1.02264 6.51543C0.999932 6.31498 0.999967 6.07657 1 5.82808C1 5.81812 1.00001 5.80815 1.00001 5.79817C1.00001 5.78818 1 5.77821 1 5.76825C0.999967 5.51976 0.999932 5.28135 1.02264 5.0809C1.0481 4.85617 1.10774 4.61228 1.27242 4.38408C1.44299 4.14774 1.67583 3.96786 1.93404 3.8486C2.16602 3.74145 2.40637 3.70343 2.64402 3.6862C2.87153 3.66971 3.14907 3.66972 3.47247 3.66972L3.7245 3.66972C3.39466 3.18578 3.20184 2.60099 3.20184 1.97117ZM6.2215 3.66972H7.60551V3.49148C7.60551 2.29281 6.6338 1.3211 5.43513 1.3211H5.17301C4.81399 1.3211 4.52294 1.61215 4.52294 1.97117C4.52294 2.90925 5.28341 3.66972 6.2215 3.66972ZM8.92661 3.49148V3.66972H10.3106C11.2487 3.66972 12.0092 2.90925 12.0092 1.97117C12.0092 1.61215 11.7181 1.3211 11.3591 1.3211H11.097C9.89832 1.3211 8.92661 2.29281 8.92661 3.49148ZM3.49542 4.99083C3.14269 4.99083 2.91352 4.99123 2.73955 5.00385C2.57036 5.01611 2.51147 5.0371 2.48799 5.04795C2.41731 5.08059 2.37342 5.11934 2.34926 5.14983C2.34612 5.16043 2.34046 5.18444 2.33534 5.22962C2.32209 5.34661 2.32111 5.50864 2.32111 5.79817C2.32111 6.08769 2.32209 6.24972 2.33534 6.36671C2.34046 6.41189 2.34612 6.4359 2.34926 6.4465C2.37342 6.47699 2.41731 6.51574 2.48799 6.54838C2.51147 6.55923 2.57036 6.58022 2.73955 6.59248C2.91352 6.6051 3.14269 6.6055 3.49542 6.6055H13.0367C13.3894 6.6055 13.6186 6.6051 13.7926 6.59248C13.9618 6.58022 14.0206 6.55923 14.0441 6.54838C14.1148 6.51574 14.1587 6.47699 14.1829 6.4465C14.186 6.4359 14.1917 6.41189 14.1968 6.36671C14.21 6.24972 14.211 6.08769 14.211 5.79817C14.211 5.50864 14.21 5.34661 14.1968 5.22962C14.1917 5.18444 14.186 5.16043 14.1829 5.14983C14.1587 5.11934 14.1148 5.08059 14.0441 5.04795C14.0206 5.0371 13.9618 5.01611 13.7926 5.00385C13.6186 4.99123 13.3894 4.99083 13.0367 4.99083H3.49542ZM7.60551 7.92661H3.47246C3.32345 7.92661 3.18418 7.92661 3.05505 7.925V10.2018C3.05505 11.4315 3.05645 12.2872 3.14321 12.9325C3.22741 13.5588 3.38096 13.887 3.61397 14.12C3.84697 14.353 4.17518 14.5065 4.80145 14.5907C5.44673 14.6775 6.30249 14.6789 7.53212 14.6789H7.60551V7.92661ZM8.92661 14.6789V7.92661H13.0597C13.2087 7.92661 13.3479 7.92661 13.4771 7.925V10.2018C13.4771 11.4315 13.4757 12.2872 13.3889 12.9325C13.3047 13.5588 13.1512 13.887 12.9182 14.12C12.6851 14.353 12.3569 14.5065 11.7307 14.5907C11.0854 14.6775 10.2296 14.6789 9.00001 14.6789H8.92661Z" fill="white"/>
</g>
<defs>
<clipPath id="clip0_720_801">
<rect width="16" height="16" fill="white"/>
</clipPath>
</defs>
</svg>
