<svg width="17" height="16" viewBox="0 0 17 16" fill="none" xmlns="http://www.w3.org/2000/svg">
<path fill-rule="evenodd" clip-rule="evenodd" d="M7.70495 0.5H9.29505C10.3502 0.499997 11.1775 0.499994 11.8424 0.551591C12.5194 0.604131 13.0787 0.712889 13.585 0.957894C14.4172 1.36067 15.0939 2.00336 15.5179 2.79385C15.7759 3.27469 15.8904 3.80594 15.9457 4.449C16 5.08051 16 5.86625 16 6.86846V8.88263C16 9.07002 16 9.18411 15.9951 9.28354C15.8872 11.4476 14.0645 13.1788 11.7861 13.2813C11.6814 13.286 11.5491 13.286 11.3299 13.286H11.308L11.2501 13.286C10.583 13.2901 9.9332 13.4879 9.38789 13.8529L9.35011 13.8784L7.34185 15.2409C6.18454 16.0261 4.66376 14.8922 5.19196 13.6379C5.26295 13.4694 5.13224 13.286 4.94109 13.286H4.4782C2.55724 13.286 1 11.8069 1 9.98234L1 6.86847C0.999996 5.86626 0.999994 5.08051 1.05432 4.449C1.10963 3.80594 1.22414 3.27469 1.48209 2.79385C1.90614 2.00336 2.58279 1.36067 3.41504 0.957894C3.9213 0.712889 4.48061 0.604131 5.15764 0.551591C5.82253 0.499994 6.64979 0.499997 7.70495 0.5ZM5.2516 1.64389C4.64593 1.6909 4.25536 1.78122 3.93888 1.93438C3.32373 2.23209 2.8236 2.70712 2.51017 3.29139C2.34891 3.59199 2.25382 3.96296 2.20433 4.53824C2.1543 5.11992 2.15385 5.86098 2.15385 6.89299V9.98234C2.15385 11.2016 3.19449 12.19 4.4782 12.19H4.94109C5.94855 12.19 6.63744 13.1565 6.26328 14.045C6.16306 14.2829 6.45161 14.4981 6.67119 14.3491L8.67945 12.9866L8.72326 12.957C9.46103 12.4632 10.3402 12.1956 11.2427 12.1901L11.308 12.19C11.5555 12.19 11.6579 12.1899 11.7315 12.1866C13.4155 12.1108 14.7628 10.8312 14.8425 9.23171C14.846 9.1616 14.8462 9.07541 14.8462 8.86484V6.89299C14.8462 5.86098 14.8457 5.11992 14.7957 4.53824C14.7462 3.96296 14.6511 3.59199 14.4898 3.29139C14.1764 2.70712 13.6763 2.23209 13.0611 1.93438C12.7446 1.78122 12.3541 1.6909 11.7484 1.64389C11.136 1.59637 10.3558 1.59594 9.26923 1.59594H7.73077C6.64423 1.59594 5.86401 1.59637 5.2516 1.64389Z" fill="#AAB0B9"/>
<path fill-rule="evenodd" clip-rule="evenodd" d="M7.56323 4.10051C7.9436 3.29983 9.0564 3.29983 9.43677 4.10051L9.87485 5.02267C9.92733 5.13313 10.0251 5.20309 10.1305 5.219L11.1101 5.36687C11.979 5.49804 12.2889 6.57855 11.6905 7.18452L10.9816 7.90232C10.8994 7.98561 10.8588 8.10974 10.8794 8.23434L11.0467 9.24789C11.1859 10.091 10.3209 10.8018 9.52938 10.3695L8.65321 9.89099C8.55681 9.83834 8.44319 9.83834 8.34679 9.89099L7.47063 10.3695C6.67915 10.8018 5.81409 10.091 5.95329 9.24789L6.12062 8.23434C6.14119 8.10974 6.1006 7.98561 6.01835 7.90232L5.30952 7.18452C4.71112 6.57855 5.02102 5.49804 5.88992 5.36687L6.8695 5.219C6.97492 5.20309 7.07267 5.13313 7.12515 5.02267L7.56323 4.10051Z" fill="#AAB0B9"/>
</svg>
