<svg width="68" height="68" viewBox="0 0 68 68" fill="none" xmlns="http://www.w3.org/2000/svg">
<circle opacity="0.1" cx="34" cy="34" r="33" fill="#AAB0B9"/>
<path fill-rule="evenodd" clip-rule="evenodd" d="M26.348 23.6C26.348 19.4026 29.7739 16 34 16C38.2261 16 41.652 19.4026 41.652 23.6V24.2972C42.2652 24.4174 42.832 24.5891 43.3763 24.8369C44.996 25.5744 46.3672 26.7601 47.3255 28.2521C47.9055 29.1551 48.2496 30.1653 48.52 31.3976C48.7848 32.6049 48.9953 34.11 49.2631 36.0249L49.2779 36.1308C49.6225 38.595 49.8919 40.5214 49.9737 42.0731C50.0568 43.6485 49.9563 44.9613 49.4791 46.1666C48.6992 48.1365 47.2592 49.7791 45.402 50.8174C44.2656 51.4526 42.9702 51.7321 41.3877 51.8671C39.8291 52 37.871 52 35.3662 52H32.6338C30.129 52 28.1709 52 26.6123 51.8671C25.0298 51.7321 23.7344 51.4526 22.598 50.8174C20.7408 49.7791 19.3008 48.1365 18.5209 46.1666C18.0437 44.9613 17.9432 43.6485 18.0263 42.0731C18.1081 40.5215 18.3775 38.5951 18.7221 36.131L18.7369 36.025C19.0047 34.11 19.2151 32.6049 19.48 31.3976C19.7504 30.1653 20.0945 29.1551 20.6746 28.2521C21.6328 26.7601 23.004 25.5744 24.6237 24.8369C25.168 24.5891 25.7348 24.4174 26.348 24.2972V23.6ZM26.348 26.761V31.6C26.348 32.2627 26.889 32.8 27.5562 32.8C28.2235 32.8 28.7644 32.2627 28.7644 31.6V26.448C29.7855 26.4008 31.0458 26.4 32.6918 26.4H35.3082C36.9542 26.4 38.2145 26.4008 39.2356 26.448V31.6C39.2356 32.2627 39.7765 32.8 40.4438 32.8C41.111 32.8 41.652 32.2627 41.652 31.6V26.761C41.9144 26.8332 42.1496 26.9185 42.3693 27.0186C43.5665 27.5637 44.58 28.4401 45.2883 29.5429C45.6539 30.1121 45.9193 30.8163 46.159 31.9085C46.4018 33.0155 46.6004 34.4296 46.8765 36.4042C47.2308 38.9375 47.4849 40.762 47.5606 42.1986C47.6357 43.6234 47.5257 44.5424 47.2303 45.2883C46.6539 46.7444 45.5895 47.9585 44.2168 48.7259C43.5134 49.119 42.6121 49.3538 41.1809 49.4759C39.7378 49.599 37.8833 49.6 35.3082 49.6H32.6918C30.1167 49.6 28.2622 49.599 26.8191 49.4759C25.3879 49.3538 24.4866 49.119 23.7832 48.7259C22.4105 47.9585 21.3461 46.7444 20.7697 45.2883C20.4743 44.5424 20.3643 43.6234 20.4394 42.1986C20.5151 40.762 20.7692 38.9375 21.1235 36.4042C21.3996 34.4296 21.5982 33.0155 21.841 31.9085C22.0807 30.8163 22.3461 30.1121 22.7117 29.5429C23.42 28.4401 24.4335 27.5637 25.6307 27.0186C25.8504 26.9185 26.0856 26.8332 26.348 26.761ZM39.2356 24.0458C38.1596 24 36.8952 24 35.3812 24H32.6188C31.1047 24 29.8404 24 28.7644 24.0458V23.6C28.7644 20.7281 31.1085 18.4 34 18.4C36.8915 18.4 39.2356 20.7281 39.2356 23.6V24.0458Z" fill="#747F94"/>
</svg>
