<svg width="43" height="24" viewBox="0 0 43 24" fill="none" xmlns="http://www.w3.org/2000/svg">
<g opacity="0.7">
<mask id="mask0_579_1416" style="mask-type:luminance" maskUnits="userSpaceOnUse" x="1" y="2" width="20" height="19">
<path d="M20.5 2H1.5V21H20.5V2Z" fill="white"/>
</mask>
<g mask="url(#mask0_579_1416)">
<g opacity="0.8">
<path fill-rule="evenodd" clip-rule="evenodd" d="M11.3604 5.19316C10.4314 5.15115 10.2643 5.16002 9.33443 5.22183C6.42785 5.41504 4.09751 7.76617 3.90553 10.7368C3.86525 11.3601 3.86525 12.0066 3.90553 12.6298C3.97196 13.6579 4.43221 14.6546 5.03133 15.5542C5.04346 15.5724 5.05482 15.5911 5.0654 15.6103C5.6476 16.6644 5.21167 17.8423 4.81314 18.5975C4.80813 18.607 4.8032 18.6164 4.79834 18.6256C5.53252 18.6228 5.99821 18.4111 6.37318 18.1346L6.3902 18.1221C6.52492 18.0227 6.65391 17.9276 6.76223 17.8575C6.85239 17.7991 7.04974 17.6731 7.29801 17.6426C7.55343 17.6112 7.79285 17.6955 7.89328 17.7309L7.89946 17.733C8.03368 17.7802 8.20207 17.8496 8.38851 17.9264L8.40749 17.9342C8.68646 18.0491 9.02482 18.1243 9.33443 18.1449C10.427 18.2175 11.5715 18.2176 12.6662 18.1449C15.5728 17.9517 17.9031 15.6005 18.0951 12.6298C18.1354 12.0066 18.1354 11.3601 18.0951 10.7368C18.0669 10.3005 18.3978 9.92397 18.8341 9.89578C19.2704 9.86758 19.647 10.1984 19.6752 10.6347C19.7198 11.326 19.7198 12.0407 19.6752 12.732C19.4331 16.4783 16.4877 19.4777 12.7712 19.7247C11.6065 19.8021 10.3918 19.802 9.22942 19.7247C8.76252 19.6937 8.25448 19.5836 7.80451 19.3982C7.67439 19.3446 7.57556 19.304 7.49785 19.2734C7.44585 19.3109 7.386 19.355 7.31287 19.4089C6.65216 19.8962 5.81754 20.2358 4.64726 20.2073C4.6336 20.2069 4.61975 20.2066 4.60574 20.2063C4.39455 20.2013 4.14741 20.1955 3.94184 20.1557C3.68529 20.1061 3.34083 19.976 3.12502 19.6081C2.8885 19.2048 2.9885 18.8028 3.06897 18.5775C3.14397 18.3676 3.27164 18.1259 3.39273 17.8966C3.39945 17.8839 3.40615 17.8712 3.41283 17.8586C3.77511 17.1721 3.83391 16.6862 3.69112 16.3981C3.02517 15.3907 2.41614 14.1346 2.32549 12.732C2.28082 12.0407 2.28082 11.326 2.32549 10.6347C2.5676 6.88837 5.51292 3.88903 9.22942 3.64198C10.2035 3.57723 10.4311 3.56618 11.4319 3.61144C11.8687 3.63119 12.2068 4.00129 12.187 4.43806C12.1673 4.87484 11.7972 5.21291 11.3604 5.19316Z" fill="white"/>
<path fill-rule="evenodd" clip-rule="evenodd" d="M7.4375 13.875C7.4375 14.3123 7.79194 14.6667 8.22916 14.6667H13.7709C14.2081 14.6667 14.5625 14.3123 14.5625 13.875C14.5625 13.4378 14.2081 13.0834 13.7709 13.0834H8.22916C7.79194 13.0834 7.4375 13.4378 7.4375 13.875ZM7.4375 9.91666C7.4375 10.3539 7.79194 10.7084 8.22916 10.7084H11C11.4373 10.7084 11.7917 10.3539 11.7917 9.91666C11.7917 9.47944 11.4373 9.125 11 9.125H8.22916C7.79194 9.125 7.4375 9.47944 7.4375 9.91666Z" fill="white"/>
<path fill-rule="evenodd" clip-rule="evenodd" d="M16.1465 4.37533C15.0534 4.37533 14.1673 5.26143 14.1673 6.35449C14.1673 7.44756 15.0534 8.33366 16.1465 8.33366C17.2395 8.33366 18.1256 7.44756 18.1256 6.35449C18.1256 5.26143 17.2395 4.37533 16.1465 4.37533ZM12.584 6.35449C12.584 4.38698 14.179 2.79199 16.1465 2.79199C18.114 2.79199 19.709 4.38698 19.709 6.35449C19.709 8.32201 18.114 9.91699 16.1465 9.91699C14.179 9.91699 12.584 8.32201 12.584 6.35449Z" fill="white"/>
</g>
</g>
</g>
<mask id="mask1_579_1416" style="mask-type:luminance" maskUnits="userSpaceOnUse" x="22" y="3" width="20" height="19">
<path d="M41.5 3H22.5V22H41.5V3Z" fill="white"/>
</mask>
<g mask="url(#mask1_579_1416)">
<path fill-rule="evenodd" clip-rule="evenodd" d="M32.3594 6.19316C31.4304 6.15115 31.2633 6.16002 30.3335 6.22183C27.4269 6.41504 25.0965 8.76617 24.9045 11.7368C24.8643 12.3601 24.8643 13.0066 24.9045 13.6298C24.971 14.6579 25.4312 15.6546 26.0304 16.5542C26.0425 16.5724 26.0538 16.5911 26.0644 16.6103C26.6466 17.6644 26.2107 18.8423 25.8122 19.5975C25.8072 19.607 25.8022 19.6164 25.7974 19.6256C26.5315 19.6228 26.9972 19.4111 27.3722 19.1346L27.3892 19.1221C27.5239 19.0227 27.6529 18.9276 27.7612 18.8575C27.8514 18.7991 28.0487 18.6731 28.297 18.6426C28.5524 18.6112 28.7919 18.6955 28.8923 18.7309L28.8985 18.733C29.0327 18.7802 29.2011 18.8496 29.3875 18.9264L29.4065 18.9342C29.6855 19.0491 30.0238 19.1243 30.3335 19.1449C31.426 19.2175 32.5705 19.2176 33.6652 19.1449C36.5718 18.9517 38.9021 16.6005 39.0941 13.6298C39.1344 13.0066 39.1344 12.3601 39.0941 11.7368C39.0659 11.3005 39.3968 10.924 39.8331 10.8958C40.2694 10.8676 40.646 11.1984 40.6742 11.6347C40.7188 12.326 40.7188 13.0407 40.6742 13.732C40.4321 17.4783 37.4867 20.4777 33.7702 20.7247C32.6055 20.8021 31.3908 20.802 30.2284 20.7247C29.7615 20.6937 29.2535 20.5836 28.8035 20.3982C28.6734 20.3446 28.5746 20.304 28.4969 20.2734C28.4449 20.3109 28.385 20.355 28.3119 20.4089C27.6512 20.8962 26.8166 21.2358 25.6463 21.2073C25.6326 21.2069 25.6188 21.2066 25.6048 21.2063C25.3936 21.2013 25.1464 21.1955 24.9409 21.1557C24.6843 21.1061 24.3399 20.976 24.124 20.6081C23.8875 20.2048 23.9875 19.8028 24.068 19.5775C24.143 19.3676 24.2707 19.1259 24.3917 18.8966C24.3985 18.8839 24.4052 18.8712 24.4118 18.8586C24.7741 18.1721 24.8329 17.6862 24.6901 17.3981C24.0242 16.3907 23.4152 15.1346 23.3245 13.732C23.2798 13.0407 23.2798 12.326 23.3245 11.6347C23.5666 7.88837 26.5119 4.88903 30.2284 4.64198C31.2025 4.57723 31.4301 4.56618 32.4309 4.61144C32.8677 4.63119 33.2058 5.00129 33.186 5.43806C33.1663 5.87484 32.7962 6.21291 32.3594 6.19316Z" fill="white"/>
<path fill-rule="evenodd" clip-rule="evenodd" d="M28.4365 14.875C28.4365 15.3123 28.791 15.6667 29.2282 15.6667H34.7699C35.2071 15.6667 35.5615 15.3123 35.5615 14.875C35.5615 14.4378 35.2071 14.0834 34.7699 14.0834H29.2282C28.791 14.0834 28.4365 14.4378 28.4365 14.875ZM28.4365 10.9167C28.4365 11.3539 28.791 11.7084 29.2282 11.7084H31.999C32.4363 11.7084 32.7907 11.3539 32.7907 10.9167C32.7907 10.4795 32.4363 10.125 31.999 10.125H29.2282C28.791 10.125 28.4365 10.4795 28.4365 10.9167Z" fill="white"/>
<path fill-rule="evenodd" clip-rule="evenodd" d="M37.1455 5.37533C36.0524 5.37533 35.1663 6.26143 35.1663 7.35449C35.1663 8.44756 36.0524 9.33366 37.1455 9.33366C38.2385 9.33366 39.1246 8.44756 39.1246 7.35449C39.1246 6.26143 38.2385 5.37533 37.1455 5.37533ZM33.583 7.35449C33.583 5.38698 35.178 3.79199 37.1455 3.79199C39.113 3.79199 40.708 5.38698 40.708 7.35449C40.708 9.32201 39.113 10.917 37.1455 10.917C35.178 10.917 33.583 9.32201 33.583 7.35449Z" fill="white"/>
</g>
</svg>
