<svg width="79" height="24" viewBox="0 0 79 24" fill="none" xmlns="http://www.w3.org/2000/svg">
<path opacity="0.7" fill-rule="evenodd" clip-rule="evenodd" d="M10.5003 4C9.94802 4 9.50031 4.44772 9.50031 5V7H12.5003C13.0526 7 13.5003 7.44772 13.5003 8C13.5003 8.55228 13.0526 9 12.5003 9H5.62232L6.68724 18.2292C6.80368 19.2384 7.65818 20 8.67406 20H18.3266C19.3424 20 20.1969 19.2384 20.3134 18.2292L21.3783 9H17.5003C16.948 9 16.5003 8.55228 16.5003 8C16.5003 7.44772 16.948 7 17.5003 7V5C17.5003 4.44772 17.0526 4 16.5003 4H10.5003ZM19.5003 7V5C19.5003 3.34315 18.1572 2 16.5003 2H10.5003C8.84345 2 7.50031 3.34315 7.50031 5V7H5.62232C4.42692 7 3.49849 8.04173 3.63551 9.22925L4.70042 18.4585C4.93331 20.4769 6.6423 22 8.67406 22H18.3266C20.3583 22 22.0673 20.4769 22.3002 18.4585L23.3651 9.22925C23.5021 8.04173 22.5737 7 21.3783 7H19.5003Z" fill="white"/>
<g opacity="0.9">
<path fill-rule="evenodd" clip-rule="evenodd" d="M36.5003 4C35.948 4 35.5003 4.44772 35.5003 5V7H38.5003C39.0526 7 39.5003 7.44772 39.5003 8C39.5003 8.55228 39.0526 9 38.5003 9H31.6223L32.6872 18.2292C32.8037 19.2384 33.6582 20 34.6741 20H44.3266C45.3424 20 46.1969 19.2384 46.3134 18.2292L47.3783 9H43.5003C42.948 9 42.5003 8.55228 42.5003 8C42.5003 7.44772 42.948 7 43.5003 7V5C43.5003 4.44772 43.0526 4 42.5003 4H36.5003ZM45.5003 7V5C45.5003 3.34315 44.1572 2 42.5003 2H36.5003C34.8435 2 33.5003 3.34315 33.5003 5V7H31.6223C30.4269 7 29.4985 8.04173 29.6355 9.22925L30.7004 18.4585C30.9333 20.4769 32.6423 22 34.6741 22H44.3266C46.3583 22 48.0673 20.4769 48.3002 18.4585L49.3651 9.22925C49.5021 8.04173 48.5737 7 47.3783 7H45.5003Z" fill="white"/>
</g>
<path fill-rule="evenodd" clip-rule="evenodd" d="M62.5003 4C61.948 4 61.5003 4.44772 61.5003 5V7H64.5003C65.0526 7 65.5003 7.44772 65.5003 8C65.5003 8.55228 65.0526 9 64.5003 9H57.6223L58.6872 18.2292C58.8037 19.2384 59.6582 20 60.6741 20H70.3266C71.3424 20 72.1969 19.2384 72.3134 18.2292L73.3783 9H69.5003C68.948 9 68.5003 8.55228 68.5003 8C68.5003 7.44772 68.948 7 69.5003 7V5C69.5003 4.44772 69.0526 4 68.5003 4H62.5003ZM71.5003 7V5C71.5003 3.34315 70.1572 2 68.5003 2H62.5003C60.8435 2 59.5003 3.34315 59.5003 5V7H57.6223C56.4269 7 55.4985 8.04173 55.6355 9.22925L56.7004 18.4585C56.9333 20.4769 58.6423 22 60.6741 22H70.3266C72.3583 22 74.0673 20.4769 74.3002 18.4585L75.3651 9.22925C75.5021 8.04173 74.5737 7 73.3783 7H71.5003Z" fill="white"/>
</svg>
