<svg width="17" height="16" viewBox="0 0 17 16" fill="none" xmlns="http://www.w3.org/2000/svg">
<path d="M5.51879 12.8883C4.9445 12.8883 4.61021 12.2394 4.94357 11.7718L10.906 3.40809C11.0386 3.22213 11.2528 3.11173 11.4812 3.11173V3.11173C12.0555 3.11173 12.3898 3.7606 12.0564 4.22823L6.09402 12.5919C5.96145 12.7779 5.74717 12.8883 5.51879 12.8883V12.8883ZM5.03706 8.39106C4.54131 8.39106 4.10389 8.28398 3.72479 8.06983C3.34569 7.84637 3.04435 7.53445 2.82078 7.13408C2.60693 6.72439 2.5 6.24488 2.5 5.69553C2.5 5.14618 2.60693 4.67132 2.82078 4.27095C3.04435 3.87058 3.34569 3.55866 3.72479 3.3352C4.10389 3.11173 4.54131 3 5.03706 3C5.53281 3 5.97023 3.11173 6.34933 3.3352C6.72843 3.55866 7.02491 3.87058 7.23876 4.27095C7.45261 4.67132 7.55954 5.14618 7.55954 5.69553C7.55954 6.24488 7.45261 6.72439 7.23876 7.13408C7.02491 7.53445 6.72843 7.84637 6.34933 8.06983C5.97023 8.28398 5.53281 8.39106 5.03706 8.39106ZM5.03706 7.24581C5.35784 7.24581 5.61543 7.12011 5.80984 6.86871C6.00425 6.60801 6.10146 6.21695 6.10146 5.69553C6.10146 5.17411 6.00425 4.78771 5.80984 4.53631C5.61543 4.2756 5.35784 4.14525 5.03706 4.14525C4.726 4.14525 4.46841 4.2756 4.26428 4.53631C4.06987 4.78771 3.97266 5.17411 3.97266 5.69553C3.97266 6.20763 4.06987 6.59404 4.26428 6.85475C4.46841 7.11546 4.726 7.24581 5.03706 7.24581ZM11.9629 13C11.4769 13 11.0395 12.8929 10.6507 12.6788C10.2716 12.4553 9.97509 12.1434 9.76124 11.743C9.54739 11.3333 9.44046 10.8538 9.44046 10.3045C9.44046 9.75512 9.54739 9.28026 9.76124 8.87989C9.97509 8.47952 10.2716 8.1676 10.6507 7.94413C11.0395 7.72067 11.4769 7.60894 11.9629 7.60894C12.4684 7.60894 12.9107 7.72067 13.2898 7.94413C13.6689 8.1676 13.9654 8.47952 14.1792 8.87989C14.3931 9.28026 14.5 9.75512 14.5 10.3045C14.5 10.8538 14.3931 11.3333 14.1792 11.743C13.9654 12.1434 13.6689 12.4553 13.2898 12.6788C12.9107 12.8929 12.4684 13 11.9629 13ZM11.9629 11.8547C12.2837 11.8547 12.5413 11.729 12.7357 11.4777C12.9301 11.2169 13.0273 10.8259 13.0273 10.3045C13.0273 9.79236 12.9301 9.40596 12.7357 9.14525C12.5413 8.88454 12.2837 8.75419 11.9629 8.75419C11.6519 8.75419 11.3943 8.88454 11.1902 9.14525C10.9957 9.39665 10.8985 9.78305 10.8985 10.3045C10.8985 10.8259 10.9957 11.2169 11.1902 11.4777C11.3943 11.729 11.6519 11.8547 11.9629 11.8547Z" fill="#AAB0B9"/>
</svg>
