<svg width="64" height="24" viewBox="0 0 64 24" fill="none" xmlns="http://www.w3.org/2000/svg">
<path opacity="0.7" d="M2.5 12.15C2.5 11.5149 3.01487 11 3.65 11C4.28513 11 4.8 11.5149 4.8 12.15V18.85C4.8 19.4851 4.28513 20 3.65 20C3.01487 20 2.5 19.4851 2.5 18.85V12.15Z" fill="white"/>
<path opacity="0.7" d="M9.5 8.15C9.5 7.51487 10.0149 7 10.65 7C11.2851 7 11.8 7.51487 11.8 8.15V18.85C11.8 19.4851 11.2851 20 10.65 20C10.0149 20 9.5 19.4851 9.5 18.85V8.15Z" fill="white"/>
<path opacity="0.7" d="M16.5 3.15C16.5 2.51487 17.0149 2 17.65 2C18.2851 2 18.8 2.51487 18.8 3.15V18.85C18.8 19.4851 18.2851 20 17.65 20C17.0149 20 16.5 19.4851 16.5 18.85V3.15Z" fill="white"/>
<g opacity="0.9">
<path d="M23.5 12.15C23.5 11.5149 24.0149 11 24.65 11C25.2851 11 25.8 11.5149 25.8 12.15V18.85C25.8 19.4851 25.2851 20 24.65 20C24.0149 20 23.5 19.4851 23.5 18.85V12.15Z" fill="white"/>
<path d="M30.5 8.15C30.5 7.51487 31.0149 7 31.65 7C32.2851 7 32.8 7.51487 32.8 8.15V18.85C32.8 19.4851 32.2851 20 31.65 20C31.0149 20 30.5 19.4851 30.5 18.85V8.15Z" fill="white"/>
<path d="M37.5 3.15C37.5 2.51487 38.0149 2 38.65 2C39.2851 2 39.8 2.51487 39.8 3.15V18.85C39.8 19.4851 39.2851 20 38.65 20C38.0149 20 37.5 19.4851 37.5 18.85V3.15Z" fill="white"/>
</g>
<path d="M44.5 12.15C44.5 11.5149 45.0149 11 45.65 11C46.2851 11 46.8 11.5149 46.8 12.15V18.85C46.8 19.4851 46.2851 20 45.65 20C45.0149 20 44.5 19.4851 44.5 18.85V12.15Z" fill="white"/>
<path d="M51.5 8.15C51.5 7.51487 52.0149 7 52.65 7C53.2851 7 53.8 7.51487 53.8 8.15V18.85C53.8 19.4851 53.2851 20 52.65 20C52.0149 20 51.5 19.4851 51.5 18.85V8.15Z" fill="white"/>
<path d="M58.5 3.15C58.5 2.51487 59.0149 2 59.65 2C60.2851 2 60.8 2.51487 60.8 3.15V18.85C60.8 19.4851 60.2851 20 59.65 20C59.0149 20 58.5 19.4851 58.5 18.85V3.15Z" fill="white"/>
</svg>
