<svg width="16" height="14" viewBox="0 0 16 14" fill="none" xmlns="http://www.w3.org/2000/svg">
<g clip-path="url(#clip0_552_1482)">
<path fill-rule="evenodd" clip-rule="evenodd" d="M11.5775 10.3991C11.0835 10.3991 10.683 10.7996 10.683 11.2936C10.683 11.7876 11.0835 12.1881 11.5775 12.1881C12.0715 12.1881 12.472 11.7876 12.472 11.2936C12.472 10.7996 12.0715 10.3991 11.5775 10.3991ZM9.60958 11.2936C9.60958 10.2067 10.4907 9.32566 11.5775 9.32566C12.6644 9.32566 13.5454 10.2067 13.5454 11.2936C13.5454 12.3805 12.6644 13.2615 11.5775 13.2615C10.4907 13.2615 9.60958 12.3805 9.60958 11.2936Z" fill="#AAB0B9"/>
<path fill-rule="evenodd" clip-rule="evenodd" d="M4.4214 10.3991C3.92738 10.3991 3.52689 10.7996 3.52689 11.2936C3.52689 11.7876 3.92738 12.1881 4.4214 12.1881C4.91543 12.1881 5.31592 11.7876 5.31592 11.2936C5.31592 10.7996 4.91543 10.3991 4.4214 10.3991ZM2.45347 11.2936C2.45347 10.2067 3.33455 9.32566 4.4214 9.32566C5.50826 9.32566 6.38933 10.2067 6.38933 11.2936C6.38933 12.3805 5.50826 13.2615 4.4214 13.2615C3.33455 13.2615 2.45347 12.3805 2.45347 11.2936Z" fill="#AAB0B9"/>
<path fill-rule="evenodd" clip-rule="evenodd" d="M8.13921 1.89055C7.91705 1.81837 7.62387 1.81175 6.78292 1.81175H0.843349C0.546933 1.81175 0.306641 1.57146 0.306641 1.27504C0.306641 0.978624 0.546933 0.738332 0.843349 0.738332H6.78292C6.81657 0.738332 6.84972 0.738319 6.8824 0.738306C7.58512 0.738029 8.06517 0.73784 8.47091 0.869674C9.28789 1.13512 9.9284 1.77564 10.1939 2.59261C10.3257 2.99836 10.3255 3.47841 10.3252 4.18113C10.3252 4.2138 10.3252 4.24696 10.3252 4.28061C10.3252 4.85516 10.3318 5.01515 10.369 5.12952C10.4575 5.40184 10.671 5.61535 10.9433 5.70383C11.0577 5.74099 11.2176 5.74761 11.7922 5.74761H15.1556C15.452 5.74761 15.6923 5.9879 15.6923 6.28432V7.75396C15.6923 8.56463 15.6923 9.22709 15.622 9.7501C15.5485 10.2968 15.3894 10.7708 15.0111 11.1491C14.5095 11.6507 13.8355 11.77 13.0355 11.8099C12.7394 11.8247 12.4875 11.5966 12.4727 11.3006C12.4579 11.0046 12.686 10.7526 12.982 10.7378C13.7517 10.6995 14.0568 10.5854 14.2521 10.3901C14.3977 10.2444 14.5007 10.0347 14.5581 9.60707C14.6177 9.16397 14.6189 8.57407 14.6189 7.71554V6.82103H11.7922C11.7638 6.82103 11.7359 6.82105 11.7083 6.82107C11.2583 6.82143 10.9101 6.8217 10.6116 6.72471C10.0125 6.53004 9.54276 6.06033 9.3481 5.46122C9.25111 5.16271 9.25138 4.8145 9.25174 4.36454C9.25176 4.33695 9.25178 4.30897 9.25178 4.28061C9.25178 3.43966 9.24516 3.14648 9.17297 2.92432C9.0137 2.43413 8.62939 2.04982 8.13921 1.89055ZM0.836344 8.61072C1.13239 8.59596 1.38435 8.82399 1.39911 9.12004C1.43747 9.8897 1.55158 10.1948 1.74685 10.3901C1.94213 10.5854 2.24724 10.6995 3.0169 10.7378C3.31295 10.7526 3.54098 11.0046 3.52623 11.3006C3.51147 11.5966 3.25951 11.8247 2.96346 11.8099C2.16347 11.77 1.48938 11.6507 0.987833 11.1491C0.48629 10.6476 0.366899 9.97348 0.327022 9.17348C0.312265 8.87743 0.540296 8.62548 0.836344 8.61072ZM5.31592 11.2936C5.31592 10.9972 5.55621 10.7569 5.85263 10.7569H10.1463C10.4427 10.7569 10.683 10.9972 10.683 11.2936C10.683 11.59 10.4427 11.8303 10.1463 11.8303H5.85263C5.55621 11.8303 5.31592 11.59 5.31592 11.2936Z" fill="#AAB0B9"/>
<path fill-rule="evenodd" clip-rule="evenodd" d="M0.306641 4.13748C0.306641 3.84107 0.546933 3.60078 0.843349 3.60078H5.13702C5.43343 3.60078 5.67372 3.84107 5.67372 4.13748C5.67372 4.4339 5.43343 4.67419 5.13702 4.67419H0.843349C0.546933 4.67419 0.306641 4.4339 0.306641 4.13748Z" fill="#AAB0B9"/>
<path fill-rule="evenodd" clip-rule="evenodd" d="M0.306641 6.28432C0.306641 5.9879 0.546933 5.74761 0.843349 5.74761H3.70579C4.00221 5.74761 4.2425 5.9879 4.2425 6.28432C4.2425 6.58073 4.00221 6.82103 3.70579 6.82103H0.843349C0.546933 6.82103 0.306641 6.58073 0.306641 6.28432Z" fill="#AAB0B9"/>
<path fill-rule="evenodd" clip-rule="evenodd" d="M12.2625 3.27189C11.9823 3.2436 11.6232 3.24297 11.0918 3.24297H9.78849C9.49207 3.24297 9.25178 3.00268 9.25178 2.70626C9.25178 2.40985 9.49207 2.16955 9.78849 2.16955L11.1184 2.16955C11.6165 2.16954 12.0299 2.16953 12.3703 2.20391C12.7288 2.24011 13.0499 2.3176 13.353 2.49861C13.656 2.67962 13.8764 2.92557 14.0783 3.22408C14.27 3.50752 14.4659 3.87151 14.7021 4.31007L15.6281 6.02986C15.7687 6.29085 15.671 6.61634 15.41 6.75687C15.149 6.8974 14.8235 6.79976 14.683 6.53877L13.7696 4.84242C13.5176 4.37448 13.3469 4.05866 13.1891 3.82537C13.0381 3.60211 12.9232 3.49226 12.8025 3.42015C12.6818 3.34804 12.5306 3.29897 12.2625 3.27189Z" fill="#AAB0B9"/>
</g>
<defs>
<clipPath id="clip0_552_1482">
<rect width="16" height="14" fill="white"/>
</clipPath>
</defs>
</svg>
