<svg width="107" height="18" viewBox="0 0 107 18" fill="none" xmlns="http://www.w3.org/2000/svg">
<path d="M20.9532 4.91946C21.9776 6.30182 23.3027 6.3689 24.2885 5.36614C25.2372 4.40104 25.2372 2.8363 24.2885 1.8712C23.3397 0.906097 21.8016 0.906097 20.8529 1.8712C20.8529 1.8712 19.7231 2.69785 20.5503 4.20942L20.9532 4.91946Z" fill="#C4D7E9"/>
<path d="M11.928 3.70736C11.2572 2.52535 11.6553 1.01393 12.8172 0.331504C13.9792 -0.350926 15.4649 0.0540579 16.1358 1.23606L23.2094 13.6996C23.8803 14.8816 23.4822 16.393 22.3202 17.0755C21.1583 17.7579 19.6726 17.3529 19.0017 16.1709L11.928 3.70736Z" fill="#C4D7E9"/>
<path d="M8.43125 16.1709L1.35759 3.70736C0.686743 2.52535 1.08485 1.01393 2.24679 0.331504C3.40872 -0.350926 4.89448 0.0540579 5.56533 1.23606L11.5244 11.7357C12.6376 10.8887 13.7861 11.7944 14.3853 12.85C14.935 13.8187 14.7767 15.0422 13.9992 15.8331L12.5985 17.258C11.6498 18.2231 10.1116 18.2231 9.16287 17.258L8.43125 16.1709Z" fill="#C4D7E9"/>
<path d="M5.488 15.9742C5.63175 16.2275 5.54644 16.5514 5.29746 16.6976L3.64441 17.6685C2.48248 18.3509 0.996719 17.9459 0.325875 16.7639C-0.344968 15.5819 0.0531403 14.0705 1.21508 13.3881L2.86812 12.4172C3.1171 12.271 3.43548 12.3578 3.57923 12.6111L5.488 15.9742Z" fill="#C4D7E9"/>
<path d="M62.2489 8.06971C62.0414 7.41009 61.1088 7.40757 60.8978 8.06607L58.587 15.2752C58.2576 16.3028 57.3021 16.9999 56.223 16.9999V16.9999C55.139 16.9999 54.1803 16.2965 53.855 15.2625L50.0505 3.17191C49.7126 2.09799 50.5146 1.00488 51.6404 1.00488V1.00488C52.3714 1.00488 53.017 1.48114 53.2329 2.1795L55.732 10.2662C55.9427 10.9478 56.9055 10.9537 57.1244 10.2746L59.6355 2.48592C59.9201 1.6032 60.7416 1.00488 61.6691 1.00488V1.00488C62.6047 1.00488 63.4315 1.6136 63.7093 2.50701L66.1353 10.3075C66.349 10.9947 67.3208 10.9972 67.5381 10.3111L70.1459 2.07662C70.3479 1.43852 70.9401 1.00488 71.6095 1.00488V1.00488C72.6465 1.00488 73.3852 2.01175 73.0739 3.00093L69.2109 15.2779C68.8884 16.3027 67.9382 16.9999 66.8638 16.9999V16.9999C65.7893 16.9999 64.8391 16.3027 64.5166 15.2777L62.2489 8.06971Z" fill="white"/>
<path d="M34 10.6225C34 9.72772 34.7253 9.00238 35.6201 9.00238V9.00238C36.5148 9.00238 37.2402 9.72772 37.2402 10.6225V14.0979H40.4593C43.468 14.0979 45.4458 12.11 45.4458 9.00238C45.4458 5.89478 43.468 3.90683 40.4593 3.90683H35.451C34.6496 3.90683 34 3.25721 34 2.45586V2.45586C34 1.65451 34.6496 1.00488 35.451 1.00488H40.6276C45.4248 1.00488 48.7281 4.15818 48.7281 9.00238C48.7281 13.8466 45.4248 16.9999 40.6276 16.9999H34V10.6225Z" fill="white"/>
<path d="M77.6456 10.2591C76.8821 10.2591 76.2632 9.6402 76.2632 8.87671V8.87671C76.2632 8.11322 76.8821 7.49428 77.6456 7.49428H87.0474C87.8109 7.49428 88.4299 8.11322 88.4299 8.87671V8.87671C88.4299 9.6402 87.8109 10.2591 87.0474 10.2591H77.6456ZM77.6913 3.86113C76.9026 3.86113 76.2632 3.22174 76.2632 2.43301V2.43301C76.2632 1.64428 76.9026 1.00488 77.6913 1.00488H87.0017C87.7905 1.00488 88.4299 1.64428 88.4299 2.43301V2.43301C88.4299 3.22174 87.7905 3.86113 87.0017 3.86113H77.6913ZM77.6913 14.1436C76.9026 14.1436 76.2632 14.783 76.2632 15.5718V15.5718C76.2632 16.3605 76.9026 16.9999 77.6913 16.9999H87.0017C87.7905 16.9999 88.4299 16.3605 88.4299 15.5718V15.5718C88.4299 14.783 87.7905 14.1436 87.0017 14.1436H77.6913Z" fill="white"/>
<path fill-rule="evenodd" clip-rule="evenodd" d="M93.6098 1H100.087C104.11 1 106.191 2.6452 106.191 5.1587C106.191 6.7582 105.358 7.9921 104.064 8.6776C105.844 9.24885 107 10.6199 107 12.6307C107 15.3955 104.78 16.995 100.549 16.995H93.6098C92.871 16.995 92.272 16.3965 92.272 15.6583L92.272 15.4648L92.272 14.0474V8.9061C92.272 8.18678 92.8556 7.60365 93.5755 7.60365H99.6707C101.543 7.60365 102.584 6.941 102.584 5.63855C102.584 4.3361 101.543 3.67345 99.6707 3.67345H93.6098C92.871 3.67345 92.272 3.07498 92.272 2.33673C92.272 1.59847 92.871 1 93.6098 1ZM103.393 12.2651C103.393 13.6818 102.306 14.3216 100.318 14.3216H95.1536V10.2086H100.318C102.306 10.2086 103.393 10.8484 103.393 12.2651Z" fill="white"/>
</svg>
