<svg width="18" height="19" viewBox="0 0 18 19" fill="none" xmlns="http://www.w3.org/2000/svg">
<path fill-rule="evenodd" clip-rule="evenodd" d="M4 9.75C4 9.33579 4.33579 9 4.75 9H12.75C13.1642 9 13.5 9.33579 13.5 9.75C13.5 10.1642 13.1642 10.5 12.75 10.5H4.75C4.33579 10.5 4 10.1642 4 9.75Z" fill="#363853"/>
<path fill-rule="evenodd" clip-rule="evenodd" d="M2 4.75C2 4.33579 2.33579 4 2.75 4L14.75 4C15.1642 4 15.5 4.33579 15.5 4.75C15.5 5.16421 15.1642 5.5 14.75 5.5L2.75 5.5C2.33579 5.5 2 5.16421 2 4.75Z" fill="#363853"/>
<path fill-rule="evenodd" clip-rule="evenodd" d="M6 14.75C6 14.3358 6.33579 14 6.75 14H10.75C11.1642 14 11.5 14.3358 11.5 14.75C11.5 15.1642 11.1642 15.5 10.75 15.5H6.75C6.33579 15.5 6 15.1642 6 14.75Z" fill="#363853"/>
</svg>
