<svg width="18" height="19" viewBox="0 0 18 19" fill="none" xmlns="http://www.w3.org/2000/svg">
<path fill-rule="evenodd" clip-rule="evenodd" d="M15.8726 6.61506C12.789 1.07117 5.21099 1.07117 2.12738 6.61506C1.13703 8.39559 1.13703 10.6044 2.12738 12.3849C5.21099 17.9288 12.789 17.9288 15.8726 12.3849C16.863 10.6044 16.863 8.39559 15.8726 6.61506ZM0.932431 5.87896C4.55077 -0.62632 13.4492 -0.626319 17.0676 5.87896C18.3108 8.11414 18.3108 10.8859 17.0676 13.121C13.4492 19.6263 4.55077 19.6263 0.932431 13.121C-0.310811 10.8859 -0.31081 8.11414 0.932431 5.87896ZM8.99948 6.77707C7.57906 6.77707 6.40921 8.01081 6.40921 9.55897C6.40921 11.1059 7.57892 12.3397 8.99948 12.3397C10.4203 12.3397 11.5908 11.1056 11.5908 9.55897C11.5908 8.01111 10.4202 6.77707 8.99948 6.77707ZM5.0246 9.55897C5.0246 7.22807 6.7936 5.31993 8.99948 5.31993C11.2051 5.31993 12.9754 7.22777 12.9754 9.55897C12.9754 11.8892 11.2049 13.7969 8.99948 13.7969C6.79374 13.7969 5.0246 11.8889 5.0246 9.55897Z" fill="#363853"/>
</svg>
