<svg width="18" height="19" viewBox="0 0 18 19" fill="none" xmlns="http://www.w3.org/2000/svg">
<path fill-rule="evenodd" clip-rule="evenodd" d="M12.6029 1.63595C11.1742 1.30084 9.68736 1.30084 8.2587 1.63595C7.31522 1.85726 6.4762 2.33915 5.82063 3.00277C7.22649 2.77419 8.66608 2.82309 10.0575 3.14948C12.4357 3.70733 14.2927 5.56427 14.8505 7.94249C15.1769 9.33392 15.2258 10.7735 14.9972 12.1794C15.6608 11.5238 16.1427 10.6848 16.364 9.7413C16.6992 8.31264 16.6992 6.82581 16.364 5.39715C15.9263 3.5309 14.4691 2.07372 12.6029 1.63595ZM7.94249 0.287928C9.57913 -0.095976 11.2824 -0.0959761 12.9191 0.287928C15.2973 0.845784 17.1542 2.70272 17.7121 5.08095C18.096 6.71759 18.096 8.42087 17.7121 10.0575C17.2709 11.9381 16.0176 13.4925 14.3367 14.3366C13.4926 16.0177 11.938 17.271 10.0575 17.7121C8.42086 18.096 6.71759 18.096 5.08095 17.7121C2.70272 17.1542 0.845786 15.2973 0.287929 12.9191C-0.0959765 11.2824 -0.0959763 9.57913 0.287929 7.94249C0.729032 6.062 1.98235 4.50744 3.66337 3.66331C4.50748 1.98238 6.06191 0.729054 7.94249 0.287928ZM5.1666 4.55733C3.41153 5.05711 2.05552 6.47002 1.63596 8.25869C1.30084 9.68736 1.30084 11.1742 1.63596 12.6029C2.07372 14.4691 3.5309 15.9263 5.39715 16.364C6.82581 16.6992 8.31264 16.6992 9.7413 16.364C11.4864 15.9547 12.8738 14.654 13.4045 12.961C13.4414 12.8435 13.4741 12.724 13.5025 12.6029C13.8376 11.1742 13.8376 9.68736 13.5025 8.2587C13.0647 6.39245 11.6076 4.93526 9.74131 4.4975C8.31264 4.16238 6.82581 4.16238 5.39715 4.4975C5.31958 4.5157 5.24271 4.53565 5.1666 4.55733Z" fill="#363853"/>
<path fill-rule="evenodd" clip-rule="evenodd" d="M4.27012 8.61598C4.48221 8.29784 4.91204 8.21188 5.23018 8.42397L6.97535 9.58741C7.36292 9.8458 7.86785 9.8458 8.25542 9.58741L10.0006 8.42397C10.3187 8.21188 10.7486 8.29784 10.9607 8.61598C11.1727 8.93411 11.0868 9.36395 10.7686 9.57604L9.02347 10.7395C8.1708 11.3079 7.05997 11.3079 6.2073 10.7395L4.46213 9.57604C4.144 9.36395 4.05803 8.93411 4.27012 8.61598Z" fill="#363853"/>
</svg>
