<svg width="18" height="19" viewBox="0 0 18 19" fill="none" xmlns="http://www.w3.org/2000/svg">
<path fill-rule="evenodd" clip-rule="evenodd" d="M9.89991 1.55655C9.30626 1.42987 8.69374 1.42987 8.10009 1.55655C7.45542 1.69412 6.83156 2.04461 5.30993 2.92325L5.14885 3.01626C3.7327 3.834 3.15642 4.17492 2.72802 4.62553C2.21987 5.16001 1.84577 5.81575 1.6401 6.53596C1.46617 7.14502 1.45947 7.83366 1.45947 9.5C1.45947 11.1663 1.46617 11.855 1.6401 12.464C1.84577 13.1843 2.21987 13.84 2.72802 14.3745C3.15642 14.8251 3.7327 15.166 5.14885 15.9837L4.85937 16.4865L5.14885 15.9837L5.30994 16.0768C6.83156 16.9554 7.45542 17.3059 8.10009 17.4435C8.69374 17.5701 9.30627 17.5701 9.89992 17.4435C10.5446 17.3059 11.1684 16.9554 12.6901 16.0767L12.8512 15.9837C14.2673 15.166 14.8436 14.8251 15.272 14.3745C15.7801 13.84 16.1542 13.1843 16.3599 12.464C16.5338 11.855 16.5405 11.1663 16.5405 9.5C16.5405 7.83366 16.5338 7.14502 16.3599 6.53596C16.1542 5.81575 15.7801 5.16001 15.272 4.62553C14.8436 4.17492 14.2673 3.834 12.8512 3.01627L12.6901 2.92325C11.1684 2.04461 10.5446 1.69412 9.89991 1.55655ZM7.79592 0.127104C8.5901 -0.0423681 9.4099 -0.0423681 10.2041 0.127104C11.102 0.31872 11.9353 0.800042 13.301 1.58891C13.3399 1.6114 13.3793 1.63413 13.4191 1.65712L13.5802 1.75013L13.3208 2.20055L13.5802 1.75013C13.6164 1.77105 13.6522 1.79174 13.6877 1.8122C14.9626 2.54818 15.7373 2.99536 16.329 3.61774C17.0014 4.32501 17.4933 5.18925 17.7631 6.1341C18.0003 6.96455 18.0002 7.8719 18 9.37665C18 9.41733 18 9.45844 18 9.5C18 9.54157 18 9.58269 18 9.62338C18.0002 11.1281 18.0003 12.0355 17.7631 12.8659C17.4933 13.8107 17.0014 14.675 16.329 15.3823C15.7373 16.0046 14.9626 16.4518 13.6877 17.1878C13.6523 17.2083 13.6164 17.2289 13.5802 17.2499L13.4191 17.3429C13.3793 17.3659 13.34 17.3886 13.301 17.4111C11.9353 18.2 11.102 18.6813 10.2041 18.8729C9.40991 19.0424 8.5901 19.0424 7.79592 18.8729C6.89797 18.6813 6.0647 18.2 4.69897 17.4111C4.66005 17.3886 4.6207 17.3659 4.5809 17.3429L4.94542 16.7098L4.5809 17.3429L4.41982 17.2499C4.38359 17.229 4.34776 17.2083 4.31232 17.1878C3.03737 16.4518 2.26272 16.0046 1.67101 15.3823C0.998587 14.675 0.506721 13.8107 0.236895 12.8659C-0.000262754 12.0354 -0.000160567 11.1281 8.94798e-06 9.62335C1.35295e-05 9.58267 1.8169e-05 9.54156 1.8169e-05 9.5C1.8169e-05 9.45844 1.35295e-05 9.41733 8.94798e-06 9.37665C-0.000160915 7.8719 -0.000263334 6.96455 0.236894 6.1341C0.50672 5.18925 0.998586 4.32501 1.67101 3.61773C2.26272 2.99536 3.03736 2.54819 4.31231 1.8122C4.34775 1.79174 4.38359 1.77105 4.41982 1.75013L4.5809 1.65712L4.82391 2.07916L4.5809 1.65712C4.62071 1.63413 4.66006 1.6114 4.69899 1.58891C6.0647 0.800042 6.89798 0.31872 7.79592 0.127104ZM5.68582 9.5C5.68582 7.64833 7.15269 6.11615 9 6.11615C10.8473 6.11615 12.3142 7.64833 12.3142 9.5C12.3142 11.3517 10.8473 12.8838 9 12.8838C7.15269 12.8838 5.68582 11.3517 5.68582 9.5ZM9 7.57769C7.9926 7.57769 7.14527 8.42116 7.14527 9.5C7.14527 10.5788 7.9926 11.4223 9 11.4223C10.0074 11.4223 10.8547 10.5788 10.8547 9.5C10.8547 8.42116 10.0074 7.57769 9 7.57769Z" fill="#363853"/>
</svg>
