<svg width="18" height="19" viewBox="0 0 18 19" fill="none" xmlns="http://www.w3.org/2000/svg">
<path fill-rule="evenodd" clip-rule="evenodd" d="M9.83053 1.97273C10.4534 1.3499 11.2981 1 12.1789 1C14.0131 1 15.5 2.48691 15.5 4.3211C15.5 5.20191 15.1501 6.04665 14.5273 6.66947L10.6104 10.5863C8.81153 12.3852 6.55752 13.6614 4.08943 14.2784L3.33239 14.4677C2.54722 14.664 1.83601 13.9528 2.0323 13.1676L2.22156 12.4106C2.83859 9.94248 4.11478 7.68847 5.9137 5.88955L9.83053 1.97273ZM12.1789 2.5C11.6959 2.5 11.2327 2.69187 10.8912 3.03339L10.288 3.63654C10.1983 4.15211 10.4537 4.84717 11.0533 5.44673C11.6528 6.04629 12.3479 6.30169 12.8635 6.21197L13.4666 5.60881C13.8081 5.26729 14 4.80409 14 4.3211C14 3.31533 13.1847 2.5 12.1789 2.5ZM11.5499 7.5255C10.955 7.30462 10.4142 6.92901 9.99261 6.50739C9.57099 6.08577 9.19538 5.545 8.9745 4.95008L6.97436 6.95021C5.36768 8.55689 4.22786 10.57 3.67678 12.7744L3.66049 12.8395L3.72562 12.8232C5.92997 12.2721 7.94311 11.1323 9.54979 9.52564L11.5499 7.5255Z" fill="#363853"/>
<path fill-rule="evenodd" clip-rule="evenodd" d="M1 17.75C1 17.3358 1.33579 17 1.75 17H15.75C16.1642 17 16.5 17.3358 16.5 17.75C16.5 18.1642 16.1642 18.5 15.75 18.5H1.75C1.33579 18.5 1 18.1642 1 17.75Z" fill="#363853"/>
</svg>
