<svg width="18" height="19" viewBox="0 0 18 19" fill="none" xmlns="http://www.w3.org/2000/svg">
<path fill-rule="evenodd" clip-rule="evenodd" d="M6.35054 2.89067C7.33939 0.369777 10.6606 0.369779 11.6495 2.89067L12.1828 4.25025C12.4072 4.82245 12.8958 5.21041 13.4529 5.27723L14.9412 5.45572C17.3907 5.74951 18.36 8.97331 16.6054 10.7702L15.3418 12.0642C14.9476 12.4678 14.77 13.0672 14.8788 13.6504L15.1839 15.285C15.6747 17.9142 12.9968 19.9834 10.8278 18.5084L9.82975 17.8297C9.3219 17.4843 8.6781 17.4843 8.17025 17.8297L7.17218 18.5084C5.00324 19.9834 2.32533 17.9142 2.81606 15.285L3.12115 13.6504C3.23002 13.0672 3.05238 12.4678 2.65824 12.0642L1.39464 10.7702C-0.359971 8.97331 0.609278 5.74951 3.05883 5.45572L4.54708 5.27723C5.10423 5.21041 5.59278 4.82245 5.81723 4.25025L6.35054 2.89067ZM10.4416 3.42139C9.89909 2.03842 8.10091 2.03842 7.55843 3.42139L7.02512 4.78097C6.62244 5.80752 5.73413 6.52788 4.69434 6.65259L3.2061 6.83108C1.8967 6.98813 1.3134 8.76091 2.30408 9.77545L3.56768 11.0695C4.28468 11.8037 4.59801 12.8803 4.40419 13.9187L4.09911 15.5532C3.81748 17.0621 5.32818 18.1172 6.4652 17.3439L7.46327 16.6652C8.40182 16.027 9.59818 16.027 10.5367 16.6652L11.5348 17.3439C12.6718 18.1172 14.1825 17.0621 13.9009 15.5532L13.5958 13.9187C13.402 12.8803 13.7153 11.8037 14.4323 11.0695L15.6959 9.77545C16.6866 8.76091 16.1033 6.98813 14.7939 6.83108L13.3057 6.65259C12.2659 6.52788 11.3776 5.80752 10.9749 4.78097L10.4416 3.42139Z" fill="#363853"/>
</svg>
