<svg width="18" height="19" viewBox="0 0 18 19" fill="none" xmlns="http://www.w3.org/2000/svg">
<path fill-rule="evenodd" clip-rule="evenodd" d="M8.90357 13.2428C8.63137 13.5551 8.15761 13.5875 7.84538 13.3153L3.25715 9.31532C3.09377 9.17289 3 8.96674 3 8.74999C3 8.53324 3.09377 8.32709 3.25715 8.18466L7.84538 4.18466C8.15761 3.91247 8.63137 3.94492 8.90356 4.25714C9.17576 4.56936 9.14331 5.04313 8.83109 5.31532L5.75161 7.99999L14.75 7.99999C15.1642 7.99999 15.5 8.33578 15.5 8.74999C15.5 9.1642 15.1642 9.49999 14.75 9.49999L5.75161 9.49999L8.83109 12.1847C9.14331 12.4569 9.17576 12.9306 8.90357 13.2428Z" fill="#363853"/>
</svg>
