<svg width="200" height="140" viewBox="0 0 200 140" fill="none" xmlns="http://www.w3.org/2000/svg">
<rect width="200" height="140" fill="white"/>
<g opacity="0.1">
<path fill-rule="evenodd" clip-rule="evenodd" d="M78.6393 32.4962C78.6465 34.8949 76.7079 36.8451 74.3092 36.8523C67.0219 36.8742 64.0452 37.1036 61.7823 38.0534C58.2658 39.5294 55.3873 42.2623 53.7013 45.754C53.112 46.9743 52.685 48.5254 52.3524 51.0749C52.0144 53.6661 51.8081 56.9729 51.5184 61.6711L50.6217 76.2101C49.9025 87.8713 49.3998 96.1759 49.8638 102.495C50.3189 108.694 51.6688 112.272 54.1078 114.903C56.5383 117.525 59.9525 119.101 66.0009 119.944C72.1806 120.806 80.3767 120.816 91.911 120.816H114.589C126.124 120.816 134.32 120.806 140.499 119.944C146.548 119.101 149.962 117.525 152.392 114.903C154.831 112.272 156.181 108.694 156.637 102.495C157.1 96.1759 156.598 87.8713 155.879 76.2101L154.982 61.6711C154.692 56.9729 154.486 53.6661 154.148 51.0749C153.815 48.5254 153.388 46.9743 152.799 45.754C151.113 42.2623 148.234 39.5294 144.718 38.0534C142.455 37.1036 139.478 36.8742 132.191 36.8523C129.792 36.8451 127.854 34.8949 127.861 32.4962C127.868 30.0976 129.818 28.159 132.217 28.1662C139.067 28.1867 143.914 28.2955 148.08 30.0441C153.568 32.3478 158.023 36.5965 160.621 41.9771C161.78 44.3776 162.37 46.9565 162.761 49.9514C163.142 52.8709 163.364 56.4735 163.642 60.9807L164.569 76.0086C165.263 87.2624 165.811 96.1557 165.299 103.131C164.773 110.293 163.094 116.136 158.763 120.808C154.423 125.49 148.749 127.565 141.699 128.547C134.85 129.502 126.047 129.502 114.931 129.502H91.5694C80.4533 129.502 71.6507 129.502 64.8017 128.547C57.7517 127.565 52.0776 125.49 47.7377 120.808C43.4064 116.136 41.7268 110.293 41.2009 103.131C40.6888 96.1557 41.2373 87.2624 41.9315 76.0087L42.8583 60.9809C43.1362 56.4736 43.3584 52.871 43.7392 49.9514C44.1299 46.9565 44.7201 44.3776 45.8792 41.9771C48.4773 36.5965 52.9321 32.3478 58.4206 30.0441C62.5866 28.2955 67.4336 28.1867 74.2832 28.1662C76.6818 28.159 78.6321 30.0976 78.6393 32.4962Z" fill="#272D37"/>
<path fill-rule="evenodd" clip-rule="evenodd" d="M103.067 5H103.431C106.929 4.99994 109.825 4.99989 112.216 5.20355C114.722 5.41697 116.986 5.87259 119.17 6.95391C123.061 8.88031 125.521 11.9418 127.248 15.0123C128.587 17.3925 129.626 20.0659 130.507 22.3322C130.715 22.8672 130.914 23.3795 131.106 23.8599L136.236 36.684C137.126 38.9111 136.043 41.4386 133.816 42.3295C131.589 43.2203 129.061 42.1371 128.171 39.91L123.041 27.0859C122.78 26.4343 122.535 25.8061 122.298 25.1986C121.438 22.9932 120.684 21.0607 119.677 19.2702C118.465 17.1149 117.116 15.6294 115.316 14.7383C114.465 14.3166 113.385 14.0207 111.479 13.8584C109.5 13.6898 106.975 13.6862 103.249 13.6862C99.5234 13.6862 96.9987 13.6898 95.0194 13.8584C93.1136 14.0207 92.0336 14.3166 91.1819 14.7383C89.382 15.6294 88.0334 17.1149 86.8213 19.2702C85.8143 21.0607 85.0604 22.9932 84.2001 25.1986C83.9631 25.8061 83.718 26.4343 83.4574 27.0859L78.3277 39.91C77.4369 42.1371 74.9093 43.2203 72.6823 42.3295C70.4552 41.4386 69.372 38.9111 70.2628 36.684L75.3924 23.8599C75.5846 23.3795 75.7837 22.8672 75.9917 22.3322C76.8726 20.0659 77.9116 17.3925 79.2503 15.0123C80.9771 11.9418 83.4369 8.88032 87.3279 6.95391C89.512 5.87259 91.7764 5.41697 94.2823 5.20355C96.6734 4.99989 99.569 4.99994 103.067 5Z" fill="#272D37"/>
<path fill-rule="evenodd" clip-rule="evenodd" d="M103.249 62.9078C94.4542 62.9078 87.3245 70.0375 87.3245 78.8325C87.3245 87.6274 94.4542 94.7571 103.249 94.7571C112.044 94.7571 119.174 87.6274 119.174 78.8325C119.174 70.0375 112.044 62.9078 103.249 62.9078ZM78.6384 78.8325C78.6384 65.2403 89.657 54.2217 103.249 54.2217C116.841 54.2217 127.86 65.2403 127.86 78.8325C127.86 92.4247 116.841 103.443 103.249 103.443C89.657 103.443 78.6384 92.4247 78.6384 78.8325Z" fill="#272D37"/>
<path fill-rule="evenodd" clip-rule="evenodd" d="M97.4573 32.5062C97.4573 29.3081 100.05 26.7154 103.248 26.7154H103.3C106.498 26.7154 109.091 29.3081 109.091 32.5062C109.091 35.7044 106.498 38.297 103.3 38.297H103.248C100.05 38.297 97.4573 35.7044 97.4573 32.5062Z" fill="#272D37"/>
</g>
</svg>
