<svg width="17" height="16" viewBox="0 0 17 16" fill="none" xmlns="http://www.w3.org/2000/svg">
<path fill-rule="evenodd" clip-rule="evenodd" d="M6.54995 2.8C6.19097 2.8 5.89995 3.09101 5.89995 3.45V4.75H7.84995C8.20894 4.75 8.49995 5.04101 8.49995 5.4C8.49995 5.75898 8.20894 6.05 7.84995 6.05L3.37927 6.05L4.07146 12.049C4.14715 12.705 4.70257 13.2 5.36289 13.2H11.637C12.2973 13.2 12.8528 12.705 12.9284 12.049L13.6206 6.05H11.1C10.741 6.05 10.45 5.75898 10.45 5.4C10.45 5.04101 10.741 4.75 11.1 4.75V3.45C11.1 3.09101 10.8089 2.8 10.45 2.8H6.54995ZM12.4 4.75V3.45C12.4 2.37304 11.5269 1.5 10.45 1.5H6.54995C5.473 1.5 4.59995 2.37304 4.59995 3.45V4.75H3.37927C2.60226 4.75 1.99877 5.42712 2.08784 6.19901L2.78003 12.198C2.93141 13.51 4.04225 14.5 5.36289 14.5H11.637C12.9577 14.5 14.0685 13.51 14.2199 12.198L14.9121 6.19901C15.0011 5.42712 14.3977 4.75 13.6206 4.75H12.4Z" fill="#AAB0B9"/>
</svg>
