<svg width="49" height="49" viewBox="0 0 49 49" fill="none" xmlns="http://www.w3.org/2000/svg">
<g clip-path="url(#clip0_660_872)">
<path fill-rule="evenodd" clip-rule="evenodd" d="M20.6839 5.32365e-07L23.3161 6.66857e-07C27.7181 -2.81145e-05 31.1849 -5.08382e-05 33.8939 0.343925C36.667 0.696042 38.9013 1.43452 40.6706 3.10553C42.4536 4.78944 43.254 6.93773 43.6332 9.60151C44.0001 12.1785 44 15.4686 44 19.6098V22C44 22.9346 43.2423 23.6923 42.3077 23.6923C41.3731 23.6923 40.6154 22.9346 40.6154 22V19.7436C40.6154 15.4383 40.6114 12.3894 40.2824 10.0785C39.9618 7.82667 39.3627 6.52582 38.3467 5.56619C37.3169 4.59365 35.8992 4.01035 33.4675 3.70158C30.9966 3.38783 27.7448 3.38462 23.1946 3.38462H20.8054C16.2552 3.38462 13.0034 3.38783 10.5325 3.70158C8.10076 4.01035 6.68309 4.59365 5.65334 5.56619C4.63725 6.52582 4.03817 7.82667 3.71761 10.0785C3.38864 12.3894 3.38462 15.4383 3.38462 19.7436L3.38462 28.7692C3.38462 33.0745 3.38864 36.1234 3.71761 38.4343C4.03817 40.6861 4.63725 41.987 5.65334 42.9466C6.68308 43.9192 8.10076 44.5025 10.5325 44.8112C13.0034 45.125 16.2552 45.1282 20.8054 45.1282H22C22.9346 45.1282 23.6923 45.8859 23.6923 46.8205C23.6923 47.7551 22.9346 48.5128 22 48.5128H20.6839C16.2819 48.5129 12.8151 48.5129 10.1061 48.1689C7.33304 47.8168 5.09869 47.0783 3.32938 45.4073C1.54642 43.7234 0.745975 41.5751 0.366774 38.9113C-7.52149e-05 36.3343 -4.15879e-05 33.0442 9.11771e-07 28.9031L1.31525e-06 19.6097C-4.07809e-05 15.4686 -7.40045e-05 12.1785 0.366775 9.6015C0.745977 6.93773 1.54642 4.78944 3.32938 3.10553C5.09869 1.43451 7.33304 0.696041 10.1061 0.343924C12.8151 -5.13761e-05 16.2819 -2.8518e-05 20.6839 5.32365e-07Z" fill="#BDC1C8"/>
<path fill-rule="evenodd" clip-rule="evenodd" d="M11.282 12.9745C11.282 12.0399 12.0397 11.2822 12.9743 11.2822H31.0256C31.9602 11.2822 32.7179 12.0399 32.7179 12.9745C32.7179 13.9092 31.9602 14.6668 31.0256 14.6668H12.9743C12.0397 14.6668 11.282 13.9092 11.282 12.9745Z" fill="#BDC1C8"/>
<path fill-rule="evenodd" clip-rule="evenodd" d="M11.282 24.2568C11.282 23.3221 12.0397 22.5645 12.9743 22.5645H24.2563C25.191 22.5645 25.9486 23.3221 25.9486 24.2568C25.9486 25.1914 25.191 25.9491 24.2563 25.9491H12.9743C12.0397 25.9491 11.282 25.1914 11.282 24.2568Z" fill="#BDC1C8"/>
<rect x="26" y="26" width="23" height="23" rx="8" fill="#8A3DBE"/>
<g clip-path="url(#clip1_660_872)">
<circle cx="34.6875" cy="34.6875" r="0.9375" fill="white"/>
<path d="M31.5625 37.5C31.5625 34.701 31.5625 33.3016 32.432 32.432C33.3016 31.5625 34.701 31.5625 37.5 31.5625C40.299 31.5625 41.6984 31.5625 42.568 32.432C43.4375 33.3016 43.4375 34.701 43.4375 37.5C43.4375 40.299 43.4375 41.6984 42.568 42.568C41.6984 43.4375 40.299 43.4375 37.5 43.4375C34.701 43.4375 33.3016 43.4375 32.432 42.568C31.5625 41.6984 31.5625 40.299 31.5625 37.5Z" stroke="white" stroke-width="1.5"/>
<path d="M33.125 43.125C35.8578 39.8593 38.9213 35.5525 43.4359 38.464" stroke="white" stroke-width="1.5"/>
</g>
</g>
<defs>
<clipPath id="clip0_660_872">
<rect width="49" height="49" fill="white"/>
</clipPath>
<clipPath id="clip1_660_872">
<rect width="15" height="15" fill="white" transform="translate(30 30)"/>
</clipPath>
</defs>
</svg>
