<svg width="49" height="49" viewBox="0 0 49 49" fill="none" xmlns="http://www.w3.org/2000/svg">
<g clip-path="url(#clip0_660_865)">
<path fill-rule="evenodd" clip-rule="evenodd" d="M20.6839 5.32365e-07L23.3161 6.66857e-07C27.7181 -2.81145e-05 31.1849 -5.08382e-05 33.8939 0.343925C36.667 0.696042 38.9013 1.43452 40.6706 3.10553C42.4536 4.78944 43.254 6.93773 43.6332 9.60151C44.0001 12.1785 44 15.4686 44 19.6098V22C44 22.9346 43.2423 23.6923 42.3077 23.6923C41.3731 23.6923 40.6154 22.9346 40.6154 22V19.7436C40.6154 15.4383 40.6114 12.3894 40.2824 10.0785C39.9618 7.82667 39.3627 6.52582 38.3467 5.56619C37.3169 4.59365 35.8992 4.01035 33.4675 3.70158C30.9966 3.38783 27.7448 3.38462 23.1946 3.38462H20.8054C16.2552 3.38462 13.0034 3.38783 10.5325 3.70158C8.10076 4.01035 6.68309 4.59365 5.65334 5.56619C4.63725 6.52582 4.03817 7.82667 3.71761 10.0785C3.38864 12.3894 3.38462 15.4383 3.38462 19.7436L3.38462 28.7692C3.38462 33.0745 3.38864 36.1234 3.71761 38.4343C4.03817 40.6861 4.63725 41.987 5.65334 42.9466C6.68308 43.9192 8.10076 44.5025 10.5325 44.8112C13.0034 45.125 16.2552 45.1282 20.8054 45.1282H22C22.9346 45.1282 23.6923 45.8859 23.6923 46.8205C23.6923 47.7551 22.9346 48.5128 22 48.5128H20.6839C16.2819 48.5129 12.8151 48.5129 10.1061 48.1689C7.33304 47.8168 5.09869 47.0783 3.32938 45.4073C1.54642 43.7234 0.745975 41.5751 0.366774 38.9113C-7.52149e-05 36.3343 -4.15879e-05 33.0442 9.11771e-07 28.9031L1.31525e-06 19.6097C-4.07809e-05 15.4686 -7.40045e-05 12.1785 0.366775 9.6015C0.745977 6.93773 1.54642 4.78944 3.32938 3.10553C5.09869 1.43451 7.33304 0.696041 10.1061 0.343924C12.8151 -5.13761e-05 16.2819 -2.8518e-05 20.6839 5.32365e-07Z" fill="#BDC1C8"/>
<path fill-rule="evenodd" clip-rule="evenodd" d="M11.282 12.9745C11.282 12.0399 12.0397 11.2822 12.9743 11.2822H31.0256C31.9602 11.2822 32.7179 12.0399 32.7179 12.9745C32.7179 13.9092 31.9602 14.6668 31.0256 14.6668H12.9743C12.0397 14.6668 11.282 13.9092 11.282 12.9745Z" fill="#BDC1C8"/>
<path fill-rule="evenodd" clip-rule="evenodd" d="M11.282 24.2568C11.282 23.3221 12.0397 22.5645 12.9743 22.5645H24.2563C25.191 22.5645 25.9486 23.3221 25.9486 24.2568C25.9486 25.1914 25.191 25.9491 24.2563 25.9491H12.9743C12.0397 25.9491 11.282 25.1914 11.282 24.2568Z" fill="#BDC1C8"/>
<rect x="26" y="26" width="23" height="23" rx="8" fill="#EF250E"/>
<path d="M45.7291 39.3512C45.2455 38.8439 44.218 38.5805 42.7674 38.5805C41.9615 38.5805 41.0448 38.6585 40.0274 38.8244C39.4431 38.2976 38.879 37.6634 38.335 36.9415C37.9522 36.4244 37.5997 35.8878 37.2874 35.3512C37.8011 33.8195 38.1537 32.3463 38.1537 31.2244C38.1537 30.3854 37.8717 29 36.5822 29C36.2498 29 35.8871 29.2049 35.7058 29.5073C35.1618 30.4146 35.4137 32.4634 36.4009 34.5512C36.0584 35.5561 35.6655 36.561 35.182 37.7024C34.779 38.6488 34.2955 39.6146 33.7818 40.5024C30.9813 41.5756 29.1983 42.7951 29.0169 43.7707C28.9565 44.0927 29.0572 44.4049 29.3292 44.6585C29.4904 44.8049 29.8329 45 30.3366 45C31.9484 45 33.7415 42.7171 35.0813 40.3854C35.8267 40.1317 36.6124 39.9073 37.4183 39.6927C38.2947 39.4683 39.1309 39.2927 39.9267 39.1561C41.8709 40.8634 43.5935 41.1171 44.4497 41.1171C45.5175 41.1171 45.8197 40.6878 45.9306 40.4146C46.0917 40.0146 45.9507 39.5854 45.7291 39.3512ZM35.998 29.6634C36.1289 29.4488 36.3405 29.3122 36.5822 29.3122C37.0557 29.3122 37.3277 29.722 37.3277 30.4732C37.3277 31.2829 37.0658 32.6 36.5621 34.1122C35.6252 31.9951 35.6152 30.3073 35.998 29.6634ZM29.3292 43.8293C29.4904 43.0195 31.082 41.9268 33.5198 40.9415C32.1599 43.1951 30.8201 44.5805 29.9739 44.5805C29.8127 44.5805 29.6516 44.5317 29.5307 44.4244C29.3594 44.2585 29.2889 44.0537 29.3292 43.8293ZM39.6345 38.8927C38.9092 39.0195 38.1336 39.1854 37.3478 39.3902C36.6527 39.5659 35.9778 39.7707 35.323 39.9756C35.7058 39.2829 36.0383 38.6098 36.2901 37.9951C36.6024 37.2634 36.9046 36.5024 37.1665 35.7415C37.4486 36.2098 37.7508 36.6683 38.0832 37.1171C38.5768 37.7902 39.1006 38.3854 39.6345 38.8927ZM40.3397 39.0878C41.9817 38.7951 43.4222 38.8537 44.0367 38.9805C44.6713 39.1073 45.0038 39.478 44.893 40.0244C44.7822 40.5805 44.0972 40.8439 43.3416 40.6683C42.1328 40.3854 41.1355 39.7512 40.3397 39.0878Z" fill="white" stroke="white"/>
</g>
<defs>
<clipPath id="clip0_660_865">
<rect width="49" height="49" fill="white"/>
</clipPath>
</defs>
</svg>
