<svg width="14" height="18" viewBox="0 0 14 18" fill="none" xmlns="http://www.w3.org/2000/svg">
<g clip-path="url(#clip0_547_1387)">
<path d="M0 15.5C0 16.6046 0.895431 17.5 2 17.5H12C13.1046 17.5 14 16.6046 14 15.5V6.9C14 5.79543 13.1046 4.9 12 4.9H2C0.89543 4.9 0 5.79543 0 6.9V15.5ZM3.4 16.1C2.29543 16.1 1.4 15.2046 1.4 14.1V8.3C1.4 7.19543 2.29543 6.3 3.4 6.3H10.6C11.7046 6.3 12.6 7.19543 12.6 8.3V14.1C12.6 15.2046 11.7046 16.1 10.6 16.1H3.4ZM3.5 7C3.5 7.3866 3.8134 7.7 4.2 7.7V7.7C4.5866 7.7 4.9 7.3866 4.9 7V3.668C4.9 2.296 5.712 1.414 7 1.4C8.288 1.386 9.1 2.254 9.1 3.668V7C9.1 7.3866 9.4134 7.7 9.8 7.7V7.7C10.1866 7.7 10.5 7.3866 10.5 7V3.668C10.5 1.456 9.156 0.042 7 0C4.844 0.042 3.5 1.456 3.5 3.668V7Z" fill="white"/>
</g>
<defs>
<clipPath id="clip0_547_1387">
<rect width="14" height="18" fill="white"/>
</clipPath>
</defs>
</svg>
