<svg width="17" height="16" viewBox="0 0 17 16" fill="none" xmlns="http://www.w3.org/2000/svg">
<path fill-rule="evenodd" clip-rule="evenodd" d="M11.6161 3.12766C11.9254 3.35267 12.002 3.79775 11.7873 4.12177L7.68251 10.3139L8.66782 11.3841C8.81823 11.5474 8.96155 11.581 9.06823 11.5692C9.17949 11.5568 9.33727 11.4844 9.48249 11.2653L14.7581 3.30691C14.9729 2.9829 15.3977 2.90264 15.707 3.12766C16.0163 3.35267 16.0929 3.79775 15.8781 4.12177L10.6025 12.0802C10.2645 12.5901 9.77162 12.9276 9.21199 12.9898C8.64778 13.0524 8.1 12.8251 7.68634 12.3758L6.88944 11.5103L6.51164 12.0802C6.17362 12.5901 5.68072 12.9276 5.12109 12.9898C4.55689 13.0524 4.00911 12.8251 3.59544 12.3758L1.19107 9.76432C0.929659 9.48038 0.937454 9.0282 1.20848 8.75434C1.47951 8.48048 1.91114 8.48865 2.17256 8.77258L4.57693 11.3841C4.72734 11.5474 4.87066 11.581 4.97734 11.5692C5.0886 11.5568 5.24637 11.4844 5.3916 11.2653L5.92421 10.4619L5.28197 9.76432C5.02055 9.48038 5.02835 9.0282 5.29938 8.75434C5.57041 8.48048 6.00204 8.48865 6.26345 8.77258L6.71728 9.2655L10.6672 3.30691C10.882 2.9829 11.3069 2.90264 11.6161 3.12766Z" fill="#2CAF30"/>
</svg>
