<svg width="17" height="16" viewBox="0 0 17 16" fill="none" xmlns="http://www.w3.org/2000/svg">
<path fill-rule="evenodd" clip-rule="evenodd" d="M5.10125 1.2257C5.30048 1.48503 5.2601 1.86343 5.01107 2.0709L3.53043 3.30437C3.2814 3.51183 2.91802 3.46979 2.71879 3.21046C2.51957 2.95114 2.55994 2.57273 2.80897 2.36527L4.28961 1.13179C4.53864 0.924329 4.90203 0.966374 5.10125 1.2257ZM11.8987 1.2257C12.098 0.966374 12.4614 0.924329 12.7104 1.13179L14.191 2.36527C14.4401 2.57273 14.4804 2.95114 14.2812 3.21046C14.082 3.46979 13.7186 3.51183 13.4696 3.30437L11.9889 2.0709C11.7399 1.86343 11.6995 1.48503 11.8987 1.2257ZM8.5 2.66522C5.54798 2.66522 3.1549 5.15723 3.1549 8.23129C3.1549 11.3053 5.54798 13.7974 8.5 13.7974C11.452 13.7974 13.8451 11.3053 13.8451 8.23129C13.8451 5.15723 11.452 2.66522 8.5 2.66522ZM2 8.23129C2 4.49303 4.91015 1.46258 8.5 1.46258C12.0899 1.46258 15 4.49303 15 8.23129C15 11.9695 12.0899 15 8.5 15C4.91015 15 2 11.9695 2 8.23129ZM8.5 5.16301C8.81892 5.16301 9.07745 5.43223 9.07745 5.76433L9.07745 7.92292C9.07745 8.76594 8.42117 9.44935 7.61162 9.44935H6.72323C6.40432 9.44935 6.14579 9.18013 6.14579 8.84803C6.14579 8.51593 6.40432 8.24671 6.72323 8.24671H7.61162C7.78334 8.24671 7.92255 8.10174 7.92255 7.92292L7.92255 5.76433C7.92255 5.43223 8.18108 5.16301 8.5 5.16301Z" fill="#AAB0B9"/>
</svg>
