<svg width="17" height="16" viewBox="0 0 17 16" fill="none" xmlns="http://www.w3.org/2000/svg">
<path fill-rule="evenodd" clip-rule="evenodd" d="M13.8067 2.69331C14.0645 2.95106 14.0645 3.36895 13.8067 3.6267L9.4334 8.00001L13.8067 12.3733C14.0644 12.6311 14.0644 13.049 13.8067 13.3067C13.549 13.5644 13.1311 13.5644 12.8733 13.3067L8.50001 8.9334L4.12671 13.3067C3.86897 13.5644 3.45108 13.5644 3.19333 13.3067C2.93558 13.049 2.93558 12.6311 3.19333 12.3733L7.56663 8.00001L3.19331 3.6267C2.93556 3.36895 2.93556 2.95106 3.19331 2.69331C3.45106 2.43557 3.86895 2.43557 4.1267 2.69331L8.50001 7.06663L12.8733 2.69331C13.1311 2.43556 13.549 2.43556 13.8067 2.69331Z" fill="#AAB0B9"/>
</svg>
