<svg width="14" height="18" viewBox="0 0 14 18" fill="none" xmlns="http://www.w3.org/2000/svg">
<path fill-rule="evenodd" clip-rule="evenodd" d="M6.99126 4.71428C6.06888 4.71428 5.3051 5.47288 5.3051 6.42857C5.3051 7.38426 6.06888 8.14285 6.99126 8.14285C7.91363 8.14285 8.67742 7.38426 8.67742 6.42857C8.67742 5.47288 7.91363 4.71428 6.99126 4.71428ZM3.59081 6.42857C3.59081 4.54394 5.10438 3 6.99126 3C8.87813 3 10.3917 4.54394 10.3917 6.42857C10.3917 8.3132 8.87813 9.85714 6.99126 9.85714C5.10438 9.85714 3.59081 8.3132 3.59081 6.42857ZM10.9374 14.7198C8.89893 12.4804 5.09873 12.5604 3.05204 14.7309C2.72727 15.0753 2.18479 15.0912 1.84038 14.7665C1.49597 14.4417 1.48005 13.8992 1.80482 13.5548C4.49556 10.7014 9.45529 10.5449 12.2052 13.5659C12.5238 13.9159 12.4983 14.4581 12.1483 14.7767C11.7982 15.0954 11.2561 15.0699 10.9374 14.7198Z" fill="#AAB0B9"/>
</svg>
