<svg width="105" height="140" viewBox="0 0 105 140" fill="none" xmlns="http://www.w3.org/2000/svg">
<path opacity="0.05" d="M0 5L19.4613 21.9264C27.1797 28.6395 27.2645 40.5994 19.642 47.4213L0 65V5Z" fill="#051B45"/>
<path opacity="0.05" d="M35 75L15.5387 91.9264C7.82027 98.6395 7.73552 110.599 15.358 117.421L35 135V75Z" fill="#051B45"/>
<path opacity="0.1" d="M70 75L50.5387 91.9264C42.8203 98.6395 42.7355 110.599 50.358 117.421L70 135V75Z" fill="#051B45"/>
<path opacity="0.1" d="M105 75L85.5387 91.9264C77.8203 98.6395 77.7355 110.599 85.358 117.421L105 135V75Z" fill="#051B45"/>
<path opacity="0.1" d="M35 5L54.4613 21.9264C62.1797 28.6395 62.2645 40.5994 54.642 47.4213L35 65V5Z" fill="#051B45"/>
<path opacity="0.1" d="M70 5L89.4613 21.9264C97.1797 28.6395 97.2645 40.5994 89.642 47.4213L70 65V5Z" fill="#051B45"/>
<path fill-rule="evenodd" clip-rule="evenodd" d="M9.68212 30.571C9.9714 30.8799 9.9693 31.3786 9.67743 31.6847L8.21988 33.2136C7.62627 33.8363 7.22653 34.2573 6.9574 34.6119C6.69771 34.9542 6.62144 35.1575 6.60117 35.3258C6.58721 35.4417 6.58721 35.559 6.60117 35.675C6.62144 35.8433 6.69771 36.0466 6.9574 36.3888C7.22653 36.7435 7.62628 37.1645 8.21988 37.7872L9.67743 39.3161C9.9693 39.6222 9.9714 40.1208 9.68212 40.4297C9.39284 40.7387 8.92172 40.7409 8.62984 40.4347L7.14159 38.8736C6.58655 38.2914 6.12549 37.8078 5.7971 37.375C5.45324 36.9219 5.19417 36.4488 5.12495 35.8741C5.09507 35.626 5.09507 35.3748 5.12495 35.1267C5.19417 34.5519 5.45324 34.0789 5.7971 33.6257C6.12549 33.193 6.58655 32.7094 7.14158 32.1272C7.15179 32.1165 7.16203 32.1057 7.1723 32.095L8.62984 30.5661C8.92172 30.2599 9.39284 30.2621 9.68212 30.571Z" fill="#0B1530"/>
<path fill-rule="evenodd" clip-rule="evenodd" d="M25.3179 100.571C25.0286 100.88 25.0307 101.379 25.3226 101.685L26.7801 103.214C27.3737 103.836 27.7735 104.257 28.0426 104.612C28.3023 104.954 28.3786 105.157 28.3988 105.326C28.4128 105.442 28.4128 105.559 28.3988 105.675C28.3786 105.843 28.3023 106.047 28.0426 106.389C27.7735 106.744 27.3737 107.165 26.7801 107.787L25.3226 109.316C25.0307 109.622 25.0286 110.121 25.3179 110.43C25.6072 110.739 26.0783 110.741 26.3702 110.435L27.8584 108.874C28.4134 108.291 28.8745 107.808 29.2029 107.375C29.5468 106.922 29.8058 106.449 29.875 105.874C29.9049 105.626 29.9049 105.375 29.875 105.127C29.8058 104.552 29.5468 104.079 29.2029 103.626C28.8745 103.193 28.4135 102.709 27.8584 102.127C27.8482 102.116 27.838 102.106 27.8277 102.095L26.3702 100.566C26.0783 100.26 25.6072 100.262 25.3179 100.571Z" fill="#0B1530"/>
<path fill-rule="evenodd" clip-rule="evenodd" d="M60.3179 100.571C60.0286 100.88 60.0307 101.379 60.3226 101.685L61.7801 103.214C62.3737 103.836 62.7735 104.257 63.0426 104.612C63.3023 104.954 63.3786 105.157 63.3988 105.326C63.4128 105.442 63.4128 105.559 63.3988 105.675C63.3786 105.843 63.3023 106.047 63.0426 106.389C62.7735 106.744 62.3737 107.165 61.7801 107.787L60.3226 109.316C60.0307 109.622 60.0286 110.121 60.3179 110.43C60.6072 110.739 61.0783 110.741 61.3702 110.435L62.8584 108.874C63.4134 108.291 63.8745 107.808 64.2029 107.375C64.5468 106.922 64.8058 106.449 64.875 105.874C64.9049 105.626 64.9049 105.375 64.875 105.127C64.8058 104.552 64.5468 104.079 64.2029 103.626C63.8745 103.193 63.4135 102.709 62.8584 102.127C62.8482 102.116 62.838 102.106 62.8277 102.095L61.3702 100.566C61.0783 100.26 60.6072 100.262 60.3179 100.571Z" fill="#0B1530"/>
<path fill-rule="evenodd" clip-rule="evenodd" d="M96.3179 100.571C96.0286 100.88 96.0307 101.379 96.3226 101.685L97.7801 103.214C98.3737 103.836 98.7735 104.257 99.0426 104.612C99.3023 104.954 99.3786 105.157 99.3988 105.326C99.4128 105.442 99.4128 105.559 99.3988 105.675C99.3786 105.843 99.3023 106.047 99.0426 106.389C98.7735 106.744 98.3737 107.165 97.7801 107.787L96.3226 109.316C96.0307 109.622 96.0286 110.121 96.3179 110.43C96.6072 110.739 97.0783 110.741 97.3702 110.435L98.8584 108.874C99.4134 108.291 99.8745 107.808 100.203 107.375C100.547 106.922 100.806 106.449 100.875 105.874C100.905 105.626 100.905 105.375 100.875 105.127C100.806 104.552 100.547 104.079 100.203 103.626C99.8745 103.193 99.4135 102.709 98.8584 102.127C98.8482 102.116 98.838 102.106 98.8277 102.095L97.3702 100.566C97.0783 100.26 96.6072 100.262 96.3179 100.571Z" fill="#0B1530"/>
<path fill-rule="evenodd" clip-rule="evenodd" d="M44.6821 30.571C44.9714 30.8799 44.9693 31.3786 44.6774 31.6847L43.2199 33.2136C42.6263 33.8363 42.2265 34.2573 41.9574 34.6119C41.6977 34.9542 41.6214 35.1575 41.6012 35.3258C41.5872 35.4417 41.5872 35.559 41.6012 35.675C41.6214 35.8433 41.6977 36.0466 41.9574 36.3888C42.2265 36.7435 42.6263 37.1645 43.2199 37.7872L44.6774 39.3161C44.9693 39.6222 44.9714 40.1208 44.6821 40.4297C44.3928 40.7387 43.9217 40.7409 43.6298 40.4347L42.1416 38.8736C41.5866 38.2914 41.1255 37.8078 40.7971 37.375C40.4532 36.9219 40.1942 36.4488 40.125 35.8741C40.0951 35.626 40.0951 35.3748 40.125 35.1267C40.1942 34.5519 40.4532 34.0789 40.7971 33.6257C41.1255 33.193 41.5865 32.7094 42.1416 32.1272C42.1518 32.1165 42.162 32.1057 42.1723 32.095L43.6298 30.5661C43.9217 30.2599 44.3928 30.2621 44.6821 30.571Z" fill="#0B1530"/>
<path fill-rule="evenodd" clip-rule="evenodd" d="M78.6821 30.571C78.9714 30.8799 78.9693 31.3786 78.6774 31.6847L77.2199 33.2136C76.6263 33.8363 76.2265 34.2573 75.9574 34.6119C75.6977 34.9542 75.6214 35.1575 75.6012 35.3258C75.5872 35.4417 75.5872 35.559 75.6012 35.675C75.6214 35.8433 75.6977 36.0466 75.9574 36.3888C76.2265 36.7435 76.6263 37.1645 77.2199 37.7872L78.6774 39.3161C78.9693 39.6222 78.9714 40.1208 78.6821 40.4297C78.3928 40.7387 77.9217 40.7409 77.6298 40.4347L76.1416 38.8736C75.5866 38.2914 75.1255 37.8078 74.7971 37.375C74.4532 36.9219 74.1942 36.4488 74.125 35.8741C74.0951 35.626 74.0951 35.3748 74.125 35.1267C74.1942 34.5519 74.4532 34.0789 74.7971 33.6257C75.1255 33.193 75.5865 32.7094 76.1416 32.1272C76.1518 32.1165 76.162 32.1057 76.1723 32.095L77.6298 30.5661C77.9217 30.2599 78.3928 30.2621 78.6821 30.571Z" fill="#0B1530"/>
</svg>
