<svg width="177" height="236" viewBox="0 0 177 236" fill="none" xmlns="http://www.w3.org/2000/svg">
<path opacity="0.15" d="M0 1L51.5554 46.044C59.2356 52.7542 59.3201 64.6697 51.7358 71.4882L0 118V1Z" fill="#051B45"/>
<path opacity="0.15" d="M59 118L7.44461 163.044C-0.235616 169.754 -0.320102 181.67 7.26419 188.488L59 235V118Z" fill="#051B45"/>
<path opacity="0.2" d="M59 1L110.555 46.044C118.236 52.7542 118.32 64.6697 110.736 71.4882L59 118V1Z" fill="#051B45"/>
<path opacity="0.2" d="M118 118L66.4446 163.044C58.7644 169.754 58.6799 181.67 66.2642 188.488L118 235V118Z" fill="#051B45"/>
<path opacity="0.25" d="M118 1L169.555 46.044C177.236 52.7542 177.32 64.6697 169.736 71.4882L118 118V1Z" fill="#051B45"/>
<path opacity="0.25" d="M177 118L125.445 163.044C117.764 169.754 117.68 181.67 125.264 188.488L177 235V118Z" fill="#051B45"/>
<path fill-rule="evenodd" clip-rule="evenodd" d="M19.3642 49.8761C19.9428 50.4792 19.9386 51.4527 19.3549 52.0504L16.4398 55.0354C15.2525 56.2511 14.4531 57.073 13.9148 57.7655C13.3954 58.4337 13.2429 58.8305 13.2023 59.1592C13.1744 59.3855 13.1744 59.6146 13.2023 59.8409C13.2429 60.1696 13.3954 60.5665 13.9148 61.2347C14.4531 61.9271 15.2526 62.749 16.4398 63.9647L19.3549 66.9497C19.9386 67.5475 19.9428 68.5209 19.3642 69.1241C18.7857 69.7272 17.8434 69.7315 17.2597 69.1338L14.2832 66.0859C13.1731 64.9492 12.251 64.005 11.5942 63.1601C10.9065 62.2754 10.3883 61.3518 10.2499 60.2297C10.1901 59.7452 10.1901 59.2549 10.2499 58.7704C10.3883 57.6483 10.9065 56.7247 11.5942 55.84C12.251 54.9951 13.1731 54.0509 14.2832 52.9143C14.3036 52.8934 14.3241 52.8724 14.3446 52.8514L17.2597 49.8664C17.8434 49.2686 18.7857 49.273 19.3642 49.8761Z" fill="white"/>
<path fill-rule="evenodd" clip-rule="evenodd" d="M39.6358 166.876C39.0572 167.479 39.0614 168.453 39.6451 169.05L42.5602 172.035C43.7475 173.251 44.5469 174.073 45.0852 174.765C45.6046 175.434 45.7571 175.831 45.7977 176.159C45.8256 176.386 45.8256 176.615 45.7977 176.841C45.7571 177.17 45.6046 177.566 45.0852 178.235C44.5469 178.927 43.7474 179.749 42.5602 180.965L39.6451 183.95C39.0614 184.547 39.0572 185.521 39.6358 186.124C40.2143 186.727 41.1566 186.731 41.7403 186.134L44.7168 183.086C45.8269 181.949 46.749 181.005 47.4058 180.16C48.0935 179.275 48.6117 178.352 48.7501 177.23C48.8099 176.745 48.8099 176.255 48.7501 175.77C48.6117 174.648 48.0935 173.725 47.4058 172.84C46.749 171.995 45.8269 171.051 44.7168 169.914C44.6964 169.893 44.6759 169.872 44.6554 169.851L41.7403 166.866C41.1566 166.269 40.2143 166.273 39.6358 166.876Z" fill="white"/>
<path fill-rule="evenodd" clip-rule="evenodd" d="M78.3642 49.8761C78.9428 50.4792 78.9386 51.4527 78.3549 52.0504L75.4398 55.0354C74.2525 56.2511 73.4531 57.073 72.9148 57.7655C72.3954 58.4337 72.2429 58.8305 72.2023 59.1592C72.1744 59.3855 72.1744 59.6146 72.2023 59.8409C72.2429 60.1696 72.3954 60.5665 72.9148 61.2347C73.4531 61.9271 74.2526 62.749 75.4398 63.9647L78.3549 66.9497C78.9386 67.5475 78.9428 68.5209 78.3642 69.1241C77.7857 69.7272 76.8434 69.7315 76.2597 69.1338L73.2832 66.0859C72.1731 64.9492 71.251 64.005 70.5942 63.1601C69.9065 62.2754 69.3883 61.3518 69.2499 60.2297C69.1901 59.7452 69.1901 59.2549 69.2499 58.7704C69.3883 57.6483 69.9065 56.7247 70.5942 55.84C71.251 54.9951 72.1731 54.0509 73.2832 52.9143C73.3036 52.8934 73.3241 52.8724 73.3446 52.8514L76.2597 49.8664C76.8434 49.2686 77.7857 49.273 78.3642 49.8761Z" fill="white"/>
<path fill-rule="evenodd" clip-rule="evenodd" d="M98.6358 166.876C98.0572 167.479 98.0614 168.453 98.6451 169.05L101.56 172.035C102.747 173.251 103.547 174.073 104.085 174.765C104.605 175.434 104.757 175.831 104.798 176.159C104.826 176.386 104.826 176.615 104.798 176.841C104.757 177.17 104.605 177.566 104.085 178.235C103.547 178.927 102.747 179.749 101.56 180.965L98.6451 183.95C98.0614 184.547 98.0572 185.521 98.6358 186.124C99.2143 186.727 100.157 186.731 100.74 186.134L103.717 183.086C104.827 181.949 105.749 181.005 106.406 180.16C107.094 179.275 107.612 178.352 107.75 177.23C107.81 176.745 107.81 176.255 107.75 175.77C107.612 174.648 107.094 173.725 106.406 172.84C105.749 171.995 104.827 171.051 103.717 169.914C103.696 169.893 103.676 169.872 103.655 169.851L100.74 166.866C100.157 166.269 99.2143 166.273 98.6358 166.876Z" fill="white"/>
<path fill-rule="evenodd" clip-rule="evenodd" d="M137.364 49.8761C137.943 50.4792 137.939 51.4527 137.355 52.0504L134.44 55.0354C133.253 56.2511 132.453 57.073 131.915 57.7655C131.395 58.4337 131.243 58.8305 131.202 59.1592C131.174 59.3855 131.174 59.6146 131.202 59.8409C131.243 60.1696 131.395 60.5665 131.915 61.2347C132.453 61.9271 133.253 62.749 134.44 63.9647L137.355 66.9497C137.939 67.5475 137.943 68.5209 137.364 69.1241C136.786 69.7272 135.843 69.7315 135.26 69.1338L132.283 66.0859C131.173 64.9492 130.251 64.005 129.594 63.1601C128.906 62.2754 128.388 61.3518 128.25 60.2297C128.19 59.7452 128.19 59.2549 128.25 58.7704C128.388 57.6483 128.906 56.7247 129.594 55.84C130.251 54.9951 131.173 54.0509 132.283 52.9143C132.304 52.8934 132.324 52.8724 132.345 52.8514L135.26 49.8664C135.843 49.2686 136.786 49.273 137.364 49.8761Z" fill="white"/>
<path fill-rule="evenodd" clip-rule="evenodd" d="M157.636 166.876C157.057 167.479 157.061 168.453 157.645 169.05L160.56 172.035C161.747 173.251 162.547 174.073 163.085 174.765C163.605 175.434 163.757 175.831 163.798 176.159C163.826 176.386 163.826 176.615 163.798 176.841C163.757 177.17 163.605 177.566 163.085 178.235C162.547 178.927 161.747 179.749 160.56 180.965L157.645 183.95C157.061 184.547 157.057 185.521 157.636 186.124C158.214 186.727 159.157 186.731 159.74 186.134L162.717 183.086C163.827 181.949 164.749 181.005 165.406 180.16C166.094 179.275 166.612 178.352 166.75 177.23C166.81 176.745 166.81 176.255 166.75 175.77C166.612 174.648 166.094 173.725 165.406 172.84C164.749 171.995 163.827 171.051 162.717 169.914C162.696 169.893 162.676 169.872 162.655 169.851L159.74 166.866C159.157 166.269 158.214 166.273 157.636 166.876Z" fill="white"/>
</svg>
