<svg width="780" height="120" viewBox="0 0 780 120" fill="none" xmlns="http://www.w3.org/2000/svg">
<path opacity="0.5" d="M102 29.5C102 22.625 96.375 17 89.5 17C82.625 17 77 22.625 77 29.5C77 35.75 81.5312 40.9062 87.4688 41.8438V33.0937H84.3437V29.5H87.4688V26.6875C87.4688 23.5625 89.3438 21.8438 92.1563 21.8438C93.5625 21.8438 94.9688 22.1563 94.9688 22.1563V25.2812H93.4062C91.8438 25.2812 91.375 26.2188 91.375 27.1562V29.5H94.8125L94.1875 33.0937H91.2188V42C97.4688 41.0625 102 35.75 102 29.5Z" fill="white"/>
<path opacity="0.5" d="M341.4 23.5804C341.1 22.5179 340.35 21.7589 339.3 21.4554C337.5 21 329.85 21 329.85 21C329.85 21 322.35 21 320.4 21.4554C319.35 21.7589 318.6 22.5179 318.3 23.5804C318 25.5536 318 29.5 318 29.5C318 29.5 318 33.4464 318.45 35.4196C318.75 36.4821 319.5 37.2411 320.55 37.5446C322.35 38 330 38 330 38C330 38 337.5 38 339.45 37.5446C340.5 37.2411 341.25 36.4821 341.55 35.4196C342 33.4464 342 29.5 342 29.5C342 29.5 342 25.5536 341.4 23.5804ZM327.6 33.1429V25.8571L333.9 29.5L327.6 33.1429Z" fill="white"/>
<g opacity="0.5">
<path d="M271 20.1687C274.181 20.1687 274.614 20.1687 275.916 20.1687C277.072 20.1687 277.651 20.4578 278.084 20.6024C278.663 20.8916 279.096 21.0361 279.53 21.4699C279.964 21.9036 280.253 22.3374 280.398 22.9157C280.542 23.3494 280.687 23.9277 280.831 25.0843C280.831 26.3855 280.831 26.6747 280.831 30C280.831 33.3253 280.831 33.6145 280.831 34.9157C280.831 36.0723 280.542 36.6506 280.398 37.0843C280.108 37.6627 279.964 38.0964 279.53 38.5301C279.096 38.9639 278.663 39.253 278.084 39.3976C277.651 39.5422 277.072 39.6867 275.916 39.8313C274.614 39.8313 274.325 39.8313 271 39.8313C267.675 39.8313 267.386 39.8313 266.084 39.8313C264.928 39.8313 264.349 39.5422 263.916 39.3976C263.337 39.1084 262.904 38.9639 262.47 38.5301C262.036 38.0964 261.747 37.6627 261.602 37.0843C261.458 36.6506 261.313 36.0723 261.169 34.9157C261.169 33.6145 261.169 33.3253 261.169 30C261.169 26.6747 261.169 26.3855 261.169 25.0843C261.169 23.9277 261.458 23.3494 261.602 22.9157C261.892 22.3374 262.036 21.9036 262.47 21.4699C262.904 21.0361 263.337 20.747 263.916 20.6024C264.349 20.4578 264.928 20.3133 266.084 20.1687C267.386 20.1687 267.819 20.1687 271 20.1687ZM271 18C267.675 18 267.386 18 266.084 18C264.783 18 263.916 18.2892 263.193 18.5783C262.47 18.8675 261.747 19.3012 261.024 20.0241C260.301 20.747 260.012 21.3253 259.578 22.1928C259.289 22.9157 259.145 23.7831 259 25.0843C259 26.3855 259 26.8193 259 30C259 33.3253 259 33.6145 259 34.9157C259 36.2169 259.289 37.0843 259.578 37.8072C259.867 38.5301 260.301 39.253 261.024 39.9759C261.747 40.6988 262.325 40.988 263.193 41.4217C263.916 41.7108 264.783 41.8554 266.084 42C267.386 42 267.819 42 271 42C274.181 42 274.614 42 275.916 42C277.217 42 278.084 41.7108 278.807 41.4217C279.53 41.1325 280.253 40.6988 280.976 39.9759C281.699 39.253 281.988 38.6747 282.422 37.8072C282.711 37.0843 282.855 36.2169 283 34.9157C283 33.6145 283 33.1807 283 30C283 26.8193 283 26.3855 283 25.0843C283 23.7831 282.711 22.9157 282.422 22.1928C282.133 21.4699 281.699 20.747 280.976 20.0241C280.253 19.3012 279.675 19.012 278.807 18.5783C278.084 18.2892 277.217 18.1446 275.916 18C274.614 18 274.325 18 271 18Z" fill="white"/>
<path d="M271 23.7831C267.53 23.7831 264.783 26.5301 264.783 30C264.783 33.4699 267.53 36.2169 271 36.2169C274.47 36.2169 277.217 33.4699 277.217 30C277.217 26.5301 274.47 23.7831 271 23.7831ZM271 34.0482C268.831 34.0482 266.952 32.3133 266.952 30C266.952 27.8313 268.687 25.9518 271 25.9518C273.169 25.9518 275.048 27.6867 275.048 30C275.048 32.1687 273.169 34.0482 271 34.0482Z" fill="white"/>
<path d="M277.361 25.0843C278.16 25.0843 278.807 24.437 278.807 23.6386C278.807 22.8401 278.16 22.1928 277.361 22.1928C276.563 22.1928 275.916 22.8401 275.916 23.6386C275.916 24.437 276.563 25.0843 277.361 25.0843Z" fill="white"/>
</g>
<path opacity="0.5" d="M30.5225 37C22.6643 37 18.1838 31.3795 18 22.012H21.952C22.0784 28.8815 24.9735 31.7878 27.2712 32.3883V22.012H30.982V27.9327C33.2453 27.6805 35.6349 24.9784 36.4391 22H40.1384C39.8367 23.5418 39.2342 25.0019 38.3684 26.2893C37.5026 27.5766 36.3921 28.6635 35.1064 29.482C36.5412 30.2285 37.8084 31.2846 38.8243 32.5805C39.8401 33.8763 40.5817 35.3826 41 37H36.9216C36.0485 34.1537 33.8656 31.944 30.982 31.6437V37H30.534H30.5225Z" fill="white"/>
<path opacity="0.5" d="M26.2712 31.9911C24.2108 30.8876 22.0606 27.9111 21.952 22.012H18C18.0066 22.3503 18.0189 22.6836 18.0367 23.012C18.5004 31.5675 22.7372 36.7471 29.982 36.991C30.1604 36.997 30.3405 37 30.5225 37H30.982V31.6437C31.3256 31.6795 31.6593 31.7424 31.982 31.8302C34.3673 32.4796 36.1525 34.4929 36.9216 37H41C40.9125 36.6615 40.8107 36.3279 40.6953 36C40.2593 34.7613 39.6275 33.6051 38.8243 32.5805C38.0414 31.5818 37.1092 30.7255 36.0661 30.0436C35.7557 29.8407 35.4355 29.6532 35.1064 29.482C35.4191 29.2829 35.7215 29.0679 36.0125 28.8381C36.9179 28.1229 37.7132 27.2635 38.3684 26.2893C39.0446 25.2838 39.5603 24.1729 39.8974 23C39.9919 22.6712 40.0723 22.3376 40.1384 22H36.4391C35.753 24.5409 33.913 26.8808 31.982 27.67C31.6496 27.8058 31.3144 27.8957 30.982 27.9327V22.012H27.2712V32.3883C26.9467 32.3035 26.6102 32.1726 26.2712 31.9911Z" fill="white"/>
<g opacity="0.5">
<path fill-rule="evenodd" clip-rule="evenodd" d="M157.151 22.9772C157.151 26.8208 153.954 29.9543 150.033 29.9543C146.069 29.9543 142.873 26.8208 142.873 22.9772C142.873 19.1335 146.069 16 150.033 16C153.954 16 157.151 19.1335 157.151 22.9772ZM152.974 22.9772C152.974 21.3896 151.653 20.0944 150.033 20.0944C148.371 20.0944 147.05 21.3896 147.092 22.9772C147.092 24.5648 148.414 25.8599 150.033 25.8599C151.653 25.8599 152.974 24.5648 152.974 22.9772Z" fill="white"/>
<path d="M157.023 34.007C155.744 34.8007 154.338 35.3439 152.889 35.6782L156.938 39.5218C157.747 40.3157 157.747 41.6108 156.938 42.4047C156.128 43.1984 154.807 43.1984 153.997 42.4047L150.076 38.5609L146.155 42.4047C145.729 42.7806 145.217 42.9895 144.663 42.9895C144.109 42.9895 143.598 42.8225 143.171 42.4047C142.361 41.6108 142.361 40.3157 143.171 39.5218L147.135 35.6363C145.686 35.302 144.279 34.7591 143.001 33.9652C142.021 33.3803 141.722 32.1269 142.276 31.166C142.916 30.205 144.194 29.9545 145.174 30.5393C148.073 32.3358 151.866 32.3358 154.764 30.5393C155.744 29.9126 157.066 30.205 157.662 31.166C158.301 32.1269 158.003 33.422 157.023 34.007Z" fill="white"/>
</g>
<g opacity="0.5">
<path d="M397.439 26.3729C398.34 27.6016 399.506 27.6612 400.374 26.7699C401.209 25.912 401.209 24.5212 400.374 23.6633C399.539 22.8054 398.185 22.8054 397.351 23.6633C397.351 23.6633 396.356 24.3981 397.084 25.7417L397.439 26.3729Z" fill="white"/>
<path d="M389.497 25.2954C388.906 24.2448 389.257 22.9013 390.279 22.2947C391.302 21.6881 392.609 22.0481 393.199 23.0987L399.424 34.1774C400.015 35.2281 399.664 36.5716 398.642 37.1782C397.619 37.7848 396.312 37.4248 395.722 36.3741L389.497 25.2954Z" fill="white"/>
<path d="M386.419 36.3741L380.195 25.2954C379.604 24.2448 379.955 22.9013 380.977 22.2947C382 21.6881 383.307 22.0481 383.897 23.0987L389.141 32.4317C390.121 31.6788 391.132 32.4839 391.659 33.4222C392.143 34.2833 392.003 35.3708 391.319 36.0739L390.087 37.3405C389.252 38.1983 387.898 38.1983 387.063 37.3405L386.419 36.3741Z" fill="white"/>
<path d="M383.829 36.1993C383.956 36.4245 383.881 36.7124 383.662 36.8423L382.207 37.7053C381.185 38.3119 379.877 37.9519 379.287 36.9013C378.696 35.8506 379.047 34.5071 380.069 33.9005L381.524 33.0375C381.743 32.9075 382.023 32.9847 382.15 33.2098L383.829 36.1993Z" fill="white"/>
</g>
<path d="M102 89.5C102 82.625 96.375 77 89.5 77C82.625 77 77 82.625 77 89.5C77 95.75 81.5312 100.906 87.4688 101.844V93.0937H84.3437V89.5H87.4688V86.6875C87.4688 83.5625 89.3438 81.8438 92.1563 81.8438C93.5625 81.8438 94.9688 82.1563 94.9688 82.1563V85.2812H93.4062C91.8438 85.2812 91.375 86.2188 91.375 87.1562V89.5H94.8125L94.1875 93.0937H91.2188V102C97.4688 101.062 102 95.75 102 89.5Z" fill="white"/>
<path d="M341.4 83.5804C341.1 82.5179 340.35 81.7589 339.3 81.4554C337.5 81 329.85 81 329.85 81C329.85 81 322.35 81 320.4 81.4554C319.35 81.7589 318.6 82.5179 318.3 83.5804C318 85.5536 318 89.5 318 89.5C318 89.5 318 93.4464 318.45 95.4196C318.75 96.4821 319.5 97.2411 320.55 97.5446C322.35 98 330 98 330 98C330 98 337.5 98 339.45 97.5446C340.5 97.2411 341.25 96.4821 341.55 95.4196C342 93.4464 342 89.5 342 89.5C342 89.5 342 85.5536 341.4 83.5804ZM327.6 93.1429V85.8571L333.9 89.5L327.6 93.1429Z" fill="white"/>
<path d="M271 80.1687C274.181 80.1687 274.614 80.1687 275.916 80.1687C277.072 80.1687 277.651 80.4578 278.084 80.6024C278.663 80.8916 279.096 81.0361 279.53 81.4699C279.964 81.9036 280.253 82.3374 280.398 82.9157C280.542 83.3494 280.687 83.9277 280.831 85.0843C280.831 86.3855 280.831 86.6747 280.831 90C280.831 93.3253 280.831 93.6145 280.831 94.9157C280.831 96.0723 280.542 96.6506 280.398 97.0843C280.108 97.6627 279.964 98.0964 279.53 98.5301C279.096 98.9639 278.663 99.253 278.084 99.3976C277.651 99.5422 277.072 99.6867 275.916 99.8313C274.614 99.8313 274.325 99.8313 271 99.8313C267.675 99.8313 267.386 99.8313 266.084 99.8313C264.928 99.8313 264.349 99.5422 263.916 99.3976C263.337 99.1084 262.904 98.9639 262.47 98.5301C262.036 98.0964 261.747 97.6627 261.602 97.0843C261.458 96.6506 261.313 96.0723 261.169 94.9157C261.169 93.6145 261.169 93.3253 261.169 90C261.169 86.6747 261.169 86.3855 261.169 85.0843C261.169 83.9277 261.458 83.3494 261.602 82.9157C261.892 82.3374 262.036 81.9036 262.47 81.4699C262.904 81.0361 263.337 80.747 263.916 80.6024C264.349 80.4578 264.928 80.3133 266.084 80.1687C267.386 80.1687 267.819 80.1687 271 80.1687ZM271 78C267.675 78 267.386 78 266.084 78C264.783 78 263.916 78.2892 263.193 78.5783C262.47 78.8675 261.747 79.3012 261.024 80.0241C260.301 80.747 260.012 81.3253 259.578 82.1928C259.289 82.9157 259.145 83.7831 259 85.0843C259 86.3855 259 86.8193 259 90C259 93.3253 259 93.6145 259 94.9157C259 96.2169 259.289 97.0843 259.578 97.8072C259.867 98.5301 260.301 99.253 261.024 99.9759C261.747 100.699 262.325 100.988 263.193 101.422C263.916 101.711 264.783 101.855 266.084 102C267.386 102 267.819 102 271 102C274.181 102 274.614 102 275.916 102C277.217 102 278.084 101.711 278.807 101.422C279.53 101.133 280.253 100.699 280.976 99.9759C281.699 99.253 281.988 98.6747 282.422 97.8072C282.711 97.0843 282.855 96.2169 283 94.9157C283 93.6145 283 93.1807 283 90C283 86.8193 283 86.3855 283 85.0843C283 83.7831 282.711 82.9157 282.422 82.1928C282.133 81.4699 281.699 80.747 280.976 80.0241C280.253 79.3012 279.675 79.012 278.807 78.5783C278.084 78.2892 277.217 78.1446 275.916 78C274.614 78 274.325 78 271 78Z" fill="white"/>
<path d="M271 83.7831C267.53 83.7831 264.783 86.5301 264.783 90C264.783 93.4699 267.53 96.2169 271 96.2169C274.47 96.2169 277.217 93.4699 277.217 90C277.217 86.5301 274.47 83.7831 271 83.7831ZM271 94.0482C268.831 94.0482 266.952 92.3133 266.952 90C266.952 87.8313 268.687 85.9518 271 85.9518C273.169 85.9518 275.048 87.6867 275.048 90C275.048 92.1687 273.169 94.0482 271 94.0482Z" fill="white"/>
<path d="M277.361 85.0843C278.16 85.0843 278.807 84.437 278.807 83.6386C278.807 82.8401 278.16 82.1928 277.361 82.1928C276.563 82.1928 275.916 82.8401 275.916 83.6386C275.916 84.437 276.563 85.0843 277.361 85.0843Z" fill="white"/>
<path d="M30.5225 97C22.6643 97 18.1838 91.3795 18 82.012H21.952C22.0784 88.8815 24.9735 91.7878 27.2712 92.3883V82.012H30.982V87.9327C33.2453 87.6805 35.6349 84.9784 36.4391 82H40.1384C39.8367 83.5418 39.2342 85.0019 38.3684 86.2893C37.5026 87.5766 36.3921 88.6635 35.1064 89.482C36.5412 90.2285 37.8084 91.2846 38.8243 92.5805C39.8401 93.8763 40.5817 95.3826 41 97H36.9216C36.0485 94.1537 33.8656 91.944 30.982 91.6437V97H30.534H30.5225Z" fill="white"/>
<path fill-rule="evenodd" clip-rule="evenodd" d="M26.2712 91.9911C24.2108 90.8876 22.0606 87.9111 21.952 82.012H18C18.0066 82.3503 18.0189 82.6836 18.0367 83.012C18.5004 91.5675 22.7372 96.7471 29.982 96.991C30.1604 96.997 30.3405 97 30.5225 97H30.982V91.6437C31.3256 91.6795 31.6593 91.7424 31.982 91.8302C34.3673 92.4796 36.1525 94.4929 36.9216 97H41C40.9125 96.6615 40.8107 96.3279 40.6953 96C40.2593 94.7613 39.6275 93.6051 38.8243 92.5805C38.0414 91.5818 37.1092 90.7255 36.0661 90.0436C35.7557 89.8407 35.4355 89.6532 35.1064 89.482C35.4191 89.2829 35.7215 89.0679 36.0125 88.8381C36.9179 88.1229 37.7132 87.2635 38.3684 86.2893C39.0446 85.2838 39.5603 84.1729 39.8974 83C39.9919 82.6712 40.0723 82.3376 40.1384 82H36.4391C35.753 84.5409 33.913 86.8808 31.982 87.67C31.6496 87.8058 31.3144 87.8957 30.982 87.9327V82.012H27.2712V92.3883C26.9467 92.3035 26.6102 92.1726 26.2712 91.9911ZM28.2712 83.012V93.6832L27.0184 93.3558C24.2551 92.6337 21.3689 89.4648 20.9898 83.012H19.0382C19.2657 87.0618 20.3662 90.2147 22.1547 92.3824C23.9719 94.5849 26.5786 95.8683 29.982 95.9904V90.5342L31.0856 90.6491C34.2038 90.9738 36.5367 93.195 37.6317 96H39.6292C39.2367 94.9883 38.7003 94.0432 38.0373 93.1974C37.1077 92.0117 35.9508 91.0486 34.6448 90.3691L33.1073 89.5691L34.5694 88.6384C35.7368 87.8952 36.7483 86.9063 37.5386 85.7312C38.1028 84.8923 38.5453 83.9719 38.8529 83H37.1742C36.6901 84.37 35.9187 85.6477 34.9978 86.6612C33.9282 87.8382 32.5579 88.7633 31.0928 88.9266L29.982 89.0504V83.012H28.2712Z" fill="white"/>
<path fill-rule="evenodd" clip-rule="evenodd" d="M157.151 82.9772C157.151 86.8208 153.954 89.9543 150.033 89.9543C146.069 89.9543 142.873 86.8208 142.873 82.9772C142.873 79.1335 146.069 76 150.033 76C153.954 76 157.151 79.1335 157.151 82.9772ZM152.974 82.9772C152.974 81.3896 151.653 80.0944 150.033 80.0944C148.371 80.0944 147.05 81.3896 147.092 82.9772C147.092 84.5648 148.414 85.8599 150.033 85.8599C151.653 85.8599 152.974 84.5648 152.974 82.9772Z" fill="white"/>
<path d="M157.023 94.007C155.744 94.8007 154.338 95.3439 152.889 95.6782L156.938 99.5218C157.747 100.316 157.747 101.611 156.938 102.405C156.128 103.198 154.807 103.198 153.997 102.405L150.076 98.5609L146.155 102.405C145.729 102.781 145.217 102.99 144.663 102.99C144.109 102.99 143.598 102.822 143.171 102.405C142.361 101.611 142.361 100.316 143.171 99.5218L147.135 95.6363C145.686 95.302 144.279 94.7591 143.001 93.9652C142.021 93.3803 141.722 92.1269 142.276 91.166C142.916 90.205 144.194 89.9545 145.174 90.5393C148.073 92.3358 151.866 92.3358 154.764 90.5393C155.744 89.9126 157.066 90.205 157.662 91.166C158.301 92.1269 158.003 93.422 157.023 94.007Z" fill="white"/>
<path d="M397.439 86.3729C398.34 87.6016 399.506 87.6612 400.374 86.7699C401.209 85.912 401.209 84.5212 400.374 83.6633C399.539 82.8054 398.185 82.8054 397.351 83.6633C397.351 83.6633 396.356 84.3981 397.084 85.7417L397.439 86.3729Z" fill="white"/>
<path d="M389.497 85.2954C388.906 84.2448 389.257 82.9013 390.279 82.2947C391.302 81.6881 392.609 82.0481 393.199 83.0987L399.424 94.1774C400.015 95.2281 399.664 96.5716 398.642 97.1782C397.619 97.7848 396.312 97.4248 395.722 96.3741L389.497 85.2954Z" fill="white"/>
<path d="M386.419 96.3741L380.195 85.2954C379.604 84.2448 379.955 82.9013 380.977 82.2947C382 81.6881 383.307 82.0481 383.897 83.0987L389.141 92.4317C390.121 91.6788 391.132 92.4839 391.659 93.4222C392.143 94.2833 392.003 95.3708 391.319 96.0739L390.087 97.3405C389.252 98.1983 387.898 98.1983 387.063 97.3405L386.419 96.3741Z" fill="white"/>
<path d="M383.829 96.1993C383.956 96.4245 383.881 96.7124 383.662 96.8423L382.207 97.7053C381.185 98.3119 379.877 97.9519 379.287 96.9013C378.696 95.8506 379.047 94.5071 380.069 93.9005L381.524 93.0375C381.743 92.9075 382.023 92.9847 382.15 93.2098L383.829 96.1993Z" fill="white"/>
<path opacity="0.5" fill-rule="evenodd" clip-rule="evenodd" d="M449.5 42C442.596 42 437 36.4036 437 29.5C437 22.5964 442.596 17 449.5 17C456.404 17 462 22.5964 462 29.5C462 36.4036 456.404 42 449.5 42ZM450.041 26.3808C448.921 26.8464 446.683 27.8102 443.328 29.2721C442.783 29.4888 442.498 29.7008 442.472 29.908C442.428 30.2583 442.867 30.3962 443.464 30.5841C443.545 30.6096 443.629 30.6361 443.716 30.6641C444.303 30.8552 445.094 31.0787 445.505 31.0876C445.878 31.0956 446.294 30.9419 446.753 30.6265C449.888 28.5102 451.506 27.4405 451.608 27.4175C451.68 27.4012 451.779 27.3808 451.846 27.4406C451.914 27.5004 451.907 27.6137 451.9 27.6441C451.856 27.8293 450.135 29.4302 449.244 30.2586C448.966 30.5168 448.769 30.7 448.728 30.7419C448.638 30.8356 448.546 30.9242 448.458 31.0094C447.912 31.5358 447.502 31.9305 448.48 32.575C448.951 32.8847 449.327 33.1409 449.702 33.3964C450.112 33.6755 450.52 33.9538 451.049 34.3004C451.184 34.3888 451.313 34.4805 451.438 34.5698C451.915 34.9098 452.343 35.2153 452.873 35.1666C453.18 35.1383 453.498 34.849 453.659 33.9865C454.04 31.948 454.79 27.5313 454.963 25.7113C454.978 25.5518 454.959 25.3478 454.944 25.2582C454.929 25.1686 454.897 25.041 454.78 24.9465C454.642 24.8346 454.429 24.811 454.334 24.8126C453.901 24.8203 453.237 25.0512 450.041 26.3808Z" fill="white"/>
<g opacity="0.5" clip-path="url(#clip0_742_787)">
<mask id="mask0_742_787" style="mask-type:luminance" maskUnits="userSpaceOnUse" x="560" y="17" width="25" height="25">
<path d="M578.939 17H566.061C562.713 17 560 19.7134 560 23.0606V35.9394C560 39.2866 562.713 42 566.061 42H578.939C582.287 42 585 39.2866 585 35.9394V23.0606C585 19.7134 582.287 17 578.939 17Z" fill="white"/>
</mask>
<g mask="url(#mask0_742_787)">
<path fill-rule="evenodd" clip-rule="evenodd" d="M560 17H585V42H560V17ZM564.924 23.2511H575.949V23.25C576.642 23.25 577.205 23.3252 577.656 23.4565C578.106 23.6069 578.482 23.8314 578.819 24.1502C579.138 24.4869 579.362 24.8617 579.494 25.2927C579.625 25.7237 579.701 26.286 579.701 26.9977V27.9348C579.701 29.1347 579.494 30.0337 579.081 30.596C578.669 31.1583 578.169 31.4995 577.056 31.6645L580.076 35.75H576.568L573.829 31.6836H568.057V35.75H564.924V23.2511ZM575.442 28.9293H568.057V26.0066H575.442C575.874 26.0066 576.174 26.0818 576.324 26.2131C576.475 26.3444 576.568 26.588 576.568 26.9438V27.9932C576.568 28.3681 576.475 28.6116 576.324 28.743C576.174 28.8743 575.874 28.9304 575.442 28.9304V28.9293Z" fill="white"/>
</g>
</g>
<g clip-path="url(#clip1_742_787)">
<mask id="mask1_742_787" style="mask-type:luminance" maskUnits="userSpaceOnUse" x="560" y="77" width="25" height="25">
<path d="M578.939 77H566.061C562.713 77 560 79.7134 560 83.0606V95.9394C560 99.2866 562.713 102 566.061 102H578.939C582.287 102 585 99.2866 585 95.9394V83.0606C585 79.7134 582.287 77 578.939 77Z" fill="white"/>
</mask>
<g mask="url(#mask1_742_787)">
<path fill-rule="evenodd" clip-rule="evenodd" d="M560 77H585V102H560V77ZM564.924 83.2511H575.949V83.25C576.642 83.25 577.205 83.3252 577.656 83.4565C578.106 83.6069 578.482 83.8314 578.819 84.1502C579.138 84.4869 579.362 84.8617 579.494 85.2927C579.625 85.7237 579.701 86.286 579.701 86.9977V87.9348C579.701 89.1347 579.494 90.0337 579.081 90.596C578.669 91.1583 578.169 91.4995 577.056 91.6645L580.076 95.75H576.568L573.829 91.6836H568.057V95.75H564.924V83.2511ZM575.442 88.9293H568.057V86.0066H575.442C575.874 86.0066 576.174 86.0818 576.324 86.2131C576.475 86.3444 576.568 86.588 576.568 86.9438V87.9932C576.568 88.3681 576.475 88.6116 576.324 88.743C576.174 88.8743 575.874 88.9304 575.442 88.9304V88.9293Z" fill="white"/>
</g>
</g>
<path fill-rule="evenodd" clip-rule="evenodd" d="M449.5 102C442.596 102 437 96.4036 437 89.5C437 82.5964 442.596 77 449.5 77C456.404 77 462 82.5964 462 89.5C462 96.4036 456.404 102 449.5 102ZM450.041 86.3808C448.921 86.8464 446.683 87.8102 443.328 89.2721C442.783 89.4888 442.498 89.7008 442.472 89.908C442.428 90.2583 442.867 90.3962 443.464 90.5841C443.545 90.6096 443.629 90.6361 443.716 90.6641C444.303 90.8552 445.094 91.0787 445.505 91.0876C445.878 91.0956 446.294 90.9419 446.753 90.6265C449.888 88.5102 451.506 87.4405 451.608 87.4175C451.68 87.4012 451.779 87.3808 451.846 87.4406C451.914 87.5004 451.907 87.6137 451.9 87.6441C451.856 87.8293 450.135 89.4302 449.244 90.2586C448.966 90.5168 448.769 90.7 448.728 90.7419C448.638 90.8356 448.546 90.9242 448.458 91.0094C447.912 91.5358 447.502 91.9305 448.48 92.575C448.951 92.8847 449.327 93.1409 449.702 93.3964C450.112 93.6755 450.52 93.9538 451.049 94.3004C451.184 94.3888 451.313 94.4805 451.438 94.5698C451.915 94.9098 452.343 95.2153 452.873 95.1666C453.18 95.1383 453.498 94.849 453.659 93.9865C454.04 91.948 454.79 87.5313 454.963 85.7113C454.978 85.5518 454.959 85.3478 454.944 85.2582C454.929 85.1686 454.897 85.041 454.78 84.9465C454.642 84.8346 454.429 84.811 454.334 84.8126C453.901 84.8203 453.237 85.0512 450.041 86.3808Z" fill="white"/>
<path opacity="0.5" fill-rule="evenodd" clip-rule="evenodd" d="M518.25 20.5938C515.906 18.25 512.781 17 509.5 17C502.625 17 497 22.625 497 29.5C497 31.6875 497.625 33.875 498.719 35.75L497 42L503.563 40.2812C505.438 41.2188 507.469 41.8438 509.5 41.8438C516.375 41.8438 522 36.2188 522 29.3437C522 26.0625 520.594 22.9375 518.25 20.5938ZM509.5 39.8125C507.625 39.8125 505.75 39.3438 504.188 38.4063L503.875 38.25L499.969 39.3437L501.063 35.5938L500.75 35.125C499.656 33.4062 499.187 31.5313 499.187 29.6563C499.187 24.0313 503.875 19.3438 509.5 19.3438C512.312 19.3438 514.813 20.4375 516.844 22.3125C518.875 24.3437 519.813 26.8438 519.813 29.6563C519.813 35.125 515.281 39.8125 509.5 39.8125ZM515.125 32C514.813 31.8438 513.25 31.0625 512.938 31.0625C512.625 30.9062 512.469 30.9063 512.312 31.2188C512.156 31.5313 511.531 32.1562 511.375 32.4687C511.219 32.625 511.062 32.625 510.75 32.625C510.437 32.4688 509.5 32.1562 508.25 31.0625C507.313 30.2812 506.688 29.1875 506.531 28.875C506.375 28.5625 506.531 28.4062 506.688 28.25C506.844 28.0938 507 27.9375 507.156 27.7812C507.312 27.625 507.313 27.4688 507.469 27.3125C507.625 27.1563 507.469 27 507.469 26.8438C507.469 26.6875 506.844 25.125 506.531 24.5C506.375 24.0313 506.063 24.0312 505.906 24.0312C505.75 24.0312 505.594 24.0312 505.281 24.0312C505.125 24.0312 504.812 24.0312 504.5 24.3437C504.187 24.6562 503.406 25.4375 503.406 27C503.406 28.5625 504.5 29.9688 504.656 30.2812C504.812 30.4375 506.844 33.7188 509.969 34.9688C512.625 36.0625 513.094 35.75 513.719 35.75C514.344 35.75 515.594 34.9688 515.75 34.3438C516.062 33.5625 516.063 32.9375 515.906 32.9375C515.75 32.1563 515.438 32.1563 515.125 32Z" fill="white"/>
<path fill-rule="evenodd" clip-rule="evenodd" d="M518.25 80.5938C515.906 78.25 512.781 77 509.5 77C502.625 77 497 82.625 497 89.5C497 91.6875 497.625 93.875 498.719 95.75L497 102L503.563 100.281C505.438 101.219 507.469 101.844 509.5 101.844C516.375 101.844 522 96.2188 522 89.3437C522 86.0625 520.594 82.9375 518.25 80.5938ZM509.5 99.8125C507.625 99.8125 505.75 99.3438 504.188 98.4063L503.875 98.25L499.969 99.3437L501.063 95.5938L500.75 95.125C499.656 93.4062 499.187 91.5313 499.187 89.6563C499.187 84.0313 503.875 79.3438 509.5 79.3438C512.312 79.3438 514.813 80.4375 516.844 82.3125C518.875 84.3437 519.813 86.8438 519.813 89.6563C519.813 95.125 515.281 99.8125 509.5 99.8125ZM515.125 92C514.813 91.8438 513.25 91.0625 512.938 91.0625C512.625 90.9062 512.469 90.9063 512.312 91.2188C512.156 91.5313 511.531 92.1562 511.375 92.4687C511.219 92.625 511.062 92.625 510.75 92.625C510.437 92.4688 509.5 92.1562 508.25 91.0625C507.313 90.2812 506.688 89.1875 506.531 88.875C506.375 88.5625 506.531 88.4062 506.688 88.25C506.844 88.0938 507 87.9375 507.156 87.7812C507.312 87.625 507.313 87.4688 507.469 87.3125C507.625 87.1563 507.469 87 507.469 86.8438C507.469 86.6875 506.844 85.125 506.531 84.5C506.375 84.0313 506.063 84.0312 505.906 84.0312C505.75 84.0312 505.594 84.0312 505.281 84.0312C505.125 84.0312 504.812 84.0312 504.5 84.3437C504.187 84.6562 503.406 85.4375 503.406 87C503.406 88.5625 504.5 89.9688 504.656 90.2812C504.812 90.4375 506.844 93.7188 509.969 94.9688C512.625 96.0625 513.094 95.75 513.719 95.75C514.344 95.75 515.594 94.9688 515.75 94.3438C516.062 93.5625 516.063 92.9375 515.906 92.9375C515.75 92.1563 515.438 92.1563 515.125 92Z" fill="white"/>
<g opacity="0.5" clip-path="url(#clip2_742_787)">
<path d="M632.911 32.9107C630.946 34.9375 630.804 37.4643 630.634 43C635.795 43 639.357 42.9821 641.196 41.1964C642.982 39.3571 643 35.625 643 30.6339C637.464 30.8125 634.938 30.9464 632.911 32.9107ZM618 30.6339C618 35.625 618.018 39.3571 619.804 41.1964C621.643 42.9821 625.205 43 630.366 43C630.188 37.4643 630.054 34.9375 628.089 32.9107C626.063 30.9464 623.536 30.8036 618 30.6339ZM630.366 18C625.214 18 621.643 18.0179 619.804 19.8036C618.018 21.6429 618 25.375 618 30.3661C623.536 30.1875 626.063 30.0536 628.089 28.0893C630.054 26.0625 630.196 23.5357 630.366 18ZM632.911 28.0893C630.946 26.0625 630.804 23.5357 630.634 18C635.795 18 639.357 18.0179 641.196 19.8036C642.982 21.6429 643 25.375 643 30.3661C637.464 30.1875 634.938 30.0536 632.911 28.0893Z" fill="white"/>
</g>
<g clip-path="url(#clip3_742_787)">
<path d="M632.911 92.9107C630.946 94.9375 630.804 97.4643 630.634 103C635.795 103 639.357 102.982 641.196 101.196C642.982 99.3571 643 95.625 643 90.6339C637.464 90.8125 634.938 90.9464 632.911 92.9107ZM618 90.6339C618 95.625 618.018 99.3571 619.804 101.196C621.643 102.982 625.205 103 630.366 103C630.188 97.4643 630.054 94.9375 628.089 92.9107C626.063 90.9464 623.536 90.8036 618 90.6339ZM630.366 78C625.214 78 621.643 78.0179 619.804 79.8036C618.018 81.6429 618 85.375 618 90.3661C623.536 90.1875 626.063 90.0536 628.089 88.0893C630.054 86.0625 630.196 83.5357 630.366 78ZM632.911 88.0893C630.946 86.0625 630.804 83.5357 630.634 78C635.795 78 639.357 78.0179 641.196 79.8036C642.982 81.6429 643 85.375 643 90.3661C637.464 90.1875 634.938 90.0536 632.911 88.0893Z" fill="white"/>
</g>
<g opacity="0.5" clip-path="url(#clip4_742_787)">
<path d="M691.5 18C684.596 18 679 23.5964 679 30.5C679 37.4036 684.596 43 691.5 43C698.404 43 704 37.4036 704 30.5C704 23.5964 698.404 18 691.5 18ZM691.351 23.3644C691.391 23.1925 691.548 23.1156 691.575 23.1019C691.647 23.0664 691.711 23.0611 691.84 23.05C691.84 23.05 691.951 23.0428 692.048 23.0456C695.353 23.1342 698.208 25.4806 698.619 29.035C698.646 29.2725 698.693 29.5533 698.707 30.1317C698.71 30.2475 698.712 30.4578 698.569 30.5933C698.505 30.6544 698.432 30.6817 698.38 30.695C698.309 30.6792 698.196 30.6431 698.11 30.5483C697.993 30.42 697.987 30.2531 697.984 30.1958C697.949 29.5506 697.858 28.9058 697.709 28.2767C697.16 25.9442 695.042 24.1033 692.657 23.8367C692.38 23.8056 692.102 23.775 691.823 23.7622C691.634 23.7536 691.446 23.7186 691.373 23.5919C691.319 23.4989 691.345 23.3897 691.351 23.3644ZM692.649 25.5608C692.643 25.5597 692.51 25.5589 692.342 25.5147C692.209 25.48 692.106 25.4514 692.027 25.3606C691.953 25.2744 691.933 25.1689 691.929 25.09C691.946 25.0292 691.982 24.9378 692.065 24.8711C692.181 24.7769 692.328 24.7825 692.397 24.7858C694.345 24.8831 695.499 26.0111 695.499 26.0111C695.599 26.1089 696.018 26.5272 696.382 27.2058C696.821 28.0242 696.948 28.7861 696.988 29.2528C696.998 29.3592 696.996 29.5169 696.922 29.6792C696.892 29.7458 696.858 29.8194 696.778 29.8775C696.68 29.9481 696.574 29.9533 696.529 29.9528C696.479 29.9339 696.416 29.9017 696.361 29.8444C696.289 29.7706 696.257 29.69 696.253 29.6567C696.15 28.7625 696.01 27.8892 695.46 27.1339C694.762 26.1756 693.773 25.7508 692.649 25.5608ZM695.197 28.9586C695.178 29.2178 695.073 29.3133 695.046 29.3358C694.968 29.4022 694.877 29.4206 694.822 29.4267C694.758 29.4142 694.668 29.3858 694.594 29.3133C694.486 29.2058 694.472 29.0581 694.466 29.0097C694.441 28.7856 694.28 28.0683 693.913 27.7375C693.683 27.5306 693.366 27.4214 692.903 27.3542C692.717 27.3272 692.536 27.2894 692.471 27.1661C692.421 27.0719 692.455 26.9656 692.465 26.9319C692.541 26.6864 692.839 26.6156 692.863 26.6106C693.061 26.6383 694.325 26.8331 694.903 27.7731C695.216 28.2817 695.207 28.8139 695.197 28.9586ZM698.678 35.9214C698.204 36.4989 697.746 37.1069 697.184 37.5903C696.702 38.005 696.071 38.055 695.444 37.7986C690.289 35.6939 686.591 32.1156 684.459 26.9511C684.405 26.8217 684.362 26.6878 684.316 26.5553C683.917 25.3961 684.037 24.9458 684.988 24.1661C685.299 23.9111 685.632 23.6803 685.969 23.4611C686.537 23.0928 687.161 23.0972 687.589 23.6139C688.302 24.4731 688.982 25.3719 689.567 26.3211C690.004 27.0297 689.848 27.4308 689.207 27.9644C689.059 28.0878 688.9 28.1983 688.752 28.3214C688.381 28.6294 688.224 28.9967 688.388 29.4839C689.105 31.62 690.601 32.9706 692.686 33.6881C692.929 33.7714 693.308 33.5842 693.573 33.4336C693.771 33.3211 693.887 33.065 694.041 32.8733C694.455 32.3553 695.125 32.1361 695.678 32.4869C696.666 33.1142 697.614 33.8108 698.543 34.5244C698.742 34.6775 698.79 35.0267 698.898 35.2625C698.811 35.5378 698.799 35.7742 698.678 35.9214Z" fill="white"/>
</g>
<g clip-path="url(#clip5_742_787)">
<path d="M691.5 78C684.596 78 679 83.5964 679 90.5C679 97.4036 684.596 103 691.5 103C698.404 103 704 97.4036 704 90.5C704 83.5964 698.404 78 691.5 78ZM691.351 83.3644C691.391 83.1925 691.548 83.1156 691.575 83.1019C691.647 83.0664 691.711 83.0611 691.84 83.05C691.84 83.05 691.951 83.0428 692.048 83.0456C695.353 83.1342 698.208 85.4806 698.619 89.035C698.646 89.2725 698.693 89.5533 698.707 90.1317C698.71 90.2475 698.712 90.4578 698.569 90.5933C698.505 90.6544 698.432 90.6817 698.38 90.695C698.309 90.6792 698.196 90.6431 698.11 90.5483C697.993 90.42 697.987 90.2531 697.984 90.1958C697.949 89.5506 697.858 88.9058 697.709 88.2767C697.16 85.9442 695.042 84.1033 692.657 83.8367C692.38 83.8056 692.102 83.775 691.823 83.7622C691.634 83.7536 691.446 83.7186 691.373 83.5919C691.319 83.4989 691.345 83.3897 691.351 83.3644ZM692.649 85.5608C692.643 85.5597 692.51 85.5589 692.342 85.5147C692.209 85.48 692.106 85.4514 692.027 85.3606C691.953 85.2744 691.933 85.1689 691.929 85.09C691.946 85.0292 691.982 84.9378 692.065 84.8711C692.181 84.7769 692.328 84.7825 692.397 84.7858C694.345 84.8831 695.499 86.0111 695.499 86.0111C695.599 86.1089 696.018 86.5272 696.382 87.2058C696.821 88.0242 696.948 88.7861 696.988 89.2528C696.998 89.3592 696.996 89.5169 696.922 89.6792C696.892 89.7458 696.858 89.8194 696.778 89.8775C696.68 89.9481 696.574 89.9533 696.529 89.9528C696.479 89.9339 696.416 89.9017 696.361 89.8444C696.289 89.7706 696.257 89.69 696.253 89.6567C696.15 88.7625 696.01 87.8892 695.46 87.1339C694.762 86.1756 693.773 85.7508 692.649 85.5608ZM695.197 88.9586C695.178 89.2178 695.073 89.3133 695.046 89.3358C694.968 89.4022 694.877 89.4206 694.822 89.4267C694.758 89.4142 694.668 89.3858 694.594 89.3133C694.486 89.2058 694.472 89.0581 694.466 89.0097C694.441 88.7856 694.28 88.0683 693.913 87.7375C693.683 87.5306 693.366 87.4214 692.903 87.3542C692.717 87.3272 692.536 87.2894 692.471 87.1661C692.421 87.0719 692.455 86.9656 692.465 86.9319C692.541 86.6864 692.839 86.6156 692.863 86.6106C693.061 86.6383 694.325 86.8331 694.903 87.7731C695.216 88.2817 695.207 88.8139 695.197 88.9586ZM698.678 95.9214C698.204 96.4989 697.746 97.1069 697.184 97.5903C696.702 98.005 696.071 98.055 695.444 97.7986C690.289 95.6939 686.591 92.1156 684.459 86.9511C684.405 86.8217 684.362 86.6878 684.316 86.5553C683.917 85.3961 684.037 84.9458 684.988 84.1661C685.299 83.9111 685.632 83.6803 685.969 83.4611C686.537 83.0928 687.161 83.0972 687.589 83.6139C688.302 84.4731 688.982 85.3719 689.567 86.3211C690.004 87.0297 689.848 87.4308 689.207 87.9644C689.059 88.0878 688.9 88.1983 688.752 88.3214C688.381 88.6294 688.224 88.9967 688.388 89.4839C689.105 91.62 690.601 92.9706 692.686 93.6881C692.929 93.7714 693.308 93.5842 693.573 93.4336C693.771 93.3211 693.887 93.065 694.041 92.8733C694.455 92.3553 695.125 92.1361 695.678 92.4869C696.666 93.1142 697.614 93.8108 698.543 94.5244C698.742 94.6775 698.79 95.0267 698.898 95.2625C698.811 95.5378 698.799 95.7742 698.678 95.9214Z" fill="white"/>
</g>
<g opacity="0.5">
<path fill-rule="evenodd" clip-rule="evenodd" d="M197 29.5C197 36.4036 202.596 42 209.5 42C216.404 42 222 36.4036 222 29.5C222 22.5964 216.404 17 209.5 17C202.596 17 197 22.5964 197 29.5ZM215.343 23.25L210.689 28.5429L215.75 35.75H212.028L208.62 30.8967L204.353 35.75H203.25L208.13 30.1996L203.25 23.25H206.972L210.199 27.8457L214.24 23.25H215.343Z" fill="white"/>
<path fill-rule="evenodd" clip-rule="evenodd" d="M204.75 24.0623H206.444L214.24 34.9746H212.547L204.75 24.0623Z" fill="white"/>
</g>
<path fill-rule="evenodd" clip-rule="evenodd" d="M197 89.5C197 96.4036 202.596 102 209.5 102C216.404 102 222 96.4036 222 89.5C222 82.5964 216.404 77 209.5 77C202.596 77 197 82.5964 197 89.5ZM215.343 83.25L210.689 88.5429L215.75 95.75H212.028L208.62 90.8967L204.353 95.75H203.25L208.13 90.1996L203.25 83.25H206.972L210.199 87.8457L214.24 83.25H215.343Z" fill="white"/>
<path fill-rule="evenodd" clip-rule="evenodd" d="M204.75 84.0623H206.444L214.24 94.9746H212.547L204.75 84.0623Z" fill="white"/>
<path fill-rule="evenodd" clip-rule="evenodd" d="M750.5 103C743.596 103 738 97.4036 738 90.5C738 83.5964 743.596 78 750.5 78C757.404 78 763 83.5964 763 90.5C763 97.4036 757.404 103 750.5 103ZM749.327 88.6855V89.1721C748.177 89.1987 747.151 89.7419 746.474 90.5788C747.151 89.7423 748.177 89.1999 749.327 89.1749V90.7842L749.33 90.785V89.1721C749.345 89.1721 749.359 89.1714 749.374 89.1707C749.389 89.17 749.403 89.1693 749.419 89.1693C749.594 89.1693 749.763 89.1832 749.93 89.2055V91.3078C749.769 91.2577 749.596 91.2272 749.419 91.2272C748.466 91.2272 747.69 92.003 747.69 92.9569C747.69 93.3351 747.813 93.6827 748.018 93.9663C748.26 94.0943 748.532 94.1666 748.821 94.1666C749.752 94.1666 750.513 93.4241 750.547 92.5008L750.549 84.25H752.606C752.606 84.428 752.622 84.6032 752.653 84.7728C752.69 84.9713 752.748 85.1627 752.823 85.3447C752.748 85.1627 752.691 84.9713 752.656 84.7728H753.206C753.206 85.4903 753.47 86.1466 753.909 86.6499C754.359 86.9447 754.892 87.1143 755.467 87.1143V87.5731C755.659 87.6148 755.859 87.6371 756.067 87.6371V89.6949C755.001 89.6949 754.011 89.3529 753.206 88.7745V92.9597C753.206 95.0509 751.505 96.75 749.419 96.75C748.327 96.75 747.34 96.2828 746.648 95.5403C745.67 94.8534 745.031 93.7188 745.031 92.4369C745.031 90.3456 746.729 88.6466 748.816 88.6493C748.991 88.6493 749.16 88.6632 749.327 88.6855Z" fill="white"/>
<path fill-rule="evenodd" clip-rule="evenodd" d="M746.206 90.9547C746.215 90.9396 746.225 90.9246 746.234 90.9097C746.308 90.795 746.388 90.6845 746.474 90.5788C746.377 90.6983 746.288 90.8238 746.206 90.9547Z" fill="white"/>
<path fill-rule="evenodd" clip-rule="evenodd" d="M748.818 90.7044C748.995 90.7044 749.164 90.7346 749.327 90.7842V90.7878C749.166 90.7377 748.993 90.7072 748.816 90.7072C748.342 90.7072 747.912 90.899 747.599 91.2093C747.912 90.8974 748.343 90.7044 748.818 90.7044ZM747.599 91.2093C747.285 91.5226 747.09 91.956 747.09 92.4341C747.09 93.0987 747.468 93.6771 748.018 93.9663C748.174 94.1856 748.381 94.367 748.621 94.4932C748.381 94.3673 748.174 94.1868 748.015 93.9691C747.465 93.6771 747.087 93.1015 747.087 92.4369C747.087 91.9574 747.283 91.5229 747.599 91.2093ZM752.823 85.3447C753.04 85.87 753.411 86.3167 753.878 86.6295C753.411 86.3167 753.042 85.87 752.823 85.3447ZM752.605 92.4369C752.605 94.5253 750.908 96.2272 748.818 96.2272C750.905 96.2272 752.605 94.5253 752.605 92.4369Z" fill="#FE2C55"/>
<g opacity="0.5">
<path fill-rule="evenodd" clip-rule="evenodd" d="M750.5 43C743.596 43 738 37.4036 738 30.5C738 23.5964 743.596 18 750.5 18C757.404 18 763 23.5964 763 30.5C763 37.4036 757.404 43 750.5 43ZM749.327 28.6855V29.1721C748.177 29.1987 747.151 29.7419 746.474 30.5788C747.151 29.7423 748.177 29.1999 749.327 29.1749V30.7842L749.33 30.785V29.1721C749.345 29.1721 749.359 29.1714 749.374 29.1707C749.389 29.17 749.403 29.1693 749.419 29.1693C749.594 29.1693 749.763 29.1832 749.93 29.2055V31.3078C749.769 31.2577 749.596 31.2272 749.419 31.2272C748.466 31.2272 747.69 32.003 747.69 32.9569C747.69 33.3351 747.813 33.6827 748.018 33.9663C748.26 34.0943 748.532 34.1666 748.821 34.1666C749.752 34.1666 750.513 33.4241 750.547 32.5008L750.549 24.25H752.606C752.606 24.428 752.622 24.6032 752.653 24.7728C752.69 24.9713 752.748 25.1627 752.823 25.3447C752.748 25.1627 752.691 24.9713 752.656 24.7728H753.206C753.206 25.4903 753.47 26.1466 753.909 26.6499C754.359 26.9447 754.892 27.1143 755.467 27.1143V27.5731C755.659 27.6148 755.859 27.6371 756.067 27.6371V29.6949C755.001 29.6949 754.011 29.3529 753.206 28.7745V32.9597C753.206 35.0509 751.505 36.75 749.419 36.75C748.327 36.75 747.34 36.2828 746.648 35.5403C745.67 34.8534 745.031 33.7188 745.031 32.4369C745.031 30.3456 746.729 28.6466 748.816 28.6493C748.991 28.6493 749.16 28.6632 749.327 28.6855Z" fill="white"/>
<path fill-rule="evenodd" clip-rule="evenodd" d="M746.206 30.9547C746.215 30.9396 746.225 30.9246 746.234 30.9097C746.308 30.795 746.388 30.6845 746.474 30.5788C746.377 30.6983 746.288 30.8238 746.206 30.9547Z" fill="white"/>
<path fill-rule="evenodd" clip-rule="evenodd" d="M748.818 30.7044C748.995 30.7044 749.164 30.7346 749.327 30.7842V30.7878C749.166 30.7377 748.993 30.7072 748.816 30.7072C748.342 30.7072 747.912 30.899 747.599 31.2093C747.912 30.8974 748.343 30.7044 748.818 30.7044ZM747.599 31.2093C747.285 31.5226 747.09 31.956 747.09 32.4341C747.09 33.0987 747.468 33.6771 748.018 33.9663C748.174 34.1856 748.381 34.367 748.621 34.4932C748.381 34.3673 748.174 34.1868 748.015 33.9691C747.465 33.6771 747.087 33.1015 747.087 32.4369C747.087 31.9574 747.283 31.5229 747.599 31.2093ZM752.823 25.3447C753.04 25.87 753.411 26.3167 753.878 26.6295C753.411 26.3167 753.042 25.87 752.823 25.3447ZM752.605 32.4369C752.605 34.5253 750.908 36.2272 748.818 36.2272C750.905 36.2272 752.605 34.5253 752.605 32.4369Z" fill="#FE2C55"/>
</g>
<defs>
<clipPath id="clip0_742_787">
<rect width="25" height="25" fill="white" transform="translate(560 17)"/>
</clipPath>
<clipPath id="clip1_742_787">
<rect width="25" height="25" fill="white" transform="translate(560 77)"/>
</clipPath>
<clipPath id="clip2_742_787">
<rect width="25" height="25" fill="white" transform="translate(618 18)"/>
</clipPath>
<clipPath id="clip3_742_787">
<rect width="25" height="25" fill="white" transform="translate(618 78)"/>
</clipPath>
<clipPath id="clip4_742_787">
<rect width="25" height="25" fill="white" transform="translate(679 18)"/>
</clipPath>
<clipPath id="clip5_742_787">
<rect width="25" height="25" fill="white" transform="translate(679 78)"/>
</clipPath>
</defs>
</svg>
