<svg width="16" height="16" viewBox="0 0 16 16" fill="none" xmlns="http://www.w3.org/2000/svg">
<path fill-rule="evenodd" clip-rule="evenodd" d="M7.61113 1.04395H9.08452C10.354 1.04394 11.3633 1.04393 12.1673 1.13103C12.9929 1.22048 13.6839 1.40843 14.2795 1.84109C14.6338 2.09854 14.9454 2.41015 15.2029 2.76449C15.3167 2.92116 15.4148 3.08617 15.499 3.26095C15.7704 3.82417 15.8875 4.46939 15.944 5.218C16 5.95907 16 6.86603 16 7.97395V8.04153C16 9.31097 16 10.3203 15.9129 11.1243C15.8235 11.9499 15.6355 12.6409 15.2029 13.2364C14.9454 13.5908 14.6338 13.9024 14.2795 14.1598C13.6839 14.5925 12.9929 14.7805 12.1673 14.8699C11.3633 14.957 10.354 14.957 9.08454 14.957H7.65217C7.26798 14.957 6.95652 14.6455 6.95652 14.2613C6.95652 13.8771 7.26798 13.5657 7.65217 13.5657H9.04348C10.3632 13.5657 11.2972 13.5647 12.0174 13.4867C12.7246 13.4101 13.1429 13.2659 13.4617 13.0343C13.6979 12.8626 13.9056 12.6549 14.0773 12.4187C14.3089 12.0998 14.4531 11.6816 14.5297 10.9744C14.6077 10.2542 14.6087 9.32022 14.6087 8.00047C14.6087 6.86045 14.6082 6.00548 14.5567 5.32282C14.5453 5.17192 14.5315 5.03269 14.5153 4.90373L13.7219 5.69713C12.5937 6.82533 11.697 7.7221 10.9 8.33017C10.0783 8.9571 9.28146 9.34233 8.34783 9.34233C7.4142 9.34233 6.61732 8.9571 5.79564 8.33018C4.99866 7.7221 4.10191 6.82533 2.97372 5.69712L2.18033 4.90373C2.16411 5.03269 2.15038 5.17192 2.13898 5.32282C2.08741 6.00548 2.08696 6.86045 2.08696 8.00047C2.08696 8.38467 1.7755 8.69612 1.3913 8.69612C1.00711 8.69612 0.695652 8.38467 0.695652 8.00047V7.97398C0.695649 6.86604 0.695646 5.95907 0.751631 5.21801C0.808187 4.46939 0.925241 3.82417 1.19663 3.26095C1.28085 3.08617 1.37898 2.92116 1.4928 2.76449C1.75024 2.41015 2.06186 2.09854 2.4162 1.84109C3.01171 1.40843 3.70278 1.22048 4.52838 1.13103C5.33232 1.04393 6.34168 1.04394 7.61113 1.04395ZM2.70879 3.46459L3.92072 4.67652C5.09405 5.84985 5.9256 6.67931 6.63958 7.22406C7.3375 7.75656 7.84071 7.95103 8.34783 7.95103C8.85494 7.95103 9.35815 7.75656 10.0561 7.22406C10.77 6.67931 11.6016 5.84985 12.7749 4.67652L13.9869 3.46459C13.8344 3.27663 13.6578 3.1092 13.4617 2.96668C13.1429 2.73505 12.7246 2.59086 12.0174 2.51424C11.2972 2.4362 10.3632 2.43525 9.04348 2.43525H7.65217C6.33242 2.43525 5.39849 2.4362 4.67824 2.51424C3.97101 2.59086 3.5528 2.73505 3.23399 2.96668C3.03782 3.1092 2.8613 3.27663 2.70879 3.46459ZM0 10.7831C0 10.3989 0.311454 10.0874 0.695652 10.0874H2.78261C3.16681 10.0874 3.47826 10.3989 3.47826 10.7831C3.47826 11.1673 3.16681 11.4787 2.78261 11.4787H0.695652C0.311454 11.4787 0 11.1673 0 10.7831ZM0 12.87C0 12.4858 0.311454 12.1744 0.695652 12.1744H4.86957C5.25376 12.1744 5.56522 12.4858 5.56522 12.87C5.56522 13.2542 5.25376 13.5657 4.86957 13.5657H0.695652C0.311454 13.5657 0 13.2542 0 12.87Z" fill="white"/>
</svg>
