<svg width="219" height="73" viewBox="0 0 219 73" fill="none" xmlns="http://www.w3.org/2000/svg">
<g opacity="0.05">
<rect x="1" y="1" width="71" height="71" rx="35.5" fill="#051B45"/>
</g>
<g opacity="0.05">
<rect x="10" y="10" width="53" height="53" rx="26.5" fill="#051B45"/>
</g>
<rect x="20" y="20" width="33" height="33" rx="16.5" fill="#272D37"/>
<path d="M37 43L37 30M37 30L32 35M37 30L42 35" stroke="white" stroke-width="2" stroke-linecap="round" stroke-linejoin="round"/>
<g opacity="0.05">
<rect x="74" y="1" width="71" height="71" rx="35.5" fill="#051B45"/>
</g>
<g opacity="0.05">
<rect x="82" y="9" width="55" height="55" rx="27.5" fill="#051B45"/>
</g>
<g opacity="0.9">
<rect x="93" y="20" width="33" height="33" rx="16.5" fill="#272D37"/>
</g>
<path opacity="0.9" d="M110 43L110 30M110 30L105 35M110 30L115 35" stroke="white" stroke-width="2" stroke-linecap="round" stroke-linejoin="round"/>
<g opacity="0.1">
<rect x="147" y="1" width="71" height="71" rx="35.5" fill="#051B45"/>
</g>
<g opacity="0.1">
<rect x="155" y="9" width="55" height="55" rx="27.5" fill="#051B45"/>
</g>
<rect x="166" y="20" width="33" height="33" rx="16.5" fill="#272D37"/>
<path d="M183 42L183 29M183 29L178 34M183 29L188 34" stroke="white" stroke-width="2" stroke-linecap="round" stroke-linejoin="round"/>
</svg>
