<svg width="16" height="17" viewBox="0 0 16 17" fill="none" xmlns="http://www.w3.org/2000/svg">
<path d="M8 15C7.88482 15 7.76964 14.9631 7.67321 14.8893C7.38071 14.664 0.5 10.7715 0.5 6.27984C0.5 3.92004 2.42268 2 4.78571 2C7.14875 2 8.75 3.97354 8.75 6.33333C8.75 6.69444 8.46783 7.05556 8 7.05556C7.53217 7.05556 7.25 6.69444 7.25 6.33333C7.25 4.56309 6.55839 3.44444 4.78571 3.44444C3.01304 3.44444 2 4.50959 2 6.27984C2 9.73955 6.64839 12.4503 8 13.5556C9.35107 12.4503 14 9.7358 14 6.27984C14 4.50959 12.987 3.44444 11.2143 3.44444C10.7348 3.44444 10.2736 3.54716 9.84339 3.74938C9.57554 3.87564 8.97348 3.91928 8.75 3.44444C8.54615 3.01131 9.11911 2.53337 9.38643 2.40712C9.96071 2.13695 10.5757 2 11.2143 2C13.5773 2 15.5 3.92004 15.5 6.27984C15.5 10.7715 8.61929 14.664 8.32679 14.8893C8.23036 14.9631 8.11518 15 8 15Z" fill="#425576"/>
</svg>
