<svg width="310" height="14" viewBox="0 0 310 14" fill="none" xmlns="http://www.w3.org/2000/svg">
<g clip-path="url(#clip0_581_2047)">
<mask id="path-1-inside-1_581_2047" fill="white">
<path d="M0 0H310V14H0V0Z"/>
</mask>
<path d="M0 0H310V14H0V0Z" fill="#1680E2"/>
<path d="M0 0H310V14H0V0Z" fill="url(#paint0_linear_581_2047)" fill-opacity="0.2"/>
<path fill-rule="evenodd" clip-rule="evenodd" d="M-35 21L-10 -4L-8.58579 -2.58579L-33.5858 22.4142L-35 21Z" fill="white" fill-opacity="0.1"/>
<path fill-rule="evenodd" clip-rule="evenodd" d="M-15 21L10 -4L11.4142 -2.58579L-13.5858 22.4142L-15 21Z" fill="white" fill-opacity="0.1"/>
<path fill-rule="evenodd" clip-rule="evenodd" d="M5 21L30 -4L31.4142 -2.58579L6.41422 22.4142L5 21Z" fill="white" fill-opacity="0.1"/>
<path fill-rule="evenodd" clip-rule="evenodd" d="M25 21L50 -4L51.4142 -2.58579L26.4142 22.4142L25 21Z" fill="white" fill-opacity="0.1"/>
<path fill-rule="evenodd" clip-rule="evenodd" d="M45 21L70 -4L71.4142 -2.58579L46.4142 22.4142L45 21Z" fill="white" fill-opacity="0.1"/>
<path fill-rule="evenodd" clip-rule="evenodd" d="M65 21L90 -4L91.4142 -2.58579L66.4142 22.4142L65 21Z" fill="white" fill-opacity="0.1"/>
<path fill-rule="evenodd" clip-rule="evenodd" d="M85 21L110 -4L111.414 -2.58579L86.4142 22.4142L85 21Z" fill="white" fill-opacity="0.1"/>
<path fill-rule="evenodd" clip-rule="evenodd" d="M105 21L130 -4L131.414 -2.58579L106.414 22.4142L105 21Z" fill="white" fill-opacity="0.1"/>
<path fill-rule="evenodd" clip-rule="evenodd" d="M125 21L150 -4L151.414 -2.58579L126.414 22.4142L125 21Z" fill="white" fill-opacity="0.1"/>
<path fill-rule="evenodd" clip-rule="evenodd" d="M145 21L170 -4L171.414 -2.58579L146.414 22.4142L145 21Z" fill="white" fill-opacity="0.1"/>
<path fill-rule="evenodd" clip-rule="evenodd" d="M165 21L190 -4L191.414 -2.58579L166.414 22.4142L165 21Z" fill="white" fill-opacity="0.1"/>
<path fill-rule="evenodd" clip-rule="evenodd" d="M185 21L210 -4L211.414 -2.58579L186.414 22.4142L185 21Z" fill="white" fill-opacity="0.1"/>
<path fill-rule="evenodd" clip-rule="evenodd" d="M205 21L230 -4L231.414 -2.58579L206.414 22.4142L205 21Z" fill="white" fill-opacity="0.1"/>
<path fill-rule="evenodd" clip-rule="evenodd" d="M225 21L250 -4L251.414 -2.58579L226.414 22.4142L225 21Z" fill="white" fill-opacity="0.1"/>
<path fill-rule="evenodd" clip-rule="evenodd" d="M245 21L270 -4L271.414 -2.58579L246.414 22.4142L245 21Z" fill="white" fill-opacity="0.1"/>
<path fill-rule="evenodd" clip-rule="evenodd" d="M265 21L290 -4L291.414 -2.58579L266.414 22.4142L265 21Z" fill="white" fill-opacity="0.1"/>
<path fill-rule="evenodd" clip-rule="evenodd" d="M285 21L310 -4L311.414 -2.58579L286.414 22.4142L285 21Z" fill="white" fill-opacity="0.1"/>
<path fill-rule="evenodd" clip-rule="evenodd" d="M305 21L330 -4L331.414 -2.58579L306.414 22.4142L305 21Z" fill="white" fill-opacity="0.1"/>
<path fill-rule="evenodd" clip-rule="evenodd" d="M325 21L350 -4L351.414 -2.58579L326.414 22.4142L325 21Z" fill="white" fill-opacity="0.1"/>
<path fill-rule="evenodd" clip-rule="evenodd" d="M345 21L370 -4L371.414 -2.58579L346.414 22.4142L345 21Z" fill="white" fill-opacity="0.1"/>
<path fill-rule="evenodd" clip-rule="evenodd" d="M-45 21L-20 -4L-18.5858 -2.58579L-43.5858 22.4142L-45 21Z" fill="white" fill-opacity="0.1"/>
<path fill-rule="evenodd" clip-rule="evenodd" d="M-25 21L0 -4L1.41421 -2.58579L-23.5858 22.4142L-25 21Z" fill="white" fill-opacity="0.1"/>
<path fill-rule="evenodd" clip-rule="evenodd" d="M-5 21L20 -4L21.4142 -2.58579L-3.58578 22.4142L-5 21Z" fill="white" fill-opacity="0.1"/>
<path fill-rule="evenodd" clip-rule="evenodd" d="M15 21L40 -4L41.4142 -2.58579L16.4142 22.4142L15 21Z" fill="white" fill-opacity="0.1"/>
<path fill-rule="evenodd" clip-rule="evenodd" d="M35 21L60 -4L61.4142 -2.58579L36.4142 22.4142L35 21Z" fill="white" fill-opacity="0.1"/>
<path fill-rule="evenodd" clip-rule="evenodd" d="M55 21L80 -4L81.4142 -2.58579L56.4142 22.4142L55 21Z" fill="white" fill-opacity="0.1"/>
<path fill-rule="evenodd" clip-rule="evenodd" d="M75 21L100 -4L101.414 -2.58579L76.4142 22.4142L75 21Z" fill="white" fill-opacity="0.1"/>
<path fill-rule="evenodd" clip-rule="evenodd" d="M95 21L120 -4L121.414 -2.58579L96.4142 22.4142L95 21Z" fill="white" fill-opacity="0.1"/>
<path fill-rule="evenodd" clip-rule="evenodd" d="M115 21L140 -4L141.414 -2.58579L116.414 22.4142L115 21Z" fill="white" fill-opacity="0.1"/>
<path fill-rule="evenodd" clip-rule="evenodd" d="M135 21L160 -4L161.414 -2.58579L136.414 22.4142L135 21Z" fill="white" fill-opacity="0.1"/>
<path fill-rule="evenodd" clip-rule="evenodd" d="M155 21L180 -4L181.414 -2.58579L156.414 22.4142L155 21Z" fill="white" fill-opacity="0.1"/>
<path fill-rule="evenodd" clip-rule="evenodd" d="M175 21L200 -4L201.414 -2.58579L176.414 22.4142L175 21Z" fill="white" fill-opacity="0.1"/>
<path fill-rule="evenodd" clip-rule="evenodd" d="M195 21L220 -4L221.414 -2.58579L196.414 22.4142L195 21Z" fill="white" fill-opacity="0.1"/>
<path fill-rule="evenodd" clip-rule="evenodd" d="M215 21L240 -4L241.414 -2.58579L216.414 22.4142L215 21Z" fill="white" fill-opacity="0.1"/>
<path fill-rule="evenodd" clip-rule="evenodd" d="M235 21L260 -4L261.414 -2.58579L236.414 22.4142L235 21Z" fill="white" fill-opacity="0.1"/>
<path fill-rule="evenodd" clip-rule="evenodd" d="M255 21L280 -4L281.414 -2.58579L256.414 22.4142L255 21Z" fill="white" fill-opacity="0.1"/>
<path fill-rule="evenodd" clip-rule="evenodd" d="M275 21L300 -4L301.414 -2.58579L276.414 22.4142L275 21Z" fill="white" fill-opacity="0.1"/>
<path fill-rule="evenodd" clip-rule="evenodd" d="M295 21L320 -4L321.414 -2.58579L296.414 22.4142L295 21Z" fill="white" fill-opacity="0.1"/>
<path fill-rule="evenodd" clip-rule="evenodd" d="M315 21L340 -4L341.414 -2.58579L316.414 22.4142L315 21Z" fill="white" fill-opacity="0.1"/>
<path fill-rule="evenodd" clip-rule="evenodd" d="M335 21L360 -4L361.414 -2.58579L336.414 22.4142L335 21Z" fill="white" fill-opacity="0.1"/>
</g>
<path d="M310 13H0V15H310V13Z" fill="black" fill-opacity="0.2" mask="url(#path-1-inside-1_581_2047)"/>
<defs>
<linearGradient id="paint0_linear_581_2047" x1="296.5" y1="-5.50005" x2="155" y2="14" gradientUnits="userSpaceOnUse">
<stop stop-color="white"/>
<stop offset="1" stop-color="white" stop-opacity="0"/>
</linearGradient>
<clipPath id="clip0_581_2047">
<path d="M0 0H310V14H0V0Z" fill="white"/>
</clipPath>
</defs>
</svg>
